<svg viewBox="0 0 450 200" xmlns="http://www.w3.org/2000/svg" fill-rule="evenodd" clip-rule="evenodd" stroke-linejoin="round" stroke-miterlimit="2"><path d="M95.195 69.042h27.596v65.84l-27.596-65.84zm-19.454 0H48.12v65.84l27.62-65.84zM85.464 93.3l17.59 41.58H91.528l-5.27-13.244H73.383L85.464 93.3" fill="#ed1c24" fill-rule="nonzero"/><path d="M187.128 106.734c-2.113-6.733-8.344-23.621-10.254-30.457h-.1c-1.608 6.333-6.534 19.502-10.254 30.457h20.608zm-22.52 6.837l-7.236 20.707c-.101.403-.301.603-.804.603h-7.238c-.604 0-.706-.3-.604-.803 5.63-15.683 15.28-42.724 21.714-60.214.2-.804.502-1.507.603-4.222 0-.4.2-.601.603-.601H181.9c.402 0 .502.1.604.501 7.639 20.909 15.68 43.426 23.319 64.536.2.502.1.803-.402.803h-8.14c-.404 0-.604-.2-.705-.603l-7.538-20.707h-24.425m77.34-20.105c-1.708-1.004-4.323-1.708-7.74-1.708-10.856 0-17.09 7.64-17.09 18.898 0 13.672 8.245 18.595 16.388 18.595 3.116 0 6.232-.401 8.443-1.608V93.466zm-33.875 17.493c0-14.779 10.454-25.534 26.337-25.534 3.315 0 5.63.3 7.539 1.005V64.716c0-.4.2-.602.602-.602h7.64c.503 0 .602.2.602.602v61.018c0 1.608.1 3.719.201 4.925 0 .402 0 .703-.503.903-5.528 2.917-11.86 4.324-17.89 4.324-14.074 0-24.528-8.243-24.528-24.927m59.135-.503c0 11.056 5.126 19.097 14.575 19.097 7.037 0 13.87-5.427 13.87-18.797 0-10.354-4.218-18.998-14.473-18.998-8.343 0-13.972 7.036-13.972 18.696v.002zm37.394.1c0 15.48-9.35 25.33-23.02 25.33-16.584 0-23.321-12.766-23.321-25.23 0-14.476 9.147-25.23 23.42-25.23 14.377 0 22.921 10.553 22.921 25.128m26.647-18.494c-3.82 0-7.137 1.005-10.052 2.613v33.072c2.615 1.306 5.63 1.808 8.647 1.808 8.342 0 16.08-5.828 16.08-19.5 0-11.259-5.328-17.995-14.675-17.995v.002zm-10.755-27.946c.5 0 .703.1.703.602v23.322c3.419-1.608 6.936-2.613 11.56-2.613 13.67 0 22.215 9.85 22.215 23.924 0 17.591-12.062 26.537-25.633 26.537-6.734 0-11.961-1.306-16.385-3.317-.401-.1-.603-.504-.603-.805V64.716c0-.4.202-.602.603-.602h7.54m66.505 41.715c4.825 0 6.03-.1 6.331-.2.102-.302.102-1.508.102-1.81 0-4.723-2.313-12.262-11.46-12.262-7.94 0-12.063 6.734-12.766 14.272h17.793zm-17.894 5.431c-.3 10.554 5.23 17.791 16.386 17.791 4.422 0 8.544-.704 12.364-2.612.3-.202.503-.1.503.4v5.226c0 .504-.1.704-.503.905-3.419 1.811-8.042 2.916-14.074 2.916-17.59 0-23.622-12.363-23.622-24.826 0-14.075 8.144-25.535 22.215-25.535 14.475 0 19.501 11.057 19.501 19.701 0 2.314-.1 3.822-.303 4.927-.098.401-.3.704-.801.704-1.508.203-5.832.403-10.355.403h-21.311" fill="#fff" fill-rule="nonzero"/></svg>