<svg viewBox="0 0 450 200" xmlns="http://www.w3.org/2000/svg" fill-rule="evenodd" clip-rule="evenodd" stroke-linejoin="round" stroke-miterlimit="2"><g transform="matrix(0.809929,0,0,0.809929,225,100)"><g transform="matrix(1,0,0,1,-131.53,-47.72)"><clipPath id="a"><rect width="263.06" height="95.44"/></clipPath><g clip-path="url(#a)"><path d="M224.42,41.8L256.78,29.1L263.04,26.65C261.088,21.677 258.195,17.127 254.52,13.25L254.26,12.97C246.635,5.066 236.189,0.485 225.21,0.23L225.08,6.92L224.42,41.8M227.54,34.8L228,10.12C229.033,10.24 230.053,10.41 231.06,10.63C232.06,10.85 233.06,11.12 234.06,11.43C238.245,12.781 242.108,14.976 245.41,17.88L227.54,34.8Z" fill="#fff" fill-rule="nonzero"/><path d="M248.5,75.81L246,73.34L243.53,70.87C237.437,77.093 229.118,80.652 220.41,80.76L220,80.76C211.362,80.753 203.062,77.354 196.9,71.3C193.856,68.302 191.416,64.747 189.71,60.83C187.924,56.697 187.003,52.242 187.003,47.74C187.003,29.638 201.898,14.742 220,14.74L220.42,14.74L220.42,0.08L220,0.08C193.842,0.085 172.319,21.612 172.319,47.77C172.319,54.19 173.615,60.543 176.13,66.45C181.046,77.882 190.22,86.967 201.7,91.77C207.496,94.195 213.717,95.443 220,95.44L220.42,95.44C233.017,95.332 245.07,90.225 253.91,81.25L248.5,75.81Z" fill="#fff" fill-rule="nonzero"/><path d="M53.35,0L36.83,0L0,94.78L16.38,94.78L25.05,72.3L65.13,72.3L73.79,94.78L90.18,94.78L53.35,0ZM30.87,57.41L45.09,20.41L59.31,57.41L30.87,57.41Z" fill="#fff" fill-rule="nonzero"/><path d="M101,0L132.14,0C151,0 163.58,12.19 163.58,29.52C163.58,43.74 156,54.57 142.46,57.95L166.15,94.78L147.15,94.78L124.72,59L117.28,59L117.28,94.78L101,94.78L101,0ZM147,29.52C147,20.17 140.5,15.44 130.07,15.44L117.28,15.44L117.28,43.6L130.13,43.6C140.56,43.6 147.06,38.86 147.06,29.52L147,29.52Z" fill="#fff" fill-rule="nonzero"/></g></g></g></svg>