<svg viewBox="0 0 450 200" xmlns="http://www.w3.org/2000/svg" fill-rule="evenodd" clip-rule="evenodd" stroke-miterlimit="10"><path d="M605.09,135.3L605.09,235.39L718.67,235.39L718.67,280.86L605.09,280.86L605.09,405.62L555.47,405.62L555.47,88.7L729.9,88.7L729.9,135.3L605.09,135.3Z" fill="#fff" fill-rule="nonzero" transform="matrix(0.182469,0,0,0.182469,72,54.3842)"/><path d="M999.41,172.21L999.41,405.49L960.74,405.49L956.07,377.13C934.94,398.49 905.47,411.3 871.47,411.3C802,411.3 750,358.77 750,288.85C750,218.74 802,166.65 871.46,166.65C905.85,166.65 935.61,179.65 956.79,201.37L962.39,172.2L999.41,172.21ZM951.35,288.85C951.35,244.85 919.21,212.31 875.24,212.31C831.27,212.31 798.82,245.19 798.82,288.85C798.82,332.51 831.27,365.39 875.24,365.39C919.21,365.39 951.35,332.82 951.35,288.85" fill="#fff" fill-rule="nonzero" transform="matrix(0.182469,0,0,0.182469,72,54.3842)"/><path d="M1305.27,289C1305.27,358.91 1254.66,411.32 1183.99,411.32C1151.26,411.32 1122.62,399.32 1101.64,379.16L1095.47,405.64L1059.2,405.64L1059.2,88.7L1107.2,88.7L1107.2,193.75C1127.56,176.63 1154.09,166.65 1184.04,166.65C1254.71,166.65 1305.32,218.74 1305.32,288.98M1256.38,288.98C1256.38,244.98 1224.24,212.44 1180.27,212.44C1136.3,212.44 1103.86,245.32 1103.86,288.98C1103.86,332.21 1136.3,365.39 1180.27,365.39C1224.24,365.39 1256.38,332.83 1256.38,288.98" fill="#fff" fill-rule="nonzero" transform="matrix(0.182469,0,0,0.182469,72,54.3842)"/><rect x="1347.77" y="88.71" width="47.96" height="316.91" fill="#fff" transform="matrix(0.182469,0,0,0.182469,72,54.3842)"/><path d="M1677,289.53C1676.94,294.79 1676.61,300.044 1676,305.27L1486.64,305.27C1492.64,343.08 1519.85,366.32 1558.04,366.32C1585.92,366.32 1608.48,353.43 1620.82,332.16L1671.3,332.16C1652.73,381.41 1610.14,411.29 1558.05,411.29C1489.86,411.29 1438.19,358.65 1438.19,288.97C1438.19,219.29 1489.72,166.65 1558.05,166.65C1629.45,166.65 1676.99,221.65 1676.99,289.53L1677,289.53ZM1487.86,266.31L1628.91,266.31C1620.31,230.88 1593.6,209.96 1558.06,209.96C1521.99,209.96 1495.72,231.71 1487.86,266.31" fill="#fff" fill-rule="nonzero" transform="matrix(0.182469,0,0,0.182469,72,54.3842)"/><path d="M123.45,284.93L123.45,407.43C141.701,421.159 162.789,430.644 185.17,435.19L185.17,284.93L123.45,284.93Z" fill="url(#_Linear1)" fill-rule="nonzero" transform="matrix(0.182469,0,0,0.182469,72,54.3842)"/><path d="M123.45,284.93L123.45,407.43C141.701,421.159 162.789,430.644 185.17,435.19L185.17,284.93L123.45,284.93Z" fill="url(#_Linear2)" fill-rule="nonzero" transform="matrix(-0.182469,0,0,0.182469,150.94,54.3842)"/><path d="M0,0L0,285C0,288.36 0.09,291.7 0.26,295C0.37,297.23 0.58,299.42 0.76,301.63C0.87,303.03 0.94,304.45 1.08,305.85C1.35,308.58 1.72,311.29 2.08,313.99C2.19,314.83 2.27,315.68 2.4,316.52C2.87,319.6 3.4,322.65 4.02,325.68C4.1,326.12 4.16,326.56 4.25,326.99C4.917,330.323 5.673,333.657 6.52,336.99C6.52,337.09 6.57,337.2 6.59,337.3C23.901,404.937 72.909,460.18 138,485.43L138.13,485.49C188.194,504.817 243.706,504.817 293.77,485.49L294.06,485.37C355.676,461.429 403.051,410.539 422.53,347.37L422.58,347.19C423.58,343.923 424.507,340.623 425.36,337.29C425.43,336.99 425.49,336.68 425.57,336.37C426.34,333.27 427.07,330.15 427.71,326.99C427.82,326.43 427.9,325.86 428.01,325.3C428.57,322.38 429.11,319.46 429.56,316.5C429.7,315.57 429.79,314.63 429.92,313.69C430.28,311.08 430.64,308.47 430.92,305.84C431.07,304.35 431.15,302.84 431.27,301.33C431.43,299.22 431.63,297.11 431.74,294.98C431.91,291.67 431.98,288.33 432,284.98L432,0L0,0ZM370.33,92.58L370.33,284C370.33,284.013 370.33,284.025 370.33,284.038C370.33,368.673 300.686,438.318 216.05,438.318C182.656,438.318 150.148,427.475 123.44,407.43C84.594,378.335 61.692,332.534 61.72,284L61.72,94.09C61.72,78.95 71.93,64.93 86.83,62.24C88.719,61.883 90.637,61.704 92.56,61.704C109.499,61.704 123.438,75.641 123.44,92.58L123.44,284.93L185.16,284.93L185.16,94.09C185.16,78.95 195.37,64.93 210.27,62.24C212.159,61.883 214.077,61.704 216,61.704C232.941,61.704 246.882,75.64 246.89,92.58L246.89,284.93L308.61,284.93L308.61,92.58C308.61,75.651 322.541,61.72 339.47,61.72C356.399,61.72 370.33,75.651 370.33,92.58Z" fill="#fff" fill-rule="nonzero" stroke="#fff" stroke-width="1px" transform="matrix(0.182469,0,0,0.182469,72,54.3842)"/><defs><linearGradient id="_Linear1" x1="0" y1="0" x2="1" y2="0" gradientUnits="userSpaceOnUse" gradientTransform="matrix(9.20077e-15,150.26,-150.26,9.20077e-15,154.31,284.93)"><stop offset="0" stop-color="#fff"/><stop offset="1" stop-color="#fff" stop-opacity="0"/></linearGradient><linearGradient id="_Linear2" x1="0" y1="0" x2="1" y2="0" gradientUnits="userSpaceOnUse" gradientTransform="matrix(9.20077e-15,150.26,-150.26,9.20077e-15,154.31,284.93)"><stop offset="0" stop-color="#fff"/><stop offset="1" stop-color="#fff" stop-opacity="0"/></linearGradient></defs></svg>