<?xml version="1.0" encoding="UTF-8" standalone="no"?>
<!DOCTYPE svg PUBLIC "-//W3C//DTD SVG 1.1//EN" "http://www.w3.org/Graphics/SVG/1.1/DTD/svg11.dtd">
<svg width="100%" height="100%" viewBox="0 0 450 200" version="1.1" xmlns="http://www.w3.org/2000/svg" xmlns:xlink="http://www.w3.org/1999/xlink" xml:space="preserve" xmlns:serif="http://www.serif.com/" style="fill-rule:evenodd;clip-rule:evenodd;stroke-linejoin:round;stroke-miterlimit:2;">
    <g transform="matrix(1.3488,0,0,1.3488,122.892,-4.25633)">
        <g transform="matrix(0.942948,0,0,0.941518,63.3892,96.3473)">
            <g transform="matrix(1,7.65714e-16,7.65714e-16,-1,-2.13163e-14,56.0076)">
                <path d="M28.2,28.004L39.653,28.004L41.222,34.837L40.97,34.921L40.802,34.585C39.597,31.868 39.065,30.888 38.561,30.888L31,30.916L31,31C36.349,34.501 38.785,35.789 38.785,38.365C38.785,40.437 36.937,41.978 34.333,41.978C31.448,41.978 29.152,40.325 28.06,37.469L28.256,37.385C28.928,38.897 30.132,39.541 31.616,39.541C33.381,39.541 34.697,38.309 34.697,36.517C34.697,33.857 32.904,32.764 28.004,29.292L28.2,28.004Z" style="fill:white;fill-rule:nonzero;"/>
            </g>
            <g transform="matrix(1,7.65714e-16,7.65714e-16,-1,42.3137,28.3398)">
                <path d="M7.421,0C11.594,0 15.178,2.884 15.178,7.253C15.178,11.566 11.902,14.366 7.757,14.366C3.612,14.366 0,11.426 0,7.141C0,2.772 3.304,0 7.421,0M7.505,0.28C5.377,0.28 4.201,2.436 4.201,7.281C4.201,11.286 5.657,14.142 7.617,14.142C9.829,14.142 10.977,11.93 10.977,7.085C10.977,3.164 9.493,0.28 7.505,0.28Z" style="fill:white;fill-rule:nonzero;"/>
            </g>
            <g transform="matrix(1,7.65714e-16,7.65714e-16,-1,30.2161,56.0076)">
                <path d="M28.2,28.004L39.653,28.004L41.222,34.837L40.97,34.921L40.802,34.585C39.597,31.868 39.065,30.888 38.561,30.888L31,30.916L31,31C36.349,34.501 38.785,35.789 38.785,38.365C38.785,40.437 36.937,41.978 34.333,41.978C31.448,41.978 29.152,40.325 28.06,37.469L28.256,37.385C28.928,38.897 30.132,39.541 31.616,39.541C33.381,39.541 34.697,38.309 34.697,36.517C34.697,33.857 32.904,32.764 28.004,29.292L28.2,28.004Z" style="fill:white;fill-rule:nonzero;"/>
            </g>
            <g transform="matrix(1,7.65714e-16,7.65714e-16,-1,44.386,56.0076)">
                <path d="M28.396,28.004L36.713,28.004L36.629,28.172L36.237,28.2C35.257,28.256 34.669,28.34 34.669,28.564L34.669,41.866L28.088,40.802L28.004,40.577L30.356,40.353L30.356,28.62C30.356,28.284 29.88,28.228 28.984,28.2L28.48,28.172L28.396,28.004Z" style="fill:white;fill-rule:nonzero;"/>
            </g>
        </g>
        <g transform="matrix(0.942948,0,0,0.941518,9.79901,25.5355)">
            <g transform="matrix(1,7.65714e-16,7.65714e-16,-1,-1.39658e-14,40.3255)">
                <path d="M6.621,20.003L6.901,20.003L10.481,29.164L10.501,29.164L13.922,20.003L14.202,20.003L17.702,29.324C18.743,32.084 18.663,32.484 20.203,32.664L20.523,32.704L20.583,32.824L16.202,32.824L16.262,32.704L16.682,32.664C18.823,32.464 18.422,31.884 17.482,29.324L15.662,24.423L15.622,24.423L13.042,31.584C12.662,32.444 12.942,32.644 13.942,32.684L14.542,32.704L14.602,32.824L7.661,32.824L7.721,32.704L8.301,32.664C9.041,32.624 9.401,32.024 10.081,30.244L10.381,29.424L8.341,24.203L8.301,24.203L5.161,31.784C4.941,32.384 4.861,32.644 5.961,32.684L6.601,32.704L6.661,32.824L0,32.824L0.06,32.704L0.44,32.664C1.26,32.584 1.54,32.264 2.36,30.224L6.621,20.003Z" style="fill:white;fill-rule:nonzero;"/>
            </g>
            <g transform="matrix(1,7.65714e-16,7.65714e-16,-1,18.4425,20.3227)">
                <path d="M4.301,0C6.461,0 7.801,1.1 8.561,3.08L8.441,3.14C7.961,2.1 7.161,1.58 6.021,1.58C4.161,1.58 3.02,3.12 3.02,5.241C3.02,5.481 3,5.861 3.04,6.101C4.161,6.061 8.441,6.001 8.441,6.001C8.461,6.121 8.481,6.241 8.481,6.381C8.481,7.621 7.461,9.281 4.901,9.281C2.2,9.281 0,7.261 0,4.461C0,1.94 1.84,0 4.301,0M3.06,6.321C3.22,8.061 3.921,9.001 4.621,9.001C5.641,9.001 5.861,7.521 5.861,6.321L3.06,6.321Z" style="fill:white;fill-rule:nonzero;"/>
            </g>
            <g transform="matrix(1,7.65714e-16,7.65714e-16,-1,26.6436,20.4428)">
                <path d="M1.28,0L1.4,0L3.02,0.78L3.04,0.78C3.941,0.44 4.861,0.16 5.941,0.16C8.161,0.16 10.921,1.68 10.921,4.981C10.921,7.441 9.301,9.281 7.321,9.281C6.081,9.281 4.901,8.401 4.181,7.421L4.101,7.481L4.101,13.902L0.02,12.902L0,12.822L0.46,12.702C1.16,12.522 1.28,12.362 1.28,11.162L1.28,0M6.141,0.36C5.521,0.36 4.661,1.16 4.101,2.16L4.101,7.161C4.541,7.501 4.961,7.841 5.661,7.841C7.021,7.841 7.841,6.341 7.841,4.261C7.841,2.14 7.241,0.36 6.141,0.36Z" style="fill:white;fill-rule:nonzero;"/>
            </g>
            <g transform="matrix(1,7.65714e-16,7.65714e-16,-1,41.7456,20.0027)">
                <path d="M-0,0L6.541,0C10.301,0 13.502,2.82 13.502,6.241C13.502,10.301 11.142,12.482 6.681,12.482C7.001,12.482 0.02,12.502 0.02,12.502L0.08,12.382L0.62,12.322C1.58,12.202 1.74,12.162 1.74,12.022L1.74,0.54C1.74,0.42 1.52,0.3 0.82,0.2L0.06,0.12L-0,0M6.341,0.22L5.001,0.52L5.001,12.242L5.981,12.242C8.621,12.242 9.981,10.141 9.981,5.901C9.981,2.78 8.681,0.2 6.341,0.22Z" style="fill:white;fill-rule:nonzero;"/>
            </g>
            <g transform="matrix(1,7.65714e-16,7.65714e-16,-1,55.9875,20.0027)">
                <path d="M2.62,9.941C3.721,9.941 4.321,10.781 4.321,11.582C4.321,12.402 3.721,13.222 2.62,13.222C1.54,13.222 0.92,12.402 0.92,11.582C0.92,10.781 1.54,9.941 2.62,9.941M0.14,0L5.381,0L5.321,0.12L5.161,0.14C4.241,0.24 4.121,0.26 4.121,0.42L4.121,8.881L0.02,7.741L0,7.661L0.46,7.561C1.14,7.381 1.28,7.221 1.28,5.981L1.28,0.46C1.28,0.22 1.06,0.18 0.44,0.14L0.2,0.12L0.14,0Z" style="fill:white;fill-rule:nonzero;"/>
            </g>
            <g transform="matrix(1,7.65714e-16,7.65714e-16,-1,41.8656,40.0054)">
                <path d="M20.143,20.003L25.543,20.003L25.483,20.123L25.223,20.143C24.303,20.203 24.123,20.303 24.123,20.463L24.123,24.803C24.563,26.564 24.963,27.324 25.563,27.364C25.763,26.704 26.204,26.004 27.124,26.004C27.884,26.004 28.464,26.704 28.464,27.364C28.464,28.384 27.784,28.924 26.884,28.924C25.623,28.924 24.783,27.864 24.163,25.723L24.123,25.723L24.183,28.884L20.023,27.744L20.003,27.664L20.463,27.564C21.143,27.384 21.283,27.224 21.283,25.984L21.283,20.463C21.283,20.223 21.063,20.183 20.443,20.143L20.203,20.123L20.143,20.003Z" style="fill:white;fill-rule:nonzero;"/>
            </g>
            <g transform="matrix(1,7.65714e-16,7.65714e-16,-1,70.5295,20.3227)">
                <path d="M4.301,0C6.461,0 7.801,1.1 8.561,3.08L8.441,3.14C7.961,2.1 7.161,1.58 6.021,1.58C4.161,1.58 3.02,3.12 3.02,5.241C3.02,5.481 3,5.861 3.04,6.101C4.161,6.061 8.441,6.001 8.441,6.001C8.461,6.121 8.481,6.241 8.481,6.381C8.481,7.621 7.461,9.281 4.901,9.281C2.2,9.281 0,7.261 0,4.461C0,1.94 1.84,0 4.301,0M3.06,6.321C3.22,8.061 3.921,9.001 4.621,9.001C5.641,9.001 5.861,7.521 5.861,6.321L3.06,6.321Z" style="fill:white;fill-rule:nonzero;"/>
            </g>
            <g transform="matrix(1,7.65714e-16,7.65714e-16,-1,59.8681,40.3255)">
                <path d="M24.283,20.003C26.244,20.003 27.664,21.103 28.444,23.083L28.324,23.143C27.844,22.103 27.084,21.583 25.944,21.583C24.083,21.583 23.103,22.903 23.103,25.343C23.103,27.664 23.903,28.964 25.143,28.964C25.723,28.964 26.184,28.704 26.184,28.404C26.184,28.244 25.583,27.664 25.583,27.084C25.583,26.344 26.184,25.763 26.964,25.763C27.744,25.763 28.324,26.364 28.324,27.164C28.324,28.364 26.884,29.244 24.963,29.244C22.083,29.244 20.003,27.164 20.003,24.343C20.003,21.863 21.803,20.003 24.283,20.003Z" style="fill:white;fill-rule:nonzero;"/>
            </g>
            <g transform="matrix(1,7.65714e-16,7.65714e-16,-1,68.3492,40.2054)">
                <path d="M24.203,20.003C25.543,20.003 26.484,20.723 27.484,21.763L27.404,21.843C27.064,21.523 26.624,21.223 25.803,21.223C24.683,21.223 24.223,21.763 24.263,23.303L24.323,27.664L27.024,27.664L27.344,28.824L24.363,28.824L24.383,31.184L24.283,31.184L22.583,29.984L20.723,28.704L20.003,27.624L21.663,27.604L21.563,22.883C21.543,20.903 22.343,20.003 24.203,20.003Z" style="fill:white;fill-rule:nonzero;"/>
            </g>
            <g transform="matrix(1,7.65714e-16,7.65714e-16,-1,95.8529,20.0027)">
                <path d="M2.62,9.941C3.721,9.941 4.321,10.781 4.321,11.582C4.321,12.402 3.721,13.222 2.62,13.222C1.54,13.222 0.92,12.402 0.92,11.582C0.92,10.781 1.54,9.941 2.62,9.941M0.14,0L5.381,0L5.321,0.12L5.161,0.14C4.241,0.24 4.121,0.26 4.121,0.42L4.121,8.881L0.02,7.741L0,7.661L0.46,7.561C1.14,7.381 1.28,7.221 1.28,5.981L1.28,0.46C1.28,0.22 1.06,0.18 0.44,0.14L0.2,0.12L0.14,0Z" style="fill:white;fill-rule:nonzero;"/>
            </g>
            <g transform="matrix(1,7.65714e-16,7.65714e-16,-1,101.874,20.2827)">
                <path d="M4.881,0C7.941,0 9.921,2.06 9.921,4.661C9.921,7.141 8.081,9.201 5.041,9.201C2.02,9.201 0,7.161 0,4.621C0,2.1 1.8,0 4.881,0M4.901,0.18C4.501,0.18 4.221,0.26 3.981,0.5C3.5,1.02 3.02,2.12 3.02,4.721C3.02,7.341 3.68,9.001 5.001,9.001C5.381,9.001 5.641,8.921 5.901,8.681C6.401,8.181 6.861,7.121 6.861,4.521C6.861,1.92 6.181,0.18 4.901,0.18Z" style="fill:white;fill-rule:nonzero;"/>
            </g>
            <g transform="matrix(1,7.65714e-16,7.65714e-16,-1,92.4124,40.0054)">
                <path d="M20.143,20.003L25.243,20.003L25.203,20.123L24.903,20.143C24.203,20.203 24.123,20.263 24.123,20.423L24.123,26.824C24.503,27.044 24.883,27.244 25.543,27.244C26.424,27.244 27.084,26.844 27.084,25.543L27.084,20.463C27.084,20.303 27.124,20.183 26.424,20.143L26.064,20.123L26.004,20.003L31.184,20.003L31.124,20.123L30.944,20.143C30.004,20.263 29.904,20.323 29.904,20.443L29.904,25.823C29.904,26.784 29.724,27.744 29.264,28.224C28.804,28.664 28.344,28.924 27.664,28.924C26.364,28.924 25.083,27.904 24.143,27.084L24.123,27.084L24.183,28.884L20.023,27.744L20.003,27.664L20.463,27.564C21.143,27.384 21.283,27.224 21.283,25.984L21.283,20.463C21.283,20.223 21.063,20.183 20.443,20.143L20.203,20.123L20.143,20.003Z" style="fill:white;fill-rule:nonzero;"/>
            </g>
            <g transform="matrix(1,7.65714e-16,7.65714e-16,-1,104.054,40.2854)">
                <path d="M23.203,20.003C25.843,20.003 26.944,21.483 26.944,22.983C26.944,24.683 25.463,25.243 24.203,25.803C23.063,26.264 22.063,26.664 22.063,27.564C22.063,28.464 22.603,29.004 23.463,29.004C23.883,29.004 24.223,28.864 24.543,28.684L26.404,26.244L26.484,26.284L26.384,29.024L25.463,28.844C24.943,29.024 24.163,29.184 23.503,29.184C21.443,29.184 20.023,28.044 20.023,26.244C20.023,24.683 21.203,24.083 22.703,23.483C23.803,23.023 24.783,22.623 24.783,21.643C24.783,20.743 24.203,20.183 23.263,20.183C22.003,20.183 21.443,20.843 20.623,22.203L20.083,23.023L20.003,23.063L20.063,20.543C20.803,20.263 21.943,20.003 23.203,20.003Z" style="fill:white;fill-rule:nonzero;"/>
            </g>
        </g>
        <g transform="matrix(0.942948,0,0,0.941518,11.6935,9.57275)">
            <g transform="matrix(1,7.65714e-16,7.65714e-16,-1,-3.53641e-14,96.2129)">
                <path d="M32.753,0C38.276,0 42.846,5.998 45.417,9.14L44.75,9.426C43.703,7.903 42.275,6.189 40.751,6.189C38.656,6.189 36.847,7.903 37.038,11.711L37.8,29.04C38.085,38.752 34.467,43.512 22.756,43.512C14.568,43.512 0.666,39.513 0.666,32.277C0.666,28.85 3.523,27.136 6.76,27.136C10.473,27.136 13.235,29.611 13.235,32.848C13.235,35.324 9.997,38.085 9.997,38.942C9.997,40.085 11.045,40.942 14.663,40.942C21.042,40.942 24.565,35.8 24.279,29.04L24.184,25.517C6.189,20.661 -0,16.281 -0,9.045C-0,4.57 4.285,0.095 9.807,0.095C14.948,0.095 19.138,3.904 23.803,9.331L23.994,9.14C24.851,3.523 27.802,0 32.753,0M18.567,7.522C14.948,7.522 13.139,10.283 13.139,14.092C13.139,19.138 16.091,22.28 24.279,24.47L23.613,10.283C22.185,8.76 20.661,7.522 18.567,7.522Z" style="fill:white;fill-rule:nonzero;"/>
            </g>
            <g transform="matrix(1,7.65714e-16,7.65714e-16,-1,46.1782,96.2129)">
                <path d="M32.753,0C38.276,0 42.846,5.998 45.417,9.14L44.75,9.426C43.703,7.903 42.275,6.189 40.751,6.189C38.656,6.189 36.847,7.903 37.038,11.711L37.8,29.04C38.085,38.752 34.467,43.512 22.756,43.512C14.568,43.512 0.666,39.513 0.666,32.277C0.666,28.85 3.523,27.136 6.76,27.136C10.473,27.136 13.235,29.611 13.235,32.848C13.235,35.324 9.997,38.085 9.997,38.942C9.997,40.085 11.045,40.942 14.663,40.942C21.042,40.942 24.565,35.8 24.279,29.04L24.184,25.517C6.189,20.661 0,16.281 0,9.045C0,4.57 4.285,0.095 9.807,0.095C14.948,0.095 19.138,3.904 23.803,9.331L23.994,9.14C24.851,3.523 27.802,0 32.753,0M18.567,7.522C14.948,7.522 13.139,10.283 13.139,14.092C13.139,19.138 16.091,22.28 24.279,24.47L23.613,10.283C22.185,8.76 20.661,7.522 18.567,7.522Z" style="fill:white;fill-rule:nonzero;"/>
            </g>
            <g transform="matrix(1,7.65714e-16,7.65714e-16,-1,92.3565,96.2129)">
                <path d="M32.753,0C38.276,0 42.846,5.998 45.417,9.14L44.75,9.426C43.703,7.903 42.275,6.189 40.751,6.189C38.656,6.189 36.847,7.903 37.038,11.711L37.8,29.04C38.085,38.752 34.467,43.512 22.756,43.512C14.568,43.512 0.666,39.513 0.666,32.277C0.666,28.85 3.523,27.136 6.76,27.136C10.473,27.136 13.235,29.611 13.235,32.848C13.235,35.324 9.997,38.085 9.997,38.942C9.997,40.085 11.045,40.942 14.663,40.942C21.042,40.942 24.565,35.8 24.279,29.04L24.184,25.517C6.189,20.661 0,16.281 0,9.045C0,4.57 4.285,0.095 9.807,0.095C14.948,0.095 19.138,3.904 23.803,9.331L23.994,9.14C24.851,3.523 27.802,0 32.753,0M18.567,7.522C14.948,7.522 13.139,10.283 13.139,14.092C13.139,19.138 16.091,22.28 24.279,24.47L23.613,10.283C22.185,8.76 20.661,7.522 18.567,7.522Z" style="fill:white;fill-rule:nonzero;"/>
            </g>
        </g>
        <g transform="matrix(0.942948,0,0,0.941518,2.49871,124.222)">
            <g transform="matrix(1,7.65714e-16,7.65714e-16,-1,11.2335,21.1148)">
                <path d="M5.742,1.331L5.658,1.331C4.896,0.444 4.022,0 3.037,0C2.15,0 1.422,0.257 0.853,0.77C0.284,1.297 0,1.949 0,2.725C0,4.819 1.893,5.957 5.679,6.137L5.679,6.407C5.679,7.184 5.513,7.739 5.18,8.071C4.847,8.404 4.299,8.571 3.536,8.571C2.538,8.571 1.512,8.217 0.458,7.51L0.125,9.049C1.179,9.784 2.372,10.152 3.703,10.152C4.979,10.152 5.908,9.867 6.49,9.299C7.087,8.73 7.385,7.829 7.385,6.594L7.385,2.455C7.385,2.053 7.434,1.796 7.531,1.685C7.642,1.574 7.905,1.519 8.321,1.519L8.217,0.083L8.009,0.083C7.94,0.069 7.87,0.062 7.801,0.062C7.205,0.062 6.74,0.173 6.407,0.395C6.088,0.617 5.866,0.929 5.742,1.331M5.679,2.476L5.679,5.055C4.265,4.875 3.266,4.618 2.684,4.285C2.101,3.966 1.81,3.516 1.81,2.933C1.81,2.503 1.962,2.15 2.268,1.872C2.573,1.595 2.982,1.456 3.495,1.456C4.313,1.456 5.041,1.796 5.679,2.476Z" style="fill:white;fill-rule:nonzero;"/>
            </g>
            <g transform="matrix(1,7.65714e-16,7.65714e-16,-1,-1.42109e-14,41.6056)">
                <path d="M23.278,20.803L23.278,28.791L20.865,28.021L20.803,29.582L24.963,30.955L24.963,20.803L23.278,20.803Z" style="fill:white;fill-rule:nonzero;"/>
            </g>
            <g transform="matrix(1,7.65714e-16,7.65714e-16,-1,7.13536,41.6056)">
                <path d="M23.278,20.803L23.278,28.791L20.865,28.021L20.803,29.582L24.963,30.955L24.963,20.803L23.278,20.803Z" style="fill:white;fill-rule:nonzero;"/>
            </g>
            <g transform="matrix(1,7.65714e-16,7.65714e-16,-1,12.7105,46.5567)">
                <path d="M30.622,35.282L26.815,25.65L26.17,23.944C25.726,22.765 25.248,21.947 24.735,21.489C24.221,21.032 23.583,20.803 22.821,20.803C22.21,20.803 21.538,20.969 20.803,21.302L21.302,22.883C21.912,22.578 22.418,22.425 22.821,22.425C23.195,22.425 23.514,22.571 23.778,22.862C24.055,23.14 24.346,23.681 24.651,24.485L25.234,25.962L21.531,35.282L23.362,35.282L26.128,27.876L28.812,35.282L30.622,35.282Z" style="fill:white;fill-rule:nonzero;"/>
            </g>
            <g transform="matrix(1,7.65714e-16,7.65714e-16,-1,28.167,41.9176)">
                <path d="M28.625,21.593C27.765,21.066 26.718,20.803 25.483,20.803C24,20.803 22.848,21.26 22.03,22.176C21.212,23.105 20.803,24.339 20.803,25.879C20.803,27.39 21.254,28.611 22.155,29.54C23.056,30.483 24.208,30.955 25.608,30.955C26.787,30.955 27.813,30.684 28.687,30.143L28.25,28.583C27.474,29.11 26.593,29.374 25.608,29.374C24.637,29.374 23.889,29.062 23.362,28.437C22.835,27.827 22.571,26.981 22.571,25.899C22.571,24.804 22.841,23.944 23.382,23.32C23.937,22.696 24.665,22.384 25.567,22.384C26.621,22.384 27.536,22.647 28.313,23.174L28.625,21.593Z" style="fill:white;fill-rule:nonzero;"/>
            </g>
            <g transform="matrix(1,7.65714e-16,7.65714e-16,-1,58.3519,21.1148)">
                <path d="M9.278,5.076C9.278,3.564 8.834,2.337 7.947,1.394C7.073,0.465 5.957,0 4.597,0C3.238,0 2.129,0.465 1.269,1.394C0.423,2.323 0,3.55 0,5.076C0,6.601 0.437,7.829 1.311,8.758C2.184,9.701 3.315,10.173 4.701,10.173C6.074,10.173 7.177,9.708 8.009,8.779C8.855,7.85 9.278,6.615 9.278,5.076M7.593,5.055C7.593,6.095 7.323,6.948 6.782,7.614C6.255,8.293 5.534,8.633 4.618,8.633C3.689,8.633 2.968,8.307 2.455,7.655C1.942,7.004 1.685,6.151 1.685,5.097C1.685,4.057 1.949,3.204 2.476,2.538C3.016,1.872 3.745,1.539 4.66,1.539C5.589,1.539 6.31,1.858 6.823,2.496C7.336,3.148 7.593,4.001 7.593,5.055Z" style="fill:white;fill-rule:nonzero;"/>
            </g>
            <g transform="matrix(1,7.65714e-16,7.65714e-16,-1,49.157,41.6056)">
                <path d="M28.687,20.803L26.981,20.803L26.981,26.794C26.981,27.598 26.822,28.167 26.503,28.5C26.198,28.833 25.698,28.999 25.005,28.999C24.062,28.999 23.23,28.652 22.509,27.959L22.509,20.803L20.803,20.803L20.803,30.372L22.509,30.643L22.509,29.207C23.466,30.164 24.499,30.643 25.608,30.643C26.579,30.643 27.335,30.351 27.876,29.769C28.417,29.186 28.687,28.382 28.687,27.356L28.687,20.803Z" style="fill:white;fill-rule:nonzero;"/>
            </g>
            <g transform="matrix(1,7.65714e-16,7.65714e-16,-1,58.6015,41.6056)">
                <path d="M27.522,34.824C27.522,34.81 27.487,34.671 27.418,34.408C27.349,34.144 27.279,33.881 27.21,33.617C27.141,33.368 27.106,33.25 27.106,33.264C26.454,33.541 25.948,33.68 25.587,33.68C25.102,33.68 24.741,33.52 24.506,33.201C24.284,32.882 24.173,32.369 24.173,31.662L24.173,30.33L27.189,30.33L27.127,28.791L24.173,28.791L24.173,20.803L22.467,20.803L22.467,28.77L20.803,28.895L20.886,29.977L22.446,30.435L22.467,31.641C22.509,34.068 23.556,35.282 25.608,35.282C26.218,35.282 26.856,35.129 27.522,34.824Z" style="fill:white;fill-rule:nonzero;"/>
            </g>
            <g transform="matrix(1,7.65714e-16,7.65714e-16,-1,86.6645,21.1148)">
                <path d="M1.727,4.868L1.727,4.785C1.754,3.842 2.053,3.072 2.621,2.476C3.204,1.879 3.953,1.581 4.868,1.581C5.991,1.581 6.941,1.845 7.718,2.372L8.03,0.791C7.17,0.264 6.102,0 4.826,0C3.398,0 2.233,0.465 1.331,1.394C0.444,2.323 0,3.516 0,4.972C0,6.497 0.444,7.739 1.331,8.696C2.233,9.666 3.356,10.152 4.701,10.152C5.839,10.152 6.726,9.819 7.364,9.153C8.016,8.488 8.342,7.579 8.342,6.428C8.342,5.873 8.273,5.367 8.134,4.909L1.727,4.868M1.81,6.116L6.699,6.158L6.699,6.303C6.699,7.038 6.518,7.614 6.158,8.03C5.797,8.446 5.256,8.654 4.535,8.654C3.772,8.654 3.148,8.397 2.663,7.884C2.177,7.385 1.893,6.796 1.81,6.116Z" style="fill:white;fill-rule:nonzero;"/>
            </g>
            <g transform="matrix(1,7.65714e-16,7.65714e-16,-1,76.4711,41.6056)">
                <path d="M22.509,27.023L22.509,20.803L20.803,20.803L20.803,30.372L22.509,30.643L22.509,28.958C23.216,30.081 24.104,30.643 25.171,30.643C25.851,30.643 26.447,30.483 26.96,30.164L26.524,28.562C26.038,28.853 25.532,28.999 25.005,28.999C24.048,28.999 23.216,28.34 22.509,27.023Z" style="fill:white;fill-rule:nonzero;"/>
            </g>
            <g transform="matrix(1,7.65714e-16,7.65714e-16,-1,104.368,21.1148)">
                <path d="M1.727,4.868L1.727,4.785C1.754,3.842 2.053,3.072 2.621,2.476C3.204,1.879 3.953,1.581 4.868,1.581C5.991,1.581 6.941,1.845 7.718,2.372L8.03,0.791C7.17,0.264 6.102,0 4.826,0C3.398,0 2.233,0.465 1.331,1.394C0.444,2.323 0,3.516 0,4.972C0,6.497 0.444,7.739 1.331,8.696C2.233,9.666 3.356,10.152 4.701,10.152C5.839,10.152 6.726,9.819 7.364,9.153C8.016,8.488 8.342,7.579 8.342,6.428C8.342,5.873 8.273,5.367 8.134,4.909L1.727,4.868M1.81,6.116L6.699,6.158L6.699,6.303C6.699,7.038 6.518,7.614 6.158,8.03C5.797,8.446 5.256,8.654 4.535,8.654C3.772,8.654 3.148,8.397 2.663,7.884C2.177,7.385 1.893,6.796 1.81,6.116Z" style="fill:white;fill-rule:nonzero;"/>
            </g>
            <g transform="matrix(1,7.65714e-16,7.65714e-16,-1,94.1743,41.6056)">
                <path d="M28.687,20.803L26.981,20.803L26.981,26.794C26.981,27.598 26.822,28.167 26.503,28.5C26.198,28.833 25.698,28.999 25.005,28.999C24.062,28.999 23.23,28.652 22.509,27.959L22.509,20.803L20.803,20.803L20.803,30.372L22.509,30.643L22.509,29.207C23.466,30.164 24.499,30.643 25.608,30.643C26.579,30.643 27.335,30.351 27.876,29.769C28.417,29.186 28.687,28.382 28.687,27.356L28.687,20.803Z" style="fill:white;fill-rule:nonzero;"/>
            </g>
            <g transform="matrix(1,7.65714e-16,7.65714e-16,-1,104.305,41.9176)">
                <path d="M28.625,21.593C27.765,21.066 26.718,20.803 25.483,20.803C24,20.803 22.848,21.26 22.03,22.176C21.212,23.105 20.803,24.339 20.803,25.879C20.803,27.39 21.254,28.611 22.155,29.54C23.056,30.483 24.208,30.955 25.608,30.955C26.787,30.955 27.813,30.684 28.687,30.143L28.25,28.583C27.474,29.11 26.593,29.374 25.608,29.374C24.637,29.374 23.889,29.062 23.362,28.437C22.835,27.827 22.571,26.981 22.571,25.899C22.571,24.804 22.841,23.944 23.382,23.32C23.937,22.696 24.665,22.384 25.567,22.384C26.621,22.384 27.536,22.647 28.313,23.174L28.625,21.593Z" style="fill:white;fill-rule:nonzero;"/>
            </g>
            <g transform="matrix(1,7.65714e-16,7.65714e-16,-1,134.49,21.1148)">
                <path d="M1.727,4.868L1.727,4.785C1.754,3.842 2.053,3.072 2.621,2.476C3.204,1.879 3.953,1.581 4.868,1.581C5.991,1.581 6.941,1.845 7.718,2.372L8.03,0.791C7.17,0.264 6.102,0 4.826,0C3.398,0 2.233,0.465 1.331,1.394C0.444,2.323 0,3.516 0,4.972C0,6.497 0.444,7.739 1.331,8.696C2.233,9.666 3.356,10.152 4.701,10.152C5.839,10.152 6.726,9.819 7.364,9.153C8.016,8.488 8.342,7.579 8.342,6.428C8.342,5.873 8.273,5.367 8.134,4.909L1.727,4.868M1.81,6.116L6.699,6.158L6.699,6.303C6.699,7.038 6.518,7.614 6.158,8.03C5.797,8.446 5.256,8.654 4.535,8.654C3.772,8.654 3.148,8.397 2.663,7.884C2.177,7.385 1.893,6.796 1.81,6.116Z" style="fill:white;fill-rule:nonzero;"/>
            </g>
        </g>
    </g>
</svg>
