<svg version="1" id="LOGO" xmlns="http://www.w3.org/2000/svg" viewBox="0 0 283.464 79.807" style="fill:#fff"><path d="M2.188 18.578V1.342h2.148v17.236H2.188zM16.298 18.578v-7.813c0-2.319-.659-3.198-2.466-3.198-1.587 0-4.077 1.611-4.077 3.369v7.642H7.802V6.469l1.953-.562v2.051c.903-.928 2.49-2.051 4.443-2.051 2.563 0 4.053 1.099 4.053 4.468v8.203h-1.953zM32.921 18.871c-1.514 0-2.563-.513-3.223-1.172v5.688l-1.953.562V9.154c0-.854-.171-1.904-.684-2.734l1.758-.513c.244.366.513.952.635 1.538.732-.708 2.075-1.538 3.662-1.538 3.32 0 5.444 2.49 5.444 6.274.001 4.127-2.538 6.69-5.639 6.69zm-.024-11.304c-1.489 0-2.49.952-3.198 1.685v5.225c0 1.318.757 2.759 3.125 2.759 2.612 0 3.564-2.441 3.564-5.078 0-3.077-1.611-4.591-3.491-4.591zM49.18 18.871c-.269-.391-.562-1.099-.684-1.733-1.05.928-2.563 1.733-4.053 1.733-2.466 0-3.833-1.44-3.833-3.418 0-2.026 1.318-3.662 4.663-4.248l3.027-.537v-.391c0-2.197-.903-2.734-2.539-2.734-1.465 0-2.856.732-3.687 1.318l-.903-1.44c1.05-.806 2.93-1.514 4.761-1.514 2.49 0 4.321.879 4.321 4.248v5.518c0 1.27.366 2.124.684 2.686l-1.757.512zm-.879-6.763l-2.368.488c-2.368.488-3.271 1.416-3.271 2.783 0 1.196.732 1.978 2.148 1.978 1.025 0 2.368-.781 3.491-1.782v-3.467zM60.018 7.909c-.293-.098-.732-.146-1.172-.146-1.416 0-3.125 1.758-3.125 3.735v7.08h-1.953V6.396l1.709-.488v2.368c1.147-1.782 2.393-2.368 3.662-2.368.635 0 .977.049 1.27.122l-.391 1.879zM68.073 7.665H65.07v7.227c0 1.782.244 2.344 1.245 2.344.562 0 1.172-.146 1.66-.342l.464 1.489c-.732.269-1.758.488-2.686.488-1.782 0-2.637-1.05-2.637-3.369V7.665H60.65l.538-1.465h1.929V3.1l1.953-.562V6.2h3.491l-.488 1.465zM79.034 18.578v-7.813c0-2.319-.659-3.198-2.466-3.198-1.587 0-4.077 1.611-4.077 3.369v7.642h-1.953V6.469l1.953-.562v2.051c.903-.928 2.49-2.051 4.443-2.051 2.563 0 4.053 1.099 4.053 4.468v8.203h-1.953zM85.771 12.597c0 2.71 1.343 4.663 3.882 4.663 1.05 0 2.197-.439 3.125-1.05l.854 1.465c-1.343.854-2.71 1.196-4.199 1.196-3.882 0-5.786-2.734-5.786-6.152 0-4.077 2.295-6.812 5.737-6.812 2.954 0 4.59 2.075 4.59 4.932v1.758h-8.203zm6.25-2.246c0-1.611-1.147-2.881-2.734-2.881-2.1 0-3.223 1.758-3.442 3.638h6.177v-.757zM102.81 7.909c-.293-.098-.732-.146-1.172-.146-1.416 0-3.125 1.758-3.125 3.735v7.08H96.56V6.396l1.709-.488v2.368c1.147-1.782 2.393-2.368 3.662-2.368.635 0 .977.049 1.27.122l-.391 1.879zM108.498 18.871c-1.441 0-2.955-.244-4.102-.684l.61-1.733c1.099.439 2.417.757 3.589.757 1.27 0 2.514-.513 2.514-1.733 0-1.001-.635-1.636-2.246-2.271-3.027-1.196-4.199-2.075-4.199-4.028 0-2.002 1.538-3.271 4.394-3.271 1.344 0 2.76.293 3.736.708l-.635 1.636c-.953-.415-2.027-.757-3.004-.757-1.879 0-2.441.732-2.441 1.514 0 .928.781 1.465 3.027 2.344 2.197.854 3.467 1.831 3.467 3.857.001 2.611-2.05 3.661-4.71 3.661zM124.487 18.578v-7.837c0-2.246-.61-3.174-2.466-3.174-1.123 0-2.637.684-4.077 2.441v8.569h-1.953V.561l1.953-.562v7.935c1.196-1.147 2.734-2.026 4.419-2.026 2.832 0 4.077 1.343 4.077 4.468v8.203h-1.953zM130.882 4.247c-.659 0-1.221-.562-1.221-1.221s.562-1.196 1.221-1.196 1.196.537 1.196 1.196-.537 1.221-1.196 1.221zm-.977 14.331V6.469l1.953-.562v12.671h-1.953zM140.744 18.871c-1.514 0-2.563-.513-3.223-1.172v5.688l-1.953.562V9.154c0-.854-.171-1.904-.684-2.734l1.758-.513c.244.366.513.952.635 1.538.732-.708 2.075-1.538 3.662-1.538 3.32 0 5.445 2.49 5.445 6.274 0 4.127-2.539 6.69-5.64 6.69zm-.024-11.304c-1.489 0-2.49.952-3.198 1.685v5.225c0 1.318.757 2.759 3.125 2.759 2.613 0 3.564-2.441 3.564-5.078-.001-3.077-1.612-4.591-3.491-4.591zM167.451 18.505l-1.244.366-3.395-8.936-3.393 8.545-1.367.391L153.535 6.2h1.953l3.297 9.326 3.418-8.667 1.293-.366 3.32 8.936 3.59-9.229h1.83l-4.785 12.305zM175.164 4.247c-.658 0-1.221-.562-1.221-1.221s.563-1.196 1.221-1.196c.66 0 1.197.537 1.197 1.196s-.537 1.221-1.197 1.221zm-.976 14.331V6.469l1.953-.562v12.671h-1.953zM185.441 7.665h-3.002v7.227c0 1.782.244 2.344 1.244 2.344.563 0 1.172-.146 1.66-.342l.465 1.489c-.732.269-1.758.488-2.686.488-1.783 0-2.637-1.05-2.637-3.369V7.665h-2.467l.537-1.465h1.93V3.1l1.953-.562V6.2h3.49l-.487 1.465zM196.402 18.578v-7.837c0-2.246-.609-3.174-2.465-3.174-1.123 0-2.637.684-4.078 2.441v8.569h-1.953V.561l1.953-.562v7.935c1.197-1.147 2.734-2.026 4.42-2.026 2.832 0 4.076 1.343 4.076 4.468v8.203h-1.953z"/><g><path d="M75.283 52.735c3.89-1.007 8.147-3.734 8.147-8.31 0-6.864-6.59-6.937-9.886-6.937H59.722c.688.399.963 2.04 1.007 4.511.047 2.883-.227 6.946-.595 12.302l-.136 2.18c-.687 9.428-1.098 14.945-2.655 16.143H69.7c9.427 0 15.194-4.865 15.194-10.997 0-5.674-4.119-8.343-9.611-8.892zm-8.237-3.543c.183-2.608.411-5.046.777-7.518a24.82 24.82 0 0 1 2.471-.121c4.164 0 6.134 1.75 6.134 4.131 0 4.119-4.121 5.778-8.605 5.778h-.916l.139-2.27zm2.286 19.058c-2.378 0-3.386-.688-3.386-1.007.047-2.288.139-4.047.32-6.336l.367-5.053h2.517c4.667 0 8.375 1.484 8.375 6.013.001 4.075-3.251 6.383-8.193 6.383zM275.638 52.187c-3.48-2.243-6.822-4.074-6.822-6.773 0-3.206 2.658-4.44 5.676-4.44 3.434 0 6.59 2.013 8.057 4.669l.916-8.376c-2.428 0-4.807-.688-8.607-.688-6.543 0-12.857 2.517-12.857 10.069 0 5.034 3.662 7.825 9.428 11.305 2.744 1.648 4.986 3.295 4.986 5.947 0 3.115-2.744 4.898-6.451 4.898-4.801 0-8.053-2.79-9.793-6.316l-.592 8.834c3.613 1.371 6.814 1.968 9.883 1.968 7.459 0 13.914-4.073 13.914-10.711-.001-5.08-3.941-8.007-7.738-10.386zM250.56 53.669c1.736-2.928 9.979-15.782 11.805-16.181h-9.475c.367.399.506 1.217.506 2.04 0 1.055-.459 2.096-1.004 2.967-2.199 3.569-3.889 6.149-6.318 9.949-1.008-2.886-2.701-6.787-4.986-11.958-1.469-3.205-2.107-3.533-4.486-3.533-1.328 0-4.074.134-6.227.317 1.238.595 3.209 3.659 4.898 6.907 2.654 5.174 4.395 9.441 5.678 13.88.09 3.114-.6 12.969-2.289 14.565h9.563c-.73-.798-1.004-2.896-1.004-4.499 0-3.844.273-7.271.822-9.879.642-1.376 1.691-3.201 2.517-4.575zM147.314 66.783l-7.185-9.516c-.505-.644-1.327-1.697-1.783-2.108 4.711-1.464 8.512-4.464 8.512-10.141 0-6.909-5.857-7.531-10.116-7.531H123.7c.687.399.96 1.994 1.007 4.511.045 2.883-.229 6.946-.596 12.256l-.136 2.225c-.779 10.803-1.281 14.945-2.653 16.143h9.563c-.642-.398-.916-2.072-.962-4.451 0-2.15.137-4.942.366-8.557l.182-2.563h.23c1.233 0 1.831.77 2.607 1.823l9.886 13.68c.87 1.189 1.509 1.578 4.118 1.578 1.741 0 4.439-.107 6.453-.335-1.597-.82-1.965-1.109-6.451-7.014zm-14.918-14.184c-.55 0-1.143-.047-1.603-.136l.185-2.475c.32-4.21.549-6.818.823-8.328.825-.091 1.876-.091 2.747-.091 3.34 0 5.263 1.601 5.263 4.347-.001 4.027-3.021 6.683-7.415 6.683zM112.811 56.854l-1.512-5.473c-1.785-6.362-3.796-13.893-3.796-13.893h-7.691c.277.399.459 1.17.459 1.858 0 .777-2.38 6.123-4.623 10.883l-2.472 5.247c-4.254 9.107-7.321 14.751-9.746 17.147h8.466c-.184-.398-.229-1.157-.229-1.614-.047-1.969 1.739-5.262 2.47-6.907l.732-1.46h4.211c4.164 0 6.772-.424 8.238-1.11l.869 3.018c2.426 8.329 2.654 8.392 5.674 8.392.961 0 3.434-.101 5.4-.329-2.196-1.79-3.842-6.374-6.45-15.759zm-15.79.997l5.722-12.31 3.569 12.31h-9.291zM158.983 56.121c0-7 3.069-15.147 10.617-15.147 3.799 0 6.638 2.15 8.377 5.308l.916-9.015c-3.066 0-4.854-.688-8.651-.688-12.128 0-18.488 9.064-18.488 20.78 0 8.42 5.262 15.926 14.371 15.926 7 0 11.257-3.524 13.088-9.384-4.533 3.159-7.232 3.981-10.297 3.981-5.676 0-9.933-4.162-9.933-11.761zM227.355 56.854l-1.51-5.473c-.684-2.47-3.799-13.893-3.799-13.893h-7.684c.273.399.453 1.17.453 1.858 0 .958-2.285 5.938-4.621 10.883l-2.471 5.234c-1.832 3.936-3.707 7.719-5.355 10.739-2.652 1.787-4.119 1.915-9.977 1.915-1.646 0-2.291-.369-2.291-1.969 0-3.479.459-7.05.688-10.529l.184-2.13c.64-9.385 1.144-15.203 2.519-16.002h-9.657c.643.799.871 2.087.916 4.466.046 2.883-.229 6.946-.594 12.301l-.142 2.225c-.683 9.383-1.141 14.546-2.561 16.143h24.991c-.184-.398-.234-1.157-.234-1.614 0-1.925 1.422-4.571 2.475-6.907l.73-1.46h4.213c4.166 0 6.773-.424 8.234-1.11l.871 3.018c2.428 8.329 2.654 8.392 5.676 8.392.959 0 3.568-.101 5.4-.329-2.196-1.789-3.845-6.373-6.454-15.758zm-15.742.997l5.674-12.31 3.57 12.31h-9.244z"/></g><path d="M42.708 42.27c-.497-.978-1.212-2.218-2.349-3.127-.578-.459-1.284-.822-2.1-1.079a6.205 6.205 0 0 0-1.879-.286h-.093c-.828.011-2.374.208-3.411 1.414a2.262 2.262 0 0 0-.451 2.045c.162.602.556 1.046 1.113 1.256 0 0 .177.065.455.116-.08.155-.273.427-.273.427-.357.529-1.154 1.222-3.344 1.222l-.125-.001c-1.16-.073-2.119-.376-3.241-1.827-.695-.899-1.049-2.408-1.1-4.893-.045-1.246-.216-2.326-.513-3.193-.2-.581-.668-1.191-1.119-1.482a5.123 5.123 0 0 0-1.391-.67c-.749-.241-1.7-.277-2.414-.293-.928-.021-1.438.193-1.761.584-.054.065-.065.097-.138.092-.168-.013-.543-.012-.656-.012-.529 0-1 .085-1.447.179-.943.198-1.525.589-2.042 1.003-.24.191-.697.729-.801 1.304-.087.485.002.756.102.996.017.041.08.114.092.157.282-.296.751-.526 1.637-.53.99-.004 2.344.448 2.818 1.214.676 1.092.541 1.976.399 3.026-.365 2.69-1.361 4.087-3.574 4.396a8.25 8.25 0 0 1-1.125.08c-1.554 0-2.687-.492-3.268-1.429-.156-.252-.175-.333-.175-.333s.174-.042.327-.114c.588-.277 1.031-.686 1.192-1.317.179-.703-.002-1.491-.463-2.009-.833-.938-1.987-1.414-3.434-1.414-.803 0-1.515.152-1.97.28-1.821.51-3.273 1.889-4.439 4.216C.922 43.914.345 46.087.123 48.389c-.22 2.256-.112 4.162.038 5.886.248 2.869.727 4.588 1.419 6.429.712 1.904 1.585 3.723 2.55 5.301.315.516.548.894.675 1.065l.072-.075c.114-.119.283-.296.545-.558.379-.38 1.454-1.784 1.758-2.218.308-.435.874-1.312 1.17-1.942l.162-.346.3.236c.321.253.507.695.5 1.183-.006.428-.105.926-.368 1.84-.286.991-.783 2.177-1.364 3.253l-.207.376c-.381.682-.542 1.016-.399 1.167l.043.034c.017.015.054.017.075.017.235 0 .685-.232 1.174-.607.444-.339 1.631-1.343 3.062-3.345a30.149 30.149 0 0 0 2.787-4.769l.125-.262.268.112a.802.802 0 0 1 .369.338c.162.293.218.683.162 1.126-.133 1.073-.761 2.698-1.265 3.873-.853 1.99-2.421 4.22-3.586 5.739-.046.06-.327.395-.374.454.097.1.334.294.622.528l.439.36c1.598 1.313 3.083 2.321 4.968 3.375 1.457.814 4.419 2.317 6.384 2.844 1.964-.526 4.928-2.029 6.385-2.844a32.367 32.367 0 0 0 4.966-3.375l.429-.351a11.4 11.4 0 0 0 .627-.532c-.052-.08-.155-.201-.216-.274a3.73 3.73 0 0 1-.153-.186c-1.166-1.523-2.734-3.756-3.586-5.739-.504-1.177-1.131-2.805-1.262-3.872-.057-.443-.003-.833.161-1.129a.769.769 0 0 1 .287-.282c.167-.104.35-.167.35-.167l.125.263a30.05 30.05 0 0 0 2.786 4.769c1.434 2.005 2.619 3.008 3.062 3.345.498.38.937.607 1.174.607a.142.142 0 0 0 .088-.025c.19-.138.035-.467-.366-1.186-.067-.121-.139-.25-.21-.383-.582-1.075-1.08-2.261-1.366-3.254-.26-.911-.359-1.409-.366-1.838-.007-.488.179-.931.499-1.184l.3-.237.162.347c.317.675.904 1.566 1.17 1.943.302.431 1.376 1.833 1.758 2.217.261.261.43.438.543.557l.073.077c.124-.167.345-.527.646-1.017l.056-.093c.938-1.534 1.812-3.353 2.525-5.258.691-1.84 1.169-3.559 1.419-6.429.149-1.714.257-3.613.039-5.881-.201-2.229-.809-4.518-1.624-6.122z"/></svg>