<svg xmlns="http://www.w3.org/2000/svg" viewBox="0 0 1842.1 578.2" style="fill:#fff"><path d="M309 0c7.1 1.2 14.3 2.3 21.4 3.8C408.5 19.9 468 83.3 478.7 161.9c1.2 8.6 1.7 17.3 1.7 25.9.1 67.6.1 135.3.1 202.9-.1 89.3-62.6 166-150 184.1-6.1 1.3-12.3 2.2-18.5 3.4h-6v-59.8c7.1-1 13.6-1.4 19.9-2.8 50.4-10.8 84.6-53.5 84.6-105.7.1-79.2 0-158.3 0-237.5 0-5-.1-10-.8-15-8.1-55.3-51.7-92.8-107.7-92.8H175c-58 0-105.5 47.5-105.5 105.7v242c0 47.4 32.4 89.7 78.1 101.7 7.3 1.9 14.9 2.9 22.9 4.4v42.3c0 5.8-.3 11.6-.5 17.4h-1c-3.2-.6-6.4-1.3-9.7-1.8C82.4 565.1 18.8 504.4 3.9 428.1c-1.6-8.3-2.6-16.6-3.9-24.9v-228c.6-3.9 1.3-7.7 1.8-11.6C11.5 86.2 69 22.5 145.1 4.9 154 2.8 163 1.6 171.9 0H309zM1842 337c-.8-1.1-2.3-2.1-2.4-3.2-.3-3.3-.1-6.6-1.1-10.2-2.2 3.5-4.4 6.9-7 11.1-2.6-4.1-4.7-7.4-7.6-12.1-.3 5.6-.5 10-.7 14.3-.5 0-1.1-.1-1.6-.1v-19.5c5.7 2.4 6.1 8.8 10.2 12.6 1.9-3.2 3.6-6.5 5.8-9.4.9-1.2 3-1.7 4.5-2.5-.1 6.3-.1 12.7-.1 19zM734.1 185.7c-.2 32.6-23.1 55.5-55.4 55.4-33.3-.1-55.8-23.2-55.6-57.3.1-32.2 23.6-54.9 56.7-54.7 31.9.2 54.5 23.8 54.3 56.6zm-20.7-.4c-.5-4.2-.7-8.2-1.6-12.1-2.8-12.4-9.7-21.7-22.4-25-13.5-3.5-26.5-1.9-36.2 9.3-9.6 11.1-10.5 24.5-8 38.3 3.1 17 15.2 27.1 32.4 27.7 17.3.6 30-8.8 34.1-25.5.9-4.1 1.1-8.5 1.7-12.7zM1020.7 240c4.3-10.9 8.3-21.2 12.3-31.6 9.7-24.6 19.4-49.2 28.9-73.9 1.2-3.2 2.9-4.4 6.2-4.1 4.3.3 8.7-.2 13 .2 1.7.2 4.1 1.6 4.7 3 13.8 34.6 27.4 69.3 41 104 .2.6.2 1.3.4 2.4-5.5 0-10.9.6-16-.3-2.5-.4-5.5-3.2-6.6-5.6-3.1-6.8-5.3-13.9-8-21.1-14.2 0-28.2-.1-42.2.1-1.3 0-3.2 1.5-3.7 2.8-2.5 6-4.6 12.1-6.8 18.2-1.4 3.9-4 5.9-8.3 5.8-4.7.1-9.5.1-14.9.1zm36.5-41.9h34.1c-5.7-15.8-11.3-31.1-17-46.9-5.8 15.9-11.4 31.1-17.1 46.9zM1244.1 413.1c-8.1-9.3-6.9-16.8 3.7-24.6-.4-.5-.7-1-1.1-1.3-8.8-6.3-12.1-14.8-9.8-25.3 2.4-10.7 10.1-16.1 20.1-18.5 8.6-2.1 17-1.1 25.5 1.6 4.9 1.5 10.4 1 15.7 1.2 2.6.1 5.3 0 7.8 0 2.3 8.9 1.8 9.6-9.3 12.8 0 .8 0 1.8.2 2.7 2.4 16.1-6 27.8-22.1 30.3-4.4.7-9 .5-13.4.2-3.2-.2-5.8.9-5.9 3.8-.1 1.6 2.4 4.3 4.2 4.8 3.6 1.1 7.5.9 11.3 1.3 6.3.6 12.7.7 18.8 2 14 3 19.2 15.4 12.3 28-4 7.3-10.5 11.6-18.1 14-12.8 4-25.6 3.7-38.1-1.1-8.9-3.5-13.2-9.7-13.1-17.5 0-7.7 5.1-11.2 11.3-14.4zm23.6 22.6c4.3-.9 8.8-1.5 13-2.7 4.1-1.2 7-4.1 6.6-8.8-.3-4.6-4.2-5.8-7.8-6.2-6.8-.7-13.6-.7-20.4-1.2-4.6-.3-8.7 2.4-9.9 7-1 3.9.9 7.8 5.6 9.3 4.1 1.2 8.4 1.7 12.9 2.6zm-.5-80.2c-8.6 0-13.7 4.6-13.7 12.3 0 7.7 5.3 12.6 13.6 12.6 8.2.1 13.6-4.9 13.7-12.5 0-7.7-5-12.3-13.6-12.4zM749.3 162.7c13.1-2.1 14.2-1.6 17.8 8.9 2.6-2 5.1-4.2 7.7-5.9 15.4-10.3 34.6-4.9 41.6 12.2 5.9 14.4 6.2 29.3-.2 43.7-8.5 19.4-29.1 25.1-46.8 13.6-.2-.2-.6-.1-1.5-.2v29.9h-18.6V162.7zm18.5 39.5c0 4.8-.2 9.7.1 14.5.1 1.7.7 3.6 1.8 4.8 7.5 8.1 22.4 6.6 27.4-3.1 5.8-11.4 5.6-23.5.6-35.2-2.7-6.4-9.7-8.7-17.5-6.9-7.4 1.8-12.4 7.3-12.4 13.9v12zM874.5 421H856V309.1h18.5V351c2.1-1.3 3.4-2.1 4.7-3 7.7-5.4 16.1-6.8 25.2-4.9 10.5 2.3 18.3 11.6 18.7 23.7.5 17.8.1 35.6.1 53.9h-18.3c-.1-1.7-.2-3.4-.2-5.2v-41c0-6.2 0-12.9-6.7-16-6.9-3.3-13.2-.9-19.2 3.2-3.1 2.1-4.2 4.6-4.1 8.3.2 15 .1 30 .1 45-.3 1.8-.3 3.6-.3 6zM1099 379.1c0 25.3-12.7 41.1-32.3 43-30.3 3-49.2-18-43.9-48.6 2.5-14.6 10.2-25.1 24.6-29.2 15.3-4.4 29.8-2.7 41.6 9.4 7.6 7.8 9.7 17.8 10 25.4zm-19.3 2.4c-.6-4-.9-7.2-1.6-10.3-2.5-9.8-8.2-14.4-17.6-14.4-9.5 0-15.8 4.4-17.4 14.4-1.2 7.5-1.1 15.6.2 23.1 1.7 9.3 8.3 13.5 17.7 13.4 9-.1 14.8-4.7 17-13.9 1-4.1 1.2-8.7 1.7-12.3zM1225.9 383.5c0 20.8-12.8 36.5-32.1 38.6-39 4.2-51.2-29.5-42.2-56 5-14.6 16.1-22 31.2-23.4 14.9-1.4 27.8 2.5 36.6 15.5 4.9 7.1 6.4 15.5 6.5 25.3zm-19.2-1c-.7-4.4-1.1-9.1-2.4-13.5-2.4-8.1-7.9-11.9-16.3-12-8.9-.1-14.5 3.4-17.3 11.4-3.2 9.2-3.2 18.7-.1 27.9 2.8 8.2 8.7 11.8 17.7 11.6 8.2-.2 13.9-4.3 16.2-12.3 1.2-4.2 1.4-8.5 2.2-13.1zM706 328.9h-32.4v91.9H653V329h-32.6v-16.9H706v16.8zM1347.9 229.4c-5.9 3.3-11.1 7.1-16.8 9.2-16.9 6.1-35 1.8-45-9.9-11.4-13.4-12.7-37.9-2.8-52.4 8.9-13 26.2-18.6 42.2-13.7 14 4.3 22.2 16.6 22.3 33 0 6.9-.8 7.9-7.6 7.9H1296.5c-2.3 15.4 11.7 26.4 27.3 21.9 2.8-.8 5.6-2.1 8.2-3.5 6.7-3.4 7.4-3.4 12 2.4.9 1.2 1.8 2.4 3.9 5.1zm-17.4-37.5c-.7-11.2-6.6-17.3-16.2-17.3-10.3 0-17.3 6.6-18 17.3h34.2zM716.4 385c1.4 19.5 15.6 27.9 32.9 20 .2-.1.3-.1.5-.2 10.4-6 10.1-5.7 17.9 4.9-9.2 10.4-21.2 13.4-34.2 12.6-24.2-1.4-38.5-20.1-35.8-46.2 2.5-25.1 25.8-40 49.7-31.8 14.3 4.9 23.9 22 20.9 36.9-.7 3.6-3 3.8-5.9 3.8h-46zm34.6-11.8c-.1-11.3-6.4-17.5-16.8-17.2-9.8.2-17.1 7.6-16.7 17.2H751zM848.3 203.5c.6 18.1 13.6 27.1 29.8 21.4 1.4-.5 2.8-1.2 4.1-1.8 10.3-5 10.3-5 17.3 5.7-2.9 2.2-5.6 4.9-8.8 6.7-11.2 6.1-23.1 7.3-35.3 3.9-17.4-4.9-27.4-21-26.4-42.1 1.2-26.6 25.6-43.1 50.4-34.2 16.1 5.8 22.1 21.9 20.3 37.2-.4 3.5-3.3 3.2-5.8 3.2h-45.6zm34.6-11.7c0-11-6.4-17.6-16.5-17.3-10.1.3-17.5 7.6-17.1 17.3h33.6zM1373.2 385c1.5 19.5 15.6 27.9 32.7 20.1.3-.1.6-.2.9-.4 10.2-6.1 10.3-5.2 17.5 5-5.4 6.7-12.9 10-21.1 11.7-17.9 3.8-33.9-2-42.4-15.2-11.9-18.4-8-46 8.5-57.2 12.4-8.5 26-9.4 39.3-2.7 12.7 6.5 16.6 18.3 16.4 31.9-.1 5.9-.8 6.7-6.7 6.7-14.8.1-29.8.1-45.1.1zm34.6-11.8c.3-10.4-5.9-17-15.5-17.2-10.6-.2-18 6.7-18.1 17.2h33.6zM934.1 239.9h-18.6v-76.8c10-3 14.3-1.3 17.7 7.6 2.1-1.6 4.1-3.3 6.3-4.6 9.8-6.1 20.1-7.3 30.4-2 9.9 5.1 12.9 14.5 13 24.8.3 16.8.1 33.6.1 50.8h-19v-9.4c0-13.5.1-27 0-40.5-.1-11-7.5-16.4-18.1-13.4-8.9 2.6-11.7 6.4-11.7 15.6-.1 15.8-.1 31.6-.1 47.9zM1008.9 420.9h-18.8v-11.2c0-12.8.1-25.7 0-38.5-.1-11.1-7.4-16.6-17.9-13.3-3.1 1-6.2 2.6-8.7 4.7-1.7 1.5-3.2 4.3-3.2 6.5-.3 15.3-.1 30.7-.1 46v5.7h-18.4v-76.5c10.5-2.8 14-1.3 17.2 6.3 6.5-2.7 12.8-6.5 19.5-7.8 16.2-3.1 29.3 6.7 30.2 23.1.9 18.2.2 36.4.2 55zM1635.8 420.9h-18.6v-76.5c10.1-3.1 14.7-1.2 17.2 6.6 5.9-2.7 11.6-6.5 17.8-7.8 17.6-3.6 30.5 5.3 31.8 23.2 1.3 18 .3 36.2.3 54.6h-18.5v-5.3-42.5c0-8.9-2.5-13.4-8.5-15.3-6.4-2.1-17.1 1.3-20.7 6.8-.8 1.2-.9 3.1-.9 4.7.1 16.9.1 33.9.1 51.5zM1433.5 412.7c1.2-2 2.3-3.9 3.4-5.7 2.9-4.5 5.4-5.2 10-2.5 5.1 3.1 10.4 5.4 16.5 4.5 2.4-.4 5-1.1 6.9-2.4 4.8-3.1 4.8-9.3 0-12.4-2.7-1.8-6-2.8-9.1-4-4.5-1.7-9.2-2.9-13.5-5-13.1-6.3-16.1-23.4-6.3-34.1 11.2-12.1 38.1-11.4 49 1.3-.7 1.2-1.4 2.5-2.2 3.7-3.7 5.9-4.4 6.2-10.8 3.2-5.2-2.4-10.6-4.1-16.4-2.6-3.6.9-6.5 2.6-7.2 6.7-.7 4.3 2.1 6.5 5.4 8 4 1.7 8.1 3 12.2 4.4 2 .7 4.1 1.4 6.1 2.2 7.5 3.1 13.3 7.8 13.9 16.6.7 9.7-2.7 17.7-11.1 23-13.1 8.2-34.7 6-46.8-4.9zM1413 170.8c-.5.8-.8 1.4-1.1 2-4.9 8.2-4.9 8.2-13.5 4.4-5.3-2.3-11-3.7-16.4-1.2-2.5 1.2-5.3 4.2-5.6 6.6-.3 2.1 2.3 5.5 4.5 6.8 4.1 2.3 8.9 3.5 13.5 5.1 1.9.7 3.7 1.4 5.6 2.1 7.4 3 13.1 7.6 13.9 16.1.9 9-2 16.8-9.5 22.4-12.6 9.4-36.9 7.6-48.3-3.8.5-1 1.1-2 1.7-2.9 4.8-8 5.7-8.3 14.1-3.8 5.6 3 11.5 4.4 17.8 2.3 3.6-1.2 6.1-3.3 6.5-7.4.5-4.2-2-6.7-5.4-8.1-6.8-2.7-13.9-4.7-20.5-7.7-12-5.5-15.9-19.6-8.8-30.8 1.6-2.5 3.8-4.7 6.1-6.4 12.4-9 34.1-7 45.4 4.3zM1422 231.3c.6-1 1-1.7 1.4-2.4 5.2-8.7 5.8-8.9 14.8-4.2 5.3 2.8 10.9 4.1 16.8 2.3 3.7-1.1 6.6-3.1 7.1-7.4.6-4.5-2.1-6.9-5.6-8.4-6.6-2.7-13.6-4.5-20.1-7.5-12.5-5.7-16.3-20.8-8.2-31.9 1.5-2.1 3.5-4.1 5.6-5.6 12.5-8.7 33.8-6.7 45.2 4.4-1.1 1.8-2.3 3.8-3.4 5.7-1.9 3.4-4.4 3.6-8 2.4-5.1-1.7-10.4-3-15.7-3.8-2.2-.3-4.9 1-6.8 2.4-4.1 2.9-4 8 .1 10.9 2.3 1.6 5 2.7 7.6 3.7 4.3 1.7 8.8 2.9 13.1 4.6 7.4 2.9 13.1 7.5 14 16 1 9.7-2.3 17.7-10.6 23.3-12.9 8.7-35.5 6.6-47.3-4.5zM1269.9 228c-8.5 11-25.7 15.9-40.4 11.7-13.1-3.8-23.2-16.1-24.4-31.1-.5-6.5-.3-13.4.9-19.8 2.7-13.5 10.9-22.8 24.4-26.3 14.1-3.7 27.4-1.8 38.9 9.3-1.8 2.6-3.5 5.2-5.4 7.6-2.3 2.8-4.8 1.3-7.6.3-4.6-1.7-9.3-3.7-14.1-3.9-8-.4-13.7 4.3-16.3 12.2-2.8 8.4-2.9 17-.1 25.5 4.2 12.5 16.9 17.1 28.2 10.1 1.1-.7 2.2-1.5 3.3-2.3 3.3-2.4 6.1-2.1 8.5 1.3 1.3 1.8 2.8 3.6 4.1 5.4zM843 353.3l-1.7 2.4c-5.6 7.8-5.6 7.8-14.2 3.5-12.5-6.4-25-.8-28.4 12.8-1.9 7.6-1.8 15.2.6 22.7 4 12.4 16.5 17.1 27.7 10.6 9.6-5.5 9.6-5.5 16.6 4.4-5.8 7.4-13.8 11-22.9 12.3-31.9 4.5-45-21.5-42.2-45.7 1.7-14.6 8.1-26.2 22.6-31.3 14.2-5 27.9-3.6 39.9 6.4.7.4 1.2 1.1 2 1.9zM1197.2 171.9c-.8 1.2-1.4 2.1-2.1 3.1-5.2 7.4-5.2 7.4-13.1 3.2-13-7-26.4-1.3-29 13.2a55.4 55.4 0 0 0 .3 20.7c3 13.8 17.1 18.8 29 11.1 1-.6 1.9-1.3 2.9-2 3-2.2 5.8-2.3 8.2 1 1.5 2 3 3.9 4.7 6.1-10.1 11.3-22.8 14.3-36.8 12.1-14.6-2.3-23.1-11.9-27-25.6a50.6 50.6 0 0 1 .2-28.6c7.7-26.3 42.5-34.4 62.7-14.3zM1762.2 353.5c-.7 1-1.4 2.1-2.1 3.2-5 7.1-5.2 7.1-12.8 3-13.3-7.3-27.1-1-29.2 14-1 7-.7 14.8 1.2 21.6 3.2 12 16.1 16.3 27 10.2 10.1-5.7 10.1-5.7 16.9 4.3-8.6 10.1-19.9 13.3-32.6 12.6-14.8-.9-25-8.7-29.9-22.6-4.7-13.2-4.4-26.5 2-39.3 11.7-23.4 47.4-22.6 59.5-7zM1593.4 421h-20.1V312.2h20.1V421zM1133.2 309.2v111.6h-18.4V309.2h18.4zM1320.1 343.8h17.9v77h-17.9v-77zM1508.5 442.6c-6.3-4.2-6.3-5.3-1.9-10.6 2.5-3 4.5-6.5 7.1-10.3-5.6-1.2-9.5-3.2-10.9-8.3-1.6-6 1-11.5 6.5-13.3 6.2-2 13 .5 14.3 6.3 1 4.6.8 9.9-.3 14.6-2.1 8.8-7.7 15.6-14.8 21.6zM1341.1 321c0 6.6-5.5 12-12.1 12-6.4-.1-11.8-5.5-11.9-11.8-.1-6.6 5.4-12.2 12-12.2 6.9 0 12 5.2 12 12zM1781.8 422.4c-6.6-.1-11.3-4.9-11.3-11.4 0-6.7 5-11.6 11.8-11.5 6.4.1 11.4 5.1 11.4 11.4 0 6.5-5.3 11.6-11.9 11.5zM1816.9 319.4c-1.9.2-3.7.5-6.7.9V337c-.6 0-1.2-.1-1.8-.1v-16.6c-2.6-.3-4.7-.5-6.9-.8 2.2-2.4 10.1-2.8 15.4-.1z"/><path d="M306.3 487.3V344.1h-67.8v-68.3h67.4c.1-2.1.3-3.7.3-5.3v-79c0-17.6-13-30.6-30.6-30.6h-73.5c-18.5 0-31.4 12.7-31.5 31.4-.1 22.8 0 45.7 0 68.5v226.4c-9.5.5-18.2-1.6-26.3-5.4-26.3-12.6-40.6-33.5-40.6-62.9-.2-85.3-.1-170.7-.1-256 0-38.4 30.1-68.5 68.5-68.5h133c38.3 0 68.5 30.1 68.5 68.5.1 85.5.1 171 0 256.5 0 35.4-26.8 64.6-62 67.8-1.7.3-3.3.1-5.3.1z"/></svg>