<svg xmlns="http://www.w3.org/2000/svg" viewBox="0 0 105.26 44.89" style="fill:#000"><path fill="#ffe400" d="M0 0h105.26v44.89H0z"/><path d="M20 17.26h-2.81l-.81 5.83h-2.87l.81-5.83h-2.81l-.81 5.83H7.91v2.61h2.44l-.49 3.65H7.07V32h2.44l-.82 5.8h2.81l.82-5.8h2.87l-.81 5.83h2.81L18 32h2.78v-2.64h-2.43l.49-3.65h2.78v-2.62h-2.43zm-4.46 12.1h-2.87l.49-3.65H16zM24.53 23.7h4.35v14.09h-4.35zM26.7 16.74a2.53 2.53 0 1 0 1.78.74 2.43 2.43 0 0 0-1.78-.74zM42.45 25.21h-.06a4.07 4.07 0 0 0-1.93-1.44 7.48 7.48 0 0 0-2.54-.42 5.72 5.72 0 0 0-2.7.62 6.22 6.22 0 0 0-2 1.67A7.77 7.77 0 0 0 31.94 28a8.88 8.88 0 0 0-.45 2.83A8.41 8.41 0 0 0 32 33.8a6.75 6.75 0 0 0 1.41 2.31 6.33 6.33 0 0 0 2.19 1.51 7.27 7.27 0 0 0 2.84.54 4.89 4.89 0 0 0 1.41-.2 6.06 6.06 0 0 0 1.25-.52 5.18 5.18 0 0 0 1-.71 4.77 4.77 0 0 0 .68-.77h.06v1.84h4V15.87h-4.39zm-.57 8.12a3.33 3.33 0 0 1-2.57 1 3.33 3.33 0 0 1-2.57-1 3.64 3.64 0 0 1-.91-2.58 3.64 3.64 0 0 1 .91-2.58 3.83 3.83 0 0 1 5.13 0 3.64 3.64 0 0 1 .91 2.58 3.64 3.64 0 0 1-.9 2.58zM93.83 23.7v7a9.93 9.93 0 0 1-.09 1.33 3.33 3.33 0 0 1-.36 1.15 2.07 2.07 0 0 1-.8.81 2.68 2.68 0 0 1-1.36.3 1.87 1.87 0 0 1-2-1.25 4 4 0 0 1-.26-1.2V23.7h-4.35v7.77a17.37 17.37 0 0 0 .19 2.64 5.51 5.51 0 0 0 .75 2.12 3.83 3.83 0 0 0 1.6 1.41 6.07 6.07 0 0 0 2.68.51 5 5 0 0 0 1.45-.2 5.18 5.18 0 0 0 1.19-.52 3.86 3.86 0 0 0 .88-.73 4.83 4.83 0 0 0 .6-.81H94v1.91h4.18V23.7zM69.75 32.34h3.34v-5.12h-.04l-3.3 5.12z"/><path class="cls-2" d="M50.49 37.8h4.21v-3.17l5.78-5.19a10.67 10.67 0 0 0 .88-.9 1.73 1.73 0 0 0 .44-1.18 1.43 1.43 0 0 0-.55-1.19 2 2 0 0 0-1.25-.42 1.76 1.76 0 0 0-1.37.55 2.2 2.2 0 0 0-.63 1.34l-3.15-.23a5.12 5.12 0 0 1 .48-2A4.22 4.22 0 0 1 56.48 24a4.69 4.69 0 0 1 1.63-.85 7 7 0 0 1 2-.28 6.16 6.16 0 0 1 1.89.28 4.43 4.43 0 0 1 1.53.84 3.83 3.83 0 0 1 1 1.4 4.86 4.86 0 0 1 .37 2 5.26 5.26 0 0 1-.15 1.29 4.38 4.38 0 0 1-.41 1 4.82 4.82 0 0 1-.62.87 10.06 10.06 0 0 1-.78.78l-4.46 3.87h6.59v2.6h8V35H66.6v-2.66l6.07-9.24h3.44v9.24H78V35h-1.88v2.8h5.07V7.1h-30.7z"/></svg>