<?xml version="1.0" encoding="UTF-8" standalone="no"?>
<!DOCTYPE svg PUBLIC "-//W3C//DTD SVG 1.1//EN" "http://www.w3.org/Graphics/SVG/1.1/DTD/svg11.dtd">
<svg width="100%" height="100%" viewBox="0 0 450 200" version="1.1" xmlns="http://www.w3.org/2000/svg" xmlns:xlink="http://www.w3.org/1999/xlink" xml:space="preserve" xmlns:serif="http://www.serif.com/" style="fill-rule:evenodd;clip-rule:evenodd;stroke-linejoin:round;stroke-miterlimit:2;">
    <path d="M95.195,69.042L122.791,69.042L122.791,134.882L95.195,69.042ZM75.741,69.042L48.12,69.042L48.12,134.882L75.74,69.042L75.741,69.042ZM85.464,93.3L103.054,134.88L91.528,134.88L86.258,121.636L73.383,121.636L85.464,93.3" style="fill:white;fill-rule:nonzero;"/>
    <path d="M187.128,106.734C185.015,100.001 178.784,83.113 176.874,76.277L176.774,76.277C175.166,82.61 170.24,95.779 166.52,106.734L187.128,106.734ZM164.608,113.571L157.372,134.278C157.271,134.681 157.071,134.881 156.568,134.881L149.33,134.881C148.726,134.881 148.624,134.581 148.726,134.078C154.356,118.395 164.006,91.354 170.44,73.864C170.64,73.06 170.942,72.357 171.043,69.642C171.043,69.242 171.243,69.041 171.646,69.041L181.9,69.041C182.302,69.041 182.402,69.141 182.504,69.542C190.143,90.451 198.184,112.968 205.823,134.078C206.023,134.58 205.923,134.881 205.421,134.881L197.281,134.881C196.877,134.881 196.677,134.681 196.576,134.278L189.038,113.571L164.613,113.571M241.953,93.466C240.245,92.462 237.63,91.758 234.213,91.758C223.357,91.758 217.123,99.398 217.123,110.656C217.123,124.328 225.368,129.251 233.511,129.251C236.627,129.251 239.743,128.85 241.954,127.643L241.954,93.466L241.953,93.466ZM208.078,110.959C208.078,96.18 218.532,85.425 234.415,85.425C237.73,85.425 240.045,85.725 241.954,86.43L241.954,64.716C241.954,64.316 242.154,64.114 242.556,64.114L250.196,64.114C250.699,64.114 250.798,64.314 250.798,64.716L250.798,125.734C250.798,127.342 250.898,129.453 250.999,130.659C250.999,131.061 250.999,131.362 250.496,131.562C244.968,134.479 238.636,135.886 232.606,135.886C218.532,135.886 208.078,127.643 208.078,110.959M267.213,110.456C267.213,121.512 272.339,129.553 281.788,129.553C288.825,129.553 295.658,124.126 295.658,110.756C295.658,100.402 291.44,91.758 281.185,91.758C272.842,91.758 267.213,98.794 267.213,110.454L267.213,110.456ZM304.607,110.556C304.607,126.036 295.257,135.886 281.587,135.886C265.003,135.886 258.266,123.12 258.266,110.656C258.266,96.18 267.413,85.426 281.686,85.426C296.063,85.426 304.607,95.979 304.607,110.554M331.254,92.06C327.434,92.06 324.117,93.065 321.202,94.673L321.202,127.745C323.817,129.051 326.832,129.553 329.849,129.553C338.191,129.553 345.929,123.725 345.929,110.053C345.929,98.794 340.601,92.058 331.254,92.058L331.254,92.06ZM320.499,64.114C320.999,64.114 321.202,64.214 321.202,64.716L321.202,88.038C324.621,86.43 328.138,85.425 332.762,85.425C346.432,85.425 354.977,95.275 354.977,109.349C354.977,126.94 342.915,135.886 329.344,135.886C322.61,135.886 317.383,134.58 312.959,132.569C312.558,132.469 312.356,132.065 312.356,131.764L312.356,64.716C312.356,64.316 312.558,64.114 312.959,64.114L320.499,64.114M387.004,105.829C391.829,105.829 393.034,105.729 393.335,105.629C393.437,105.327 393.437,104.121 393.437,103.819C393.437,99.096 391.124,91.557 381.977,91.557C374.037,91.557 369.914,98.291 369.211,105.829L387.004,105.829ZM369.11,111.26C368.81,121.814 374.34,129.051 385.496,129.051C389.918,129.051 394.04,128.347 397.86,126.439C398.16,126.237 398.363,126.339 398.363,126.839L398.363,132.065C398.363,132.569 398.263,132.769 397.86,132.97C394.441,134.781 389.818,135.886 383.786,135.886C366.196,135.886 360.164,123.523 360.164,111.06C360.164,96.985 368.308,85.525 382.379,85.525C396.854,85.525 401.88,96.582 401.88,105.226C401.88,107.54 401.78,109.048 401.577,110.153C401.479,110.554 401.277,110.857 400.776,110.857C399.268,111.06 394.944,111.26 390.421,111.26L369.11,111.26" style="fill:white;fill-rule:nonzero;"/>
</svg>
