<svg viewBox="0 0 450 200" xmlns="http://www.w3.org/2000/svg" fill-rule="evenodd" clip-rule="evenodd" stroke-linejoin="round" stroke-miterlimit="2"><g fill="#fff" fill-rule="nonzero"><path d="M93.39 77.215v7.608c-5.305-2.6-10.185-3.9-14.638-3.9-5.715 0-10.53 1.845-14.443 5.535-3.913 3.693-5.87 8.225-5.87 13.6 0 5.479 2.001 10.05 6.005 13.714 4.003 3.666 9.017 5.498 15.042 5.498 4.376 0 9.01-1.376 13.903-4.13v7.682c-4.455 2.37-9.283 3.555-14.483 3.555-7.62 0-14.133-2.58-19.54-7.738-5.407-5.159-8.11-11.378-8.11-18.658 0-7.152 2.658-13.275 7.975-18.368 5.316-5.095 11.72-7.641 19.213-7.641 4.813 0 9.795 1.08 14.945 3.243zM119.727 88.978l-7.87 17.549h15.826l-7.956-17.549zm.019-15.355l23.229 51.093h-7.042l-5.71-12.59h-20.877l-5.647 12.59H96.71l23.036-51.093zM247.784 75.517h7.4l10.998 17.938 10.87-17.938h7.496L269.93 99.644l15.044 25.072h-7.445l-11.337-18.903-11.452 18.903h-7.497l15.205-25.096-14.664-24.103zM292.775 75.517h27.265v6.719h-20.623v12.28h20.623v6.642h-20.623v16.915h20.623v6.643h-27.265v-49.2zM358.002 81l-5.445 4.363c-1.438-1.493-2.742-2.606-3.912-3.34-1.167-.734-2.858-1.1-5.067-1.1-2.415 0-4.375.545-5.875 1.637-1.504 1.089-2.256 2.496-2.256 4.214 0 1.49.658 2.805 1.969 3.949 1.313 1.142 3.55 2.39 6.71 3.75 3.161 1.356 5.62 2.62 7.383 3.793 1.76 1.17 3.204 2.463 4.334 3.876 1.132 1.416 1.975 2.908 2.527 4.477.552 1.57.827 3.228.827 4.977 0 4.091-1.485 7.578-4.459 10.46-2.973 2.879-6.57 4.32-10.795 4.32-4.119 0-7.757-1.126-10.908-3.378-3.154-2.253-5.582-5.632-7.28-10.138l6.718-1.893c2.446 5.535 6.194 8.303 11.239 8.303 2.446 0 4.48-.732 6.103-2.194 1.622-1.463 2.433-3.31 2.433-5.544 0-1.334-.427-2.676-1.276-4.023a11.404 11.404 0 00-3.17-3.33c-1.263-.873-3.273-1.874-6.028-3.005-2.755-1.129-4.873-2.163-6.358-3.103a16.388 16.388 0 01-3.857-3.358c-1.086-1.3-1.881-2.592-2.384-3.878-.505-1.287-.755-2.663-.755-4.129 0-3.524 1.417-6.528 4.247-9.011 2.833-2.483 6.268-3.723 10.312-3.723 2.677 0 5.391.578 8.15 1.738a16.723 16.723 0 016.873 5.29zM397.546 81l-5.445 4.363c-1.441-1.493-2.742-2.606-3.912-3.34-1.167-.734-2.858-1.1-5.067-1.1-2.412 0-4.375.545-5.876 1.637-1.5 1.089-2.252 2.496-2.252 4.214 0 1.49.655 2.805 1.969 3.949 1.31 1.142 3.547 2.39 6.708 3.75 3.16 1.356 5.619 2.62 7.379 3.793 1.763 1.17 3.207 2.463 4.337 3.876 1.132 1.416 1.975 2.908 2.527 4.477.552 1.57.83 3.228.83 4.977 0 4.091-1.488 7.578-4.462 10.46-2.973 2.879-6.57 4.32-10.792 4.32-4.119 0-7.757-1.126-10.911-3.378-3.155-2.253-5.582-5.632-7.28-10.138l6.721-1.893c2.443 5.535 6.19 8.303 11.236 8.303 2.446 0 4.48-.732 6.103-2.194 1.622-1.463 2.433-3.31 2.433-5.544 0-1.334-.424-2.676-1.276-4.023a11.404 11.404 0 00-3.17-3.33c-1.263-.873-3.273-1.874-6.025-3.005-2.758-1.129-4.876-2.163-6.362-3.103a16.388 16.388 0 01-3.856-3.358c-1.086-1.3-1.878-2.592-2.384-3.878a11.25 11.25 0 01-.755-4.129c0-3.524 1.417-6.528 4.25-9.011 2.83-2.483 6.268-3.723 10.309-3.723 2.677 0 5.391.578 8.15 1.738a16.723 16.723 0 016.873 5.29zM185.166 73.623v2.242h-.021v34.04l-36.379-35.933v50.744h6.7v-1.572h.02V89.559l36.379 35.775v-51.71h-6.7zM243.498 125.334l-8.177-18.227-12.587 6.879 20.764 11.348zM220.409 73.87l-.043-.094-.043.095-13.979 31.157-9.11 20.306 23.132-12.643 14.022-7.663-13.98-31.157z"/></g></svg>