<svg viewBox="0 0 450 200" xmlns="http://www.w3.org/2000/svg" xml:space="preserve" fill-rule="evenodd" clip-rule="evenodd" stroke-linejoin="round" stroke-miterlimit="2"><path d="M117.784,7.352C118.765,5.719 118.817,5.431 117.939,4.807C115.202,2.886 111.897,1.925 108.023,1.925C97.849,1.925 91.756,9.225 91.756,20.031C91.756,30.838 97.488,37.465 107.507,37.465C111.174,37.465 115.46,36.265 117.939,34.824C118.817,34.344 118.713,34.007 117.939,32.423L117.371,31.27C116.596,29.733 116.389,29.493 115.615,29.877C113.394,30.982 110.915,31.558 108.643,31.558C102.394,31.558 99.45,27.236 99.45,19.839C99.45,11.963 102.859,7.784 108.591,7.784C111.122,7.784 112.929,8.457 115.305,9.946C115.925,10.33 116.183,9.994 117.112,8.457L117.784,7.352ZM144.638,26.563C145.052,26.563 145.155,25.939 145.155,24.066C145.155,16.573 141.075,11.146 133.225,11.146C125.324,11.146 120.521,16.718 120.521,24.594C120.521,32.759 125.686,37.465 133.794,37.465C137.408,37.465 141.23,36.505 143.812,35.16C144.432,34.824 144.484,34.536 143.864,32.903L143.399,31.702C142.831,30.261 142.573,30.069 142.005,30.309C139.681,31.222 137.254,31.846 134.723,31.846C130.798,31.846 128.474,29.973 127.906,26.563L144.638,26.563ZM127.906,21.856C128.578,18.639 130.437,16.669 133.277,16.669C136.169,16.669 137.77,18.879 138.08,21.856L127.906,21.856ZM153.107,11.627C150.164,11.627 149.957,11.819 150.009,12.491C150.215,15.085 150.37,19.263 150.37,23.009L150.37,36.265C150.37,36.793 150.474,36.985 153.83,36.985L154.089,36.985C157.135,36.985 157.445,36.793 157.445,36.265L157.445,25.026C157.445,23.201 157.445,21.424 157.549,20.32C157.652,19.167 157.91,18.398 158.995,17.774C159.924,17.246 161.267,17.006 162.455,17.006C163.952,17.006 165.243,17.39 165.915,18.11C166.741,18.975 166.948,19.983 166.948,23.297L166.948,36.265C166.948,36.793 167.051,36.985 170.408,36.985L170.666,36.985C173.713,36.985 174.023,36.793 174.023,36.265L174.023,21.472C174.023,17.822 173.3,15.517 171.595,13.74C170.046,12.107 167.567,11.146 164.417,11.146C161.267,11.146 158.581,12.395 156.929,14.172C156.826,13.452 156.722,12.683 156.567,12.251C156.361,11.723 155.896,11.627 153.366,11.627L153.107,11.627ZM185.435,4.711C182.079,4.711 181.975,4.903 181.975,5.431L181.975,11.627L178.412,11.627C177.947,11.627 177.741,11.723 177.741,14.028L177.741,14.364C177.741,16.669 177.947,16.766 178.412,16.766L181.975,16.766L181.975,29.013C181.975,32.134 182.647,34.152 184.093,35.496C185.435,36.745 187.449,37.465 190.341,37.465C192.355,37.465 194.628,37.033 196.28,36.265C196.9,35.977 196.952,35.688 196.384,33.911L196.229,33.431C195.661,31.654 195.402,31.366 194.886,31.51C193.956,31.798 193.027,31.99 192.201,31.99C191.219,31.99 190.445,31.75 189.928,31.318C189.309,30.79 189.05,30.021 189.05,28.628L189.05,16.766L195.196,16.766C195.661,16.766 195.867,16.669 195.867,14.364L195.867,14.028C195.867,11.723 195.661,11.627 195.196,11.627L189.05,11.627L189.05,5.431C189.05,4.903 188.74,4.711 185.694,4.711L185.435,4.711ZM203.665,11.627C200.721,11.627 200.515,11.819 200.567,12.491C200.773,15.085 200.928,19.263 200.928,23.009L200.928,36.265C200.928,36.793 201.031,36.985 204.388,36.985L204.646,36.985C207.693,36.985 208.003,36.793 208.003,36.265L208.003,29.349C208.003,24.834 208.623,22.097 209.914,20.272C211.257,18.398 213.064,17.246 215.956,17.006C216.524,16.958 216.679,16.862 216.679,14.412L216.679,13.74C216.679,11.579 216.576,11.482 216.214,11.338C215.853,11.194 215.388,11.146 214.872,11.146C211.566,11.146 209.397,13.26 207.745,17.198C207.642,15.277 207.28,12.683 207.125,12.251C206.97,11.723 206.505,11.627 203.975,11.627L203.665,11.627ZM242.81,26.563C243.223,26.563 243.326,25.939 243.326,24.066C243.326,16.573 239.247,11.146 231.397,11.146C223.496,11.146 218.693,16.718 218.693,24.594C218.693,32.759 223.857,37.465 231.965,37.465C235.58,37.465 239.401,36.505 241.984,35.16C242.603,34.824 242.655,34.536 242.035,32.903L241.57,31.702C241.002,30.261 240.744,30.069 240.176,30.309C237.852,31.222 235.425,31.846 232.894,31.846C228.97,31.846 226.646,29.973 226.078,26.563L242.81,26.563ZM226.078,21.856C226.749,18.639 228.608,16.669 231.449,16.669C234.34,16.669 235.941,18.879 236.251,21.856L226.078,21.856ZM259.127,11.627C258.664,11.627 258.457,11.723 258.457,14.028L258.457,14.364C258.457,16.669 258.664,16.766 259.127,16.766L262.743,16.766L262.743,36.265C262.743,36.793 262.847,36.985 266.203,36.985L266.462,36.985C269.508,36.985 269.818,36.793 269.818,36.265L269.818,16.766L275.757,16.766C276.222,16.766 276.429,16.669 276.429,14.364L276.429,14.028C276.429,11.723 276.222,11.627 275.757,11.627L269.818,11.627L269.818,10.666C269.818,8.889 270.128,7.544 270.8,6.68C271.471,5.815 272.607,5.431 274.26,5.431C275.344,5.431 276.377,5.575 277.565,5.815C277.978,5.911 278.236,5.623 278.649,3.942L278.856,3.126C279.269,1.445 279.217,1.061 278.753,0.916C277.048,0.34 274.983,0.004 273.072,0.004C269.922,0.004 267.391,0.82 265.635,2.501C263.776,4.278 262.743,6.968 262.743,10.474L262.743,11.627L259.127,11.627ZM291.56,11.146C282.936,11.146 278.288,16.093 278.288,24.786C278.288,33.095 282.987,37.465 290.682,37.465C299.306,37.465 303.954,32.519 303.954,23.826C303.954,15.517 299.255,11.146 291.56,11.146ZM291.405,16.814C295.02,16.814 296.673,19.455 296.673,24.114C296.673,28.917 294.917,31.798 290.837,31.798C287.222,31.798 285.569,29.157 285.569,24.498C285.569,19.695 287.325,16.814 291.405,16.814ZM311.597,11.627C308.654,11.627 308.447,11.819 308.499,12.491C308.705,15.085 308.86,19.263 308.86,23.009L308.86,36.265C308.86,36.793 308.963,36.985 312.32,36.985L312.578,36.985C315.625,36.985 315.935,36.793 315.935,36.265L315.935,29.349C315.935,24.834 316.555,22.097 317.846,20.272C319.189,18.398 320.996,17.246 323.888,17.006C324.456,16.958 324.611,16.862 324.611,14.412L324.611,13.74C324.611,11.579 324.508,11.482 324.146,11.338C323.785,11.194 323.32,11.146 322.804,11.146C319.498,11.146 317.329,13.26 315.677,17.198C315.574,15.277 315.212,12.683 315.057,12.251C314.902,11.723 314.438,11.627 311.907,11.627L311.597,11.627Z" fill="#fff" fill-rule="nonzero" transform="matrix(0.68506,0,0,0.68506,113.729,34.4651)"/><path d="M324.585,93.827C324.585,81.75 318.009,73.002 305.356,73.002C292.619,73.002 284.878,81.982 284.878,94.679C284.878,107.839 293.202,115.425 306.271,115.425C312.098,115.425 318.258,113.877 322.42,111.709C323.419,111.167 323.503,110.703 322.504,108.071L321.754,106.136C320.839,103.813 320.423,103.503 319.507,103.89C315.761,105.361 311.849,106.368 307.77,106.368C301.443,106.368 297.697,103.349 296.781,97.853L323.752,97.853C324.418,97.853 324.585,96.846 324.585,93.827ZM313.18,90.266L296.781,90.266C297.864,85.079 300.86,81.905 305.439,81.905C310.1,81.905 312.681,85.466 313.18,90.266ZM266.607,113.722C266.274,114.341 265.358,114.651 261.028,114.651L260.28,114.651C255.951,114.651 255.119,114.419 254.786,113.645L239.886,75.17C239.553,74.241 239.802,73.776 245.38,73.776L246.129,73.776C250.624,73.776 251.54,74.086 251.873,74.937L257.532,91.04C259.198,95.762 260.613,99.865 261.695,103.89C264.775,96.536 269.104,82.679 270.852,74.937C271.019,74.086 271.351,73.776 276.096,73.776L276.596,73.776C281.174,73.776 282.09,74.318 281.923,74.937C279.343,87.324 272.101,104.355 266.607,113.722ZM214.728,76.873C211.232,74.395 206.487,73.002 200.993,73.002C191.254,73.002 183.762,77.957 183.762,86.085C183.762,100.871 205.072,97.156 205.072,103.194C205.072,105.284 202.491,106.832 198.079,106.832C194.583,106.832 190.671,105.516 187.424,103.503C186.509,102.884 185.759,103.581 184.344,105.903L183.512,107.297C182.18,109.542 182.097,110.238 182.763,110.78C186.176,113.49 191.836,115.425 198.246,115.425C204.323,115.425 208.901,113.954 211.981,111.167C214.645,108.768 216.226,105.361 216.226,101.8C216.226,87.866 194.916,90.885 194.916,85.079C194.916,84.15 195.333,83.453 196.082,82.834C197.164,81.982 199.078,81.518 201.492,81.518C204.739,81.518 207.319,82.447 209.983,83.995C210.899,84.537 211.482,84.15 212.98,81.75L213.729,80.666C215.394,78.034 215.561,77.415 214.728,76.873ZM172.874,114.651L172.457,114.651C168.378,114.651 167.629,114.496 167.296,113.645C167.047,112.948 166.88,111.709 166.713,110.548C164.05,113.49 159.804,115.425 154.727,115.425C149.649,115.425 145.736,113.877 143.239,111.245C140.492,108.38 139.327,104.665 139.327,98.781L139.327,74.937C139.327,74.086 139.493,73.776 144.904,73.776L145.32,73.776C150.231,73.776 150.731,74.086 150.731,74.937L150.731,95.84C150.731,101.181 151.064,102.807 152.396,104.2C153.478,105.361 155.476,105.981 157.89,105.981C159.804,105.981 161.885,105.594 163.384,104.742C165.132,103.736 165.548,102.497 165.715,100.639C165.881,98.859 165.881,95.994 165.881,93.053L165.881,74.937C165.881,74.086 166.048,73.776 171.458,73.776L171.875,73.776C176.786,73.776 177.285,74.086 177.285,74.937L177.285,96.304C177.285,102.342 177.535,109.077 177.868,113.258C177.951,114.341 177.618,114.651 172.874,114.651ZM134.686,110.703L134.686,110.006C134.686,107.142 134.602,106.6 133.853,106.6L132.854,106.6C130.772,106.6 130.106,105.749 130.106,103.968L130.106,81.917C130.106,71.466 129.858,58.054 129.358,55.809C129.192,55.035 128.608,54.803 123.864,54.803L123.448,54.803C118.037,54.803 117.954,54.957 118.037,55.809C118.287,58.596 118.703,72.937 118.703,80.291L118.703,104.587C118.703,108.226 119.369,110.858 121.367,112.716C122.948,114.187 125.363,115.038 128.358,115.038C130.524,115.038 132.688,114.651 133.937,114.109C134.602,113.8 134.686,113.49 134.686,110.703ZM111.461,82.911C109.88,85.698 109.214,85.698 108.465,85.234C105.468,83.298 102.804,82.214 99.224,82.214C93.564,82.214 88.819,85.698 88.819,93.982C88.819,101.8 92.482,106.213 99.724,106.213C103.137,106.213 105.801,105.361 108.964,103.968C109.963,103.503 110.213,103.813 111.628,106.832L112.127,107.916C113.376,110.625 113.293,111.09 112.544,111.554C109.131,113.722 103.97,115.425 98.225,115.425C92.232,115.425 87.154,113.8 83.658,110.78C79.412,107.142 77.082,101.491 77.082,94.524C77.082,87.866 79.246,82.292 83.158,78.498C86.821,75.015 91.982,73.002 98.808,73.002C104.136,73.002 109.214,74.705 112.96,77.57C113.875,78.266 113.709,78.886 112.294,81.44L111.461,82.911ZM70.839,113.49L70.839,89.646C70.839,83.763 69.674,80.047 66.927,77.182C64.429,74.55 60.434,73.002 55.356,73.002C50.278,73.002 45.949,75.015 43.286,77.879C43.119,76.718 42.953,75.479 42.703,74.782C42.37,73.931 41.621,73.776 37.542,73.776L37.125,73.776C32.381,73.776 32.048,74.086 32.131,75.17C32.464,79.35 32.714,86.085 32.714,92.124L32.714,113.49C32.714,114.341 32.88,114.651 38.291,114.651L38.707,114.651C43.618,114.651 44.118,114.341 44.118,113.49L44.118,95.375C44.118,92.433 44.118,89.569 44.284,87.788C44.451,85.93 44.867,84.692 46.615,83.685C48.114,82.834 50.278,82.447 52.193,82.447C54.607,82.447 56.688,83.066 57.77,84.227C59.102,85.621 59.435,87.247 59.435,92.588L59.435,113.49C59.435,114.341 59.601,114.651 65.012,114.651L65.428,114.651C70.34,114.651 70.839,114.341 70.839,113.49ZM23.89,114.651L0.998,114.651C0.249,114.651 0,114.264 0,110.858L0,110.471C0,107.064 0.249,106.678 0.998,106.678L6.409,106.678L6.409,62.637L0.998,62.637C0.249,62.637 0,62.25 0,58.844L0,58.457C0,55.05 0.249,54.663 0.998,54.663L23.89,54.663C24.639,54.663 24.889,55.05 24.889,58.457L24.889,58.844C24.889,62.25 24.639,62.637 23.89,62.637L18.479,62.637L18.479,106.678L23.89,106.678C24.639,106.678 24.889,107.064 24.889,110.471L24.889,110.858C24.889,114.264 24.639,114.651 23.89,114.651ZM223.007,74.937L223.007,113.49C223.007,114.341 223.173,114.651 228.584,114.651L229,114.651C233.911,114.651 234.411,114.341 234.411,113.49L234.411,74.937C234.411,74.086 233.911,73.776 229,73.776L228.584,73.776C223.173,73.776 223.007,74.086 223.007,74.937Z" fill="#00a276" fill-rule="nonzero" transform="matrix(0.68506,0,0,0.68506,113.729,34.4651)"/><path d="M324.85,184.361L324.85,161.213C324.85,155.502 323.719,151.894 321.052,149.113C318.628,146.558 314.749,145.055 309.819,145.055C304.89,145.055 300.687,147.009 298.101,149.79C297.94,148.662 297.778,147.46 297.536,146.783C297.212,145.957 296.485,145.806 292.525,145.806L292.121,145.806C287.515,145.806 287.192,146.107 287.272,147.159C287.596,151.218 287.838,157.756 287.838,163.619L287.838,184.361C287.838,185.188 288,185.489 293.253,185.489L293.657,185.489C298.425,185.489 298.909,185.188 298.909,184.361L298.909,166.775C298.909,163.919 298.909,161.138 299.071,159.41C299.233,157.606 299.637,156.403 301.334,155.426C302.788,154.6 304.89,154.224 306.748,154.224C309.092,154.224 311.112,154.825 312.163,155.952C313.456,157.305 313.779,158.884 313.779,164.069L313.779,184.361C313.779,185.188 313.941,185.489 319.193,185.489L319.597,185.489C324.365,185.489 324.85,185.188 324.85,184.361ZM273.935,198.04C270.622,201.422 265.692,203 259.146,203C254.297,203 248.883,201.647 245.65,199.919C244.842,199.468 244.6,198.942 245.893,196.086L246.459,194.808C247.59,192.328 248.075,191.727 248.964,192.103C251.792,193.305 255.348,194.282 258.5,194.282C264.48,194.282 267.793,191.426 267.793,183.385L267.793,182.257C265.046,184.437 261.409,185.639 257.449,185.639C246.863,185.639 240.317,178.274 240.317,165.948C240.398,152.646 247.833,145.055 258.015,145.055C262.379,145.055 266.096,147.009 268.763,149.715C268.844,148.963 269.248,147.009 269.409,146.633C269.652,146.107 269.652,145.806 273.208,145.806L274.016,145.806C277.167,145.806 277.814,145.882 278.137,146.708C278.865,148.662 278.865,156.028 278.865,162.566L278.865,182.257C278.865,189.547 277.167,194.733 273.935,198.04ZM267.793,158.508C266.015,155.426 263.268,153.923 260.439,153.923C255.025,153.923 251.711,157.831 251.711,165.948C251.711,173.163 254.702,176.921 260.601,176.921C262.863,176.921 265.45,176.169 266.662,174.967C267.551,174.065 267.793,172.863 267.793,170.908L267.793,158.508ZM215.216,148.813C211.822,146.408 207.215,145.055 201.882,145.055C192.427,145.055 185.153,149.865 185.153,157.756C185.153,172.111 205.842,168.503 205.842,174.366C205.842,176.395 203.336,177.898 199.053,177.898C195.659,177.898 191.861,176.62 188.709,174.666C187.82,174.065 187.093,174.742 185.719,176.996L184.911,178.349C183.618,180.528 183.537,181.205 184.184,181.731C187.497,184.361 192.992,186.24 199.215,186.24C205.114,186.24 209.559,184.812 212.549,182.107C215.135,179.777 216.67,176.47 216.67,173.013C216.67,159.485 195.982,162.416 195.982,156.779C195.982,155.877 196.386,155.201 197.114,154.6C198.164,153.773 200.023,153.322 202.367,153.322C205.518,153.322 208.023,154.224 210.61,155.727C211.498,156.253 212.064,155.877 213.519,153.547L214.246,152.495C215.862,149.94 216.024,149.339 215.216,148.813ZM179.093,169.18L152.91,169.18C153.799,174.516 157.435,177.447 163.577,177.447C167.537,177.447 171.335,176.47 174.972,175.042C175.861,174.666 176.265,174.967 177.154,177.222L177.881,179.1C178.851,181.656 178.77,182.107 177.8,182.633C173.76,184.737 167.779,186.24 162.122,186.24C149.435,186.24 141.354,178.875 141.354,166.099C141.354,153.773 148.869,145.055 161.234,145.055C173.517,145.055 179.901,153.547 179.901,165.272C179.901,168.203 179.74,169.18 179.093,169.18ZM161.315,153.698C156.869,153.698 153.96,156.779 152.91,161.814L168.83,161.814C168.345,157.155 165.84,153.698 161.315,153.698ZM137.879,158.207C137.879,149.414 134.97,142.349 130.526,138.065C125.838,133.481 118.565,131.377 108.221,131.377L96.099,131.377C92.947,131.377 92.462,131.527 92.462,132.504L92.462,184.361C92.462,185.338 92.947,185.489 96.099,185.489L108.625,185.489C117.596,185.489 124.465,184.136 129.394,179.777C135.132,174.742 137.879,167.226 137.879,158.207ZM125.919,158.357C125.919,165.046 124.222,170.382 120.909,173.313C117.757,176.019 113.07,176.771 108.383,176.771L104.181,176.771L104.181,140.094L108.706,140.094C115.171,140.094 119.212,141.598 122.121,144.83C124.545,147.535 125.919,152.27 125.919,158.357ZM228.587,145.806L228.991,145.806C233.76,145.806 234.244,146.107 234.244,146.934L234.244,184.361C234.244,185.188 233.76,185.489 228.991,185.489L228.587,185.489C223.335,185.489 223.173,185.188 223.173,184.361L223.173,146.934C223.173,146.107 223.335,145.806 228.587,145.806Z" fill="#fff" fill-rule="nonzero" transform="matrix(0.68506,0,0,0.68506,113.729,34.4651)"/><path d="M228.709,140.628C232.925,140.628 236.344,137.21 236.344,132.993C236.344,128.776 232.925,125.358 228.709,125.358C224.492,125.358 221.074,128.776 221.074,132.993C221.074,137.21 224.492,140.628 228.709,140.628Z" fill="#00a276" fill-rule="nonzero" transform="matrix(0.68506,0,0,0.68506,113.729,34.4651)"/><path d="M228.709,68.335C232.925,68.335 236.344,64.917 236.344,60.7C236.344,56.484 232.925,53.065 228.709,53.065C224.492,53.065 221.074,56.484 221.074,60.7C221.074,64.917 224.492,68.335 228.709,68.335Z" fill="#fff" fill-rule="nonzero" transform="matrix(0.68506,0,0,0.68506,113.729,34.4651)"/></svg>