<svg viewBox="0 0 450 200" xmlns="http://www.w3.org/2000/svg" fill-rule="evenodd" clip-rule="evenodd" stroke-linejoin="round" stroke-miterlimit="2"><g transform="matrix(0.879487,0,0,0.879487,225,100)"><g transform="matrix(1,0,0,1,-195,-75.5)"><clipPath id="a"><rect width="390" height="151"/></clipPath><g clip-path="url(#a)"><path d="M187.532,45.632L187.532,35.855L146.932,35.855L146.932,45.632L161.665,45.632L161.665,81.344L172.799,81.344L172.799,45.632L187.532,45.632ZM220.8,64.302C220.596,53.168 212.856,46.243 203.216,46.243C193.303,46.243 185.156,53.575 185.156,64.302C185.156,75.097 193.303,82.362 203.148,82.362C210.955,82.362 217.134,78.899 220.053,71.703L210.412,69.734C208.579,73.061 205.66,73.672 203.148,73.672C199.481,73.672 196.698,71.16 195.815,67.086L220.8,67.086L220.8,64.302ZM203.216,55.069C206.339,55.069 209.054,56.766 210.073,60.432L196.019,60.432C197.037,56.97 200.16,55.069 203.216,55.069ZM249.179,71.295C247.753,72.11 245.717,72.653 244.223,72.653C241.372,72.653 239.674,71.228 239.674,67.697L239.674,55.884L249.722,55.884L249.722,47.261L239.674,47.261L239.674,37.213L228.811,37.213L228.811,47.261L222.633,47.261L222.633,55.884L228.811,55.884L228.811,68.783C228.811,77.745 233.903,82.362 242.39,82.362C246.26,82.362 249.043,81.276 251.691,79.85L249.179,71.295ZM278.441,46.785C272.874,46.785 269.14,49.705 266.696,53.779L266.696,47.26L255.833,47.26L255.833,81.343L266.696,81.343L266.696,70.683C266.696,61.857 270.837,57.919 278.441,57.919L280.41,57.919L280.885,47.057C280.071,46.853 279.392,46.785 278.441,46.785ZM321.146,47.261L310.283,47.261L310.283,49.977C307.635,47.601 304.105,46.243 299.692,46.243C290.662,46.243 283.058,53.575 283.058,64.302C283.058,75.097 290.662,82.362 299.692,82.362C304.105,82.362 307.635,81.004 310.283,78.628L310.283,81.344L321.146,81.344L321.146,47.261ZM301.932,73.129C297.18,73.129 293.717,69.598 293.717,64.302C293.717,59.075 297.18,55.476 301.932,55.476C306.345,55.476 310.283,59.075 310.283,64.302C310.283,69.598 306.345,73.129 301.932,73.129ZM188.177,122.445L172.625,122.445L172.625,86.733L161.423,86.733L161.423,132.221L188.177,132.221L188.177,122.445ZM209.549,97.257C199.229,97.257 190.674,104.453 190.674,115.18C190.674,125.975 199.229,133.172 209.549,133.172C219.665,133.172 228.219,125.975 228.219,115.18C228.219,104.453 219.665,97.257 209.549,97.257ZM209.549,124.006C205.136,124.006 201.13,120.544 201.13,115.18C201.13,109.885 205.136,106.354 209.549,106.354C213.758,106.354 217.764,109.885 217.764,115.18C217.764,120.544 213.758,124.006 209.549,124.006ZM268.955,98.139L258.296,98.139L258.296,100.38C255.852,98.275 252.457,97.121 248.044,97.121C239.15,97.121 231.614,104.114 231.614,113.551C231.614,123.192 239.15,130.253 248.044,130.253C252.457,130.253 255.852,129.098 258.296,126.994L258.296,127.944C258.296,133.308 254.766,136.227 249.809,136.227C246.279,136.227 244.378,135.073 241.798,132.018L232.768,136.906C236.095,142.405 242.07,145.121 249.877,145.121C260.944,145.121 268.955,139.35 268.955,128.827L268.955,98.139ZM250.352,121.359C245.6,121.359 242.205,118.1 242.205,113.551C242.205,109.002 245.6,105.811 250.352,105.811C254.698,105.811 258.296,109.002 258.296,113.551C258.296,118.1 254.698,121.359 250.352,121.359ZM282.873,81.913C279.207,81.913 276.627,84.764 276.627,88.091C276.627,91.553 279.207,94.133 282.873,94.133C286.539,94.133 289.187,91.553 289.187,88.091C289.187,84.764 286.539,81.913 282.873,81.913ZM288.305,132.221L288.305,98.139L277.442,98.139L277.442,132.221L288.305,132.221ZM313.086,123.735C308.197,123.735 304.939,120.204 304.939,115.18C304.939,110.224 308.197,106.626 313.086,106.626C316.548,106.626 319.332,108.527 320.282,112.668L330.466,110.224C328.565,102.213 321.369,97.121 313.086,97.121C302.902,97.121 294.483,104.453 294.483,115.18C294.483,125.975 302.902,133.24 313.086,133.24C321.572,133.24 328.769,128.012 330.466,119.933L320.486,117.76C319.332,121.902 316.548,123.735 313.086,123.735ZM371.949,98.139L361.086,98.139L361.086,100.855C358.438,98.479 354.908,97.121 350.495,97.121C341.465,97.121 333.861,104.453 333.861,115.18C333.861,125.975 341.465,133.24 350.495,133.24C354.908,133.24 358.438,131.882 361.086,129.506L361.086,132.221L371.949,132.221L371.949,98.139ZM352.735,124.006C347.983,124.006 344.52,120.476 344.52,115.18C344.52,109.953 347.983,106.354 352.735,106.354C357.148,106.354 361.086,109.953 361.086,115.18C361.086,120.476 357.148,124.006 352.735,124.006ZM390.688,83.338L379.825,83.338L379.825,132.221L390.688,132.221L390.688,83.338Z" fill="#fff" fill-rule="nonzero"/><path d="M30.23,51.323L92.957,26.3L96.28,34.628L33.55,59.652L30.228,51.324L30.23,51.323ZM117.092,42.736L117.092,112.354L108.126,112.354L108.126,42.736L117.092,42.736ZM31.609,111.352L19.32,76.47L27.777,73.49L40.067,108.372L31.61,111.352L31.609,111.352ZM98.294,131.229L60.627,131.317L60.607,122.35L98.273,122.263L98.294,131.229Z" fill="#fff" fill-opacity=".8"/><path d="M49.498,110.673L99.916,36.513L104.859,39.873L54.441,114.034L49.498,110.673Z" fill="#fff" fill-opacity=".84"/><path d="M29.985,68.97L102.387,119.682L29.985,68.97Z" fill="#fff"/><path d="M100.673,122.13L28.27,71.419L31.7,66.523L104.102,117.234L100.673,122.13Z" fill="#fff" fill-opacity=".62"/><path d="M18.768,51.277C13.355,51.277 8.966,55.665 8.966,61.079C8.966,66.493 13.355,70.881 18.768,70.881C24.182,70.881 28.57,66.493 28.57,61.079C28.57,55.665 24.182,51.277 18.768,51.277ZM0,61.079C0,50.714 8.403,42.31 18.768,42.31C29.134,42.31 37.537,50.713 37.537,61.078C37.537,71.443 29.134,79.846 18.768,79.846C8.403,79.847 0,71.444 0,61.08L0,61.079ZM112.658,116.8C107.407,116.8 103.086,121.121 103.086,126.372C103.086,131.623 107.407,135.944 112.658,135.944C117.909,135.944 122.23,131.623 122.23,126.372C122.23,121.121 117.909,116.8 112.658,116.8ZM94.119,126.372C94.119,116.134 102.419,107.834 112.658,107.834C122.896,107.834 131.196,116.134 131.196,126.372C131.196,136.61 122.896,144.91 112.658,144.91C102.419,144.91 94.119,136.61 94.119,126.372ZM42.092,112.391C34.183,112.391 27.772,118.802 27.772,126.712C27.772,134.621 34.183,141.033 42.092,141.033C50.002,141.033 56.414,134.621 56.414,126.712C56.414,118.802 50.002,112.391 42.092,112.391ZM18.805,126.712C18.805,113.85 29.231,103.424 42.092,103.424C54.954,103.424 65.38,113.85 65.38,126.712C65.38,139.574 54.954,150 42.092,150C29.232,150 18.805,139.574 18.805,126.713L18.805,126.712ZM112.61,8.966C104.701,8.966 98.289,15.378 98.289,23.287C98.289,31.197 104.701,37.608 112.61,37.608C120.519,37.608 126.931,31.197 126.931,23.288C126.931,15.378 120.519,8.966 112.61,8.966ZM89.322,23.287C89.322,10.427 99.748,0 112.608,0C125.469,0 135.895,10.426 135.895,23.287C135.895,36.148 125.469,46.575 112.608,46.575C99.747,46.575 89.321,36.148 89.321,23.287L89.322,23.287Z" fill="#fff"/></g></g></g></svg>