<svg viewBox="0 0 450 200" xmlns="http://www.w3.org/2000/svg" fill-rule="evenodd" clip-rule="evenodd" stroke-linejoin="round"><path fill="none" d="M49.002 31.654h351.996v136.692H49.002z"/><g fill="#fff"><path d="M216.544 72.422v-8.735h-36.272v8.735h13.163v31.906h9.947V72.422h13.162zm29.722 16.68c-.182-9.947-7.097-16.134-15.71-16.134-8.856 0-16.134 6.55-16.134 16.134 0 9.645 7.278 16.135 16.074 16.135 6.975 0 12.495-3.094 15.103-9.523l-8.613-1.759c-1.638 2.973-4.246 3.518-6.49 3.518-3.276 0-5.763-2.244-6.552-5.884h22.322v-2.487zm-15.71-8.249c2.79 0 5.216 1.516 6.127 4.792h-12.556c.91-3.093 3.7-4.792 6.43-4.792zM271.62 95.35c-1.274.728-3.093 1.213-4.427 1.213-2.548 0-4.065-1.273-4.065-4.428V81.582h8.977v-7.704h-8.977V64.9h-9.705v8.977h-5.52v7.704h5.52v11.524c0 8.006 4.55 12.131 12.132 12.131 3.457 0 5.944-.97 8.31-2.244l-2.245-7.643zm26.143-21.897c-4.973 0-8.31 2.608-10.493 6.248v-5.823h-9.705v30.45h9.705v-9.524c0-7.885 3.7-11.404 10.493-11.404h1.76l.424-9.704c-.728-.182-1.334-.243-2.184-.243zm38.153.425h-9.705v2.426c-2.366-2.123-5.52-3.336-9.462-3.336-8.068 0-14.861 6.55-14.861 16.134 0 9.645 6.793 16.135 14.861 16.135 3.943 0 7.096-1.213 9.462-3.336v2.427h9.705v-30.45zm-17.166 23.11c-4.245 0-7.34-3.154-7.34-7.886 0-4.67 3.095-7.885 7.34-7.885 3.943 0 7.461 3.215 7.461 7.885 0 4.732-3.518 7.886-7.46 7.886zm-101.63 44.06h-13.894v-31.906h-10.008v40.64h23.903v-8.734zm19.094-22.504c-9.22 0-16.863 6.43-16.863 16.013 0 9.644 7.644 16.074 16.863 16.074 9.038 0 16.68-6.43 16.68-16.074 0-9.584-7.642-16.013-16.68-16.013zm0 23.898c-3.942 0-7.521-3.093-7.521-7.885 0-4.73 3.579-7.885 7.521-7.885 3.76 0 7.34 3.154 7.34 7.885 0 4.792-3.58 7.885-7.34 7.885zm53.074-23.11h-9.523v2.003c-2.183-1.881-5.216-2.912-9.159-2.912-7.946 0-14.678 6.248-14.678 14.679 0 8.613 6.732 14.921 14.678 14.921 3.943 0 6.976-1.032 9.16-2.911v.848c0 4.793-3.154 7.4-7.583 7.4-3.154 0-4.852-1.03-7.157-3.76l-8.067 4.367c2.972 4.913 8.31 7.34 15.285 7.34 9.887 0 17.044-5.156 17.044-14.558v-27.417zm-16.62 20.745c-4.245 0-7.278-2.911-7.278-6.975s3.033-6.915 7.278-6.915c3.883 0 7.097 2.85 7.097 6.915 0 4.064-3.214 6.975-7.097 6.975zm29.055-35.241c-3.275 0-5.58 2.547-5.58 5.52 0 3.092 2.305 5.397 5.58 5.397s5.64-2.305 5.64-5.397c0-2.973-2.365-5.52-5.64-5.52zm4.853 44.946v-30.45h-9.705v30.45h9.705zm22.14-7.582c-4.369 0-7.28-3.154-7.28-7.643 0-4.428 2.911-7.642 7.28-7.642 3.092 0 5.58 1.698 6.428 5.398l9.099-2.184c-1.699-7.157-8.128-11.706-15.528-11.706-9.098 0-16.62 6.55-16.62 16.134 0 9.644 7.522 16.135 16.62 16.135 7.582 0 14.012-4.67 15.528-11.889l-8.917-1.941c-1.03 3.7-3.518 5.338-6.61 5.338zm52.588-22.868h-9.705v2.427c-2.366-2.123-5.52-3.336-9.462-3.336-8.068 0-14.861 6.55-14.861 16.134 0 9.644 6.793 16.135 14.86 16.135 3.943 0 7.097-1.213 9.463-3.336v2.426h9.705v-30.45zm-17.166 23.11c-4.245 0-7.34-3.153-7.34-7.885 0-4.67 3.095-7.885 7.34-7.885 3.943 0 7.46 3.215 7.46 7.885 0 4.732-3.517 7.885-7.46 7.885z" fill-rule="nonzero"/><path d="M388.34 106.11h9.706v43.672h-9.706z"/></g><path d="M134.102 48.77a16.851 16.851 0 00-.532 4.214c0 9.308 7.556 16.864 16.863 16.864 3.07 0 5.951-.822 8.432-2.259v68.72a12.6 12.6 0 00-8.432-3.223c-6.98 0-12.647 5.666-12.647 12.648a12.6 12.6 0 003.223 8.43H101.8a16.769 16.769 0 002.26-8.43c0-9.308-7.557-16.864-16.863-16.864-9.308 0-16.864 7.556-16.864 16.864 0 3.07.823 5.95 2.26 8.43H61.9V98.639c1.318.467 2.737.721 4.215.721 6.981 0 12.648-5.667 12.648-12.648 0-6.98-5.667-12.647-12.648-12.647-1.478 0-2.897.254-4.215.72V48.77h72.201z" fill="none"/><g transform="matrix(.8934 0 0 .8934 48.56 31.654)"><clipPath id="a"><path d="M95.749 19.157a18.862 18.862 0 00-.596 4.718c0 10.418 8.458 18.876 18.875 18.876 3.437 0 6.661-.921 9.438-2.529v76.92a14.104 14.104 0 00-9.438-3.609c-7.813 0-14.156 6.343-14.156 14.157 0 3.624 1.365 6.932 3.608 9.437H59.592a18.77 18.77 0 002.529-9.437c0-10.418-8.458-18.876-18.875-18.876-10.418 0-18.876 8.458-18.876 18.876 0 3.437.921 6.661 2.529 9.437H14.933V74.976c1.476.522 3.064.807 4.718.807 7.814 0 14.157-6.344 14.157-14.157S27.465 47.47 19.651 47.47c-1.654 0-3.242.284-4.718.806V19.157h80.816z"/></clipPath><g clip-path="url(#a)" fill="none" stroke="#2d0045"><path d="M19.651 61.626l23.334 66.229 71.043-.165V23.875L19.651 61.626z" stroke-opacity=".62" stroke-width="9.44"/><path d="M114.028 23.875L43.246 127.69" stroke-opacity=".84" stroke-width="6.12"/><path d="M19.651 61.626l94.377 66.064" stroke-opacity=".28" stroke-width="6.12"/></g></g><g fill="none" stroke-width="9.44" transform="matrix(.8934 0 0 .8934 48.56 31.654)"><circle cx="19.834" cy="61.809" r="14.339" stroke="#e100a0"/><circle cx="114.077" cy="127.349" r="14.108" stroke="#a900c0"/><circle cx="43.246" cy="127.69" r="18.875" stroke="#ff1958"/><circle cx="114.028" cy="23.875" r="18.875" stroke="#f56f00"/></g></svg>