<svg viewBox="0 0 450 200" xmlns="http://www.w3.org/2000/svg" fill-rule="evenodd" clip-rule="evenodd" stroke-linejoin="round" stroke-miterlimit="2"><g transform="matrix(0.52459,0,0,0.52459,225,100)"><g transform="matrix(1,0,0,1,-244,-94.5)"><path d="M0.576,54.344L0.576,30.915L100.864,30.915L100.864,54.344L66.107,54.344L66.107,157.433L35.152,157.433L35.152,54.344L0.576,54.344Z" fill="#fff" fill-rule="nonzero"/><path d="M216.25,69.664C216.25,78.194 213.173,86.425 207.018,94.355C203.76,98.44 198.872,101.804 192.355,104.447C185.959,106.97 178.355,108.232 169.546,108.232L150.357,108.232L150.357,157.433L119.401,157.433L119.401,30.915L169.546,30.915C184.269,30.915 195.734,34.7 203.941,42.269C212.147,49.839 216.25,58.97 216.25,69.664ZM150.357,84.803L169.546,84.803C174.252,84.803 177.933,83.421 180.588,80.657C183.364,77.894 184.752,74.289 184.752,69.844C184.752,65.278 183.364,61.554 180.588,58.67C177.812,55.786 174.132,54.344 169.546,54.344L150.357,54.344L150.357,84.803Z" fill="#fff" fill-rule="nonzero"/><path d="M246.246,140.312C233.694,128.057 227.419,112.557 227.419,93.814C227.419,75.07 233.694,59.631 246.246,47.496C258.917,35.241 274.365,29.113 292.588,29.113C306.708,29.113 319.26,32.838 330.242,40.287C341.224,47.736 348.888,58.069 353.232,71.286L316.303,71.286C311.475,62.034 303.752,57.408 293.131,57.408C282.511,57.408 274.124,60.712 267.969,67.321C261.935,73.929 258.917,82.76 258.917,93.814C258.917,104.868 261.935,113.699 267.969,120.307C274.124,126.915 282.33,130.219 292.588,130.219C299.95,130.219 305.924,128.417 310.51,124.813C315.217,121.088 318.354,116.162 319.923,110.034L292.588,102.015L292.588,86.605L353.232,86.605L353.232,110.034C350.939,121.568 344.603,132.322 334.224,142.294C329.276,147.1 323.122,151.005 315.76,154.009C308.519,157.013 300.795,158.515 292.588,158.515C274.365,158.515 258.917,152.447 246.246,140.312Z" fill="#fff" fill-rule="nonzero"/><rect x="385.862" y="29.113" width="101.563" height="130.119" fill="#3878bc"/><circle cx="385.861" cy="46.399" r="17.286" fill="#fff"/><path d="M385.862,63.684C395.408,63.684 403.147,55.945 403.147,46.399C403.147,36.852 395.408,29.113 385.862,29.113L385.862,63.684Z" fill="#d4e5f4" fill-rule="nonzero"/><rect x="369.924" y="74.232" width="31.875" height="85" fill="#fff" fill-rule="nonzero"/><path d="M436.643,0.347L487.424,29.135L487.424,159.232L436.643,188.482L436.643,0.347Z" fill="#eb4d00" fill-rule="nonzero"/><path d="M385.862,74.232L385.862,159.232L401.799,159.232L401.799,96.326L417.844,86.371L417.844,74.232L385.862,74.232Z" fill="#d4e5f4" fill-rule="nonzero"/><path d="M487.424,29L436.643,0.213L436.643,29.113L487.424,29.113L487.424,159.232L436.643,159.232L436.643,188.482L487.424,159.232L487.424,29Z" fill="#fe663b"/></g></g></svg>