<svg viewBox="0 0 450 200" xmlns="http://www.w3.org/2000/svg" fill-rule="evenodd" clip-rule="evenodd" stroke-linejoin="round" stroke-miterlimit="2"><path d="M216.888 81.205c-.469 6.624-9.936 4.918-14.385 6.992-4.148 1.94-9.869 4.583-11.374 12.11-1.204 5.921 1.305 11.474 3.847 14.619 2.442 3.078-1.338 7.46-5.118 3.98-8.029-7.325-13.75-19.335-3.245-33.686 10.504-14.385 31.01-14.485 30.275-4.015m-18.232 39.943c.435-6.322 8.564-4.817 12.88-5.486 4.549-.703 10.27-5.62 11.741-12.813 1.138-5.653-1.271-10.972-3.713-13.983-2.342-2.91 1.271-7.125 4.884-3.813 7.694 6.991 13.18 18.465 3.145 32.215-10.003 13.749-29.606 13.882-28.937 3.88" fill="#fff" fill-rule="nonzero"/><path d="M215.951 94.787c-.468 3.647-5.854 1.807-8.464 2.576-2.442.703-5.787 1.64-6.89 5.687-.87 3.178.4 6.523 1.772 8.53 1.305 1.94-.97 4.048-3.077 1.74-4.383-4.85-7.327-12.076-.837-19.135 6.457-7.025 18.232-5.185 17.496.602" fill="#fff" fill-rule="nonzero"/><path d="M204.51 106.998c.803-2.61 3.647-2.242 5.486-1.874 4.717.937 6.323-4.516 6.122-5.988-.234-1.539 1.439-2.977 2.409-1.17 1.472 2.776 1.238 8.362-2.476 11.106-5.92 4.382-12.812 2.04-11.54-2.074M94.048 124.493a2.677 2.677 0 01-1.806-.669 2.677 2.677 0 01-.67-1.806v-40.21c0-.77.235-1.372.67-1.807a2.677 2.677 0 011.806-.669c.77 0 1.372.234 1.806.67.435.434.67 1.036.67 1.806v40.21a2.677 2.677 0 01-.67 1.806c-.434.469-1.037.67-1.806.67zm-.067-54.628a3.681 3.681 0 01-2.71-1.07c-.736-.803-1.103-1.74-1.103-2.81 0-1.238.4-2.175 1.17-2.81.77-.67 1.673-1.004 2.71-1.004s1.94.334 2.643 1.003c.77.67 1.17 1.606 1.17 2.81l.001.04a3.86 3.86 0 01-3.84 3.841h-.04zm35.895 8.898c4.014 0 7.594.837 10.738 2.476 3.178 1.64 5.654 4.081 7.427 7.26 1.806 3.144 2.71 6.89 2.71 11.306v22.213c0 .702-.235 1.305-.736 1.806a2.341 2.341 0 01-1.74.67 2.677 2.677 0 01-1.806-.67 2.677 2.677 0 01-.67-1.806V99.805c0-5.218-1.471-9.233-4.449-11.976-2.91-2.743-6.757-4.115-11.474-4.115-2.91 0-5.587.57-7.995 1.74-2.375 1.104-4.249 2.676-5.62 4.717-1.372 1.974-2.074 4.181-2.074 6.59v25.257a2.677 2.677 0 01-.67 1.806c-.434.435-1.036.67-1.806.67a2.677 2.677 0 01-1.806-.67 2.677 2.677 0 01-.67-1.806v-40.21c0-.77.235-1.372.67-1.807a2.677 2.677 0 011.806-.669c.77 0 1.372.234 1.807.67.434.434.669 1.036.669 1.806v4.282c1.873-2.309 4.148-4.115 6.857-5.353 2.71-1.305 5.654-1.974 8.832-1.974zm48.139 40.712c.769 0 1.371.235 1.806.736.502.435.736 1.037.736 1.807 0 .702-.234 1.305-.736 1.806-.435.435-1.037.67-1.806.67h-1.907c-3.011 0-5.72-.703-8.096-2.075-2.375-1.371-4.215-3.245-5.52-5.62-1.304-2.408-1.973-5.152-1.973-8.162V85.454h-6.457c-.669 0-1.204-.2-1.639-.569-.401-.435-.569-1.003-.569-1.639 0-.636.201-1.17.57-1.572a2.273 2.273 0 011.638-.67h6.457v-13.48c0-.77.234-1.372.669-1.807.502-.502 1.104-.736 1.806-.736.77 0 1.372.234 1.807.736.501.435.736 1.037.736 1.806v13.448h10.905c.67 0 1.171.234 1.573.67.434.4.669.903.669 1.572s-.235 1.204-.67 1.639c-.4.401-.903.568-1.572.568h-10.905v23.183c0 3.178 1.003 5.821 2.977 7.828 1.974 1.974 4.55 2.978 7.694 2.978l1.807.066zm90.255-40.611c4.35 0 8.297 1.003 11.809 3.044a21.323 21.323 0 018.263 8.263c2.04 3.512 3.044 7.46 3.044 11.809 0 4.282-1.003 8.196-3.044 11.708a21.955 21.955 0 01-8.263 8.33c-3.512 1.974-7.46 2.977-11.809 2.977-3.914 0-7.46-.836-10.638-2.475-3.144-1.706-5.62-4.015-7.426-6.925v25.759c0 .769-.234 1.371-.67 1.806-.434.435-1.036.67-1.806.67a2.677 2.677 0 01-1.806-.67c-.435-.435-.67-1.037-.67-1.806v-39.876c.068-4.249 1.105-8.096 3.145-11.575 1.966-3.4 4.823-6.2 8.263-8.095 3.48-1.974 7.36-2.944 11.608-2.944zm0 41.515c3.412 0 6.49-.803 9.233-2.409 2.743-1.606 4.918-3.814 6.523-6.59 1.606-2.81 2.41-5.955 2.41-9.4 0-3.48-.804-6.59-2.41-9.4-1.605-2.81-3.78-5.019-6.523-6.59-2.743-1.64-5.82-2.476-9.233-2.476-3.412 0-6.49.836-9.233 2.475a17.869 17.869 0 00-6.523 6.59c-1.539 2.81-2.308 5.955-2.308 9.4 0 3.48.77 6.59 2.308 9.4 1.606 2.81 3.78 5.019 6.523 6.591 2.743 1.606 5.821 2.409 9.233 2.409zm32.684 4.114a2.677 2.677 0 01-1.807-.669 2.677 2.677 0 01-.669-1.806v-40.21c0-.77.234-1.372.67-1.807a2.677 2.677 0 011.806-.669c.769 0 1.371.234 1.806.67.435.434.67 1.036.67 1.806v40.21a2.677 2.677 0 01-.67 1.806c-.435.469-1.037.67-1.806.67zm-.067-54.628a3.681 3.681 0 01-2.71-1.07c-.702-.77-1.07-1.707-1.07-2.81 0-1.205.401-2.142 1.17-2.81.77-.67 1.673-1.004 2.71-1.004s1.94.334 2.643 1.003c.77.67 1.17 1.606 1.17 2.81 0 1.104-.4 2.041-1.17 2.81a3.815 3.815 0 01-2.743 1.07zm35.928 8.999c4.282 0 8.196 1.003 11.708 3.044a21.323 21.323 0 018.263 8.263c2.04 3.512 3.045 7.46 3.045 11.809v20.071a2.677 2.677 0 01-.67 1.807c-.434.435-1.037.669-1.806.669a2.677 2.677 0 01-1.806-.67 2.677 2.677 0 01-.67-1.806v-6.456c-1.806 2.91-4.315 5.219-7.526 6.925-3.145 1.639-6.657 2.475-10.571 2.475-4.35 0-8.297-1.003-11.81-2.977a22.617 22.617 0 01-8.329-8.33c-1.974-3.512-2.977-7.426-2.977-11.708 0-4.35 1.003-8.297 2.977-11.81a21.955 21.955 0 018.33-8.262c3.58-2.04 7.493-3.044 11.842-3.044zm0 41.515c3.412 0 6.49-.803 9.233-2.409 2.743-1.606 4.884-3.814 6.456-6.59 1.606-2.81 2.409-5.955 2.409-9.4 0-3.48-.803-6.59-2.409-9.4-1.538-2.81-3.68-5.019-6.456-6.59-2.743-1.64-5.82-2.476-9.233-2.476-3.412 0-6.49.836-9.233 2.475a17.869 17.869 0 00-6.523 6.59c-1.606 2.81-2.409 5.955-2.409 9.4 0 3.48.803 6.59 2.409 9.4 1.605 2.81 3.78 5.019 6.523 6.591 2.743 1.606 5.82 2.409 9.233 2.409z" fill="#fff" fill-rule="nonzero"/></svg>