<svg xmlns="http://www.w3.org/2000/svg" viewBox="0 0 841.89 1190.55"><path fill="#FFE400" d="M193.63 911.86h106.103v104.64H193.63z"/><path fill="#282828" d="M217.616 956.555h-3.372l-.973 6.987h-3.441l.974-6.987h-3.373l-.973 6.987h-3.337v3.129h2.92l-.591 4.379h-3.337v3.129h2.92l-.973 6.986h3.371l.974-6.986h3.441l-.974 6.986h3.372l.974-6.986h3.337v-3.129h-2.92l.591-4.379h3.336v-3.129h-2.92l.974-6.987zm-5.353 14.495h-3.441l.591-4.379h3.441l-.591 4.379zM225.646 955.929c-.834 0-1.547.296-2.138.887a2.915 2.915 0 0 0-.886 2.138c0 .835.295 1.547.886 2.138s1.304.887 2.138.887 1.547-.296 2.138-.887a2.912 2.912 0 0 0 .886-2.138c0-.834-.295-1.546-.886-2.138a2.918 2.918 0 0 0-2.138-.887M223.039 964.271h5.213v16.894h-5.213zM244.52 966.079h-.07a4.872 4.872 0 0 0-2.311-1.721 8.965 8.965 0 0 0-3.042-.504c-1.205 0-2.283.249-3.233.748a7.45 7.45 0 0 0-2.415 1.998 9.322 9.322 0 0 0-1.53 2.867 10.656 10.656 0 0 0-.538 3.389c0 1.275.196 2.445.59 3.512s.956 1.986 1.686 2.764c.73.776 1.604 1.379 2.624 1.808s2.156.643 3.407.643c.579 0 1.141-.081 1.686-.243a7.29 7.29 0 0 0 1.495-.625 6.14 6.14 0 0 0 1.181-.853c.336-.313.608-.619.817-.921h.07v2.225h4.797v-26.278h-5.214v11.191zm-.678 9.734c-.729.788-1.756 1.181-3.076 1.181-1.321 0-2.346-.393-3.077-1.181-.73-.788-1.094-1.819-1.094-3.094s.364-2.306 1.094-3.093c.731-.789 1.756-1.184 3.077-1.184 1.32 0 2.347.395 3.076 1.184.73.787 1.095 1.818 1.095 3.093s-.365 2.305-1.095 3.094M277.271 974.629h4.002v-6.142h-.049z"/><path fill="#282828" d="M254.18 944.365v36.8h5.043v-3.792l6.923-6.218c.352-.318.704-.68 1.056-1.083.353-.402.529-.872.529-1.409 0-.604-.218-1.078-.654-1.423a2.414 2.414 0 0 0-1.536-.516c-.705 0-1.254.219-1.649.655-.394.436-.616.973-.666 1.61l-3.776-.277c.05-.922.243-1.724.579-2.402a5.042 5.042 0 0 1 1.334-1.7 5.64 5.64 0 0 1 1.95-1.02 8.356 8.356 0 0 1 2.43-.34c.805 0 1.561.114 2.265.34a5.31 5.31 0 0 1 1.838 1.007c.52.444.927 1.003 1.221 1.674.293.672.44 1.452.44 2.341 0 .571-.059 1.088-.177 1.549-.117.461-.28.88-.49 1.259-.21.376-.458.726-.743 1.044-.285.319-.595.63-.931.932l-5.412 4.656h7.904v3.113h9.616V977.8h-7.779v-3.171l7.275-11.076h4.128v11.076h2.291v3.171h-2.291v3.365h6.082v-36.8h-36.8z"/></svg>