<svg xmlns="http://www.w3.org/2000/svg" viewBox="0 0 210.22 69.08" style="fill:#000"><path d="M.47 10.48h5.82v18.87H.47zM3.38 1.17A3.25 3.25 0 0 0 1 2.15a3.25 3.25 0 0 0-1 2.39 3.25 3.25 0 0 0 1 2.39 3.25 3.25 0 0 0 2.39 1 3.26 3.26 0 0 0 2.39-1 3.26 3.26 0 0 0 1-2.39 3.26 3.26 0 0 0-1-2.39 3.25 3.25 0 0 0-2.4-.98zM27.58 12.58a5.17 5.17 0 0 0-2.12-1.88 8 8 0 0 0-3.56-.7 6.67 6.67 0 0 0-1.94.27 6.92 6.92 0 0 0-1.59.7 5.65 5.65 0 0 0-1.2 1 4.7 4.7 0 0 0-.79 1.03h-.08v-2.52h-5.58v18.87h5.82V20a13.26 13.26 0 0 1 .12-1.79 4.43 4.43 0 0 1 .48-1.53 2.79 2.79 0 0 1 1.07-1.09 3.6 3.6 0 0 1 1.79-.45 2.5 2.5 0 0 1 2.62 1.67 5.29 5.29 0 0 1 .38 1.61q.06.87.06 1.69v9.24h5.82v-10.4a21.48 21.48 0 0 0-.27-3.53 7.61 7.61 0 0 0-1.03-2.84zM43.13 29.82a12 12 0 0 0 3.51-.56 7.42 7.42 0 0 0 3.2-2l-3.84-4a5.07 5.07 0 0 1-1.2 1 3.13 3.13 0 0 1-1.67.43 4.45 4.45 0 0 1-3.44-1.32 4.88 4.88 0 0 1-1.22-3.46 4.88 4.88 0 0 1 1.22-3.45 4.45 4.45 0 0 1 3.44-1.32 3.54 3.54 0 0 1 1.67.41 3.27 3.27 0 0 1 1.2 1l3.84-4a7.42 7.42 0 0 0-3.2-2 12 12 0 0 0-3.51-.55 11.89 11.89 0 0 0-4.1.7 9.87 9.87 0 0 0-3.34 2 9.39 9.39 0 0 0-2.23 3.13 9.89 9.89 0 0 0-.82 4.08 9.88 9.88 0 0 0 .82 4.09 9.38 9.38 0 0 0 2.23 3.13 9.86 9.86 0 0 0 3.34 2 11.89 11.89 0 0 0 4.1.69zM52.26 0h5.82v29.35h-5.82zM63.77 27.25a5.14 5.14 0 0 0 2.14 1.88 8.16 8.16 0 0 0 3.59.68 6.65 6.65 0 0 0 1.94-.27 6.89 6.89 0 0 0 1.59-.7 5.21 5.21 0 0 0 1.18-1 6.39 6.39 0 0 0 .8-1.09h.08v2.56h5.59V10.48h-5.83v9.4a13.25 13.25 0 0 1-.12 1.79 4.42 4.42 0 0 1-.48 1.53 2.78 2.78 0 0 1-1.07 1.09 3.6 3.6 0 0 1-1.82.41 2.5 2.5 0 0 1-2.62-1.7 5.34 5.34 0 0 1-.35-1.61q-.06-.87-.06-1.69v-9.22H62.5v10.4a23 23 0 0 0 .25 3.53 7.38 7.38 0 0 0 1.02 2.84zM93.25 25.1a5.4 5.4 0 0 1-1.82.29 4.87 4.87 0 0 1-2.31-.52 5.86 5.86 0 0 1-1.81-1.53l-3.53 3.92a7.48 7.48 0 0 0 3.42 2 14.83 14.83 0 0 0 4 .56 16.62 16.62 0 0 0 3.07-.29 8.75 8.75 0 0 0 2.79-1 6.1 6.1 0 0 0 2-1.9 5.28 5.28 0 0 0 .8-3 5 5 0 0 0-.72-2.85 5.3 5.3 0 0 0-1.82-1.69 8.89 8.89 0 0 0-2.32-.94l-2.37-.54a9.46 9.46 0 0 1-1.84-.61 1.08 1.08 0 0 1-.72-1 1.24 1.24 0 0 1 .7-1.2 3.18 3.18 0 0 1 1.44-.35A4.12 4.12 0 0 1 95.58 16l3.57-3.53a7 7 0 0 0-3.22-1.94 13.68 13.68 0 0 0-3.77-.53 11.67 11.67 0 0 0-2.91.37 7.74 7.74 0 0 0-2.54 1.15 6 6 0 0 0-1.79 2 5.75 5.75 0 0 0-.68 2.87 5 5 0 0 0 .76 2.85 5 5 0 0 0 1.82 1.65 9.8 9.8 0 0 0 2.37.87l2.37.54a7.87 7.87 0 0 1 1.82.62 1.18 1.18 0 0 1 .69 1.08 1.07 1.07 0 0 1-.82 1.1zM106 1.17a3.25 3.25 0 0 0-2.39 1 3.25 3.25 0 0 0-1 2.39 3.25 3.25 0 0 0 1 2.39 3.38 3.38 0 0 0 4.78 0 3.25 3.25 0 0 0 1-2.39 3.25 3.25 0 0 0-1-2.39 3.25 3.25 0 0 0-2.39-1zM103.07 10.48h5.82v18.87h-5.82zM122.99 23.29h-.08l-4.77-12.81h-6.29l7.8 18.87h6.18l7.45-18.87h-5.86l-4.43 12.81zM142 29.12a11.89 11.89 0 0 0 4.1.7 10.58 10.58 0 0 0 4.42-1 9.29 9.29 0 0 0 3.48-2.73l-4.08-3a6.52 6.52 0 0 1-1.73 1.65 4.37 4.37 0 0 1-2.43.64 4.28 4.28 0 0 1-2.87-1 4.6 4.6 0 0 1-1.51-2.66h13.52v-1.8a12.61 12.61 0 0 0-.62-4.08 9.15 9.15 0 0 0-1.77-3.13 7.66 7.66 0 0 0-2.8-2 9.31 9.31 0 0 0-3.67-.7 11.89 11.89 0 0 0-4.1.7 9.87 9.87 0 0 0-3.34 2 9.39 9.39 0 0 0-2.23 3.13 9.89 9.89 0 0 0-.82 4.08 9.89 9.89 0 0 0 .82 4.08 9.38 9.38 0 0 0 2.23 3.13 9.86 9.86 0 0 0 3.4 1.99zm-.23-12.68a3.48 3.48 0 0 1 .82-1.13 4.29 4.29 0 0 1 1.26-.8 4.38 4.38 0 0 1 1.71-.31 3.45 3.45 0 0 1 2.6 1 3.37 3.37 0 0 1 1 2.52h-7.69a3.72 3.72 0 0 1 .25-1.28zM52.26 42.91h-.08A5.43 5.43 0 0 0 49.6 41a10 10 0 0 0-3.4-.56 7.67 7.67 0 0 0-3.61.83 8.35 8.35 0 0 0-2.7 2.23 10.43 10.43 0 0 0-1.71 3.2 11.89 11.89 0 0 0-.6 3.79 11.21 11.21 0 0 0 .66 3.92 9 9 0 0 0 1.88 3.09 8.47 8.47 0 0 0 2.93 2 9.75 9.75 0 0 0 3.81.72 6.58 6.58 0 0 0 1.88-.22 8.09 8.09 0 0 0 1.67-.7 6.9 6.9 0 0 0 1.32-1 6.43 6.43 0 0 0 .91-1h.08v2.48h5.36V32.12h-5.82zm-.76 10.87a4.45 4.45 0 0 1-3.44 1.32 4.46 4.46 0 0 1-3.44-1.32 5.49 5.49 0 0 1 0-6.91 4.46 4.46 0 0 1 3.44-1.32 4.45 4.45 0 0 1 3.44 1.32 5.49 5.49 0 0 1 0 6.91zM79.1 43.13a7.66 7.66 0 0 0-2.8-2 9.31 9.31 0 0 0-3.67-.7 11.89 11.89 0 0 0-4.1.7 9.87 9.87 0 0 0-3.34 2A9.39 9.39 0 0 0 63 46.25a10.6 10.6 0 0 0 0 8.15 9.38 9.38 0 0 0 2.23 3.13 9.86 9.86 0 0 0 3.34 2 11.89 11.89 0 0 0 4.1.7 10.58 10.58 0 0 0 4.42-1 9.29 9.29 0 0 0 3.51-2.73l-4.08-3a6.52 6.52 0 0 1-1.73 1.65 4.37 4.37 0 0 1-2.43.64 4.28 4.28 0 0 1-2.87-1A4.6 4.6 0 0 1 68 52.15h13.49v-1.82a12.61 12.61 0 0 0-.62-4.08 9.15 9.15 0 0 0-1.77-3.12zM68 48.19a3.72 3.72 0 0 1 .33-1.34 3.48 3.48 0 0 1 .82-1.13 4.29 4.29 0 0 1 1.26-.8 4.38 4.38 0 0 1 1.71-.31 3.45 3.45 0 0 1 2.6 1 3.37 3.37 0 0 1 1 2.52zM97.46 49.47a8.9 8.9 0 0 0-2.37-.91L92.73 48a9.46 9.46 0 0 1-1.82-.58 1.08 1.08 0 0 1-.72-1 1.23 1.23 0 0 1 .7-1.2 3.18 3.18 0 0 1 1.44-.35 4.13 4.13 0 0 1 3.38 1.59l3.57-3.53A7 7 0 0 0 96 41a13.69 13.69 0 0 0-3.77-.54 11.67 11.67 0 0 0-2.91.37 7.74 7.74 0 0 0-2.54 1.15 6 6 0 0 0-1.79 2 5.75 5.75 0 0 0-.68 2.87 5 5 0 0 0 .72 2.85 5 5 0 0 0 1.87 1.6 9.82 9.82 0 0 0 2.37.87l2.37.54a7.91 7.91 0 0 1 1.83.62 1.18 1.18 0 0 1 .72 1.11 1.07 1.07 0 0 1-.82 1.07 5.39 5.39 0 0 1-1.82.29 4.87 4.87 0 0 1-2.31-.52 5.84 5.84 0 0 1-1.81-1.53l-3.53 3.92a7.46 7.46 0 0 0 3.42 2 14.84 14.84 0 0 0 4 .56 16.59 16.59 0 0 0 3.07-.29 8.77 8.77 0 0 0 2.8-1 6.1 6.1 0 0 0 2-1.9 5.29 5.29 0 0 0 .8-3 5 5 0 0 0-.72-2.85 5.3 5.3 0 0 0-1.81-1.72zM103.07 40.89h5.82v18.87h-5.82zM106 31.58a3.38 3.38 0 1 0 2.39 1 3.25 3.25 0 0 0-2.39-1zM127.53 43.38h-.08a6.07 6.07 0 0 0-.93-1 6.82 6.82 0 0 0-1.4-1 8.77 8.77 0 0 0-4.12-1 7.65 7.65 0 0 0-3.61.83 8.58 8.58 0 0 0-2.7 2.19 10 10 0 0 0-1.69 3.2 11.36 11.36 0 0 0-.6 3.65 11.21 11.21 0 0 0 .66 3.92 9 9 0 0 0 1.88 3.09 8.46 8.46 0 0 0 2.93 2 9.72 9.72 0 0 0 3.8.72 8 8 0 0 0 2.82-.56 5.48 5.48 0 0 0 2.5-1.92h.08v1.82a4.57 4.57 0 0 1-1.26 3.32 5.28 5.28 0 0 1-3.94 1.3 8 8 0 0 1-3.28-.66 12.19 12.19 0 0 1-2.85-1.79l-3.22 4.81a11.26 11.26 0 0 0 4.5 2.19 22.13 22.13 0 0 0 5 .56q5.51 0 8.21-2.78t2.7-8.13V40.89h-5.36zm-.35 8.6a4.55 4.55 0 0 1-1 1.48 5 5 0 0 1-1.49 1 4.36 4.36 0 0 1-1.82.39 4.31 4.31 0 0 1-1.84-.39 5.1 5.1 0 0 1-1.48-1 4.58 4.58 0 0 1 0-6.48 5.12 5.12 0 0 1 1.48-1 4.32 4.32 0 0 1 1.84-.39 4.37 4.37 0 0 1 1.82.39 5.06 5.06 0 0 1 1.49 1 4.61 4.61 0 0 1 1 5zM154.42 43a5.19 5.19 0 0 0-2.12-1.88 8 8 0 0 0-3.57-.68 6.68 6.68 0 0 0-1.94.27 6.91 6.91 0 0 0-1.59.7 5.65 5.65 0 0 0-1.2 1 4.75 4.75 0 0 0-.78 1.09h-.08v-2.61h-5.59v18.87h5.82v-9.4a13.26 13.26 0 0 1 .12-1.79A4.46 4.46 0 0 1 144 47a2.79 2.79 0 0 1 1-1 3.6 3.6 0 0 1 1.83-.41 2.5 2.5 0 0 1 2.62 1.67 5.34 5.34 0 0 1 .35 1.61q.06.87.06 1.69v9.24h5.82V49.36a21.65 21.65 0 0 0-.27-3.53 7.64 7.64 0 0 0-.99-2.83zM191.72 50.7h5.4v-8.29h-.06l-5.34 8.29z"/><path d="M160.56 10.14V59.8h6.81v-5.4l9.34-8.4a17.5 17.5 0 0 0 1.43-1.46 2.8 2.8 0 0 0 .71-1.9 2.31 2.31 0 0 0-.88-1.92 3.25 3.25 0 0 0-2.07-.7 2.84 2.84 0 0 0-2.22.88 3.56 3.56 0 0 0-.9 2.17l-5.1-.37a8.28 8.28 0 0 1 .78-3.24 6.82 6.82 0 0 1 1.8-2.29 7.58 7.58 0 0 1 2.63-1.38 11.25 11.25 0 0 1 3.28-.46 9.94 9.94 0 0 1 3.06.46 7.14 7.14 0 0 1 2.48 1.36 6.2 6.2 0 0 1 1.65 2.26 7.85 7.85 0 0 1 .59 3.16 8.5 8.5 0 0 1-.24 2.09 7.05 7.05 0 0 1-.66 1.7 7.78 7.78 0 0 1-1 1.41 16.41 16.41 0 0 1-1.27 1.23l-7.3 6.28h10.67v4.52h13V55h-10.5v-4.3l9.82-14.95H202V50.7h3.09V55H202v4.8h8.21V10.14z"/></svg>