<svg xmlns="http://www.w3.org/2000/svg" viewBox="0 0 88.87 37.22" style="fill:#fff"><path d="M2.92 29.81H0v-3.13h3.34l.59-4.38H1v-3.12h3.35l1-7h3.34l-1 7h3.44l1-7h3.37l-1 7h2.92v3.13h-3.31l-.59 4.38h2.92v3.13H13.1l-1 7H8.76l1-7H6.29l-1 7H1.95zm7.82-7.51H7.3l-.59 4.38h3.44zM20.51 14.59a3 3 0 1 1 5.16 2.14 3 3 0 0 1-5.16-2.14zm.42 5.32h5.21V36.8h-5.21zM47.62 36.8h-4.8v-2.23h-.07a5.74 5.74 0 0 1-.82.92 6.21 6.21 0 0 1-1.18.85 7.25 7.25 0 0 1-1.49.63 5.86 5.86 0 0 1-1.69.24 8.71 8.71 0 0 1-3.41-.64 7.59 7.59 0 0 1-2.62-1.81A8.07 8.07 0 0 1 29.86 32a10.06 10.06 0 0 1-.59-3.51 10.64 10.64 0 0 1 .54-3.39 9.32 9.32 0 0 1 1.53-2.87 7.46 7.46 0 0 1 2.42-2 6.85 6.85 0 0 1 3.24-.74 9 9 0 0 1 3 .5 4.87 4.87 0 0 1 2.31 1.72h.07V10.52h5.21zm-4.8-8.45a4.37 4.37 0 0 0-1.1-3.09 4 4 0 0 0-3.08-1.18 4 4 0 0 0-3.08 1.18 4.37 4.37 0 0 0-1.09 3.09 4.37 4.37 0 0 0 1.09 3.09 4 4 0 0 0 3.08 1.18 4 4 0 0 0 3.08-1.18 4.37 4.37 0 0 0 1.1-3.09zM75.16 30.26h4v-6.14h-.05l-3.95 6.14z"/><path d="M88.87 0h-36.8v36.8h5V33L64 26.79a12.79 12.79 0 0 0 1.06-1.08 2.07 2.07 0 0 0 .53-1.41 1.71 1.71 0 0 0-.59-1.42 2.41 2.41 0 0 0-1.54-.52 2.11 2.11 0 0 0-1.65.66 2.63 2.63 0 0 0-.67 1.61l-3.78-.28a6.13 6.13 0 0 1 .58-2.4 5 5 0 0 1 1.33-1.7 5.63 5.63 0 0 1 2-1 8.35 8.35 0 0 1 2.43-.34 7.38 7.38 0 0 1 2.27.34 5.31 5.31 0 0 1 1.84 1A4.59 4.59 0 0 1 69 21.91a5.81 5.81 0 0 1 .44 2.34 6.3 6.3 0 0 1-.18 1.55 5.27 5.27 0 0 1-.49 1.26 5.78 5.78 0 0 1-.74 1 12.16 12.16 0 0 1-.93.93l-5.41 4.66h7.9v3.15h9.62v-3.37h-7.83v-3.17l7.27-11.08h4.13v11.08h2.29v3.17h-2.29v3.37h6.08z"/></svg>