<?xml version="1.0" standalone="no"?>
<!DOCTYPE svg PUBLIC "-//W3C//DTD SVG 20010904//EN"
 "http://www.w3.org/TR/2001/REC-SVG-20010904/DTD/svg10.dtd">
<svg version="1.0" xmlns="http://www.w3.org/2000/svg"
 width="1000.000000pt" height="1000.000000pt" viewBox="0 0 1000.000000 1000.000000"
 preserveAspectRatio="xMidYMid meet">
<metadata>
Created by potrace 1.11, written by Peter Selinger 2001-2013
</metadata>
<g transform="translate(0.000000,1000.000000) scale(0.100000,-0.100000)"
fill="#000000" stroke="none">
<path d="M5720 5135 l0 -1755 240 0 240 0 0 179 0 180 336 301 c371 335 426
388 455 442 23 45 25 127 5 167 -24 46 -80 88 -135 101 -128 30 -240 -36 -272
-161 l-13 -48 -55 5 c-31 2 -109 9 -174 13 -65 5 -121 11 -124 14 -3 3 2 41
11 84 42 207 173 347 379 404 106 29 289 32 387 5 251 -68 383 -257 367 -525
-13 -225 -57 -284 -492 -656 -126 -108 -231 -201 -233 -206 -2 -5 152 -9 372
-9 l376 0 0 -145 0 -145 460 0 460 0 0 160 0 160 -375 0 -375 0 0 148 0 147
348 530 348 530 197 3 197 2 0 -530 0 -530 110 0 110 0 0 -150 0 -150 -110 0
-110 0 0 -160 0 -160 290 0 290 0 0 1755 0 1755 -1755 0 -1755 0 0 -1755z"/>
<path d="M4790 5357 l0 -533 -54 52 c-101 98 -226 143 -416 151 -201 8 -323
-29 -467 -141 -127 -100 -235 -273 -285 -456 -20 -74 -23 -107 -22 -265 0
-166 2 -187 27 -268 83 -269 254 -446 512 -527 97 -31 294 -39 385 -16 110 28
207 82 288 161 l72 71 0 -103 0 -103 230 0 230 0 0 1255 0 1255 -250 0 -250 0
0 -533z m-166 -806 c79 -39 146 -110 178 -189 19 -48 22 -76 22 -177 0 -157
-20 -213 -109 -302 -52 -51 -72 -64 -129 -82 -46 -14 -95 -21 -151 -21 -56 0
-105 7 -151 21 -57 18 -77 31 -129 82 -89 90 -110 146 -110 302 0 102 4 129
23 177 42 104 141 190 249 218 21 5 84 8 140 6 91 -2 109 -6 167 -35z"/>
<path d="M2885 5770 c-58 -22 -127 -86 -158 -145 -32 -58 -31 -193 1 -252 28
-54 81 -107 135 -135 34 -19 58 -23 127 -23 99 0 139 17 208 86 75 76 99 179
66 290 -23 76 -107 160 -183 183 -71 21 -134 20 -196 -4z"/>
<path d="M1249 5728 c0 -2 -22 -151 -47 -333 l-47 -330 -158 -3 -157 -3 0
-149 0 -150 135 0 c122 0 135 -2 135 -17 0 -10 -11 -101 -25 -202 -14 -101
-25 -187 -25 -192 0 -5 -72 -9 -160 -9 l-160 0 0 -150 0 -150 140 0 140 0 -5
-27 c-10 -54 -85 -598 -85 -615 0 -16 14 -18 159 -18 l159 0 6 28 c3 15 24
163 47 330 l42 302 164 0 165 0 -6 -27 c-7 -35 -86 -605 -86 -621 0 -9 42 -12
160 -12 157 0 160 0 165 23 6 28 85 608 85 625 0 9 39 12 160 12 l160 0 0 150
0 150 -135 0 -135 0 0 24 c0 13 11 106 25 207 14 101 25 185 25 187 0 1 72 2
160 2 l160 0 0 150 0 150 -140 0 -141 0 6 33 c9 53 85 609 85 624 0 10 -33 13
-159 13 -156 0 -159 0 -164 -22 -3 -13 -25 -164 -48 -335 l-43 -313 -163 0
c-90 0 -163 2 -163 3 0 2 20 147 45 323 25 175 45 325 45 332 0 9 -39 12 -160
12 -88 0 -160 -1 -161 -2z m511 -991 c0 -13 -11 -104 -25 -203 -14 -98 -25
-182 -25 -186 0 -9 -313 -11 -322 -3 -2 3 8 96 24 207 15 112 28 204 28 206 0
1 72 2 160 2 l160 0 0 -23z"/>
<path d="M2740 4185 l0 -805 250 0 250 0 0 805 0 805 -250 0 -250 0 0 -805z"/>
<path d="M8253 4515 c-28 -44 -114 -177 -191 -295 l-138 -215 189 -3 c105 -1
192 -1 194 1 2 2 2 136 1 298 l-3 294 -52 -80z"/>
</g>
</svg>
