<svg xmlns="http://www.w3.org/2000/svg" viewBox="0 0 247.52 50.213"><path d="M32.937 3.444h19.308V49.51zM19.325 3.444H0V49.51zM26.128 20.417l12.307 29.092h-8.063l-3.687-9.266h-9.01l8.453-19.826" fill="#ed1c24"/><path d="M97.26 29.816c-1.478-4.711-5.838-16.527-7.174-21.31h-.07c-1.125 4.431-4.572 13.645-7.175 21.31zM81.504 34.6l-5.063 14.488c-.071.282-.211.422-.563.422h-5.064c-.423 0-.494-.21-.423-.562 3.939-10.973 10.691-29.893 15.193-42.13.14-.563.351-1.055.422-2.954 0-.28.14-.421.422-.421h7.174c.281 0 .351.07.422.351 5.345 14.629 10.971 30.384 16.316 45.154.14.351.07.562-.281.562h-5.696c-.282 0-.422-.14-.493-.422L98.596 34.6h-17.09M135.62 20.533c-1.196-.703-3.025-1.195-5.416-1.195-7.596 0-11.957 5.345-11.957 13.222 0 9.566 5.768 13.011 11.466 13.011 2.18 0 4.36-.281 5.907-1.125zm-23.702 12.239c0-10.34 7.314-17.865 18.427-17.865 2.32 0 3.939.21 5.275.703V.417c0-.28.14-.421.421-.421h5.346c.352 0 .421.14.421.421V43.11c0 1.125.07 2.602.141 3.446 0 .281 0 .492-.352.632-3.868 2.041-8.299 3.025-12.517 3.025-9.848 0-17.162-5.767-17.162-17.441M153.293 32.42c0 7.736 3.587 13.362 10.198 13.362 4.924 0 9.705-3.797 9.705-13.152 0-7.244-2.952-13.292-10.127-13.292-5.837 0-9.776 4.923-9.776 13.081zm26.164.07c0 10.831-6.542 17.723-16.106 17.723-11.604 0-16.318-8.932-16.318-17.653 0-10.128 6.4-17.653 16.387-17.653 10.059 0 16.037 7.384 16.037 17.582M198.101 19.549c-2.673 0-4.993.703-7.033 1.828v23.14c1.83.914 3.939 1.265 6.05 1.265 5.837 0 11.251-4.078 11.251-13.644 0-7.877-3.728-12.59-10.268-12.59zM190.576-.004c.35 0 .492.07.492.421v16.318c2.392-1.125 4.853-1.828 8.088-1.828 9.565 0 15.544 6.892 15.544 16.739 0 12.308-8.44 18.567-17.935 18.567-4.712 0-8.369-.914-11.464-2.321-.281-.07-.422-.352-.422-.563V.417c0-.28.141-.421.422-.421h5.275M237.108 29.183c3.376 0 4.22-.07 4.43-.14.071-.211.071-1.055.071-1.266 0-3.305-1.618-8.58-8.018-8.58-5.556 0-8.44 4.712-8.932 9.986zm-12.52 3.8c-.21 7.384 3.659 12.448 11.465 12.448 3.094 0 5.978-.493 8.651-1.828.21-.141.352-.07.352.28v3.657c0 .352-.07.492-.352.633-2.392 1.267-5.627 2.04-9.847 2.04-12.308 0-16.528-8.65-16.528-17.37 0-9.848 5.698-17.866 15.543-17.866 10.128 0 13.645 7.736 13.645 13.784 0 1.619-.07 2.674-.212 3.447-.069.281-.21.493-.561.493-1.055.142-4.08.282-7.245.282h-14.911" fill="#fff"/></svg>