<svg viewBox="0 0 450 200" xmlns="http://www.w3.org/2000/svg" xml:space="preserve" fill-rule="evenodd" clip-rule="evenodd" stroke-linejoin="round" stroke-miterlimit="2"><g><path d="M98.571,95.571l0,-11.772l39.406,-0c0.402,2.072 0.636,4.543 0.636,7.216c0,8.825 -2.417,19.756 -10.192,27.53c-7.565,7.881 -17.236,12.085 -30.055,12.085c-23.75,0.004 -43.716,-19.334 -43.716,-43.084c0,-23.746 19.966,-43.083 43.716,-43.083c13.135,-0 22.49,5.147 29.53,11.875l-8.3,8.299c-5.045,-4.728 -11.875,-8.406 -21.226,-8.406c-17.338,-0 -30.896,13.977 -30.896,31.315c-0,17.339 13.558,31.315 30.896,31.315c11.243,0 17.655,-4.519 21.751,-8.616c3.342,-3.337 5.538,-8.127 6.391,-14.678l-27.941,0.004Z" fill="#fff" fill-rule="nonzero"/><path d="M198.662,102.89c-0,15.971 -12.503,27.744 -27.847,27.744c-15.344,-0 -27.847,-11.769 -27.847,-27.744c0,-16.079 12.503,-27.744 27.847,-27.744c15.344,0.004 27.847,11.665 27.847,27.744Zm-12.187,-0c-0,-9.983 -7.249,-16.813 -15.656,-16.813c-8.406,-0 -15.659,6.83 -15.659,16.813c-0,9.876 7.249,16.813 15.659,16.813c8.403,-0 15.656,-6.933 15.656,-16.813Z" fill="#fff" fill-rule="nonzero"/><path d="M259.412,102.89c0,15.971 -12.503,27.744 -27.846,27.744c-15.344,-0 -27.847,-11.769 -27.847,-27.744c-0,-16.079 12.503,-27.744 27.847,-27.744c15.343,0.004 27.846,11.665 27.846,27.744Zm-12.187,-0c0,-9.983 -7.249,-16.813 -15.655,-16.813c-8.407,-0 -15.66,6.83 -15.66,16.813c0,9.876 7.249,16.813 15.66,16.813c8.402,-0 15.655,-6.933 15.655,-16.813Z" fill="#fff" fill-rule="nonzero"/><path d="M317.642,76.829l0,49.811c0,20.491 -12.084,28.897 -26.377,28.897c-13.451,0 -21.542,-9.038 -24.591,-16.394l10.615,-4.413c1.892,4.52 6.514,9.881 13.976,9.881c9.142,-0 14.818,-5.677 14.818,-16.288l0,-3.994l-0.418,-0c-2.734,3.362 -7.988,6.305 -14.609,6.305c-13.87,-0 -26.587,-12.085 -26.587,-27.638c0,-15.659 12.717,-27.846 26.587,-27.846c6.621,-0 11.875,2.943 14.609,6.202l0.418,0l0,-4.523l11.559,-0Zm-10.717,26.167c-0,-9.773 -6.514,-16.919 -14.818,-16.919c-8.407,-0 -15.447,7.146 -15.447,16.919c0,9.667 7.04,16.711 15.447,16.711c8.3,-0.004 14.818,-7.044 14.818,-16.711Z" fill="#fff" fill-rule="nonzero"/><rect x="326.098" y="47.677" width="12.191" height="81.274" fill="#fff" fill-rule="nonzero"/><path d="M385.363,112.035l9.457,6.305c-3.05,4.519 -10.405,12.294 -23.118,12.294c-15.762,-0 -27.53,-12.191 -27.53,-27.744c-0,-16.501 11.875,-27.744 26.167,-27.744c14.396,-0 21.44,11.456 23.751,17.654l1.26,3.153l-37.095,15.343c2.836,5.57 7.253,8.407 13.451,8.407c6.194,-0 10.504,-3.046 13.657,-7.668Zm-29.111,-9.987l24.801,-10.299c-1.367,-3.468 -5.464,-5.886 -10.299,-5.886c-6.198,0.004 -14.814,5.468 -14.502,16.185Z" fill="#fff" fill-rule="nonzero"/></g></svg>