<svg viewBox="0 0 450 200" xmlns="http://www.w3.org/2000/svg" xml:space="preserve" fill-rule="evenodd" clip-rule="evenodd" stroke-linejoin="round" stroke-miterlimit="2"><g transform="matrix(1,0,0,1,46.85,52.1)"><path d="M63.7,27.3L63.7,1.1L67.2,1.1L67.2,24.3L80,24.3L80,27.3L63.7,27.3ZM95.8,17.4L92.6,17.4C90,17.4 88.2,17.7 87.2,18.3C86.133,18.9 85.6,19.933 85.6,21.4C85.6,22.533 86,23.433 86.8,24.1C87.533,24.767 88.567,25.1 89.9,25.1C91.7,25.1 93.133,24.467 94.2,23.2C95.267,21.933 95.8,20.233 95.8,18.1L95.8,17.4ZM99,16.1L99,27.3L95.8,27.3L95.8,24.3C95.067,25.5 94.133,26.4 93,27C91.933,27.533 90.6,27.8 89,27.8C87,27.8 85.4,27.267 84.2,26.2C83,25.067 82.4,23.533 82.4,21.6C82.4,19.4 83.133,17.733 84.6,16.6C86.133,15.467 88.367,14.9 91.3,14.9L95.8,14.9L95.8,14.6C95.8,13.133 95.3,11.967 94.3,11.1C93.367,10.3 92,9.9 90.2,9.9C89.067,9.9 87.967,10.033 86.9,10.3C85.833,10.567 84.833,10.967 83.9,11.5L83.9,8.5C85.033,8.1 86.167,7.767 87.3,7.5C88.433,7.3 89.5,7.2 90.5,7.2C93.367,7.2 95.5,7.933 96.9,9.4C98.3,10.867 99,13.1 99,16.1ZM109,27.3L103.8,7.6L107.1,7.6L111.1,23L115.1,7.6L118.9,7.6L123,23L127,7.6L130.2,7.6L125.1,27.3L121.3,27.3L117,11.2L112.8,27.3L109,27.3ZM157.4,3.5C154.8,3.5 152.733,4.467 151.2,6.4C149.733,8.333 149,10.933 149,14.2C149,17.533 149.733,20.167 151.2,22.1C152.733,24.033 154.8,25 157.4,25C160,25 162.033,24.033 163.5,22.1C165.033,20.167 165.8,17.533 165.8,14.2C165.8,10.933 165.033,8.333 163.5,6.4C162.033,4.467 160,3.5 157.4,3.5ZM157.4,0.6C161.067,0.6 164,1.833 166.2,4.3C168.4,6.767 169.5,10.067 169.5,14.2C169.5,18.333 168.4,21.667 166.2,24.2C164,26.6 161.067,27.8 157.4,27.8C153.733,27.8 150.767,26.6 148.5,24.2C146.3,21.733 145.2,18.4 145.2,14.2C145.2,10.067 146.3,6.767 148.5,4.3C150.767,1.833 153.733,0.6 157.4,0.6ZM181.8,-0L184.9,-0L184.9,2.7L181.8,2.7C180.667,2.7 179.867,2.933 179.4,3.4C178.933,3.867 178.7,4.7 178.7,5.9L178.7,7.6L187.6,7.6L187.6,6.3C187.6,4.1 188.1,2.5 189.1,1.5C189.433,1.167 189.833,0.9 190.3,0.7C191.233,0.233 192.467,-0 194,-0L197,-0L197,2.7L193.9,2.7C192.767,2.7 191.967,2.933 191.5,3.4C191.033,3.867 190.8,4.7 190.8,5.9L190.8,7.6L203,7.6L203,27.3L199.7,27.3L199.7,10.2L190.8,10.2L190.8,27.3L187.6,27.3L187.6,10.2L178.7,10.2L178.7,27.3L175.5,27.3L175.5,10.2L172.4,10.2L172.4,7.6L175.5,7.6L175.5,6.3C175.5,4.1 176,2.5 177,1.5C178,0.5 179.6,-0 181.8,-0ZM199.7,4.1L199.7,-0L203,-0L203,4.1L199.7,4.1ZM223.9,8.4L223.9,11.4C222.967,10.933 222.033,10.567 221.1,10.3C220.167,10.033 219.233,9.9 218.3,9.9C216.233,9.9 214.6,10.567 213.4,11.9C212.267,13.233 211.7,15.1 211.7,17.5C211.7,19.9 212.267,21.767 213.4,23.1C214.6,24.433 216.233,25.1 218.3,25.1C219.233,25.1 220.167,24.967 221.1,24.7C222.033,24.433 222.967,24.067 223.9,23.6L223.9,26.6C222.967,27 222,27.3 221,27.5C220.067,27.7 219.067,27.8 218,27.8C215,27.8 212.633,26.9 210.9,25.1C209.167,23.233 208.3,20.7 208.3,17.5C208.3,14.3 209.167,11.767 210.9,9.9C212.7,8.1 215.133,7.2 218.2,7.2C219.2,7.2 220.167,7.3 221.1,7.5C222.033,7.7 222.967,8 223.9,8.4ZM246.3,16.7L246.3,18.3L231.5,18.3C231.633,20.5 232.3,22.2 233.5,23.4C234.7,24.533 236.367,25.1 238.5,25.1C239.767,25.1 240.967,24.933 242.1,24.6C243.233,24.333 244.4,23.9 245.6,23.3L245.6,26.3C244.4,26.833 243.2,27.233 242,27.5C240.8,27.7 239.567,27.8 238.3,27.8C235.167,27.8 232.667,26.9 230.8,25.1C229,23.3 228.1,20.833 228.1,17.7C228.1,14.5 228.967,11.933 230.7,10C232.433,8.133 234.767,7.2 237.7,7.2C240.367,7.2 242.467,8.033 244,9.7C245.533,11.433 246.3,13.767 246.3,16.7ZM231.6,15.8L243.1,15.7C243.1,13.967 242.6,12.567 241.6,11.5C240.667,10.433 239.4,9.9 237.8,9.9C236,9.9 234.533,10.4 233.4,11.4C232.333,12.467 231.733,13.933 231.6,15.8ZM270.7,9.9C268.967,9.9 267.6,10.6 266.6,12C265.6,13.333 265.1,15.167 265.1,17.5C265.1,19.833 265.6,21.7 266.6,23.1C267.6,24.433 268.967,25.1 270.7,25.1C272.433,25.1 273.8,24.433 274.8,23.1C275.8,21.7 276.3,19.833 276.3,17.5C276.3,15.167 275.8,13.333 274.8,12C273.8,10.6 272.433,9.9 270.7,9.9ZM270.7,7.2C273.5,7.2 275.7,8.1 277.3,9.9C278.9,11.767 279.7,14.3 279.7,17.5C279.7,20.7 278.9,23.233 277.3,25.1C275.7,26.9 273.5,27.8 270.7,27.8C267.9,27.8 265.7,26.9 264.1,25.1C262.5,23.233 261.7,20.7 261.7,17.5C261.7,14.3 262.5,11.767 264.1,9.9C265.7,8.1 267.9,7.2 270.7,7.2ZM292,-0L295.1,-0L295.1,2.7L292,2.7C290.8,2.7 290,2.933 289.6,3.4C289.133,3.867 288.9,4.7 288.9,5.9L288.9,7.6L294.2,7.6L294.2,10.2L288.9,10.2L288.9,27.3L285.6,27.3L285.6,10.2L282.5,10.2L282.5,7.6L285.6,7.6L285.6,6.3C285.6,4.1 286.133,2.5 287.2,1.5C288.2,0.5 289.8,-0 292,-0ZM25.1,84.9L1.5,84.9L1.5,50.9L6.8,50.9L6.8,80.2L25.1,80.2L25.1,84.9ZM27,77.5C27,75.9 27.467,74.533 28.4,73.4C29.267,72.133 30.5,71.2 32.1,70.6C33.7,69.933 35.567,69.6 37.7,69.6C38.833,69.6 39.967,69.667 41.1,69.8C42.3,70 43.333,70.267 44.2,70.6L44.2,69C44.2,67.267 43.7,65.9 42.7,64.9C41.633,63.9 40.1,63.4 38.1,63.4C36.7,63.4 35.367,63.633 34.1,64.1C32.833,64.633 31.5,65.333 30.1,66.2L28.4,62.7C30,61.567 31.633,60.733 33.3,60.2C35.033,59.6 36.833,59.3 38.7,59.3C42.033,59.3 44.667,60.2 46.6,62C48.533,63.8 49.5,66.333 49.5,69.6L49.5,78.9C49.5,79.5 49.6,79.933 49.8,80.2C50,80.467 50.367,80.633 50.9,80.7L50.9,84.9C50.433,84.967 50,85.033 49.6,85.1L48.7,85.1C47.567,85.1 46.7,84.833 46.1,84.3C45.5,83.767 45.167,83.133 45.1,82.4L45,80.9C43.867,82.367 42.467,83.467 40.8,84.2C39.067,85 37.333,85.4 35.6,85.4C34,85.4 32.533,85.067 31.2,84.4C29.867,83.667 28.833,82.7 28.1,81.5C27.367,80.3 27,78.967 27,77.5ZM43,79.1C43.4,78.7 43.7,78.267 43.9,77.8C44.1,77.4 44.2,77.033 44.2,76.7L44.2,73.8C43.333,73.467 42.4,73.233 41.4,73.1C40.4,72.9 39.433,72.8 38.5,72.8C36.567,72.8 35,73.167 33.8,73.9C32.6,74.7 32,75.767 32,77.1C32,77.833 32.2,78.533 32.6,79.2C33,79.867 33.567,80.433 34.3,80.9C35.1,81.3 36.033,81.5 37.1,81.5C38.3,81.5 39.4,81.267 40.4,80.8C41.467,80.333 42.333,79.767 43,79.1ZM61.2,84.9L55.9,84.9L55.9,59.8L61.2,59.8L61.2,84.9ZM61.2,55.6L55.9,55.6L55.9,49.8L61.2,49.8L61.2,55.6ZM90,69.6L90,84.9L84.8,84.9L84.8,70.8C84.8,68.467 84.4,66.767 83.6,65.7C82.867,64.567 81.767,64 80.3,64C79.3,64 78.267,64.267 77.2,64.8C76.2,65.333 75.3,66.033 74.5,66.9C73.7,67.767 73.133,68.767 72.8,69.9L72.8,84.9L67.5,84.9L67.5,59.8L72.3,59.8L72.3,64.8C72.967,63.667 73.8,62.7 74.8,61.9C75.867,61.1 77.067,60.467 78.4,60C79.667,59.533 81.033,59.3 82.5,59.3C84.033,59.3 85.267,59.6 86.2,60.2C87.2,60.733 87.967,61.467 88.5,62.4C89.1,63.333 89.5,64.433 89.7,65.7C89.9,66.9 90,68.2 90,69.6ZM107.6,85.4C105.6,85.4 103.8,85.033 102.2,84.3C100.667,83.633 99.3,82.7 98.1,81.5C96.967,80.3 96.1,78.933 95.5,77.4C94.833,75.8 94.5,74.133 94.5,72.4C94.5,70 95.067,67.833 96.2,65.9C97.267,63.9 98.767,62.333 100.7,61.2C102.7,59.933 105,59.3 107.6,59.3C110.2,59.3 112.467,59.933 114.4,61.2C116.267,62.333 117.733,63.9 118.8,65.9C119.867,67.833 120.4,69.933 120.4,72.2L120.4,73.3C120.333,73.567 120.3,73.833 120.3,74.1L100.2,74.1C100.267,75.567 100.667,76.867 101.4,78C102.133,79.067 103.033,79.933 104.1,80.6C105.233,81.2 106.433,81.5 107.7,81.5C109.167,81.5 110.5,81.133 111.7,80.4C112.967,79.733 113.833,78.8 114.3,77.6L118.8,78.9C118.267,80.1 117.433,81.2 116.3,82.2C115.233,83.2 113.933,83.967 112.4,84.5C110.933,85.1 109.333,85.4 107.6,85.4ZM100,70.6L115.2,70.6C115.067,69.133 114.633,67.867 113.9,66.8C113.233,65.667 112.333,64.8 111.2,64.2C110.133,63.533 108.933,63.2 107.6,63.2C106.267,63.2 105.033,63.533 103.9,64.2C102.833,64.8 101.933,65.667 101.2,66.8C100.533,67.867 100.133,69.133 100,70.6ZM124.8,95.4L124.8,90.8C125.333,90.867 125.8,90.933 126.2,91C126.667,91.067 127.067,91.1 127.4,91.1C127.933,91.1 128.4,90.933 128.8,90.6C129.2,90.267 129.6,89.667 130,88.8C130.4,87.867 130.933,86.567 131.6,84.9L121.2,59.8L126.8,59.8L134.4,79.5L141.2,59.8L146.3,59.8L135,90.7C134.6,91.633 134.067,92.5 133.4,93.3C132.733,94.033 131.9,94.633 130.9,95.1C129.9,95.567 128.733,95.8 127.4,95.8C127,95.8 126.6,95.767 126.2,95.7C125.8,95.633 125.333,95.533 124.8,95.4ZM166.9,84.9L161.5,84.9L161.5,50.8L184.2,50.8L184.2,55.5L166.9,55.5L166.9,65.7L181.4,65.7L181.4,70.2L166.9,70.2L166.9,84.9ZM198.5,85.4C196.567,85.4 194.8,85.067 193.2,84.4C191.6,83.667 190.233,82.7 189.1,81.5C187.967,80.3 187.067,78.933 186.4,77.4C185.8,75.8 185.5,74.133 185.5,72.4C185.5,70.067 186.033,67.9 187.1,65.9C188.233,63.9 189.767,62.333 191.7,61.2C193.633,59.933 195.933,59.3 198.6,59.3C201.2,59.3 203.433,59.933 205.3,61.2C207.233,62.333 208.733,63.9 209.8,65.9C210.867,67.833 211.4,69.933 211.4,72.2C211.4,72.533 211.367,72.9 211.3,73.3C211.3,73.567 211.267,73.833 211.2,74.1L191.1,74.1C191.233,75.567 191.633,76.867 192.3,78C193.033,79.067 193.967,79.933 195.1,80.6C196.233,81.2 197.433,81.5 198.7,81.5C200.1,81.5 201.433,81.133 202.7,80.4C203.967,79.733 204.833,78.8 205.3,77.6L209.8,78.9C209.267,80.167 208.433,81.267 207.3,82.2C206.233,83.2 204.933,83.967 203.4,84.5C201.933,85.1 200.3,85.4 198.5,85.4ZM191,70.6L206.1,70.6C206.033,69.133 205.633,67.867 204.9,66.8C204.167,65.667 203.267,64.8 202.2,64.2C201.067,63.533 199.833,63.2 198.5,63.2C197.167,63.2 195.967,63.533 194.9,64.2C193.767,64.8 192.867,65.667 192.2,66.8C191.467,67.867 191.067,69.133 191,70.6ZM221,84.9L215.7,84.9L215.7,59.8L221,59.8L221,84.9ZM221,55.6L215.7,55.6L215.7,49.8L221,49.8L221,55.6ZM249.8,69.6L249.8,84.9L244.5,84.9L244.5,70.8C244.5,68.467 244.133,66.767 243.4,65.7C242.667,64.567 241.567,64 240.1,64C239.033,64 238,64.267 237,64.8C236,65.333 235.1,66.033 234.3,66.9C233.5,67.767 232.933,68.767 232.6,69.9L232.6,84.9L227.3,84.9L227.3,59.8L232.1,59.8L232.1,64.8C232.767,63.667 233.6,62.7 234.6,61.9C235.667,61.1 236.867,60.467 238.2,60C239.467,59.533 240.833,59.3 242.3,59.3C243.833,59.3 245.067,59.6 246,60.2C247,60.733 247.767,61.467 248.3,62.4C248.9,63.333 249.3,64.433 249.5,65.7C249.7,66.9 249.8,68.2 249.8,69.6ZM265.9,85.1C264.233,85.1 262.667,84.767 261.2,84.1C259.8,83.367 258.6,82.433 257.6,81.3C256.6,80.1 255.8,78.733 255.2,77.2C254.667,75.667 254.4,74.033 254.4,72.3C254.4,70.567 254.7,68.9 255.3,67.3C255.9,65.767 256.7,64.4 257.7,63.2C258.767,62 260,61.033 261.4,60.3C262.8,59.633 264.367,59.3 266.1,59.3C268.1,59.3 269.867,59.8 271.4,60.8C272.933,61.733 274.2,62.967 275.2,64.5L275.2,59.8L279.8,59.8L279.8,84.2C279.8,86.6 279.2,88.633 278,90.3C276.867,92.033 275.3,93.333 273.3,94.2C271.3,95.133 269.033,95.6 266.5,95.6C263.7,95.6 261.4,95.1 259.6,94.1C257.733,93.167 256.167,91.867 254.9,90.2L257.9,87.4C258.833,88.733 260.067,89.767 261.6,90.5C263.133,91.167 264.767,91.5 266.5,91.5C267.9,91.5 269.233,91.267 270.5,90.8C271.7,90.267 272.667,89.433 273.4,88.3C274.133,87.167 274.5,85.8 274.5,84.2L274.5,80.3C273.633,81.833 272.4,83.033 270.8,83.9C269.267,84.7 267.633,85.1 265.9,85.1ZM267.6,80.8C268.4,80.8 269.167,80.7 269.9,80.5C270.633,80.167 271.333,79.8 272,79.4C272.6,78.867 273.133,78.333 273.6,77.8C274.067,77.2 274.367,76.533 274.5,75.8L274.5,69.3C274.1,68.167 273.533,67.2 272.8,66.4C272,65.6 271.133,64.967 270.2,64.5C269.2,64.033 268.2,63.8 267.2,63.8C266.067,63.8 265.033,64.067 264.1,64.6C263.233,65.067 262.467,65.733 261.8,66.6C261.2,67.4 260.7,68.3 260.3,69.3C259.967,70.367 259.8,71.433 259.8,72.5C259.8,73.633 260,74.7 260.4,75.7C260.8,76.7 261.367,77.6 262.1,78.4C262.767,79.133 263.6,79.733 264.6,80.2C265.533,80.6 266.533,80.8 267.6,80.8ZM297.4,85.4C295.467,85.4 293.7,85.033 292.1,84.3C290.567,83.633 289.2,82.7 288,81.5C286.933,80.233 286.067,78.833 285.4,77.3C284.8,75.767 284.5,74.1 284.5,72.3C284.5,70.567 284.8,68.933 285.4,67.4C286.067,65.8 286.933,64.4 288,63.2C289.2,62 290.567,61.067 292.1,60.4C293.7,59.667 295.467,59.3 297.4,59.3C299.4,59.3 301.167,59.667 302.7,60.4C304.3,61.067 305.667,62 306.8,63.2C307.933,64.4 308.8,65.8 309.4,67.4C310.067,68.933 310.4,70.567 310.4,72.3C310.4,74.1 310.067,75.767 309.4,77.3C308.8,78.833 307.933,80.233 306.8,81.5C305.667,82.7 304.3,83.633 302.7,84.3C301.167,85.033 299.4,85.4 297.4,85.4ZM290,72.4C290,74 290.333,75.433 291,76.7C291.667,77.967 292.533,78.967 293.6,79.7C294.733,80.433 296,80.8 297.4,80.8C298.8,80.8 300.067,80.433 301.2,79.7C302.333,78.967 303.233,77.967 303.9,76.7C304.567,75.367 304.9,73.9 304.9,72.3C304.9,70.7 304.567,69.267 303.9,68C303.233,66.733 302.333,65.733 301.2,65C300.067,64.2 298.8,63.8 297.4,63.8C296,63.8 294.733,64.2 293.6,65C292.533,65.8 291.667,66.833 291,68.1C290.333,69.3 290,70.733 290,72.4ZM315.1,79.5L315.1,49.8L320.4,49.8L320.4,77.6C320.4,78.867 320.6,79.7 321,80.1C321.333,80.433 321.8,80.6 322.4,80.6C323.067,80.6 323.667,80.533 324.2,80.4C324.733,80.267 325.233,80.1 325.7,79.9L326.4,84.1C325.667,84.433 324.767,84.7 323.7,84.9C322.633,85.167 321.7,85.3 320.9,85.3C319.1,85.3 317.667,84.8 316.6,83.8C315.6,82.733 315.1,81.3 315.1,79.5ZM327.9,72.3C327.9,69.9 328.4,67.733 329.4,65.8C330.333,63.8 331.667,62.233 333.4,61.1C335.067,59.9 337,59.3 339.2,59.3C341.133,59.3 342.867,59.8 344.4,60.8C346,61.8 347.233,63.033 348.1,64.5L348.1,49.8L353.4,49.8L353.4,78.9C353.4,79.5 353.5,79.933 353.7,80.2C353.9,80.467 354.267,80.6 354.8,80.6L354.8,84.9C353.8,85.033 353.033,85.1 352.5,85.1C351.5,85.1 350.667,84.8 350,84.2C349.267,83.667 348.9,83 348.9,82.2L348.8,80.3C347.867,81.9 346.6,83.167 345,84.1C343.333,84.967 341.633,85.4 339.9,85.4C338.167,85.4 336.567,85.033 335.1,84.3C333.633,83.633 332.367,82.7 331.3,81.5C330.233,80.3 329.4,78.9 328.8,77.3C328.2,75.767 327.9,74.1 327.9,72.3ZM348.1,75.8L348.1,69.3C347.767,68.233 347.2,67.3 346.4,66.5C345.6,65.7 344.7,65.067 343.7,64.6C342.767,64.067 341.8,63.8 340.8,63.8C339.733,63.8 338.733,64.067 337.8,64.6C336.867,65.067 336.067,65.7 335.4,66.5C334.733,67.3 334.233,68.2 333.9,69.2C333.567,70.267 333.4,71.333 333.4,72.4C333.4,73.6 333.6,74.7 334,75.7C334.333,76.7 334.867,77.6 335.6,78.4C336.333,79.133 337.167,79.733 338.1,80.2C339.033,80.6 340.067,80.8 341.2,80.8C341.933,80.8 342.633,80.7 343.3,80.5C344.033,80.233 344.733,79.867 345.4,79.4C346.067,78.933 346.633,78.4 347.1,77.8C347.567,77.2 347.9,76.533 348.1,75.8Z" fill="#fffefe" fill-rule="nonzero"/><rect x="4" y="16" width="58" height="1" fill="#fff" fill-rule="nonzero"/><rect x="293" y="16" width="58" height="1" fill="#fff" fill-rule="nonzero"/></g></svg>