<svg xmlns="http://www.w3.org/2000/svg" viewBox="0 0 91.12 31.05" style="fill:#000"><path d="M2.44 24.87H0v-2.61h2.78l.49-3.65H.84V16h2.79l.81-5.83h2.81L6.44 16h2.87l.81-5.83h2.81L12.12 16h2.44v2.61h-2.79l-.49 3.65h2.44v2.61h-2.79l-.81 5.83H7.31l.81-5.83H5.25l-.81 5.83H1.63zM9 18.61H6.09l-.49 3.65h2.87zM17.11 12.17A2.52 2.52 0 1 1 21.42 14a2.52 2.52 0 0 1-4.31-1.78zm.35 4.44h4.35V30.7h-4.35zM39.73 30.7h-4v-1.85h-.06a4.77 4.77 0 0 1-.68.77 5.18 5.18 0 0 1-1 .71 6.06 6.06 0 0 1-1.25.52 4.89 4.89 0 0 1-1.41.2 7.27 7.27 0 0 1-2.84-.54A6.33 6.33 0 0 1 26.32 29a6.75 6.75 0 0 1-1.41-2.31 8.41 8.41 0 0 1-.49-2.93 8.88 8.88 0 0 1 .45-2.83 7.77 7.77 0 0 1 1.28-2.39 6.22 6.22 0 0 1 2-1.67 5.72 5.72 0 0 1 2.7-.62 7.48 7.48 0 0 1 2.54.42 4.07 4.07 0 0 1 1.93 1.44h.06V8.78h4.35zm-4-7a3.64 3.64 0 0 0-.91-2.58 3.33 3.33 0 0 0-2.57-1 3.33 3.33 0 0 0-2.57 1 3.64 3.64 0 0 0-.91 2.58 3.64 3.64 0 0 0 .91 2.58 3.33 3.33 0 0 0 2.57 1 3.33 3.33 0 0 0 2.57-1 3.64 3.64 0 0 0 .91-2.63zM91.12 30.7h-4.18v-1.91h-.06a4.83 4.83 0 0 1-.6.81 3.86 3.86 0 0 1-.88.73 5.18 5.18 0 0 1-1.19.52 5 5 0 0 1-1.45.2 6.07 6.07 0 0 1-2.68-.51 3.83 3.83 0 0 1-1.6-1.41 5.51 5.51 0 0 1-.75-2.13 17.37 17.37 0 0 1-.19-2.64v-7.75h4.35v8.16A4 4 0 0 0 82.2 26a1.87 1.87 0 0 0 2 1.25 2.68 2.68 0 0 0 1.36-.3 2.07 2.07 0 0 0 .8-.81 3.33 3.33 0 0 0 .32-1.14 9.93 9.93 0 0 0 .09-1.33v-7h4.35zM62.68 25.25h3.34v-5.12h-.04l-3.3 5.12z"/><path d="M74.12 0h-30.7v30.7h4.21v-3.16l5.78-5.19a10.67 10.67 0 0 0 .88-.9 1.73 1.73 0 0 0 .44-1.18 1.43 1.43 0 0 0-.55-1.19 2 2 0 0 0-1.28-.43 1.76 1.76 0 0 0-1.37.55 2.2 2.2 0 0 0-.53 1.34l-3.15-.23a5.12 5.12 0 0 1 .48-2 4.22 4.22 0 0 1 1.11-1.42A4.69 4.69 0 0 1 51 16a7 7 0 0 1 2-.28 6.16 6.16 0 0 1 2 .28 4.43 4.43 0 0 1 1.53.84 3.83 3.83 0 0 1 1 1.4 4.86 4.86 0 0 1 .37 2 5.26 5.26 0 0 1-.15 1.29 4.38 4.38 0 0 1-.41 1 4.82 4.82 0 0 1-.62.87 10.06 10.06 0 0 1-.78.78l-4.53 3.92H58v2.6h8v-2.81h-6.47v-2.64L65.6 16H69v9.24h2v2.65h-2v2.81h5.07z"/></svg>