<svg xmlns="http://www.w3.org/2000/svg" viewBox="0 0 188.51 61.94" style="fill:#fff"><path d="M3 1a2.91 2.91 0 0 0-2.14.89A2.92 2.92 0 0 0 0 4.07a2.92 2.92 0 0 0 .89 2.14A2.92 2.92 0 0 0 3 7.1a2.92 2.92 0 0 0 2.14-.89 2.92 2.92 0 0 0 .89-2.14 2.92 2.92 0 0 0-.89-2.14A2.92 2.92 0 0 0 3 1zM.42 9.4h5.22v16.92H.42zM24.73 11.28a4.64 4.64 0 0 0-1.9-1.69A7.21 7.21 0 0 0 19.64 9a6 6 0 0 0-1.74.24 6.21 6.21 0 0 0-1.43.63 5.07 5.07 0 0 0-1.08.87 4.21 4.21 0 0 0-.7 1h-.07V9.4h-5v16.92h5.22v-8.43a11.89 11.89 0 0 1 .1-1.6 4 4 0 0 1 .43-1.37 2.5 2.5 0 0 1 1-1 3.22 3.22 0 0 1 1.63-.34 2.25 2.25 0 0 1 2.35 1.5 4.75 4.75 0 0 1 .31 1.44q.05.78.05 1.51v8.29h5.19V17a19.26 19.26 0 0 0-.24-3.17 6.83 6.83 0 0 0-.93-2.55zM38.68 26.74a10.8 10.8 0 0 0 3.15-.51 6.65 6.65 0 0 0 2.87-1.76l-3.45-3.62a4.55 4.55 0 0 1-1.08.91 2.81 2.81 0 0 1-1.5.38A4 4 0 0 1 35.6 21a4.38 4.38 0 0 1-1.1-3.1 4.38 4.38 0 0 1 1.1-3.1 4 4 0 0 1 3.08-1.18 3.17 3.17 0 0 1 1.5.37 2.93 2.93 0 0 1 1.08.92l3.45-3.62a6.66 6.66 0 0 0-2.87-1.76A10.8 10.8 0 0 0 38.68 9a10.66 10.66 0 0 0-3.68.61 8.85 8.85 0 0 0-3 1.79 8.42 8.42 0 0 0-2 2.8 8.87 8.87 0 0 0-.73 3.66 8.86 8.86 0 0 0 .73 3.65 8.41 8.41 0 0 0 2 2.8 8.84 8.84 0 0 0 3 1.79 10.66 10.66 0 0 0 3.68.64zM46.86 0h5.22v26.32h-5.22zM57.18 24.44a4.61 4.61 0 0 0 1.92 1.69 7.32 7.32 0 0 0 3.22.61 6 6 0 0 0 1.74-.24 6.18 6.18 0 0 0 1.43-.63 4.67 4.67 0 0 0 1.05-.87 5.73 5.73 0 0 0 .71-1h.07v2.3h5V9.4h-5.2v8.43a11.88 11.88 0 0 1-.1 1.6 4 4 0 0 1-.43 1.37 2.49 2.49 0 0 1-1 1 3.22 3.22 0 0 1-1.64.37 2.25 2.25 0 0 1-2.35-1.5 4.79 4.79 0 0 1-.31-1.44q-.05-.78-.05-1.51V9.4H56v9.33a20.67 20.67 0 0 0 .23 3.17 6.62 6.62 0 0 0 .95 2.54zM83.62 22.51a4.84 4.84 0 0 1-1.64.26 4.37 4.37 0 0 1-2.07-.47 5.26 5.26 0 0 1-1.62-1.38l-3.17 3.52a6.7 6.7 0 0 0 3.06 1.79 13.3 13.3 0 0 0 3.59.51 14.9 14.9 0 0 0 2.75-.26 7.85 7.85 0 0 0 2.48-.91 5.47 5.47 0 0 0 1.83-1.71 4.74 4.74 0 0 0 .71-2.7 4.52 4.52 0 0 0-.64-2.56 4.75 4.75 0 0 0-1.64-1.51 8 8 0 0 0-2.12-.82L83 15.79a8.49 8.49 0 0 1-1.64-.52 1 1 0 0 1-.64-.92 1.11 1.11 0 0 1 .63-1.08 2.85 2.85 0 0 1 1.33-.27 3.7 3.7 0 0 1 3 1.43l3.2-3.17A6.27 6.27 0 0 0 86 9.47 12.27 12.27 0 0 0 82.65 9a10.47 10.47 0 0 0-2.65.31 6.94 6.94 0 0 0-2.28 1 5.37 5.37 0 0 0-1.6 1.78 5.16 5.16 0 0 0-.61 2.58 4.51 4.51 0 0 0 .64 2.56 4.44 4.44 0 0 0 1.64 1.48 8.79 8.79 0 0 0 2.12.78l2.12.49a7.06 7.06 0 0 1 1.64.56 1.06 1.06 0 0 1 .64 1 1 1 0 0 1-.69.97zM95 1a2.92 2.92 0 0 0-2.14.89A2.92 2.92 0 0 0 92 4.07a2.92 2.92 0 0 0 .89 2.14 3 3 0 0 0 4.28 0 2.92 2.92 0 0 0 .89-2.14 2.92 2.92 0 0 0-.89-2.14A2.92 2.92 0 0 0 95 1zM92.43 9.4h5.22v16.92h-5.22zM110.29 20.89h-.07L105.94 9.4h-5.64l6.99 16.92h5.54l6.68-16.92h-5.25l-3.97 11.49zM127.29 26.11a10.66 10.66 0 0 0 3.67.63 9.49 9.49 0 0 0 4-.87 8.33 8.33 0 0 0 3.17-2.47l-3.66-2.68a5.85 5.85 0 0 1-1.55 1.48 3.92 3.92 0 0 1-2.18.57 3.84 3.84 0 0 1-2.58-.89 4.12 4.12 0 0 1-1.36-2.38h12.1v-1.64a11.31 11.31 0 0 0-.56-3.66 8.2 8.2 0 0 0-1.58-2.8 6.87 6.87 0 0 0-2.51-1.79A8.35 8.35 0 0 0 131 9a10.66 10.66 0 0 0-3.67.63 8.85 8.85 0 0 0-3 1.79 8.42 8.42 0 0 0-2 2.8 8.87 8.87 0 0 0-.73 3.66 8.86 8.86 0 0 0 .73 3.66 8.41 8.41 0 0 0 2 2.8 8.84 8.84 0 0 0 2.96 1.77zm-.21-11.37a3.12 3.12 0 0 1 .73-1 3.84 3.84 0 0 1 1.13-.71 3.92 3.92 0 0 1 1.53-.28 3.09 3.09 0 0 1 2.33.94 3 3 0 0 1 .87 2.26h-6.89a3.34 3.34 0 0 1 .3-1.21zM46.86 38.48h-.07a4.87 4.87 0 0 0-2.31-1.72 9 9 0 0 0-3-.51 6.87 6.87 0 0 0-3.24.75 7.49 7.49 0 0 0-2.42 2 9.35 9.35 0 0 0-1.53 2.87 10.67 10.67 0 0 0-.54 3.39 10.05 10.05 0 0 0 .59 3.52A8.06 8.06 0 0 0 36 51.55a7.6 7.6 0 0 0 2.63 1.81A8.74 8.74 0 0 0 42 54a5.9 5.9 0 0 0 1.69-.24 7.26 7.26 0 0 0 1.5-.63 6.19 6.19 0 0 0 1.18-.85 5.76 5.76 0 0 0 .82-.92h.07v2.23h4.8V28.41h-5.2zm-.68 9.75a4 4 0 0 1-3.08 1.18 4 4 0 0 1-3.1-1.18A4.93 4.93 0 0 1 40 42a4 4 0 0 1 3.08-1.18 4 4 0 0 1 3.1 1.18 4.92 4.92 0 0 1 0 6.2zM70.93 38.67a6.87 6.87 0 0 0-2.51-1.79 8.35 8.35 0 0 0-3.29-.63 10.66 10.66 0 0 0-3.67.63 8.85 8.85 0 0 0-3 1.79 8.42 8.42 0 0 0-2 2.8 9.51 9.51 0 0 0 0 7.31 8.41 8.41 0 0 0 2 2.8 8.84 8.84 0 0 0 3 1.79 10.66 10.66 0 0 0 3.67.63 9.49 9.49 0 0 0 4-.87 8.33 8.33 0 0 0 3.17-2.47L68.62 48a5.85 5.85 0 0 1-1.55 1.48 3.92 3.92 0 0 1-2.18.57 3.84 3.84 0 0 1-2.58-.89A4.12 4.12 0 0 1 61 46.77h12.07v-1.64a11.31 11.31 0 0 0-.56-3.66 8.2 8.2 0 0 0-1.58-2.8zM61 43.22a3.34 3.34 0 0 1 .29-1.2A3.12 3.12 0 0 1 62 41a3.84 3.84 0 0 1 1.13-.71 3.92 3.92 0 0 1 1.52-.29A3.09 3.09 0 0 1 67 41a3 3 0 0 1 .87 2.26zM87.4 44.36a8 8 0 0 0-2.12-.82l-2.12-.49a8.49 8.49 0 0 1-1.64-.52 1 1 0 0 1-.64-.92 1.11 1.11 0 0 1 .63-1.08 2.85 2.85 0 0 1 1.29-.31 3.7 3.7 0 0 1 3 1.43l3.2-3.17a6.28 6.28 0 0 0-2.89-1.74 12.27 12.27 0 0 0-3.38-.49 10.46 10.46 0 0 0-2.61.33 6.94 6.94 0 0 0-2.28 1 5.35 5.35 0 0 0-1.6 1.78 5.16 5.16 0 0 0-.59 2.64 4.52 4.52 0 0 0 .64 2.56A4.44 4.44 0 0 0 77.93 46a8.81 8.81 0 0 0 2.12.78l2.12.49a7.1 7.1 0 0 1 1.64.56 1.06 1.06 0 0 1 .64 1 1 1 0 0 1-.73 1 4.84 4.84 0 0 1-1.64.26 4.37 4.37 0 0 1-2.08-.52 5.24 5.24 0 0 1-1.62-1.38l-3.17 3.52a6.69 6.69 0 0 0 3.06 1.79 13.31 13.31 0 0 0 3.59.51 14.87 14.87 0 0 0 2.75-.26 7.87 7.87 0 0 0 2.51-.91 5.47 5.47 0 0 0 1.88-1.7 4.75 4.75 0 0 0 .71-2.7 4.52 4.52 0 0 0-.71-2.56 4.75 4.75 0 0 0-1.6-1.52zM95 28.32a3 3 0 1 0 2.14.89 2.91 2.91 0 0 0-2.14-.89zM92.43 36.67h5.22v16.92h-5.22zM114.36 38.9h-.07a5.45 5.45 0 0 0-.84-.92 6.12 6.12 0 0 0-1.25-.85 7.87 7.87 0 0 0-3.69-.87 6.86 6.86 0 0 0-3.24.75 7.7 7.7 0 0 0-2.42 2 9 9 0 0 0-1.53 2.82 10.19 10.19 0 0 0-.54 3.27 10.05 10.05 0 0 0 .59 3.52 8.08 8.08 0 0 0 1.69 2.77 7.59 7.59 0 0 0 2.63 1.81 8.71 8.71 0 0 0 3.41.64 7.18 7.18 0 0 0 2.52-.51 4.92 4.92 0 0 0 2.25-1.72h.07v1.64a4.1 4.1 0 0 1-1.13 3 4.73 4.73 0 0 1-3.53 1.17 7.2 7.2 0 0 1-2.94-.59 10.93 10.93 0 0 1-2.56-1.6l-2.89 4.32a10.09 10.09 0 0 0 4 2 19.84 19.84 0 0 0 4.46.5q4.94 0 7.36-2.49t2.42-7.29v-15.6h-4.8zm-.36 7.71a4.08 4.08 0 0 1-.89 1.32 4.52 4.52 0 0 1-1.34.92 3.91 3.91 0 0 1-1.64.35 3.87 3.87 0 0 1-1.65-.35 4.57 4.57 0 0 1-1.32-.92 4.11 4.11 0 0 1 0-5.81 4.59 4.59 0 0 1 1.32-.92 3.88 3.88 0 0 1 1.65-.35 3.92 3.92 0 0 1 1.64.35 4.54 4.54 0 0 1 1.34.92 4.13 4.13 0 0 1 .89 4.49zM138.47 38.55a4.65 4.65 0 0 0-1.9-1.69 7.21 7.21 0 0 0-3.2-.61 6 6 0 0 0-1.74.24 6.19 6.19 0 0 0-1.43.63 5.07 5.07 0 0 0-1.08.87 4.26 4.26 0 0 0-.7 1h-.07v-2.3h-5v16.9h5.22v-8.43a11.89 11.89 0 0 1 .1-1.6 4 4 0 0 1 .44-1.37 2.5 2.5 0 0 1 1-1 3.23 3.23 0 0 1 1.64-.37 2.25 2.25 0 0 1 2.35 1.5 4.79 4.79 0 0 1 .31 1.44q.05.78.05 1.51v8.29h5.22v-9.3a19.42 19.42 0 0 0-.24-3.17 6.85 6.85 0 0 0-.97-2.54zM144 9.09v44.54h6.09v-4.8l8.38-7.52a15.69 15.69 0 0 0 1.25-1.31 2.51 2.51 0 0 0 .64-1.71 2.07 2.07 0 0 0-.79-1.72 2.92 2.92 0 0 0-1.86-.62 2.55 2.55 0 0 0-2 .79 3.19 3.19 0 0 0-.81 1.95l-4.57-.34a7.42 7.42 0 0 1 .7-2.91 6.09 6.09 0 0 1 1.61-2.06 6.8 6.8 0 0 1 2.36-1.23 10.08 10.08 0 0 1 2.94-.41 8.91 8.91 0 0 1 2.74.41 6.39 6.39 0 0 1 2.22 1.22 5.56 5.56 0 0 1 1.48 2 7 7 0 0 1 .53 2.83 7.62 7.62 0 0 1-.21 1.87 6.38 6.38 0 0 1-.59 1.52 7 7 0 0 1-.9 1.26A15 15 0 0 1 162.1 44l-6.55 5.64h9.56v4h11.64v-4.29h-9.41v-3.84l8.8-13.4h5v13.4h2.77v3.84h-2.77v4.28h7.37V9.09z"/><path d="M171.91 45.51h4.84v-7.43h-.06l-4.78 7.43z"/></svg>