<svg viewBox="0 0 450 200" xmlns="http://www.w3.org/2000/svg" fill-rule="evenodd" clip-rule="evenodd" stroke-linejoin="round" stroke-miterlimit="2"><path d="M48.52 73.033V51.235h2.717v21.798H48.52zm17.845 0v-9.881c0-2.933-.834-4.045-3.119-4.045-2.007 0-5.156 2.038-5.156 4.261v9.665h-2.47V57.719l2.47-.711v2.594c1.142-1.174 3.15-2.594 5.62-2.594 3.24 0 5.125 1.39 5.125 5.65v10.375h-2.47zm21.023.37c-1.915 0-3.242-.648-4.076-1.482v7.194l-2.47.71v-18.71c0-1.08-.216-2.409-.865-3.458l2.223-.65a5.95 5.95 0 01.803 1.946c.926-.895 2.624-1.945 4.631-1.945 4.2 0 6.885 3.149 6.885 7.935.002 5.219-3.21 8.46-7.131 8.46zm-.03-14.296c-1.884 0-3.15 1.204-4.045 2.131v6.608c0 1.667.957 3.49 3.952 3.49 3.304 0 4.508-3.088 4.508-6.422 0-3.892-2.038-5.807-4.415-5.807zm20.592 14.296c-.34-.494-.71-1.39-.865-2.191-1.328 1.173-3.241 2.191-5.125 2.191-3.12 0-4.848-1.82-4.848-4.322 0-2.563 1.667-4.632 5.897-5.373l3.829-.679v-.494c0-2.779-1.142-3.458-3.212-3.458-1.852 0-3.611.926-4.662 1.667l-1.142-1.821c1.327-1.02 3.705-1.915 6.02-1.915 3.15 0 5.465 1.112 5.465 5.372v6.979c0 1.606.463 2.686.866 3.397l-2.223.647zm-1.111-8.553l-2.995.617c-2.995.618-4.137 1.791-4.137 3.52 0 1.513.926 2.502 2.717 2.502 1.296 0 2.995-.988 4.415-2.254V64.85zm14.818-5.31c-.37-.124-.926-.185-1.482-.185-1.79 0-3.952 2.224-3.952 4.724v8.954h-2.47V57.626l2.161-.617v2.995c1.45-2.254 3.027-2.995 4.632-2.995.803 0 1.235.062 1.606.154l-.495 2.377zm10.187-.309h-3.798v9.14c0 2.254.309 2.965 1.575 2.965.71 0 1.482-.185 2.1-.433l.586 1.883c-.926.34-2.223.617-3.397.617-2.254 0-3.335-1.328-3.335-4.26V59.23h-3.119l.68-1.853h2.44v-3.92l2.47-.71v4.63h4.415l-.617 1.853zm13.863 13.802v-9.881c0-2.933-.834-4.045-3.12-4.045-2.006 0-5.155 2.038-5.155 4.261v9.665h-2.47V57.719l2.47-.711v2.594c1.142-1.174 3.149-2.594 5.619-2.594 3.241 0 5.125 1.39 5.125 5.65v10.375h-2.47zm8.52-7.564c0 3.427 1.698 5.897 4.91 5.897 1.327 0 2.778-.555 3.951-1.328l1.08 1.853c-1.698 1.08-3.427 1.512-5.31 1.512-4.91 0-7.317-3.457-7.317-7.78 0-5.156 2.902-8.615 7.255-8.615 3.736 0 5.805 2.624 5.805 6.237v2.224h-10.374zm7.904-2.84c0-2.038-1.45-3.644-3.458-3.644-2.655 0-4.076 2.223-4.353 4.6h7.812v-.957h-.001zm13.645-3.09c-.37-.123-.926-.184-1.482-.184-1.791 0-3.953 2.224-3.953 4.724v8.954h-2.47V57.626l2.162-.617v2.995c1.45-2.254 3.026-2.995 4.631-2.995.803 0 1.236.062 1.606.154l-.494 2.377zm7.193 13.864c-1.822 0-3.737-.308-5.187-.865l.771-2.191c1.39.555 3.057.957 4.539.957 1.606 0 3.18-.649 3.18-2.192 0-1.266-.804-2.069-2.841-2.872-3.828-1.512-5.31-2.624-5.31-5.094 0-2.532 1.945-4.137 5.557-4.137 1.7 0 3.49.37 4.724.896l-.803 2.069c-1.205-.525-2.563-.958-3.799-.958-2.376 0-3.087.926-3.087 1.915 0 1.174.988 1.853 3.828 2.964 2.779 1.08 4.385 2.316 4.385 4.878.001 3.302-2.593 4.63-5.957 4.63zm20.221-.369v-9.913c0-2.84-.771-4.014-3.118-4.014-1.42 0-3.335.865-5.156 3.087v10.838h-2.47V50.247l2.47-.71V59.57c1.512-1.45 3.457-2.562 5.588-2.562 3.582 0 5.156 1.699 5.156 5.65v10.375h-2.47zm8.088-18.125a1.57 1.57 0 01-1.544-1.545c0-.833.71-1.512 1.544-1.512.834 0 1.513.679 1.513 1.512 0 .834-.68 1.545-1.513 1.545zm-1.235 18.124V57.719l2.47-.711v16.025h-2.47zm13.708.37c-1.915 0-3.242-.648-4.077-1.482v7.194l-2.47.71v-18.71c0-1.08-.216-2.409-.865-3.458l2.224-.65a5.95 5.95 0 01.803 1.946c.926-.895 2.624-1.945 4.631-1.945 4.199 0 6.886 3.149 6.886 7.935 0 5.219-3.21 8.46-7.132 8.46zm-.03-14.296c-1.884 0-3.15 1.204-4.045 2.131v6.608c0 1.667.957 3.49 3.952 3.49 3.304 0 4.507-3.088 4.507-6.422-.001-3.892-2.038-5.807-4.415-5.807zm33.806 13.833l-1.574.463-4.293-11.3-4.291 10.806-1.73.494-5.712-16.025h2.47l4.17 11.795 4.323-10.961 1.635-.463 4.199 11.301 4.54-11.672h2.314l-6.051 15.562zm9.754-18.031a1.57 1.57 0 01-1.544-1.545c0-.833.712-1.512 1.544-1.512.835 0 1.514.679 1.514 1.512 0 .834-.68 1.545-1.514 1.545zm-1.234 18.124V57.719l2.47-.711v16.025h-2.47zm14.231-13.802h-3.796v9.14c0 2.254.308 2.965 1.573 2.965.712 0 1.482-.185 2.1-.433l.588 1.883c-.926.34-2.224.617-3.397.617-2.255 0-3.335-1.328-3.335-4.26V59.23h-3.12l.679-1.853h2.44v-3.92l2.47-.71v4.63h4.414l-.616 1.853zm13.863 13.803v-9.913c0-2.84-.77-4.014-3.118-4.014-1.42 0-3.335.865-5.157 3.087v10.838h-2.47V50.247l2.47-.71V59.57c1.514-1.45 3.457-2.562 5.59-2.562 3.581 0 5.155 1.699 5.155 5.65v10.375h-2.47zM140.963 116.23c4.92-1.273 10.303-4.722 10.303-10.509 0-8.68-8.334-8.773-12.503-8.773h-17.48c.87.505 1.218 2.58 1.273 5.705.06 3.646-.287 8.785-.752 15.558l-.172 2.757c-.869 11.924-1.389 18.901-3.358 20.416h15.628c11.922 0 19.216-6.152 19.216-13.908 0-7.175-5.21-10.55-12.155-11.245zm-10.418-4.48c.232-3.298.52-6.382.983-9.508a31.448 31.448 0 013.125-.153c5.266 0 7.758 2.213 7.758 5.224 0 5.21-5.212 7.308-10.883 7.308h-1.158l.175-2.871zm2.891 24.102c-3.007 0-4.282-.87-4.282-1.273.06-2.894.176-5.118.405-8.013l.464-6.39h3.183c5.903 0 10.592 1.876 10.592 7.604.001 5.154-4.111 8.072-10.362 8.072zm260.914-20.314c-4.401-2.837-8.628-5.153-8.628-8.566 0-4.055 3.361-5.615 7.178-5.615 4.343 0 8.335 2.546 10.19 5.905l1.158-10.593c-3.07 0-6.079-.87-10.885-.87-8.275 0-16.26 3.183-16.26 12.734 0 6.366 4.631 9.896 11.924 14.297 3.47 2.084 6.305 4.167 6.305 7.521 0 3.94-3.47 6.195-8.158 6.195-6.072 0-10.185-3.529-12.385-7.988l-.749 11.172c4.57 1.734 8.618 2.489 12.499 2.489 9.433 0 17.597-5.151 17.597-13.546-.001-6.425-4.984-10.127-9.786-13.135zm-31.716 1.874c2.195-3.703 12.62-19.96 14.93-20.464H365.58c.465.505.64 1.54.64 2.58 0 1.334-.58 2.65-1.27 3.752-2.78 4.514-4.918 7.777-7.99 12.583-1.274-3.65-3.416-8.584-6.305-15.123-1.858-4.054-2.665-4.469-5.674-4.469-1.68 0-5.152.17-7.875.401 1.566.753 4.058 4.628 6.194 8.736 3.357 6.543 5.559 11.94 7.181 17.554.114 3.938-.758 16.401-2.895 18.42h12.095c-.924-1.01-1.27-3.663-1.27-5.69 0-4.862.345-9.196 1.04-12.494.811-1.74 2.138-4.048 3.183-5.786zM232.06 133.997l-9.087-12.035c-.639-.814-1.678-2.146-2.255-2.666 5.958-1.851 10.765-5.645 10.765-12.825 0-8.738-7.407-9.524-12.794-9.524h-16.494c.869.504 1.214 2.522 1.274 5.705.057 3.646-.29 8.784-.754 15.5l-.172 2.814c-.985 13.662-1.62 18.9-3.355 20.416h12.094c-.812-.504-1.159-2.62-1.217-5.63 0-2.719.174-6.25.463-10.821l.23-3.242h.291c1.56 0 2.316.974 3.297 2.306l12.503 17.3c1.1 1.504 1.908 1.996 5.208 1.996 2.202 0 5.614-.135 8.161-.423-2.02-1.037-2.485-1.403-8.158-8.87zm-18.867-17.938c-.696 0-1.446-.06-2.027-.172l.234-3.13c.404-5.325.694-8.623 1.04-10.533 1.044-.115 2.373-.115 3.475-.115 4.224 0 6.656 2.025 6.656 5.498-.002 5.093-3.821 8.452-9.378 8.452zm-24.77 5.381l-1.911-6.922c-2.258-8.046-4.801-17.57-4.801-17.57h-9.727c.35.505.58 1.48.58 2.35 0 .983-3.01 7.744-5.846 13.764l-3.126 6.635c-5.38 11.518-9.259 18.656-12.326 21.686h10.707c-.233-.503-.29-1.463-.29-2.041-.06-2.49 2.2-6.655 3.124-8.735l.926-1.847h5.325c5.267 0 8.565-.536 10.419-1.404l1.099 3.817c3.068 10.534 3.357 10.613 7.176 10.613 1.215 0 4.343-.127 6.83-.416-2.778-2.263-4.86-8.06-8.158-19.93zm-19.969 1.261l7.237-15.568 4.514 15.568h-11.75zm78.363-2.188c0-8.853 3.882-19.156 13.427-19.156 4.805 0 8.395 2.719 10.595 6.713l1.158-11.401c-3.877 0-6.139-.87-10.94-.87-15.339 0-23.382 11.463-23.382 26.28 0 10.648 6.655 20.141 18.175 20.141 8.852 0 14.236-4.457 16.552-11.868-5.733 3.996-9.146 5.035-13.023 5.035-7.178 0-12.562-5.264-12.562-14.874zm86.47.927l-1.91-6.922c-.865-3.123-4.805-17.57-4.805-17.57h-9.718c.346.505.573 1.48.573 2.35 0 1.211-2.89 7.51-5.844 13.764l-3.125 6.619c-2.317 4.978-4.688 9.762-6.772 13.581-3.354 2.26-5.21 2.422-12.618 2.422-2.082 0-2.897-.466-2.897-2.49 0-4.4.58-8.916.87-13.316l.232-2.694c.81-11.869 1.447-19.227 3.186-20.237h-12.213c.813 1.01 1.102 2.64 1.158 5.648.059 3.646-.29 8.784-.75 15.557l-.18 2.814c-.864 11.866-1.443 18.396-3.24 20.416h31.607c-.233-.504-.296-1.464-.296-2.041 0-2.435 1.798-5.781 3.13-8.736l.923-1.846h5.328c5.269 0 8.566-.536 10.414-1.404l1.101 3.817c3.07 10.533 3.357 10.613 7.179 10.613 1.212 0 4.512-.128 6.829-.416-2.777-2.262-4.863-8.06-8.162-19.929zm-19.91 1.261l7.177-15.568 4.515 15.568h-11.691zM99.765 102.996c-.628-1.237-1.532-2.805-2.97-3.955-.731-.58-1.624-1.04-2.656-1.364a7.85 7.85 0 00-2.377-.362h-.117c-1.047.014-3.003.263-4.314 1.788a2.864 2.864 0 00-.57 2.586c.204.762.703 1.323 1.407 1.589 0 0 .224.082.576.147a6.29 6.29 0 01-.346.54c-.451.669-1.46 1.545-4.229 1.545l-.158-.001c-1.467-.093-2.68-.476-4.099-2.31-.879-1.138-1.326-3.046-1.39-6.189-.058-1.576-.274-2.942-.65-4.038-.253-.735-.844-1.506-1.415-1.874a6.494 6.494 0 00-1.759-.848c-.947-.304-2.15-.35-3.053-.37-1.174-.027-1.819.244-2.227.738-.068.083-.082.123-.175.117-.212-.017-.686-.015-.83-.015-.668 0-1.264.107-1.83.226-1.192.25-1.928.745-2.582 1.268-.303.242-.881.922-1.013 1.65-.11.613.003.956.13 1.26.02.051.1.143.116.198.356-.375.95-.666 2.07-.67 1.252-.006 2.964.566 3.564 1.535.855 1.38.684 2.499.504 3.827-.461 3.402-1.72 5.168-4.52 5.56-.471.065-.947.1-1.422.1-1.966 0-3.399-.622-4.133-1.807-.198-.318-.222-.42-.222-.42s.22-.054.414-.145c.743-.35 1.304-.868 1.507-1.666.227-.889-.002-1.885-.585-2.54-1.054-1.187-2.513-1.789-4.343-1.789a9.399 9.399 0 00-2.492.354c-2.303.645-4.139 2.39-5.614 5.332-1.043 2.082-1.773 4.83-2.053 7.741-.279 2.854-.142 5.264.048 7.444.313 3.629.919 5.803 1.794 8.131.9 2.408 2.005 4.709 3.225 6.704.399.653.693 1.13.854 1.347l.09-.095c.145-.15.359-.374.69-.705.48-.481 1.839-2.257 2.223-2.805.39-.55 1.106-1.66 1.48-2.457l.205-.437.38.298c.405.32.64.88.632 1.497-.008.54-.133 1.17-.466 2.327-.361 1.253-.99 2.753-1.725 4.114l-.261.475c-.482.863-.686 1.285-.505 1.476l.054.043c.022.019.069.021.095.021.297 0 .866-.293 1.485-.767.561-.429 2.063-1.699 3.872-4.23a38.09 38.09 0 003.525-6.032l.158-.331.34.141c.196.089.36.24.466.428.205.37.275.864.205 1.424-.169 1.357-.963 3.412-1.6 4.898-1.079 2.517-3.062 5.337-4.535 7.258-.059.076-.414.5-.473.574.122.127.422.372.786.668l.556.455c2.02 1.66 3.899 2.936 6.282 4.269 1.843 1.03 5.59 2.93 8.074 3.596 2.484-.665 6.233-2.566 8.075-3.596a41.01 41.01 0 006.28-4.269l.543-.444c.272-.215.537-.438.793-.672-.065-.102-.196-.255-.273-.347a4.344 4.344 0 01-.193-.235c-1.475-1.926-3.458-4.75-4.536-7.258-.637-1.489-1.43-3.548-1.596-4.897-.072-.56-.003-1.054.204-1.428a.973.973 0 01.363-.357c.211-.131.443-.21.443-.21l.158.332a37.987 37.987 0 003.523 6.031c1.814 2.536 3.312 3.804 3.873 4.23.63.481 1.185.768 1.484.768a.176.176 0 00.112-.031c.24-.175.044-.591-.463-1.5-.085-.153-.176-.316-.266-.485-.736-1.36-1.366-2.86-1.727-4.115-.33-1.152-.454-1.782-.463-2.324-.01-.618.226-1.178.63-1.498l.38-.3.205.44c.401.853 1.143 1.98 1.48 2.457.382.545 1.74 2.318 2.223 2.803.33.33.544.554.687.705l.092.097c.157-.211.436-.666.817-1.286l.071-.118c1.186-1.94 2.292-4.24 3.193-6.65.874-2.326 1.479-4.5 1.795-8.13.188-2.168.325-4.57.05-7.438-.255-2.819-1.024-5.714-2.055-7.742z" fill="#fff" fill-rule="nonzero"/></svg>