<svg xmlns="http://www.w3.org/2000/svg" viewBox="0 0 106.1 53.81"><defs><style>.cls-1{fill:#ffe400;}.cls-2{fill:#282828;}</style></defs><title>id24_logo_color</title><g id="Layer_2" data-name="Layer 2"><g id="Layer_1-2" data-name="Layer 1"><rect class="cls-1" width="106.1" height="53.81"/><path class="cls-2" d="M24,20.69H20.61l-1,7H16.2l1-7H13.8l-1,7H9.49v3.13h2.92l-.59,4.38H8.48v3.13H11.4l-1,7H13.8l1-7h3.44l-1,7h3.37l1-7h3.34V35.19H22l.59-4.38h3.34V27.68H23ZM18.63,35.19H15.19l.59-4.38h3.44Z"/><path class="cls-2" d="M32,20.07a3,3,0,1,0,2.14.89A2.91,2.91,0,0,0,32,20.07Z"/><rect class="cls-2" x="29.41" y="28.41" width="5.21" height="16.89"/><path class="cls-2" d="M50.89,30.22h-.07a4.87,4.87,0,0,0-2.31-1.72,9,9,0,0,0-3-.5,6.85,6.85,0,0,0-3.23.75,7.46,7.46,0,0,0-2.42,2,9.32,9.32,0,0,0-1.53,2.87A10.65,10.65,0,0,0,37.75,37a10.06,10.06,0,0,0,.59,3.51A8.07,8.07,0,0,0,40,43.27a7.59,7.59,0,0,0,2.62,1.81,8.71,8.71,0,0,0,3.41.64,5.86,5.86,0,0,0,1.69-.24,7.26,7.26,0,0,0,1.49-.63A6.21,6.21,0,0,0,50.42,44a5.74,5.74,0,0,0,.82-.92h.07V45.3h4.8V19H50.89ZM50.21,40a4,4,0,0,1-3.08,1.18A4,4,0,0,1,44.06,40,4.37,4.37,0,0,1,43,36.86a4.37,4.37,0,0,1,1.09-3.09,4,4,0,0,1,3.08-1.18,4,4,0,0,1,3.08,1.18,4.37,4.37,0,0,1,1.1,3.09A4.37,4.37,0,0,1,50.21,40Z"/><polygon class="cls-2" points="83.64 38.77 87.64 38.77 87.64 32.63 87.59 32.63 83.64 38.77"/><path class="cls-2" d="M60.55,8.5V45.3h5V41.51l6.92-6.22a12.79,12.79,0,0,0,1.06-1.08,2.07,2.07,0,0,0,.53-1.41,1.71,1.71,0,0,0-.65-1.42,2.41,2.41,0,0,0-1.54-.52,2.11,2.11,0,0,0-1.65.66,2.63,2.63,0,0,0-.67,1.61l-3.78-.28a6.13,6.13,0,0,1,.58-2.4,5,5,0,0,1,1.33-1.7,5.63,5.63,0,0,1,2-1,8.35,8.35,0,0,1,2.43-.34,7.38,7.38,0,0,1,2.27.34,5.31,5.31,0,0,1,1.84,1,4.59,4.59,0,0,1,1.22,1.67,5.81,5.81,0,0,1,.44,2.34,6.3,6.3,0,0,1-.18,1.55,5.27,5.27,0,0,1-.49,1.26,5.78,5.78,0,0,1-.74,1,12.17,12.17,0,0,1-.93.93l-5.41,4.66H78V45.3h9.62V41.94H79.87V38.77l7.27-11.08h4.13V38.77h2.29v3.17H91.27V45.3h6.08V8.5Z"/></g></g></svg>