<svg xmlns="http://www.w3.org/2000/svg" viewBox="0 0 778.32 107.64"><g fill="#ffffff"><path d="M71.988 60.665c-4.986 9.89-15.217 16.693-27.008 16.692-16.678 0-30.249-13.598-30.249-30.313 0-16.717 13.57-30.315 30.249-30.315 16.19 0 29.45 12.816 30.21 28.86-18.805 13.506-34.407-12.255-52.327-2.902 21.02-6.23 28.254 25.056 49.125 17.978zM44.98 2.065C20.178 2.065 0 22.243 0 47.042c0 24.8 20.178 44.979 44.98 44.979 24.798 0 44.976-20.179 44.976-44.98 0-24.798-20.178-44.976-44.976-44.976M182.061 28.203l-16.32 3.36c-1.2-7.56-7.8-12.48-15.84-12.48-8.16 0-13.078 4.56-13.078 9.96 0 4.08 1.8 6.959 8.038 8.16l17.28 3.479c13.08 2.76 21.119 10.56 21.119 23.04 0 15.6-12.839 25.318-31.917 25.318-16.8 0-31.56-7.8-33.6-23.879l17.158-3.479c2.162 9.12 8.882 13.08 18 13.08 9.36 0 14.279-4.44 14.279-10.201 0-4.558-2.159-7.319-9.359-8.759l-17.038-3.24c-9.6-2.04-21.12-7.32-21.12-23.04 0-14.4 11.76-24.478 30.598-24.478 16.32 0 28.68 8.88 31.8 23.159M194.17 87.24V27.363h15.84v59.879zm17.518-77.756c0 5.28-4.079 9.239-9.6 9.239-5.639 0-9.599-3.96-9.599-9.24 0-5.04 3.96-9.48 9.599-9.48 5.521 0 9.6 4.44 9.6 9.48M268.207 84.601c-6.24 3.36-10.56 4.439-15.6 4.439-14.159 0-23.519-7.439-23.519-23.879v-24.84h-12.84V27.363h12.84V9.242h15.839v18.12h19.56v12.96h-19.56v23.64c0 7.2 3.48 10.32 8.76 10.32 2.76 0 6.84-1.2 9.96-2.881l4.56 13.2M283.928 50.401h28.919c-2.04-7.68-7.8-11.039-14.16-11.039-6 0-12.84 3.6-14.759 11.04zm45.119 11.161h-45.599c1.56 8.64 7.679 13.92 15 13.92 4.679 0 10.559-.6 14.879-7.921l14.16 3c-5.28 12.48-15.96 18.479-29.039 18.479-16.92 0-30.719-12.839-30.719-31.678 0-18.84 13.799-31.8 30.958-31.8 15.96 0 29.76 12.36 30.36 30.6v5.4M337.555 87.24V27.363h15.84v59.879zm17.518-77.756c0 5.28-4.078 9.239-9.6 9.239-5.638 0-9.598-3.96-9.598-9.24 0-5.04 3.96-9.48 9.598-9.48 5.522 0 9.6 4.44 9.6 9.48M461.216 49.8v37.44h-15.719V53.042c0-8.039-5.16-12.958-11.76-12.958-8.398 0-13.92 5.759-13.92 18.358v28.8H403.98v-34.2c0-8.039-5.161-12.958-11.761-12.958-8.4 0-13.679 5.759-13.679 18.358v28.8H362.7V27.362h15.84v4.92c4.199-4.2 10.08-6.72 17.88-6.72 8.039 0 15.359 3.48 19.677 9.84 4.922-6.119 12.24-9.84 21.84-9.84 12.48 0 23.279 9.6 23.279 24.239M520.592 57.362c0-11.04-7.201-18-16.8-18-8.52 0-17.039 6.96-17.039 18 0 11.039 8.519 17.879 17.039 17.879 9.599 0 16.8-6.84 16.8-17.88zm15.359 0c0 18.84-14.16 31.678-29.4 31.678-8.159 0-14.759-2.4-19.798-6.48v25.08h-15.84V27.363h15.84v4.8c5.039-4.2 11.639-6.6 19.798-6.6 15.24 0 29.4 12.96 29.4 31.8M585.139 27.003l-.84 15.239h-3.482c-14.638 0-21.357 9-21.357 25.68V87.24h-15.84V27.362h15.84v10.92c4.8-6.96 11.759-11.76 21.479-11.76 1.56 0 2.76 0 4.2.481M636.257 57.362c0-11.16-8.64-17.88-16.92-17.88-8.638 0-17.278 6.72-17.278 17.88s8.64 17.879 17.278 17.879c8.28 0 16.92-6.72 16.92-17.88zm15.359 0c0 18.84-14.759 31.438-32.279 31.438-17.878 0-32.637-12.599-32.637-31.438 0-18.84 14.759-31.44 32.637-31.44 17.52 0 32.279 12.6 32.279 31.44M692.044 87.24h-16.799l-24.958-59.997h17.038l16.32 40.679 16.319-40.68h17.039l-24.959 59.999M733.204 50.401h28.917c-2.038-7.68-7.8-11.039-14.158-11.039-6 0-12.84 3.6-14.759 11.04zm45.117 11.161h-45.598c1.56 8.64 7.68 13.92 15 13.92 4.68 0 10.558-.6 14.878-7.921l14.16 3c-5.278 12.48-15.958 18.479-29.038 18.479-16.919 0-30.719-12.839-30.719-31.678 0-18.84 13.8-31.8 30.959-31.8 15.96 0 29.758 12.36 30.358 30.6v5.4"/></g></svg>