<svg xmlns="http://www.w3.org/2000/svg" xml:space="preserve" fill-rule="evenodd" stroke-linejoin="round" stroke-miterlimit="2" clip-rule="evenodd" viewBox="0 0 450 200">
  <path fill="#fff" fill-rule="nonzero" d="M157.904 95.121c.482-1.446 1.285-3.213 1.928-5.141.642-1.928 1.606-4.017 2.57-6.266.964-2.41 1.928-4.659 2.892-6.908.964-2.25 1.928-4.499 2.892-6.748.321-.964.964-1.928 1.767-2.41.964-.482 1.928-.803 2.892-.803.482 0 .964 0 1.286.16.482.161.964.322 1.446.482.321.161.642.322.964.482.321.482.642 1.285 1.285 2.571.482 1.285 1.124 2.731 1.928 4.338.642 1.767 1.446 3.534 2.249 5.462.803 1.928 1.607 3.695 2.249 5.623.804 1.928 1.446 3.535 2.089 5.141.643 1.607 1.125 2.892 1.446 4.017h-7.23c-.321-.964-.643-1.928-.964-2.892-.321-.964-.803-1.928-1.125-3.053h-11.567c-.321.804-.643 1.607-.964 2.571-.321.964-.643 2.089-1.125 3.374h-6.908Zm13.817-18.476c-.482 1.125-.804 2.249-1.286 3.374l-1.124 3.052h6.908c-.16-.642-.482-1.446-.803-2.249-.321-.803-.643-1.767-.964-2.57-.321-.804-.643-1.607-.964-2.41-.321-.804-.482-1.286-.643-1.607-.482.482-.803 1.446-1.124 2.41ZM206.745 93.354c-1.125.803-2.41 1.285-3.695 1.767-1.446.482-2.892.643-4.338.643-1.928 0-4.017-.482-5.623-1.286-1.607-.803-2.892-2.249-3.856-3.856-.964-1.767-1.446-3.695-1.446-5.623 0-1.928.482-3.856 1.446-5.623.964-1.606 2.249-2.892 3.856-3.856 1.767-.964 3.856-1.446 5.783-1.285 1.286 0 2.571.161 3.856.482.964.321 1.928.803 2.732 1.446.642.482.964 1.285.964 2.089 0 .642-.161 1.445-.643 1.927-.482.643-.964 1.125-1.607 1.607-.642-.643-1.446-1.125-2.249-1.446-.643-.321-1.607-.643-2.41-.643-2.57-.16-4.98 1.928-5.141 4.499v.643c0 1.285.482 2.731 1.446 3.695s2.249 1.446 3.695 1.285c.803 0 1.767-.161 2.571-.482.642-.161 1.446-.482 2.088-.964l2.571 4.981ZM226.988 93.354c-1.124.803-2.41 1.285-3.695 1.767-1.446.482-2.892.643-4.338.643-1.928 0-4.016-.482-5.623-1.286-1.607-.803-2.892-2.249-3.856-3.856-.964-1.767-1.446-3.695-1.446-5.623 0-1.928.482-3.856 1.446-5.623.964-1.606 2.249-2.892 3.856-3.856 1.767-.964 3.856-1.446 5.784-1.285 1.285 0 2.57.161 3.856.482.964.321 1.928.803 2.731 1.446.643.482.964 1.285.964 2.089 0 .642-.161 1.445-.643 1.927-.482.643-.964 1.125-1.606 1.607-.643-.643-1.446-1.125-2.25-1.446-.642-.321-1.606-.643-2.57-.643-2.731-.16-4.981 1.928-5.141 4.499v.643c0 1.285.482 2.731 1.446 3.695s2.249 1.446 3.695 1.285c.964 0 1.767-.161 2.57-.482.643-.161 1.446-.482 2.089-.964l2.731 4.981ZM239.038 95.603c-1.928 0-3.856-.482-5.463-1.285-1.606-.964-2.892-2.25-3.695-3.856-.964-1.767-1.446-3.695-1.285-5.623 0-1.928.482-3.856 1.446-5.624.964-1.606 2.249-2.891 3.856-3.855 1.767-.964 3.534-1.446 5.623-1.446 1.606 0 3.213.321 4.659.964 1.285.482 2.41 1.446 3.213 2.57.804 1.125 1.125 2.41 1.125 3.695.161 1.928-.803 3.856-2.571 4.82-2.57 1.125-5.462 1.768-8.354 1.446h-2.249c.16.964.803 1.607 1.606 1.928 1.125.482 2.41.803 3.535.803.642 0 1.285 0 1.767-.16.643-.161 1.285-.322 1.928-.482.482-.161.964-.322 1.285-.643l2.25 4.499c-.804.482-1.607.803-2.41 1.124-.964.322-2.089.643-3.053.804-.964.16-2.089.321-3.213.321m.16-16.548c-2.249 0-4.177 1.767-4.177 4.177v.161h1.286c1.606.16 3.052-.161 4.659-.643.964-.321 1.446-.964 1.446-1.767 0-.643-.322-1.125-.804-1.446-.803-.322-1.606-.482-2.41-.482ZM251.409 80.983c-.161-2.089.803-4.017 2.41-5.141 2.249-1.286 4.82-1.928 7.39-1.768 2.089-.16 4.177.322 6.266.964 1.606.643 2.249 1.607 2.249 2.732 0 .642-.161 1.124-.482 1.606-.321.482-.803.964-1.285 1.285-.482-.482-.964-.803-1.607-.964-.803-.321-1.767-.482-2.57-.642-.964-.161-1.768-.321-2.732-.321-2.088 0-3.213.481-3.213 1.445 0 .482.161.804.643.964.642.322 1.285.482 1.928.482l3.534.482c4.66.643 6.909 2.732 6.909 6.266 0 2.089-.804 4.017-2.571 5.141-2.088 1.446-4.498 2.089-6.908 1.928-2.731 0-5.302-.482-7.873-1.285-.964-.321-1.767-.803-2.57-1.285l2.249-4.177c.964.642 2.089 1.124 3.374 1.445 1.446.322 2.892.643 4.498.643 2.25 0 3.214-.482 3.214-1.446 0-.482-.322-.803-.643-.964-.643-.321-1.446-.482-2.249-.642l-3.535-.482c-4.338-.482-6.426-2.571-6.426-6.266M273.741 80.983c-.161-2.089.803-4.017 2.41-5.141 2.249-1.286 4.819-1.928 7.39-1.768 2.089-.16 4.177.322 6.266.964 1.606.643 2.249 1.607 2.249 2.732 0 .642-.161 1.124-.482 1.606-.321.482-.803.964-1.285 1.285-.482-.482-.964-.803-1.607-.964-.803-.321-1.767-.482-2.57-.642-.964-.161-1.768-.321-2.732-.321-2.088 0-3.213.481-3.213 1.445 0 .482.161.804.643.964.642.322 1.285.482 1.928.482l3.534.482c4.659.643 6.909 2.732 6.909 6.266 0 2.089-.804 4.017-2.571 5.302-2.088 1.446-4.498 2.089-6.908 1.928-2.732 0-5.302-.482-7.873-1.285-.964-.322-1.767-.804-2.57-1.286l2.249-4.177c.964.643 2.089 1.125 3.374 1.446 1.446.321 2.892.643 4.498.643 2.25 0 3.214-.482 3.214-1.446 0-.482-.322-.803-.643-.964-.643-.321-1.446-.482-2.249-.643l-3.696-.482c-4.177-.642-6.265-2.731-6.265-6.426M296.715 71.664c-1.285-1.446-1.285-3.695 0-5.141.643-.642 1.607-.964 2.571-.964.964 0 1.928.322 2.57.964 1.286 1.446 1.286 3.695 0 5.141-.642.643-1.606 1.125-2.57 1.125-.964 0-1.928-.321-2.571-1.125m5.623 23.457h-6.265V77.448c0-.803.321-1.606.803-2.088.643-.482 1.607-.804 2.41-.643.964 0 2.088.161 3.052.643v19.761ZM306.194 68.451c0-.803.322-1.606.804-2.088.642-.482 1.606-.804 2.409-.643.482 0 1.125 0 1.607.161.482.16.964.321 1.446.482v10.121c.643-.642 1.607-1.285 2.41-1.606 2.731-.964 5.784-.643 8.194.803 1.446.964 2.731 2.249 3.534 3.856.964 1.767 1.286 3.695 1.286 5.623 0 1.928-.482 3.856-1.286 5.623-.964 1.607-2.249 2.892-3.856 3.856-1.767.964-3.855 1.446-5.783 1.446-1.928 0-4.017-.482-5.784-1.285-1.607-.964-2.892-2.25-3.695-4.017-.964-1.928-1.446-4.016-1.286-6.105V68.451Zm13.978 12.853c-1.767-1.767-4.659-1.767-6.587 0-1.607 2.089-1.607 4.981 0 7.069 1.767 1.767 4.659 1.767 6.587 0 1.767-2.088 1.767-4.98 0-7.069M332.382 71.664c-1.285-1.446-1.285-3.695 0-5.141.643-.642 1.607-1.124 2.41-.964.964 0 1.928.322 2.571.964 1.285 1.446 1.285 3.695 0 5.141-.643.643-1.607 1.125-2.571 1.125-.803 0-1.767-.321-2.41-1.125m5.623 23.457h-6.266V77.448c0-.803.322-1.606.804-2.088.642-.482 1.606-.804 2.41-.643.964 0 2.088.161 3.052.643v19.761ZM349.252 95.121h-6.427v-26.67c0-.803.321-1.606.803-2.088.643-.482 1.607-.804 2.41-.643.482 0 1.125 0 1.607.161.482.16.964.321 1.446.482l.161 28.758ZM354.393 71.664c-1.286-1.446-1.286-3.695 0-5.141.642-.642 1.606-1.124 2.41-.964.964 0 1.928.322 2.57.964 1.285 1.446 1.285 3.695 0 5.141-.642.643-1.606 1.125-2.57 1.125-.804 0-1.768-.321-2.41-1.125m5.783 23.457h-6.265V77.448c0-.803.321-1.606.803-2.088.643-.482 1.607-.804 2.41-.643.964 0 2.089.161 3.052.643v19.761ZM364.354 71.504c0-.804.321-1.607.803-2.089.643-.482 1.607-.803 2.41-.643.964 0 2.089.161 3.052.643v5.463h4.499c2.249 0 3.213.964 3.213 2.892 0 .482-.16 1.124-.16 1.606-.161.482-.322.964-.482 1.446h-7.07v6.266c0 .803.161 1.607.804 2.088.642.482 1.446.804 2.088.804.643 0 1.286-.161 1.768-.322.482-.16 1.124-.321 1.606-.642l2.41 4.338c-.642.482-1.285.964-1.928 1.124-.803.322-1.767.643-2.57.804-.964.16-1.928.321-2.892.321-2.089.161-4.017-.643-5.623-1.928-1.446-1.446-2.25-3.374-2.089-5.302l.161-16.869ZM401.627 92.229c.643 5.463-3.213 10.604-8.836 11.246-.643.161-1.446.161-2.089 0-1.124 0-2.088 0-3.213-.16-.964-.161-2.089-.322-3.053-.643-.642-.161-1.285-.321-2.088-.643l1.606-4.659c.482.161.964.322 1.446.482.643.161 1.446.322 2.089.482.803.161 1.446.161 2.249.161 1.446 0 2.892-.321 4.177-1.125 1.125-.803 1.768-2.088 1.607-3.534v-1.125c-.482.643-1.285 1.125-2.089 1.446-1.124.321-2.249.643-3.373.482-1.446 0-3.053-.321-4.338-.964-2.571-1.285-4.338-3.856-4.178-6.748v-9.479c0-.803.322-1.606.804-2.088.642-.482 1.606-.804 2.41-.643.482 0 1.124 0 1.606.161.482.16.964.321 1.446.482v10.282c-.16.964.322 1.928.964 2.731.804.643 1.767.964 2.731.803 1.125.161 2.089-.321 2.892-1.124.643-.964.964-2.089.964-3.213v-7.391c0-.803.322-1.606.804-2.088.642-.482 1.606-.804 2.41-.643.482 0 1.124 0 1.606.161.482.16.964.321 1.446.482v16.869ZM159.671 112.002c1.285-2.089 2.892-3.856 5.141-4.981 2.25-1.285 4.82-1.928 7.551-1.767 1.125 0 2.25.161 3.374.321 1.125.161 2.089.482 3.213.964.804.321 1.607.964 2.41 1.607.322.321.643 1.124.643 1.928 0 .803-.321 1.606-.803 2.249-.482.803-1.125 1.285-1.768 1.767-.803-.964-1.927-1.767-3.052-2.249-1.285-.482-2.571-.803-3.856-.803-1.446 0-2.892.321-4.017 1.124-1.124.804-2.088 1.768-2.731 3.053-.642 1.285-1.124 2.892-.964 4.338-.16 2.249.643 4.338 2.25 5.944 1.606 1.446 3.855 2.249 5.944 2.249 1.125 0 2.249-.16 3.374-.482.964-.321 1.928-.642 2.731-1.285l3.053 5.141c-.804.643-1.768 1.125-2.732 1.446-1.124.482-2.249.804-3.373.964-1.286.161-2.41.322-3.696.322-2.57 0-5.301-.482-7.551-1.768-2.088-1.124-3.856-2.892-4.98-4.98-1.286-2.249-1.928-4.82-1.928-7.551 0-2.571.642-5.141 1.767-7.551M191.643 133.209h-6.266V106.7c0-.803.321-1.607.803-2.089.643-.482 1.607-.803 2.41-.642.964 0 2.089.16 3.053.642v28.598ZM205.942 133.691c-1.928 0-3.856-.482-5.624-1.446-5.141-2.892-6.908-9.318-4.177-14.46.964-1.767 2.41-3.213 4.177-4.177 3.535-1.928 7.712-1.928 11.247 0 1.606.964 3.052 2.25 4.016 3.856 1.928 3.374 1.928 7.551 0 10.925-.964 1.607-2.249 2.892-4.016 3.856-1.607.964-3.695 1.446-5.623 1.446m3.373-14.299c-1.767-1.767-4.659-1.928-6.426-.161l-.161.161c-1.767 2.089-1.767 5.141 0 7.069 1.768 1.767 4.66 1.928 6.427.161l.16-.161c1.607-1.928 1.607-4.98 0-7.069ZM239.68 124.855c.161 2.409-.803 4.819-2.731 6.426-4.338 3.213-10.282 3.213-14.62 0-1.767-1.607-2.731-4.017-2.731-6.426v-9.158c0-.803.321-1.607.803-2.089.643-.482 1.607-.803 2.41-.642.482 0 1.125 0 1.607.16.482.161.964.322 1.446.482v10.283c0 2.731 1.285 4.177 3.695 4.177s3.695-1.446 3.695-4.177v-8.033c0-.804.321-1.607.803-2.089.643-.482 1.607-.803 2.41-.643.482 0 1.125 0 1.607.161s.964.321 1.446.482v11.086h.16ZM264.262 122.284c0 2.089-.322 4.177-1.286 6.105-.803 1.607-2.088 3.053-3.695 3.856-1.767.964-3.695 1.446-5.623 1.285-2.089 0-4.017-.482-5.784-1.446-1.606-.803-2.892-2.249-3.856-3.856-.964-1.767-1.446-3.534-1.285-5.462 0-1.928.482-3.856 1.285-5.463.804-1.606 2.089-2.891 3.535-3.855 2.249-1.286 5.141-1.607 7.872-.643.964.321 1.768.964 2.41 1.607v-9.961c.482-.161.964-.322 1.446-.482.643-.161 1.125-.161 1.607-.161.803 0 1.767.161 2.41.643.642.482.964 1.285.803 2.088l.161 15.745Zm-13.978-2.892c-1.606 2.089-1.606 4.981 0 7.069 1.767 1.767 4.659 1.767 6.427 0 1.606-2.088 1.606-4.98 0-7.069-1.768-1.767-4.66-1.767-6.427 0ZM113.878 71.664c-8.033 0-15.584 3.053-21.047 8.355-3.052 2.892-8.033 5.623-15.745 5.623h-.16c-12.532.161-22.493 9.8-22.172 21.368.161 11.407 9.961 20.565 22.172 20.725h36.952c16.387-.16 29.722-12.692 29.561-28.116.161-15.262-13.174-27.955-29.561-27.955"/>
  <path fill="#0490f0" fill-rule="nonzero" d="M115.806 65.559c-8.997 0-17.673 3.695-23.939 10.283-3.534 3.534-9.158 6.908-17.833 6.908h-.161c-14.138.161-25.384 11.728-25.224 25.867.161 13.816 11.407 25.063 25.224 25.223h42.093c18.637-.16 33.739-15.423 33.579-34.221.16-18.636-14.942-33.899-33.739-34.06m2.731 57.838-.964-5.623-.643-4.659c-.321-1.285-.321-2.571 0-3.856.482-.482 1.125-.964 1.768-1.124l9.157-3.214h.161c1.607-.642 3.213-1.446 3.213-3.374 0-1.928-1.285-3.855-3.213-3.373-.161 0-.161 0-.321.16-1.928.643-11.086 3.213-17.673 3.213-6.105 0-14.46-2.249-17.191-3.052-.321-.161-.482-.161-.803-.321-1.928-.482-3.213 1.445-3.213 3.373 0 1.928 1.606 2.732 3.213 3.374l9.8 3.053c.964.321 1.285.803 1.446 1.124.321 1.286.321 2.732 0 4.017l-.642 4.659-.964 5.784H73.873c-8.515-.161-15.263-7.069-15.102-15.584.161-8.355 6.908-15.102 15.102-15.102h.161c9.318.321 18.315-3.214 24.902-9.801 4.338-4.659 10.443-7.229 16.87-7.229 13.174.16 23.778 11.085 23.617 24.259-.161 11.889-9.158 21.85-20.886 23.296"/>
  <path fill="#0490f0" fill-rule="nonzero" d="M110.022 86.445c-3.213 0-5.945 2.571-5.945 5.784 0 3.213 2.571 5.945 5.784 5.945 3.213 0 5.945-2.571 5.945-5.784v-.161c-.161-3.213-2.732-5.784-5.784-5.784"/>
</svg>
