<svg viewBox="0 0 450 200" xmlns="http://www.w3.org/2000/svg" fill-rule="evenodd" clip-rule="evenodd" stroke-linejoin="round" stroke-miterlimit="2"><path d="M218.91,78.8c-0.472,6.784 -10.173,5.032 -14.741,7.174c-4.255,1.996 -10.105,4.698 -11.668,12.401c-1.228,6.058 1.345,11.751 3.945,14.993c2.519,3.14 -1.358,7.634 -5.255,4.069c-8.223,-7.521 -14.086,-19.808 -3.311,-34.535c10.775,-14.728 31.777,-14.839 31.03,-4.102Z" style="fill:#ef3d6b;fill-rule:nonzero;"/><path d="M200.226,119.746c0.441,-6.491 8.765,-4.944 13.207,-5.642c4.652,-0.73 10.543,-5.757 12.025,-13.129c1.165,-5.798 -1.307,-11.239 -3.799,-14.337c-2.415,-2.999 1.286,-7.305 5.02,-3.901c7.88,7.181 13.51,18.926 3.226,33.033c-10.284,14.107 -30.375,14.249 -29.679,3.976Z" style="fill:#f15a25;fill-rule:nonzero;"/><path d="M217.949,92.74c-0.473,3.75 -5.991,1.863 -8.677,2.634c-2.503,0.718 -5.943,1.683 -7.07,5.845c-0.887,3.274 0.42,6.699 1.817,8.755c1.352,1.992 -1.008,4.142 -3.14,1.785c-4.496,-4.976 -7.495,-12.396 -0.868,-19.626c6.627,-7.23 18.688,-5.328 17.938,0.607Z" style="fill:#f9ee20;fill-rule:nonzero;"/><path d="M206.211,105.238c0.824,-2.659 3.746,-2.298 5.637,-1.921c4.824,0.962 6.499,-4.628 6.275,-6.148c-0.235,-1.59 1.477,-3.064 2.461,-1.205c1.499,2.831 1.269,8.561 -2.542,11.403c-6.051,4.513 -13.136,2.08 -11.831,-2.129Z" style="fill:#2fb6c7;fill-rule:nonzero;"/><path d="M93.138,63.348c-0.678,-0.677 -1.439,-1.015 -2.455,-1.015c-0.931,-0 -1.693,0.338 -2.37,1.015c-0.677,0.677 -1.016,1.439 -1.016,2.37c0,1.016 0.339,1.778 1.016,2.455c0.677,0.677 1.439,1.016 2.37,1.016c1.016,-0 1.777,-0.339 2.455,-1.016c0.677,-0.677 1.015,-1.439 1.015,-2.455c0,-0.931 -0.338,-1.693 -1.015,-2.37Zm-4.994,57.306c-0,0.677 0.254,1.269 0.761,1.777c0.508,0.508 1.101,0.762 1.778,0.762c0.762,-0 1.354,-0.254 1.862,-0.762c0.508,-0.508 0.762,-1.1 0.762,-1.777l-0,-41.223c-0,-0.677 -0.254,-1.27 -0.762,-1.778c-0.508,-0.507 -1.1,-0.761 -1.862,-0.761c-0.677,-0 -1.27,0.254 -1.778,0.761c-0.507,0.508 -0.761,1.101 -0.761,1.778l-0,41.223Z" style="fill:#fff;fill-rule:nonzero;"/><path d="M104.311,120.654c-0,0.677 0.169,1.269 0.677,1.777c0.508,0.508 1.101,0.762 1.862,0.762c0.678,-0 1.27,-0.254 1.778,-0.762c0.508,-0.508 0.762,-1.1 0.762,-1.777l-0,-22.262c-0,-4.571 1.608,-8.38 4.74,-11.512c3.216,-3.217 7.11,-4.825 11.512,-4.825c4.486,-0 8.295,1.608 11.512,4.825c3.216,3.132 4.824,6.941 4.824,11.512l0,22.262c0,0.677 0.254,1.269 0.762,1.777c0.508,0.508 1.101,0.762 1.778,0.762c0.762,-0 1.354,-0.254 1.862,-0.762c0.508,-0.508 0.762,-1.1 0.762,-1.777l-0,-22.262c-0,-5.925 -2.117,-11.004 -6.349,-15.237c-4.147,-4.147 -9.141,-6.263 -15.151,-6.263c-5.756,-0 -11.174,2.454 -16.252,7.364l-0,-4.825c-0,-0.677 -0.254,-1.27 -0.762,-1.778c-0.508,-0.507 -1.1,-0.761 -1.778,-0.761c-0.761,-0 -1.354,0.254 -1.862,0.761c-0.508,0.508 -0.677,1.101 -0.677,1.778l-0,41.223Z" style="fill:#fff;fill-rule:nonzero;"/><path d="M166.018,106.941l-0,-24.886l7.703,-0c0.761,-0 1.354,-0.254 1.862,-0.762c0.508,-0.508 0.761,-1.1 0.761,-1.862c0,-0.677 -0.253,-1.27 -0.761,-1.778c-0.508,-0.507 -1.101,-0.761 -1.862,-0.761l-7.703,-0l-0,-17.268c-0,-0.762 -0.254,-1.355 -0.762,-1.862c-0.508,-0.508 -1.1,-0.762 -1.862,-0.762c-0.677,-0 -1.27,0.254 -1.778,0.762c-0.508,0.507 -0.761,1.1 -0.761,1.862l-0,17.268l-4.233,-0c-0.762,-0 -1.354,0.254 -1.862,0.761c-0.508,0.508 -0.762,1.101 -0.762,1.778c0,0.762 0.254,1.354 0.762,1.862c0.508,0.508 1.1,0.762 1.862,0.762l4.233,-0l-0,24.886c-0,10.835 5.417,16.252 16.251,16.252c0.762,-0 1.355,-0.254 1.862,-0.762c0.509,-0.508 0.762,-1.1 0.762,-1.777c0,-0.762 -0.253,-1.355 -0.762,-1.862c-0.507,-0.508 -1.1,-0.762 -1.862,-0.762c-7.364,-0 -11.088,-3.64 -11.088,-11.089Z" style="fill:#fff;fill-rule:nonzero;"/><path d="M254.07,87.303c3.555,-3.471 7.788,-5.248 12.782,-5.248c4.909,-0 9.141,1.777 12.697,5.248c3.47,3.555 5.248,7.788 5.248,12.782c-0,4.909 -1.778,9.226 -5.248,12.697c-3.556,3.555 -7.788,5.248 -12.697,5.248c-4.994,-0 -9.227,-1.693 -12.782,-5.248c-3.555,-3.556 -5.248,-7.788 -5.248,-12.697c0,-4.994 1.693,-9.227 5.248,-12.782Zm-5.248,27.51l1.608,1.608c4.571,4.487 9.989,6.772 16.422,6.772c6.348,-0 11.765,-2.285 16.336,-6.772c4.487,-4.486 6.772,-9.988 6.772,-16.336c-0,-6.433 -2.285,-11.851 -6.772,-16.422c-4.571,-4.486 -9.988,-6.771 -16.336,-6.771c-6.433,-0 -11.851,2.285 -16.422,6.771c-4.486,4.571 -6.771,9.989 -6.771,16.422l-0,40.376c-0,0.762 0.254,1.354 0.762,1.862c0.507,0.423 1.1,0.677 1.777,0.677c0.762,0 1.354,-0.254 1.862,-0.677c0.508,-0.508 0.762,-1.1 0.762,-1.862l0,-25.648Z" style="fill:#fff;fill-rule:nonzero;"/><path d="M305.281,63.348c-0.677,-0.677 -1.439,-1.015 -2.454,-1.015c-0.932,-0 -1.693,0.338 -2.371,1.015c-0.677,0.677 -1.015,1.439 -1.015,2.37c-0,1.016 0.338,1.778 1.015,2.455c0.678,0.677 1.439,1.016 2.371,1.016c1.015,-0 1.777,-0.339 2.454,-1.016c0.677,-0.677 1.016,-1.439 1.016,-2.455c0,-0.931 -0.339,-1.693 -1.016,-2.37Zm-4.994,57.306c0,0.677 0.254,1.269 0.762,1.777c0.508,0.508 1.1,0.762 1.778,0.762c0.761,-0 1.354,-0.254 1.862,-0.762c0.508,-0.508 0.762,-1.1 0.762,-1.777l-0,-41.223c-0,-0.677 -0.254,-1.27 -0.762,-1.778c-0.508,-0.507 -1.101,-0.761 -1.862,-0.761c-0.678,-0 -1.27,0.254 -1.778,0.761c-0.508,0.508 -0.762,1.101 -0.762,1.778l0,41.223Z" style="fill:#fff;fill-rule:nonzero;"/><path d="M352.291,87.303c3.471,3.555 5.248,7.788 5.248,12.782c0,4.909 -1.777,9.226 -5.248,12.697c-3.555,3.555 -7.787,5.248 -12.697,5.248c-4.994,-0 -9.226,-1.693 -12.781,-5.248c-3.555,-3.556 -5.248,-7.788 -5.248,-12.697c0,-4.994 1.693,-9.227 5.248,-12.782c3.555,-3.471 7.787,-5.248 12.781,-5.248c4.91,-0 9.142,1.777 12.697,5.248Zm5.248,33.351c0,0.677 0.254,1.269 0.762,1.777c0.508,0.508 1.101,0.762 1.863,0.762c0.676,-0 1.269,-0.254 1.777,-0.762c0.508,-0.508 0.762,-1.1 0.762,-1.777l-0,-20.569c-0,-6.433 -2.286,-11.851 -6.772,-16.422c-4.571,-4.486 -9.988,-6.771 -16.337,-6.771c-6.433,-0 -11.85,2.285 -16.421,6.771c-4.486,4.571 -6.771,9.989 -6.771,16.422c-0,6.348 2.285,11.85 6.771,16.336c4.571,4.487 9.988,6.772 16.421,6.772c6.349,-0 12.359,-2.793 17.945,-8.38l0,5.841Z" style="fill:#fff;fill-rule:nonzero;"/></svg>