<svg viewBox="0 0 450 200" xmlns="http://www.w3.org/2000/svg" fill-rule="evenodd" clip-rule="evenodd" stroke-linejoin="round" stroke-miterlimit="2"><g id="mantis-co."><path d="M129.048,146.756l-0,16.293l-5.25,0l0,-15.991c0,-4.707 -2.594,-7.844 -6.697,-7.844c-5.009,-0.061 -7.604,3.439 -7.604,9.715l0,14.12l-5.25,0l0,-15.991c0,-4.767 -2.594,-7.844 -6.336,-7.844c-3.982,-0 -7.966,2.594 -7.966,8.568l0,15.267l-5.25,0l0,-28.18l5.25,-0l0,4.345c1.388,-3.078 5.07,-5.069 9.052,-5.069c4.103,-0 7.664,2.172 9.294,6.034c2.594,-5.069 6.999,-6.034 9.835,-6.034c7.06,-0 10.922,4.706 10.922,12.611" style="fill:#fff;fill-rule:nonzero;"/><path d="M160,148.929c0,-5.793 -4.889,-9.836 -9.595,-9.836c-5.129,-0 -9.233,4.526 -9.233,9.836c-0,5.37 4.104,9.896 9.293,9.896c5.009,0 9.535,-4.163 9.535,-9.896m0,-14.06l5.25,-0l-0,28.18l-5.25,0l0,-5.008c-1.871,3.379 -5.794,5.732 -10.32,5.732c-7.361,0 -13.818,-6.215 -13.818,-14.844c0,-8.327 6.094,-14.785 14.06,-14.785c4.224,0 8.207,1.811 10.078,5.13l0,-4.405Z" style="fill:#fff;fill-rule:nonzero;"/><path d="M200.366,146.756l-0,16.293l-5.25,0l-0,-15.991c-0,-4.707 -2.897,-7.724 -6.819,-7.724c-3.922,0 -8.629,2.354 -8.629,8.448l-0,15.267l-5.25,0l-0,-28.18l5.25,-0l-0,4.284c1.689,-3.439 6.276,-5.008 9.354,-5.008c6.999,-0 11.404,4.706 11.344,12.611" style="fill:#fff;fill-rule:nonzero;"/><path d="M222.268,134.869l-0,4.525l-6.096,0l0,23.655l-5.249,0l-0,-23.655l-5.069,0l-0,-4.525l5.069,-0l-0,-10.621l5.249,0l0,10.621l6.096,-0Z" style="fill:#fff;fill-rule:nonzero;"/><path d="M228.119,134.869l5.249,-0l0,28.18l-5.249,0l-0,-28.18Zm-1.087,-10.379c0,-1.992 1.69,-3.5 3.682,-3.5c2.051,-0 3.741,1.508 3.741,3.5c-0,1.991 -1.69,3.5 -3.741,3.5c-1.992,-0 -3.682,-1.509 -3.682,-3.5" style="fill:#fff;fill-rule:nonzero;"/><path d="M240.247,154.782l4.888,0c0.06,2.414 2.172,4.405 5.612,4.405c3.56,0 5.672,-1.75 5.672,-4.043c-0,-2.112 -1.629,-3.198 -3.862,-3.681l-3.862,-0.905c-4.706,-1.267 -7.422,-3.56 -7.422,-8.086c-0,-4.646 3.982,-8.327 9.655,-8.327c4.767,-0 9.715,2.534 9.715,8.206l-5.068,0c-0.061,-2.172 -2.294,-3.62 -4.526,-3.62c-2.717,-0 -4.527,1.75 -4.527,3.922c0,1.931 1.81,2.957 3.622,3.379l4.163,1.026c5.853,1.448 7.362,4.948 7.362,8.147c-0,5.25 -5.069,8.569 -10.922,8.569c-5.069,-0 -10.259,-3.199 -10.5,-8.992" style="fill:#fff;fill-rule:nonzero;"/><path d="M286.553,155.154l0,-6.882l-6.842,0c-4.307,0 -7.446,2.858 -7.446,6.842c-0,3.663 2.616,6.722 7.084,6.722c4.146,-0 7.044,-2.858 7.204,-6.682m6.44,6.641l0,1.731l-0.563,0c-2.576,0 -4.87,-1.369 -5.313,-4.629c-1.288,3.301 -4.91,4.67 -8.049,4.67c-5.314,-0 -8.573,-3.864 -8.573,-8.292c-0,-3.542 2.092,-6.762 5.553,-7.849c-2.172,-1.086 -3.259,-3.702 -3.259,-5.916c0,-3.622 2.897,-6.641 6.922,-6.641c2.535,-0 4.629,1.167 5.836,2.857l-1.449,1.007c-0.966,-1.409 -2.697,-2.133 -4.347,-2.133c-3.058,-0 -5.192,2.294 -5.192,5.031c0,2.817 2.134,5.111 5.152,5.111l6.842,0l0,-3.541l1.771,-0l0,3.541l3.784,0l-0,1.53l-3.784,0l0,6.6c0,3.663 0.725,6.923 4.147,6.923l0.522,0Z" style="fill:#fff;fill-rule:nonzero;"/><path d="M315.523,162.201c-7.201,0 -12.428,-5.303 -12.428,-12.609c0,-7.201 5.227,-12.428 12.428,-12.428c2.817,0 5.665,0.945 7.862,2.602l1.245,-1.476c-2.599,-2.016 -5.82,-3.122 -9.107,-3.122c-8.393,-0 -14.484,6.066 -14.484,14.424c-0,8.327 6.227,14.606 14.484,14.606c3.386,-0 6.548,-1.077 9.164,-3.119l-1.297,-1.482c-2.206,1.681 -4.988,2.604 -7.867,2.604" style="fill:#fff;fill-rule:nonzero;"/><path d="M344.486,162.201c-7.166,0 -12.368,-5.303 -12.368,-12.609c0,-7.201 5.202,-12.428 12.368,-12.428c7.051,0 12.369,5.343 12.369,12.428c-0,7.189 -5.318,12.609 -12.369,12.609m0,-27.033c-8.358,-0 -14.424,6.066 -14.424,14.424c-0,8.463 6.066,14.606 14.424,14.606c8.358,-0 14.424,-6.143 14.424,-14.606c0,-8.358 -6.066,-14.424 -14.424,-14.424" style="fill:#fff;fill-rule:nonzero;"/><path d="M363.252,160.27c-1.172,0 -2.055,0.832 -2.055,1.934c0,1.086 0.864,1.873 2.055,1.873c1.189,-0 2.053,-0.787 2.053,-1.873c-0,-1.102 -0.883,-1.934 -2.053,-1.934" style="fill:#fff;fill-rule:nonzero;"/><path d="M245.26,35.802c5.812,0 10.523,4.711 10.523,10.523l0,40.016c0,5.812 -4.711,10.523 -10.523,10.523l-40.016,0c-5.812,0 -10.523,-4.711 -10.523,-10.523l-0,-40.016c-0,-5.812 4.711,-10.523 10.523,-10.523l40.016,0Zm-14.845,49.576c14.187,-11.248 21.874,-18.394 10.909,-38.821c-8.104,3.861 -11.179,11.332 -16.072,20.231c-4.893,-8.899 -7.969,-16.37 -16.073,-20.231c-10.964,20.427 -3.277,27.573 10.91,38.821c-1.732,-2.279 -3.239,-4.292 -4.528,-6.138c0.799,0.249 1.707,0.075 2.639,0.073c0.119,-0.001 0.289,-0.187 0.017,-0.273c-2.265,-0.712 -3.054,-0.733 -4.007,-1.797c-0.738,-1.138 -1.372,-2.212 -1.914,-3.253c-0.021,-0.201 -0.057,-0.398 -0.05,-0.605c1.257,1.551 3.164,1.711 5.069,1.969c0.253,0.035 0.21,-0.197 -0.046,-0.334c-4.528,-2.436 -5.521,-3.962 -6.767,-6.277c-0.076,-0.143 -0.123,-0.263 -0.181,-0.391c-0.114,-0.686 -0.188,-1.377 -0.205,-2.08c1.165,1.278 2.975,2.424 4.832,3.065c0.267,0.093 0.31,-0.101 0.071,-0.283c-1.83,-1.389 -3.417,-3.125 -4.772,-5.19c0.061,-0.495 0.139,-0.998 0.245,-1.515c1.092,0.969 2.35,1.841 3.342,2.27c0.245,0.106 0.283,-0.047 0.087,-0.201c-1.125,-0.888 -2.026,-2.199 -3.034,-3.719c0.331,-1.19 0.762,-2.447 1.307,-3.804c3.805,1.365 8.329,8.047 13.058,16.238c4.729,-8.191 9.253,-14.873 13.058,-16.238c0.538,1.34 0.963,2.581 1.293,3.758c-1.002,1.51 -1.9,2.814 -3.021,3.698c-0.195,0.154 -0.157,0.307 0.088,0.201c0.988,-0.428 2.24,-1.295 3.329,-2.259c0.107,0.517 0.187,1.02 0.25,1.515c-1.354,2.06 -2.938,3.792 -4.764,5.179c-0.239,0.181 -0.196,0.375 0.071,0.283c1.858,-0.643 3.671,-1.789 4.836,-3.07c-0.013,0.693 -0.084,1.373 -0.191,2.047c-0.063,0.14 -0.116,0.272 -0.199,0.428c-1.246,2.315 -2.239,3.842 -6.767,6.277c-0.257,0.138 -0.299,0.369 -0.046,0.335c1.905,-0.259 3.812,-0.418 5.068,-1.97c0.008,0.235 -0.028,0.459 -0.056,0.685c-0.506,0.971 -1.099,1.976 -1.776,3.031c-1.016,1.218 -1.769,1.195 -4.139,1.94c-0.272,0.085 -0.101,0.272 0.018,0.272c0.957,0.003 1.888,0.185 2.702,-0.095c-1.302,1.87 -2.832,3.913 -4.591,6.228Z" style="fill:#fff;"/></g></svg>