<svg viewBox="0 0 450 200" xmlns="http://www.w3.org/2000/svg" xml:space="preserve" fill-rule="evenodd" clip-rule="evenodd" stroke-linejoin="round" stroke-miterlimit="10"><path d="M64.998,59.899l6.951,-0l21.187,49.4l21.542,-49.4l6.951,-0l-27.823,63.935l-1.395,-0l-27.413,-63.935Z" style="fill:#fff;fill-rule:nonzero;"/><rect x="130.459" y="66.98" width="6.086" height="6.086" style="fill:#fff;"/><rect x="130.459" y="76.545" width="6.086" height="47.288" style="fill:#fff;"/><path d="M172.965,81.719l-3.908,4.038c-3.257,-3.154 -6.439,-4.736 -9.547,-4.736c-1.973,0 -3.667,0.652 -5.081,1.954c-1.405,1.303 -2.112,2.829 -2.112,4.56c-0,1.535 0.577,2.996 1.74,4.392c1.163,1.423 3.601,3.089 7.314,4.997c4.531,2.344 7.611,4.606 9.23,6.783c1.601,2.205 2.392,4.68 2.392,7.435c-0,3.88 -1.368,7.174 -4.095,9.863c-2.726,2.699 -6.141,4.039 -10.226,4.039c-2.726,-0 -5.332,-0.596 -7.816,-1.778c-2.485,-1.191 -4.532,-2.828 -6.16,-4.913l3.824,-4.345c3.108,3.508 6.402,5.257 9.892,5.257c2.438,0 4.513,-0.782 6.225,-2.345c1.712,-1.563 2.568,-3.405 2.568,-5.518c-0,-1.74 -0.568,-3.284 -1.703,-4.652c-1.135,-1.331 -3.685,-3.015 -7.667,-5.044c-4.271,-2.205 -7.175,-4.373 -8.71,-6.522c-1.535,-2.141 -2.308,-4.588 -2.308,-7.342c0,-3.592 1.229,-6.579 3.676,-8.952c2.457,-2.372 5.555,-3.564 9.296,-3.564c4.355,0 8.737,2.131 13.148,6.393l0.028,0Z" style="fill:#fff;fill-rule:nonzero;"/><path d="M183.833,76.545l0,68.03l6.086,-0l-0,-39.956c-0.27,-1.34 -0.438,-2.726 -0.438,-4.187c0,-1.461 0.158,-2.978 0.438,-4.364l-0,-19.523l-6.086,0Z" style="fill:#fff;fill-rule:nonzero;"/><path d="M284.282,108.146l5.127,2.698c-1.685,3.303 -3.62,5.974 -5.825,8.002c-2.206,2.029 -4.69,3.574 -7.444,4.625c-2.755,1.061 -5.872,1.591 -9.352,1.591c-7.714,0 -13.744,-2.531 -18.098,-7.583c-4.355,-5.053 -6.523,-10.776 -6.523,-17.15c-0,-6.002 1.842,-11.343 5.527,-16.042c4.671,-5.964 10.924,-8.951 18.75,-8.951c7.825,-0 14.497,3.061 19.317,9.175c3.424,4.317 5.164,9.705 5.22,16.172l-42.552,-0c0.112,5.49 1.87,9.994 5.267,13.511c3.396,3.508 7.583,5.267 12.58,5.267c2.41,-0 4.755,-0.419 7.026,-1.257c2.279,-0.837 4.215,-1.944 5.806,-3.331c1.591,-1.386 3.322,-3.62 5.183,-6.709l-0.009,-0.018Zm-0,-12.739c-0.81,-3.248 -1.992,-5.834 -3.546,-7.779c-1.554,-1.945 -3.601,-3.508 -6.16,-4.699c-2.549,-1.191 -5.238,-1.778 -8.049,-1.778c-4.643,0 -8.635,1.489 -11.966,4.476c-2.438,2.178 -4.28,5.434 -5.527,9.78l35.248,-0Z" style="fill:#fff;fill-rule:nonzero;"/><path d="M300.007,76.545l6.225,0l0,6.914c1.852,-2.726 3.815,-4.764 5.872,-6.104c2.056,-1.349 4.206,-2.019 6.43,-2.019c1.674,-0 3.48,0.539 5.387,1.61l-3.173,5.127c-1.275,-0.549 -2.345,-0.828 -3.219,-0.828c-2.029,-0 -3.983,0.837 -5.872,2.503c-1.889,1.665 -3.322,4.252 -4.299,7.76c-0.754,2.699 -1.135,8.142 -1.135,16.34l-0,15.995l-6.216,0l0,-47.298Z" style="fill:#fff;fill-rule:nonzero;"/><path d="M351.483,75.326c7.286,0 13.325,2.634 18.117,7.91c4.355,4.811 6.532,10.505 6.532,17.084c0,6.579 -2.298,12.385 -6.904,17.326c-4.597,4.941 -10.515,7.407 -17.745,7.407c-7.23,-0 -13.185,-2.466 -17.791,-7.407c-4.597,-4.941 -6.905,-10.719 -6.905,-17.326c0,-6.607 2.178,-12.227 6.532,-17.038c4.792,-5.304 10.841,-7.956 18.155,-7.956l0.009,0Zm-0.019,5.956c-5.062,-0 -9.407,1.87 -13.045,5.611c-3.639,3.74 -5.453,8.253 -5.453,13.557c-0,3.424 0.828,6.607 2.484,9.566c1.657,2.959 3.899,5.239 6.718,6.848c2.82,1.61 5.919,2.41 9.296,2.41c3.378,0 6.467,-0.8 9.287,-2.41c2.819,-1.609 5.062,-3.889 6.718,-6.848c1.656,-2.959 2.484,-6.142 2.484,-9.566c0,-5.304 -1.823,-9.826 -5.471,-13.557c-3.647,-3.741 -7.993,-5.611 -13.018,-5.611Z" style="fill:#fff;fill-rule:nonzero;"/><path d="M224.701,87.209c-6.793,-6.681 -17.81,-6.69 -24.603,0c-2.503,2.466 -4.085,5.49 -4.736,8.672c0.772,-2.103 2.019,-4.075 3.731,-5.759c6.253,-6.16 16.405,-6.151 22.658,-0c6.263,6.16 6.253,16.144 0,22.295c-1.712,1.684 -3.712,2.903 -5.843,3.666c3.229,-0.652 6.299,-2.196 8.802,-4.662c6.793,-6.681 6.793,-17.531 0,-24.212l-0.009,0Z" style="fill:#fff;fill-rule:nonzero;"/><path d="M215.173,102.562c-2.885,0 -5.23,-2.307 -5.23,-5.145c0,-2.019 1.182,-3.759 2.894,-4.597c-0.949,-0.307 -1.973,-0.484 -3.024,-0.484c-5.351,0 -9.677,4.262 -9.677,9.529c-0,5.266 4.336,9.528 9.686,9.528c5.351,0 9.678,-4.262 9.678,-9.528c-0,-0.475 -0.047,-0.94 -0.112,-1.396c-0.949,1.265 -2.475,2.093 -4.206,2.093l-0.009,0Z" style="fill:#fff;fill-rule:nonzero;"/><ellipse cx="211.795" cy="99.65" rx="23.114" ry="22.267" style="fill:none;stroke:#fff;stroke-width:4.68px;"/><path d="M382.004,79.058c-0,0.605 -0.149,1.172 -0.456,1.703c-0.307,0.53 -0.717,0.939 -1.247,1.247c-0.531,0.297 -1.098,0.455 -1.703,0.455c-0.605,0 -1.191,-0.158 -1.722,-0.474c-0.53,-0.316 -0.939,-0.735 -1.237,-1.256c-0.289,-0.521 -0.437,-1.08 -0.437,-1.666c-0,-0.586 0.148,-1.172 0.456,-1.693c0.307,-0.531 0.716,-0.94 1.246,-1.247c0.531,-0.307 1.089,-0.456 1.694,-0.456c0.605,-0 1.172,0.149 1.703,0.456c0.53,0.307 0.94,0.716 1.247,1.247c0.307,0.53 0.446,1.088 0.446,1.693l0.01,-0.009Zm-0.531,-0c0,-0.512 -0.13,-0.987 -0.381,-1.424c-0.261,-0.437 -0.605,-0.791 -1.052,-1.042c-0.446,-0.261 -0.921,-0.382 -1.433,-0.382c-0.512,0 -0.958,0.121 -1.396,0.363c-0.437,0.242 -0.79,0.587 -1.06,1.033c-0.27,0.447 -0.4,0.931 -0.4,1.461c-0,0.531 0.13,0.986 0.381,1.433c0.251,0.447 0.605,0.791 1.042,1.052c0.438,0.26 0.921,0.381 1.433,0.381c0.512,0 0.996,-0.13 1.433,-0.381c0.447,-0.261 0.791,-0.605 1.052,-1.052c0.251,-0.447 0.381,-0.921 0.381,-1.433l0,-0.009Zm-2.075,1.926l-0.837,-1.47l-0.549,-0l-0,1.47l-0.838,-0l0,-3.824l1.554,-0c0.484,-0 0.838,0.102 1.08,0.307c0.242,0.204 0.353,0.484 0.353,0.837c0,0.298 -0.074,0.531 -0.223,0.717c-0.149,0.186 -0.344,0.316 -0.596,0.39l1.005,1.582l-0.94,0l-0.009,-0.009Zm-0.093,-2.68c0,-0.177 -0.056,-0.316 -0.177,-0.409c-0.121,-0.093 -0.288,-0.14 -0.502,-0.14l-0.624,0l0,1.154l0.68,-0c0.204,-0 0.363,-0.056 0.465,-0.168c0.102,-0.111 0.158,-0.26 0.158,-0.437Z" style="fill:#fff;fill-rule:nonzero;"/></svg>