<svg viewBox="0 0 450 200" xmlns="http://www.w3.org/2000/svg" fill-rule="evenodd" clip-rule="evenodd" stroke-linejoin="round" stroke-miterlimit="2"><g transform="matrix(.2613 0 0 .2613 146.504 29.696)"><clipPath id="a"><path d="M0 0h600.8v538.1H0z"/></clipPath><g clip-path="url(#a)" fill-rule="nonzero"><path d="M34.1 523.4H13.8L9 537H0l19.5-54.6h8.9L47.8 537h-9l-4.7-13.6zm-2.9-8l-7.3-20.7-7.3 20.7h14.6zm55.6-37V537h-8l-.4-3.3c-3 2.7-6.6 4.1-11 4.1-3.6 0-6.7-.9-9.4-2.7-2.7-1.8-4.8-4.2-6.2-7.3-1.5-3-2.2-6.4-2.2-10.1 0-3.6.7-7 2.1-10.1 1.4-3.1 3.5-5.5 6.2-7.3 2.7-1.8 5.9-2.7 9.6-2.7 4.2 0 7.8 1.2 10.7 3.7v-22.9h8.6zM76 527.1c1.8-2.2 2.7-5.4 2.7-9.4s-.9-7.1-2.7-9.4c-1.8-2.3-4.2-3.4-7.3-3.4-3.2 0-5.7 1.2-7.5 3.5-1.8 2.4-2.7 5.4-2.7 9.2 0 3.7.9 6.8 2.7 9.2 1.8 2.4 4.3 3.5 7.5 3.5 3.1.1 5.5-1 7.3-3.2zm19.9-28.8h7.9l.5 4.9c1.4-1.7 3-3.1 4.8-4.1 1.8-1 3.7-1.6 5.7-1.6.5 0 1.1.1 1.7.2l-.7 8.9c-.8-.3-1.8-.4-3-.4-1.7 0-3.3.4-4.8 1.2-1.5.8-2.6 1.8-3.2 2.8V537h-8.9v-38.7zm25.4-15.9h8.7v9h-8.7v-9zm0 15.9h8.7V537h-8.7v-38.7zm18.3 36.3c-2.2-2.1-3.2-4.9-3.2-8.3 0-3.4 1.2-6.1 3.6-8.1 2.4-2 5.3-3.5 8.6-4.3 3.3-.8 6.7-1.3 10-1.4-.1-2.7-.7-4.6-1.8-5.7-1.1-1.1-3-1.6-5.7-1.6-1.7 0-3.3.2-5 .7-1.6.5-3.5 1.3-5.5 2.4l-.9-7.1c4.4-2.4 9-3.6 13.8-3.6 4.7 0 8.2 1.3 10.5 3.9 2.3 2.6 3.4 6.8 3.4 12.8v9.6c0 2 .1 3.5.3 4.4.2.9.5 1.5 1 1.9.5.4 1.3.5 2.5.5h1.1l-1 7.1h-2.4c-2.5 0-4.4-.4-5.8-1.2-1.4-.8-2.5-2.1-3.3-3.7-1.4 1.5-3.1 2.7-5.1 3.6-2.1.9-4.3 1.3-6.7 1.3-3.5 0-6.3-1.1-8.4-3.2zM155 530c1.4-.6 2.6-1.5 3.6-2.7v-9c-4 .2-7.2.9-9.6 2.1-2.4 1.2-3.6 3.1-3.6 5.5 0 3.4 1.8 5.1 5.5 5.1 1.3 0 2.7-.3 4.1-1zm53.2-27.6c2.5 3.2 3.7 7.5 3.7 13.1V537h-8.7v-21c0-3.8-.7-6.7-2-8.4-1.3-1.8-3.5-2.7-6.6-2.7-3.6 0-6.4 1.3-8.4 3.8V537h-8.7v-38.7h7.7l.3 3.2c3.3-2.6 7.1-3.9 11.3-3.9 5.1 0 8.9 1.6 11.4 4.8zm31.6-20H259c5.9 0 10.5 1.4 13.8 4.1 3.3 2.8 5 6.9 5 12.4 0 3.8-.8 6.9-2.4 9.4-1.6 2.4-3.9 4.4-6.9 5.9l12.2 22.9h-10.4l-10.7-20.7H249V537h-9.2v-54.6zm17.5 26.2c3.8 0 6.6-.8 8.4-2.5 1.8-1.6 2.7-3.9 2.7-6.8 0-6.1-3.6-9.2-10.8-9.2h-8.5v18.5h8.2zm34.7 26.5c-3-1.8-5.2-4.2-6.8-7.3-1.6-3.1-2.4-6.4-2.4-10.1 0-3.7.8-7.1 2.4-10.1 1.6-3.1 3.9-5.5 6.8-7.3 2.9-1.8 6.4-2.7 10.5-2.7s7.6.9 10.5 2.7c2.9 1.8 5.2 4.2 6.8 7.3 1.6 3.1 2.3 6.4 2.3 10.1 0 3.7-.8 7.1-2.3 10.1-1.6 3.1-3.8 5.5-6.8 7.3-3 1.8-6.5 2.7-10.5 2.7-4.1 0-7.6-.9-10.5-2.7zm18.3-8.1c1.9-2.3 2.8-5.4 2.8-9.4 0-3.9-.9-7-2.8-9.3-1.9-2.3-4.5-3.5-7.9-3.5-3.4 0-6 1.2-7.9 3.5-1.9 2.3-2.8 5.4-2.8 9.3 0 4 .9 7.1 2.8 9.4 1.9 2.3 4.5 3.4 7.9 3.4 3.4 0 6-1.1 7.9-3.4zm16.5 7.7l.9-7.7c4 2.6 8 3.9 12 3.9 2.1 0 3.8-.4 4.9-1.1 1.1-.7 1.7-1.8 1.7-3.2 0-1.6-.6-2.7-1.7-3.5-1.1-.8-3-1.6-5.6-2.6-3.8-1.3-6.7-2.8-8.6-4.4-1.9-1.7-2.9-4.1-2.9-7.3 0-3.3 1.3-6.1 3.8-8.2 2.5-2.1 6.1-3.2 10.6-3.2 4.3 0 8.1.9 11.5 2.8l-.9 7.6c-1.7-1.2-3.4-2.2-5.1-2.9-1.7-.7-3.5-1-5.4-1-1.9 0-3.4.4-4.4 1.1-1 .8-1.6 1.8-1.6 3.2 0 1 .3 1.9.9 2.6.6.7 1.4 1.2 2.5 1.7s2.7 1.1 5 2c3.5 1.3 6.1 2.8 8 4.5 1.8 1.7 2.8 4.1 2.8 7.1 0 3.5-1.2 6.3-3.7 8.4-2.5 2.1-6.3 3.2-11.3 3.2-4.9.1-9.3-.9-13.4-3zm42.2.3c-3.1-1.8-5.5-4.3-7.1-7.4-1.6-3.1-2.4-6.5-2.4-10.3 0-3.6.7-7 2.2-9.9 1.5-3 3.7-5.4 6.6-7.1 2.9-1.8 6.3-2.7 10.2-2.7 3.4 0 6.4.7 8.9 2.1 2.5 1.4 4.4 3.4 5.8 5.9 1.3 2.5 2 5.4 2 8.6 0 1.7-.2 3.3-.5 4.8h-26.1c.5 4 1.9 6.9 4.2 8.7 2.3 1.8 5.2 2.7 8.6 2.7 4.2 0 8-1 11.5-2.9l.6 7.3c-4 2-8.3 3-12.9 3-4.7 0-8.5-.9-11.6-2.8zm17.2-21.9c0-2.3-.7-4.2-1.9-5.8-1.3-1.6-3.3-2.3-5.9-2.3-5 0-8.2 2.7-9.5 8.1h17.3zm18.1 21.9c-1.6-1.8-2.5-4.2-2.5-7.1v-49.5h8.7v45.4c0 2.2.1 3.7.4 4.6.3.9.7 1.5 1.4 1.8.7.3 1.8.4 3.4.4l-.9 7.1h-3.1c-3.3.1-5.8-.8-7.4-2.7zm19.7 0c-1.6-1.8-2.5-4.2-2.5-7.1v-49.5h8.7v45.4c0 2.2.1 3.7.4 4.6.3.9.7 1.5 1.4 1.8.7.3 1.8.4 3.4.4l-.9 7.1h-3.1c-3.2.1-5.7-.8-7.4-2.7zm17.3-52.6h8.7v9h-8.7v-9zm0 15.9h8.7V537h-8.7v-38.7zm37-15.9h9v46.5h23.4v8.1h-32.4v-54.6zm39 0h9v46.5h23.4v8.1h-32.4v-54.6zm47.8 52.2c-4.2-2.3-7.5-5.7-9.9-9.9-2.4-4.3-3.5-9.3-3.5-14.9 0-5.7 1.2-10.6 3.6-14.9 2.4-4.3 5.8-7.6 10-9.9 4.3-2.3 9.1-3.5 14.5-3.5 2.7 0 5.3.3 7.7.9 2.4.6 4.6 1.4 6.6 2.3l-.9 8.6c-4.5-2.1-9-3.2-13.4-3.2-3.8 0-7.1.8-9.9 2.5-2.7 1.7-4.8 4-6.2 7-1.4 3-2.1 6.4-2.1 10.3 0 3.8.7 7.3 2.1 10.3 1.4 3 3.4 5.3 6.1 7 2.7 1.7 6 2.5 9.8 2.5 2.4 0 4.7-.3 6.9-.8s4.4-1.3 6.7-2.3l.9 8.5c-4.4 2.1-9.2 3.2-14.6 3.2-5.4-.2-10.2-1.4-14.4-3.7zM301.8 0c-13.8 0-28.1.9-32 2-3.9 1.1-10.1 2.4-14 3-3.9.6-11.5 2.1-17 3.5s-12.7 3.6-16 5c-3.3 1.4-13.2 5.2-22 8.5s-18 7.1-20.5 8.5c-2.5 1.4-9.7 5-16 8-6.3 3-20.1 10.9-30.5 17.5-10.4 6.6-23.7 16.1-29.5 21-5.8 4.9-11.6 10.1-13 11.5l-5 5c-1.4 1.4-3.8 4.1-5.5 6-1.7 1.9-4.1 4.8-5.5 6.5-1.4 1.7-3.2 4.6-4 6.5-.8 1.9-3.3 6-5.5 9s-6.3 9.3-9 14c-2.7 4.7-6.1 11.4-7.5 15-1.4 3.6-3.8 10.3-5.5 15-1.7 4.7-4.6 13-6.5 18.5-1.9 5.5-4.9 15.2-6.5 21.5-1.6 6.3-3.2 12.4-3.5 13.5-.3 1.1-.3 2.4 0 3 .3.6 0 3.3-.5 6s-1.2 6.1-1.5 7.5c-.3 1.4-.3 4.5 0 7s.3 9 0 14.5-1.2 12-2 14.5-2.6 16-4 30-2.3 27.8-2 30.5c.3 2.7.7 6.1 1 7.5.3 1.4.3 4.5 0 7s0 6.1.5 8c.5 1.9.8 5.5.5 8-.3 2.5 0 7.2.5 10.5.7 4.4.3 6.3-1.5 7-1.4.5-4.3 2.6-6.5 4.5-3 2.6-4.3 5.5-5 11.5-.6 4.4-1.9 9.1-3 10.5-1.1 1.4-1.1 10.1-1.1 20.6v.7L4 446h291.3c161.4 0 295.1-.5 297-1 2-.6 3.9-2.5 4.5-4.5.5-1.9 1.7-6.6 2.5-10.5.8-3.9 1.5-9.5 1.5-12.5s-.7-8-1.5-11-2.2-7.3-3-9.5c-.8-2.2-3.1-5.1-5-6.5-1.9-1.4-5.3-3-7.5-3.5s-4.2-1.9-4.5-3c-.3-1.1 0-4.3.5-7s1.2-9.5 1.5-15c.3-5.5 1-12.3 1.5-15 .5-2.7.5-12.2 0-21s-1.5-20-2-25-1-12.8-1-17.5c0-4.7-.2-10.5-.5-13s-.7-9.9-1-16.5c-.3-6.6-1-13.8-1.5-16-.5-2.2-1.7-8.7-2.5-14.5-.8-5.8-2.2-12.8-3-15.5-.8-2.7-3.1-11.8-5-20s-5.5-19.5-8-25-6.8-14.1-9.5-19-7.5-12.8-10.5-17.5c-3-4.7-10.7-13.7-17-20-6.3-6.3-14.2-14-17.5-17-3.3-3-11.4-9.6-18-14.5s-16-12.2-21-16c-5-3.8-15.3-10.8-23-15.5-7.7-4.7-15.8-9.4-18-10.5-2.2-1.1-9.6-4.5-16.5-7.5s-16.8-7.1-22-9c-5.2-1.9-14.2-4.9-20-6.5-5.8-1.6-13.6-3.7-17.5-4.5-3.9-.8-10.1-2.4-14-3.5-3.9-1.1-18.2-2-32-2" fill="#fff"/><path d="M287.8 0c-7.6.4-13.7 1.2-18 2-4.3.8-4.6 1.7-14 3-3.9.5-11.5 2.1-17 3.5s-12.7 3.6-16 5c-3.3 1.4-13.2 5.2-22 8.5s-18 7.1-20.5 8.5c-2.5 1.4-9.7 5-16 8-6.3 3-20.1 10.9-30.5 17.5-10.4 6.6-23.7 16-29.5 21-5.8 5-11.6 10.1-13 11.5l-5 5c-1.4 1.4-3.8 4.1-5.5 6-1.7 1.9-4.1 4.9-5.5 6.5-1.4 1.6-3.2 4.6-4 6.5-.8 1.9-3.3 6-5.5 9s-6.3 9.3-9 14c-2.7 4.7-6.1 11.4-7.5 15-1.4 3.6-3.8 10.3-5.5 15-1.7 4.7-4.6 13-6.5 18.5-1.9 5.5-4.9 15.2-6.5 21.5-1.6 6.3-3.2 12.4-3.5 13.5-.3 1.1-.3 2.4 0 3 .3.6 0 3.3-.5 6s-1.2 6.1-1.5 7.5c-.3 1.4 0 4.1 0 7 0 3.9-1.3 8.3-1.6 13.8-.3 5.5-.7 9.3-1.2 15.4-.2 2.6-1.9 15.7-3.3 29.8-1.4 14.1-2.3 27.8-2 30.5.3 2.7.7 6.1 1 7.5.3 1.4.3 4.5 0 7s0 6.1.5 8c.5 1.9.8 5.5.5 8-.3 2.5 0 7.2.5 10.5.7 4.4.3 6.3-1.5 7-1.4.5-4.3 2.6-6.5 4.5-3 2.6-4.3 5.5-5 11.5-.6 4.4-1.9 9.1-3 10.5-1.1 1.4-1.6 5.4-1.3 9 1.3 14.2-1.6 29 .3 29.7.8.3 3.4.1 4 .3-2.8-2.6-2-7.8-1.6-10.9l-.6-16.4c.1-2.6.5-5.3 1.4-7.8 1.2-3.6 2.3-7.4 2.7-9.5.6-2.8 1.2-6.6 1.5-8.5.3-1.9 1.6-4.4 3-5.5 1.4-1.1 4.3-2.5 6.5-3l4-1-.5-11.5c-.3-6.3-.7-13.5-1-16-.3-2.5-.7-13.5-1-24.5-.3-11 .2-25.4 1-32 .8-6.6 2.2-15.8 3-20.5.8-4.7 1.8-11.7 2.2-14.5 1-6.9 1.1-9.3 1.6-12.6.7-4.9.4-7.6.4-10.2 0-1 .3-4.2.3-7.8 0-3.6 1.1-11.9 2.5-18.5s4.1-16.9 6-23c1.9-6 6.7-19.1 10.5-29 3.8-9.9 10.4-23.2 14.5-29.5l7.7-11.3-3 7.5c-1.6 4.1-4.7 10.5-6.9 14.3-2.2 3.8-5.4 10.5-7.1 14.7-1.7 4.1-3.2 8.2-3.5 9-.3.8.8-.1 2.5-2s3.5-3.3 4-3c.5.3-.6 2.8-2.5 5.5s-4.6 7.3-6 10c-1.4 2.7-3.8 9-5.5 14-1.7 4.9-4.1 13.5-5.5 19-1.4 5.5-3 13.6-3.5 18s-.8 9.1-.5 10.5c.3 1.4 1-.4 1.5-4s1.5-7.6 2-9c.5-1.4 1.5-4.8 2-7.5s1.9-6.1 3-7.5c1.1-1.4 2.5-4.1 3-6 .5-1.9 1.7-5.1 2.5-7 .8-1.9 2.4-4.9 3.5-6.5 1.1-1.6 2.9-4.4 4-6 1.1-1.6 2.5-4.1 3-5.5.5-1.4.3-2.7-.5-3-.8-.3-1.7 0-2 .5-.3.5-.7.5-1 0-.3-.5-.7-.8-1-.5-.3.3.4-.6 1.5-2s3.6-3 5.5-3.5c2.2-.6 4.8-3.5 7-7.5 1.9-3.6 3.7-7.6 4-9 .4-1.8-.1-2.2-1.5-1.5-1 .5-2.2.7-3.3.3-2.2-.8-1.8-1.6 1.8-3.3l4.5-2-4-1.5c-2.2-.8-4.7-2.2-5.5-3-.9-.9-.7-1.9.5-2.5 1.1-.5 3.6-.5 5.5 0l3.5 1 4.5-6c2.5-3.3 5.2-7.8 6-10 .8-2.2 1.3-4.5 1-5-.3-.5.4-.8 1.5-.5 1.1.3 1.8-.2 1.5-1-.3-.8-.1-1.3.5-1 .6.3 1.4-.2 2-1 .6-.8 1.9-2.2 3-3 1.1-.8 2.4-3.1 3-5 .6-1.9.8-4.2.5-5-.3-.8 1.1-3.1 3-5s5.5-6 8-9 9-9.8 14.5-15c5.5-5.2 12.5-11.1 15.5-13 3-1.9 9.6-5.8 14.5-8.5s13.9-7.3 20-10 13.7-5.9 17-7c3.3-1.1 8-2.9 10.5-4s7-3.6 10-5.5l5.5-3.5-4 1c-2.2.5-8.9 3-15 5.5s-12.8 5.4-15 6.5c-2.2 1.1-7.4 3.6-11.5 5.5s-11.1 5.5-15.5 8-7.3 3.6-6.5 2.5c.8-1.1 6-4.5 11.5-7.5s15.6-8.2 22.5-11.5c6.9-3.3 21.1-9.1 31.5-13 10.4-3.9 23.1-8.1 28-9.5 4.9-1.4 10.1-2.7 11.5-3 2-.4 2.1-.2.5 1-1.1.8-6.5 3.3-12 5.5-5.6 2.2-7.8 3.6-5 3 2.8-.5 6.4-.5 8 0 1.6.5 4.6.5 6.5 0 1.9-.5 5.5-1.5 8-2s5.9-1.7 7.5-2.5c1.6-.8 3.2-1.3 3.5-1 .3.3.7 0 1-.5.3-.5 2.1-1.5 4-2s4.9-.1 6.5 1c1.6 1.1 3.9 1.8 5 1.5 1.1-.3 2.9-.3 4 0s3.1-.4 4.5-1.5 4.3-2.5 6.5-3 5.4-.8 7-.5c1.6.3 4.8 2.1 7 4s4.7 4 5.5 4.5c.8.5 2.2 1.2 3 1.5.8.3-.3-1.5-2.5-4s-4.7-5-5.5-5.5c-.8-.5.8-1 3.5-1s6.6.7 8.5 1.5c1.9.8 4.4 2.4 5.5 3.5 1.2 1.2 3.1 1.4 4.5.5 1.4-.8 3.9-.8 5.5 0s4.1 2.6 5.5 4c1.4 1.4 3.9 2.7 5.5 3 1.6.3 4.1 1.6 5.5 3l8 8c.3.3.3.7 0 1-.3.3.4.7 1.5 1 1.1.3 2.2-.2 2.5-1 .3-.8 1.6-1.3 3-1 1.4.3 4.2-1.5 6.5-4l4-4.5 5 1c2.8.5 9 2.8 14 5s10.1 4.5 11.5 5c1.4.5 4.5 2.1 7 3.5s5.4 3.4 6.5 4.5c1.1 1.1 1.8 2.2 1.5 2.5-.3.3.6 1.4 2 2.5s4.3 3.6 6.5 5.5 4.5 4 5 4.5 1.2.8 1.5.5c.3-.3.7-.3 1 0 .3.3 1.6.3 3 0s4.3.6 6.5 2 9 6.3 15 11 11.2 8.7 11.5 9c.3.3.7.3 1 0 .3-.3.7 0 1 .5.3.5.3 1.2 0 1.5-.3.3 0 .3.5 0s1.9.4 3 1.5 1.3 1.5.5 1c-.9-.6-1.1-.4-.5.5.5.8 4.1 4 8 7 3.9 3 9.3 8.2 12 11.5 2.7 3.3 6.6 9.6 8.5 14 1.9 4.4 4.4 10 5.5 12.5 1.1 2.5 2.9 5.9 4 7.5 1.1 1.6 3.1 5.7 4.5 9s3.4 6.7 4.5 7.5c1.1.8 2.2 2.2 2.5 3 .3.8 0 3.1-.5 5-.7 2.3 0 4.5 2 6.5 1.7 1.6 3.2 4.1 3.5 5.5.3 1.4 0 3.6-.5 5s-.5 3.9 0 5.5 1.7 4.1 2.5 5.5c.8 1.4 2.4 4.1 3.5 6 1.1 1.9 1.5 4.2 1 5-.5.8-1.9.8-3 0-1.6-1.2-1.8-1-1 1 .5 1.4 1.5 3.4 2 4.5s.5 2.7 0 3.5c-.5.8-.1 2.4 1 3.5s1.8 1.3 1.5.5c-.3-.8-1-1.7-1.5-2-.5-.3-.5-.7 0-1 .5-.3 1.5.6 2 2s2.1 3.6 3.5 5l5 5c1.4 1.4 1.8 2.9 1 3.5-.8.6-2.4-.6-3.5-2.5s-2.9-4.4-4-5.5c-1.3-1.3-2.3-1.3-3 0-.5 1.1.6 4.5 2.5 7.5s4.4 6.6 5.5 8c1.1 1.4 1.8 2.7 1.5 3-.3.3 1.8 3.2 4.5 6.5 3.9 4.7 5.2 8 6 15 .5 5 1.2 12.6 1.5 17 .3 4.4.3 8.2 0 8.5-.3.3-.3 1.6 0 3s-.4 3.6-1.5 5c-1.2 1.5-1.4 4.3-.5 7 .8 2.5 1.7 4.7 2 5 .3.3.3.7 0 1-.3.3 0 1.2.5 2s.3 2.2-.5 3c-.8.8-1.3 2-1 2.5.3.5.3 2.4 0 4s.4 3.7 1.5 4.5c1.1.8 2.2 1.7 2.5 2 .3.3-.8 1.9-2.5 3.5-2.1 2.1-2.7 4.3-2 7 .5 2.2 2.6 6 4.5 8.5s3.3 5.4 3 6.5c-.3 1.1-.3 2.9 0 4s-.2 3.4-1 5c-.9 1.8-1.9 2.4-2.5 1.5-.5-.8-1.2-1.7-1.5-2-.3-.3-1.6.9-3 2.5s-2 3.7-1.5 4.5c.6.9-1.2 2.8-4 4.5-2.8 1.6-4.8 3.2-4.5 3.5.3.3 1.4.3 2.5 0s4.3 1.5 7 4 4.8 4.7 4.5 5c-.3.3-1.2 0-2-.5s-2.2-.8-3-.5c-.8.3-1.7 1-2 1.5-.3.5-.3 1.2 0 1.5.3.3.3.7 0 1-.3.3 1.5 1.4 4 2.5s4.3 2.5 4 3c-.3.5.4 1.2 1.5 1.5 1.1.3 2.2 1.2 2.5 2 .3.8-.4 2.2-1.5 3-1.1.8-2.2 1.3-2.5 1-.3-.3-.7 0-1 .5-.3.5-1 1.2-1.5 1.5-.5.3-2.3-.9-4-2.5-1.7-1.6-3.9-3.2-5-3.5-1.3-.3-1.7.3-1 2 .5 1.4.8 2.7.5 3-.3.3-.3 2.5 0 5s.5 7 .5 10 .5 7.3 1 9.5 1.2 5.6 1.5 7.5c.3 1.9.3 4 0 4.5s.6 2.4 2 4l2.5 3 .5-3c.3-1.6.3-4.8 0-7s.8-7.6 2.5-12 3.9-9.4 5-11c1.1-1.6 3.6-4.6 5.5-6.5 1.9-1.9 4.2-3.7 5-4 .8-.3 2.2 1.3 3 3.5.8 2.2 1.7 4.9 2 6 .3 1.1.3 2.2 0 2.5-.3.3 0 .7.5 1 .5.3.8.7.5 1-.3.3-.7.3-1 0-.3-.3 0 .4.5 1.5s1.5 1.3 2 .5.8-4.6.5-8.5c-.3-4-1.8-8.5-3.5-10.5-1.7-1.9-5.3-4-8-4.5s-5.7-2.1-6.5-3.5c-.8-1.4-1-6.5-.5-11.5s1.7-14 2.5-20 1.5-16.4 1.5-23c0-6.6-.2-14-.5-16.5s-1-9.2-1.5-15c-.5-5.8-1-20.9-1-33.5 0-12.6-.5-25.7-1-29-.5-3.3-1.7-10.3-2.5-15.5-.8-5.2-2.2-11.8-3-14.5-.8-2.7-3.1-11.8-5-20s-5.5-19.5-8-25-6.8-14-9.5-19-7.5-12.8-10.5-17.5c-3-4.7-10.7-13.7-17-20-6.3-6.3-14.2-14-17.5-17-3.3-3-11.4-9.5-18-14.5s-16-12.1-21-16c-5-3.9-15.3-10.8-23-15.5-7.7-4.7-15.8-9.4-18-10.5-2.2-1.1-9.6-4.5-16.5-7.5s-16.8-7.1-22-9c-5.2-1.9-14.2-4.9-20-6.5-5.8-1.6-13.6-3.7-17.5-4.5-3.9-.8-10.1-2.4-14-3.5-3.9-1.1-10.1-2-14-2-2.7 0-4.3.4-9.5.5-2 0-3.8.1-7 0-3.8-.1-9.1-.2-15.5-.5zm35.5 2.5c1.4.3 5.2 1.2 8.5 2 3.6.9 5.6 2.1 5 3-.5.8-4.8.6-9.5-.5-5-1.2-8.1-2.6-7.5-3.5.5-.8 2.1-1.3 3.5-1m-41 .5c2.5 0 4.7.5 5 1 .3.5-.2 1.4-1 2-.8.6-4 1.4-7 2-3 .6-8 1.7-11 2.5s-7.3 1.9-9.5 2.5c-2.2.6-3.3.6-2.5 0 .8-.6 2.6-1.9 4-3s5.9-3.1 10-4.5 9.5-2.5 12-2.5m109.5 24c-1.1-.5-3.1.1-4.5 1.5l-5 5c-1.4 1.4-2.3 2.7-2 3 .3.3 0 .7-.5 1-.5.3-.3.7.5 1 .8.3 2.9-.4 4.5-1.5s3.9-1.8 5-1.5c1.1.3 2.2 0 2.5-.5.3-.5.7.1 1 1.5.3 1.4 2.1 3.4 4 4.5s5.1 2.7 7 3.5c1.9.8 5.5 2.4 8 3.5s4.7 1.8 5 1.5c.3-.3.7-.3 1 0 .3.3-.2-.4-1-1.5-1.1-1.4-.7-2.4 1.5-3.5 1.6-.8 3.2-1 3.5-.5.3.5 1.9 1.9 3.5 3s2.8 1.5 2.5 1c-.3-.5-1.2-1.9-2-3s-2.4-3.1-3.5-4.5-3.6-3-5.5-3.5-5.5-2.1-8-3.5-4.7-2.3-5-2c-.3.3-.7.3-1 0l2 2c1.4 1.4 3 3.2 3.5 4 .5.8-.4.8-2 0s-5.3-3.3-8-5.5-5.9-4.5-7-5m46.5 34.5c-.8-.3 2.5 2.9 7.5 7s10.6 7.9 12.5 8.5l3.5 1-2-2.5c-1.1-1.4-4.3-3.8-7-5.5-2.7-1.7-6.8-4.1-9-5.5-2.2-1.4-4.7-2.7-5.5-3M229.8 339c-2.8 0-8.6.9-13 2s-11.1 2.5-15 3c-3.9.5-11.3 1.7-16.5 2.5-5.2.8-11.5 2.4-14 3.5s-5.9 2.5-7.5 3c-1.6.5-6.4 3-10.5 5.5s-10.4 5.2-14 6c-3.6.8-7.2 2.4-8 3.5-1.2 1.6-.9 1.8 1.5 1 1.6-.5 4.8-.5 7 0s4.7.8 5.5.5c.8-.3 4.2.2 7.5 1s9.6 1.5 14 1.5 10-.2 12.5-.5 11-.7 19-1c8-.3 14.9-.3 15.5 0 .6.3.3-.6-.5-2l-1.5-2.5h5c2.8 0 6.4-.2 8-.5 1.6-.3 4.4-.3 6 0 1.6.3 5.3-.4 8-1.5s5.2-2.2 5.5-2.5c.3-.3 1.6 0 3 .5s1.8.5 1 0-1.7-1.2-2-1.5c-.3-.3 1.3-1 3.5-1.5l4-1-2-10-8.5-4.5c-4.7-2.5-10.7-4.5-13.5-4.5m166.5 2c-2.5-.5-6.5-.1-9 1s-6.1 3.6-8 5.5c-1.9 1.9-4.6 5.3-6 7.5-1.4 2.2-3 5.4-3.5 7-.5 1.6-.3 3.2.5 3.5.8.3 2.4-.2 3.5-1s2.2-1.3 2.5-1c.3.3.3 1 0 1.5s0 .8.5.5c.5-.3 1.2 0 1.5.5.3.5 1 1.2 1.5 1.5.5.3 1.7 0 2.5-.5s4.4.1 8 1.5c3.6 1.4 10.5 2.3 15.5 2 5-.3 11.3-1 14-1.5 2.7-.5 8.4-.3 12.5.5s9.5 1.7 12 2c2.5.3 8.5.5 13.5.5s12.1.9 16 2c3.9 1.1 8.6 2.5 10.5 3 1.9.5 6.4 1.7 10 2.5 3.6.8 9 3.3 12 5.5s6 5.1 6.5 6.5c.5 1.4 2.1 3.4 3.5 4.5s6.1 2.9 10.5 4 7.5 1.3 7 .5-3.5-2.4-6.5-3.5-7.1-2.5-9-3c-1.9-.5-3-1.2-2.5-1.5.5-.3 1.9-.3 3 0s4.3-.2 7-1 5.5-1.3 6-1c.5.3.1 0-1-.5s-2.2-.8-2.5-.5c-.3.3-.3-.2 0-1s.3-1.7 0-2c-.3-.3-.3-.7 0-1 .3-.3-1.8-5.2-4.5-11s-6.8-12.1-9-14c-2.2-1.9-7.4-5.3-11.5-7.5s-9.3-4.5-11.5-5c-2.2-.5-6.3-1.2-9-1.5-2.7-.3-6.8 0-9 .5s-6 .8-8.5.5c-2.5-.3-6.8-1.2-9.5-2s-11.1-2-18.5-2.5-16.6-.8-20.5-.5c-3.9.3-9 .3-11.5 0s-6.5-1-9-1.5m58 7.5c1.4.3 4.3 1 6.5 1.5s5.6 1.7 7.5 2.5c1.9.8 7.3 2.6 12 4s9.2 3.6 10 5c.8 1.4.8 2 0 1.5s-3.1-1.7-5-2.5-6-1-9-.5-6.6.3-8-.5c-1.4-.8-3.9-2.6-5.5-4s-5.5-3.2-8.5-4c-3-.8-4.8-2-4-2.5.8-.5 2.6-.8 4-.5m-329 7.5c-.3 0-2.3 1.1-4.5 2.5s-7.2 4.5-11 7c-5.3 3.4-7.9 6.3-10.5 12-1.9 4.1-3.1 7.7-2.5 8 .6.3 1.7-.6 2.5-2s3.3-3.9 5.5-5.5 5.8-4.4 8-6c2.2-1.6 6-3.9 8.5-5s6.3-2.9 8.5-4 4.2-2.2 4.5-2.5c.3-.3-1.3-1-3.5-1.5s-4.2-1.5-4.5-2c-.3-.5-.7-1-1-1m358.5 15c1.1 0 5.1.7 9 1.5 3.9.8 8.4 2.6 10 4l3 2.5-4-1c-2.2-.5-8-1.7-13-2.5-5.2-.9-8.6-2.1-8-3 .5-.8 1.9-1.5 3-1.5m-109.5 4.5c-.3-.3-.7 0-1 .5-.3.5-.7.8-1 .5-.3-.3-.7 0-1 .5-.3.5-2.5 2.6-5 4.5s-5.9 6.2-7.5 9.5c-1.6 3.3-2.8 6.2-2.5 6.5.3.3 2.8-1.8 5.5-4.5s7.9-7.7 11.5-11c4.2-3.9 5.8-6.2 4.5-6.5-1.1-.3-2.2-.3-2.5 0-.3.3-.7.3-1 0m-151.5 5c-4.4-.3-9.4.2-11 1-2.3 1.2-.3 1.8 9 3s14.1 2.8 21 7c4.9 3 10.6 6.2 12.5 7 1.9.8 4.6 2.4 6 3.5 1.7 1.4 1.6.6-.5-2.5-1.6-2.5-6.8-7-11.5-10s-10.5-6.2-13-7c-2.5-.8-8.1-1.7-12.5-2m175.5 2.5c-.3 0-4.3 1.1-9 2.5s-11.4 4.3-15 6.5c-3.6 2.2-7.4 5.8-8.5 8-1.1 2.2-2.2 5.8-2.5 8l-.5 4 3.5-5c1.9-2.8 6.4-6.6 10-8.5 3.6-1.9 8.5-4.4 11-5.5 2.5-1.1 6.8-2.7 9.5-3.5 2.7-.8 9-2.2 14-3l9-1.5-10.5-1c-5.8-.5-10.7-1-11-1m-197 4c-4.7-.5-13.4.1-19.5 1.5s-15.3 4.1-20.5 6c-5.2 1.9-12.6 5.3-16.5 7.5-3.9 2.2-8.4 6-10 8.5-2 3-2.5 5.3-1.5 7l1.5 2.5 1-3c.6-1.6 2.4-4.4 4-6 1.6-1.6 5.9-4.8 9.5-7 3.6-2.2 7.4-4.2 8.5-4.5 1.1-.3 1.8 0 1.5.5-.3.5-5.2 5-11 10s-10.9 10.1-11.5 11.5c-.6 1.4-.3 2.7.5 3 .8.3 4.6-1.1 8.5-3 3.9-1.9 8.1-4 9.5-4.5 1.4-.5 3.4-.8 4.5-.5 1.3.3 1.5 0 .5-1-.8-.8-2.6-1-4-.5-1.5.6-.9-.6 1.5-3 2.2-2.2 5.6-5.1 7.5-6.5 1.9-1.4 4.2-2.3 5-2 .8.3 2.2 2.1 3 4 .8 1.9 3.1 5.1 5 7 2.7 2.7 5.8 3.6 13 4 5.2.3 12 0 15-.5l5.5-1 2-5c1.1-2.8 2.4-7.7 3-11l1-6 5 1c2.8.5 8.1 2.8 12 5 3.9 2.2 8.6 4.7 10.5 5.5 2.8 1.2 3 1.6 1 2-1.4.3-3.6 1.6-5 3s-4.8 3-7.5 3.5-5.4 1.5-6 2c-.6.5 2.1 1 6 1s8.6-.5 10.5-1c1.9-.5 5.3-1.2 7.5-1.5 2.2-.3 4.2-1.2 4.5-2 .3-.8-1.3-3.3-3.5-5.5s-6.7-5.8-10-8-8.3-4.9-11-6c-2.7-1.1-8.8-2.9-13.5-4-4.7-1.1-12.3-2.5-17-3m217 4c-3.6 0-9.2.5-12.5 1-3.3.5-9.4 2.4-13.5 4s-10 4.8-13 7-6 5.1-6.5 6.5c-.5 1.4-.3 3.4.5 4.5s4 2.5 7 3 6.6 1.2 8 1.5c1.4.3 4.1 0 6-.5 1.9-.5 3.7-1.2 4-1.5.3-.3-.6-1-2-1.5s-3.9-.8-5.5-.5c-1.6.3-4.1-.9-5.5-2.5-1.4-1.6-2.7-3.5-3-4-.3-.5 1.1-1.7 3-2.5s5.1-2.4 7-3.5c1.9-1.1 4.6-2.5 6-3 1.4-.5 3.2-1.2 4-1.5.8-.3 2.2.6 3 2 .8 1.4 1.7 4.5 2 7 .3 2.5 1.2 5.4 2 6.5.8 1.1 3.1 2.5 5 3s6.6 1.5 10.5 2c3.9.5 9.7.8 13 .5 3.6-.3 7-1.7 8.5-3.5 1.4-1.6 3.4-4.4 4.5-6l2-3 4 2c2.2 1.1 6.9 4.5 10.5 7.5 3.6 3 9.9 7.5 14 10s8.2 5.2 9 6c.8.8 4 .8 7 0s7.5-1.7 10-2l4.5-.5-8-1.5c-5.9-1.1-10.1-3.2-16-8-4.4-3.6-11.1-8.3-15-10.5-3.9-2.2-9.5-5.4-12.5-7-3-1.6-8-4.1-11-5.5-3-1.4-9.8-3.2-15-4-5.2-.8-12.4-1.5-16-1.5m42.5 4.5l-6-1.5 8.5 4c4.7 2.2 11.9 6.3 16 9s8.4 6.1 9.5 7.5c1.1 1.4 3.4 3.2 5 4l3 1.5-3-5c-1.6-2.8-4.8-6.4-7-8-2.2-1.6-7.6-4.6-12-6.5-4.4-1.9-10.7-4.2-14-5m-267.5.5c2.5 0 6.5.2 9 .5s5.6.3 7 0c2-.4 2.2 0 1 2-1 1.6-3.8 2.5-8 2.5-3.6 0-8.5.2-11 .5s-5.2 0-6-.5c-.8-.5-1.7-.8-2-.5-.3.3-.7.3-1 0-.3-.3-.7-.3-1 0-.3.3-.7.3-1 0-.3-.3.4-1 1.5-1.5s3.1-1.5 4.5-2 4.5-1 7-1m231.5 1c3.9 0 8.1.7 9.5 1.5 1.4.8 1.8 1.7 1 2-.8.3-3.8 1-6.5 1.5s-6.6.8-8.5.5c-1.9-.3-3.7-1-4-1.5-.3-.5 0-1.7.5-2.5s4.1-1.5 8-1.5m164.5 18.5c-1.8-1.1-3.2-.6-5 1.5-1.4 1.6-2.3 4.8-2 7 .4 3 1.5 4.2 4.5 5 2.6.6 4.7.1 6-1.5 1.1-1.4 2.2-2.3 2.5-2 .3.3.5-2 .5-5 0-3.1-.4-4.4-1-3-.5 1.4-1.2 2.7-1.5 3-.3.3-.7-.4-1-1.5-.3-1.1-1.6-2.7-3-3.5m-567 0c-.8-.3-2.9 1.8-4.5 4.5s-2.8 5.9-2.5 7c.3 1.1 1.4 1.8 2.5 1.5 1.1-.3 2.7-1.6 3.5-3 .8-1.4 1.7-4.1 2-6 .3-1.9-.2-3.7-1-4m364 16c-1.9-.3-3.7.2-4 1-.3.8 1.5 2 4 2.5s6.8 2.1 9.5 3.5 7.9 3.6 11.5 5c3.6 1.4 6.3 2 6 1.5-.3-.5-5.7-3.7-12-7s-13.1-6.2-15-6.5"/></g></g></svg>