<svg viewBox="0 0 450 200" xmlns="http://www.w3.org/2000/svg" xml:space="preserve" fill-rule="evenodd" clip-rule="evenodd" stroke-miterlimit="10"><g transform="matrix(1.35826,0,0,1.35826,-87.8896,-35.5669)"><path d="M-0.224,-1.365L4.795,-1.365L-28.419,4.436L-28.486,3.858L-0.224,-1.365Z" fill="#dbd3c9" transform="matrix(0.91737,-0.106851,-0.107082,-0.915397,234.91,48.7852)"/><path d="M0,-4.989L3.741,0.415L3.741,-5.404L0,-4.989Z" fill="#c5b8ab" transform="matrix(0.923598,0,0,0.921612,236,54.5029)"/><path d="M0.304,-0.589L4.217,-0.589L-20.849,-9.559L-22.261,-9.468L0.304,-0.589Z" fill="#e8dfd3" transform="matrix(0.921696,-0.0591161,-0.0592435,-0.919714,204.519,106.535)"/><path d="M12.535,-9.357L14.299,-9.357L1.896,2.019L0.015,2.676L12.535,-9.357Z" fill="#e8dfd3" transform="matrix(-0.871925,0.303943,0.304598,0.87005,273.663,114.226)"/><path d="M-2.73,0.282L1.189,0.282L6.553,64.148L2.744,64.472L-2.73,0.282Z" fill="#d5ccc2" transform="matrix(0.920258,-0.0783065,-0.0784753,-0.918279,207.368,107.179)"/><path d="M0,-76.645L1.666,-76.645L1.666,-0.581L0,0L0,-76.645Z" fill="#807263" transform="matrix(0.923598,0,0,0.921612,258.345,110.431)"/><path d="M-22.775,42.894L37.908,42.894L48.382,22.775L-28.264,22.775L-22.775,42.894Z" fill="#e5ddd2" transform="matrix(0,-0.921612,-0.923598,0,279.379,84.3831)"/><path d="M-1.397,-11.739L35.775,-11.739L-4.767,14.356L-6.849,-8.23L-1.397,-11.739Z" fill="#bdac96" transform="matrix(0.499886,0.774956,0.776626,-0.498811,249.578,50.6488)"/><path d="M3.462,0.089L8.482,0.089L1.456,-60.103L-3.458,-59.194L3.462,0.089Z" fill="#ece6dc" transform="matrix(0.91737,-0.106851,-0.107082,-0.915397,231.683,50.5097)"/><path d="M0,17.039L-5.401,17.039L-5.401,0L0,0L0,1.245L-3.659,1.245L-3.659,7.564L0,7.564L0,8.727L-3.659,8.727L-3.659,15.791L0,15.791L0,17.039ZM17.623,0L17.623,1.827L14.467,10.805L17.623,10.805L17.623,12.05L14.052,12.05L12.386,17.039L10.557,17.039L16.46,0L17.623,0ZM6.067,12.301C6.067,15.458 4.074,17.039 0.085,17.039L0,17.039L0,15.791C2.829,15.709 4.241,14.543 4.241,12.22C4.241,9.972 2.744,8.809 0,8.727L0,7.564C2.414,7.479 3.577,6.398 3.577,4.32C3.577,2.239 2.326,1.245 0,1.245L0,0L0.415,0C1.83,0 3.077,0.328 3.908,0.909C4.989,1.657 5.404,2.739 5.404,4.156C5.404,5.401 4.989,6.316 4.241,7.064C3.577,7.646 2.911,7.979 2.244,7.979C3.077,7.979 3.908,8.309 4.571,8.894C5.57,9.724 6.067,10.887 6.067,12.301M17.623,12.05L17.623,10.805L20.698,10.805L17.705,1.745L17.623,1.745L17.623,1.827L17.623,0L18.871,0L24.521,17.039L22.694,17.039L21.031,12.05L17.623,12.05ZM35.164,0L35.164,1.327L31.421,1.327L31.421,7.979L35.164,7.979L35.164,9.39L31.421,9.39L31.421,17.039L29.676,17.039L29.676,0L35.164,0ZM35.164,9.39L35.164,7.979C36.328,7.979 37.24,7.646 37.906,7.146C38.654,6.564 38.987,5.65 38.987,4.571C38.987,2.493 37.739,1.412 35.164,1.327L35.164,0L35.662,0C39.069,0 40.732,1.412 40.732,4.486C40.732,5.486 40.484,6.398 39.984,7.146C39.321,7.979 38.403,8.476 37.325,8.642L37.325,8.727C38.572,8.727 39.403,9.224 39.902,9.972C40.399,10.638 40.648,11.802 40.648,13.467C40.648,15.294 40.899,16.542 41.396,17.039L39.403,17.039C38.987,16.542 38.821,15.294 38.821,13.467C38.821,11.802 38.572,10.805 37.988,10.223C37.573,9.642 36.576,9.39 35.164,9.39M52.87,0L52.87,1.327L49.129,1.327L49.129,7.979L52.87,7.979L52.87,9.39L49.129,9.39L49.129,17.039L47.299,17.039L47.299,0L52.87,0ZM83.876,17.039L73.734,17.039L73.734,0L83.627,0L83.627,1.327L75.561,1.327L75.561,7.479L83.043,7.479L83.043,8.809L75.561,8.809L75.561,15.709L83.876,15.709L83.876,17.039ZM66.834,17.039L65.089,17.039L65.089,0L66.834,0L66.834,17.039ZM52.87,9.39L52.87,7.979C54.033,7.979 54.863,7.646 55.529,7.146C56.359,6.564 56.693,5.65 56.693,4.571C56.693,2.493 55.445,1.412 52.87,1.327L52.87,0L53.285,0C56.693,0 58.44,1.412 58.44,4.486C58.44,5.486 58.189,6.398 57.607,7.146C57.026,7.979 56.111,8.476 55.03,8.642L55.03,8.727C56.278,8.727 57.108,9.224 57.607,9.972C58.107,10.638 58.353,11.802 58.353,13.467C58.353,15.294 58.604,16.542 59.104,17.039L57.026,17.039C56.693,16.542 56.526,15.294 56.526,13.467C56.526,11.802 56.278,10.805 55.696,10.223C55.196,9.642 54.197,9.39 52.87,9.39M95.178,0L95.178,1.327L91.437,1.327L91.437,7.979L95.178,7.979L95.178,9.39L91.437,9.39L91.437,17.039L89.695,17.039L89.695,0L95.178,0ZM95.178,9.39L95.178,7.979C96.341,7.979 97.177,7.646 97.837,7.146C98.586,6.564 98.919,5.65 98.919,4.571C98.919,2.493 97.674,1.412 95.178,1.327L95.178,0L95.598,0C99.006,0 100.748,1.412 100.748,4.486C100.748,5.486 100.497,6.398 99.918,7.146C99.334,7.979 98.422,8.476 97.259,8.642L97.259,8.727C98.586,8.727 99.421,9.224 99.918,9.972C100.333,10.638 100.666,11.802 100.666,13.467C100.666,15.294 100.918,16.542 101.414,17.039L99.334,17.039C98.919,16.542 98.755,15.294 98.755,13.467C98.755,11.802 98.586,10.805 98.007,10.223C97.51,9.642 96.592,9.39 95.178,9.39M119.365,0L119.365,1.245L115.794,1.245L115.794,7.564L119.365,7.564L119.365,8.727L115.794,8.727L115.794,15.791L119.365,15.791L119.365,17.039L113.964,17.039L113.964,0L119.365,0ZM119.365,17.039L119.365,15.791C122.2,15.709 123.614,14.543 123.614,12.22C123.614,9.972 122.2,8.809 119.365,8.727L119.365,7.564C121.785,7.479 122.948,6.398 122.948,4.32C122.948,2.239 121.785,1.245 119.365,1.245L119.365,0L119.786,0C121.2,0 122.446,0.328 123.363,0.909C124.269,1.657 124.859,2.739 124.859,4.156C124.859,5.401 124.444,6.316 123.614,7.064C122.948,7.646 122.282,7.979 121.697,7.979C122.533,7.979 123.281,8.309 123.942,8.894C125.023,9.724 125.438,10.887 125.438,12.301C125.438,15.458 123.445,17.039 119.453,17.039L119.365,17.039ZM137.246,0L137.246,1.327L133.505,1.327L133.505,7.979L137.246,7.979L137.246,9.39L133.505,9.39L133.505,17.039L131.757,17.039L131.757,0L137.246,0ZM159.522,17.039L149.38,17.039L149.38,0L159.188,0L159.188,1.327L151.122,1.327L151.122,7.479L158.686,7.479L158.686,8.809L151.122,8.809L151.122,15.709L159.522,15.709L159.522,17.039ZM137.246,9.39L137.246,7.979C138.409,7.979 139.32,7.646 139.905,7.146C140.653,6.564 140.986,5.65 140.986,4.571C140.986,2.493 139.736,1.412 137.246,1.327L137.246,0L137.66,0C141.068,0 142.81,1.412 142.81,4.486C142.81,5.486 142.565,6.398 141.98,7.146C141.314,7.979 140.484,8.476 139.402,8.642L139.402,8.727C140.653,8.727 141.483,9.224 141.98,9.972C142.477,10.638 142.728,11.802 142.728,13.467C142.728,15.294 142.98,16.542 143.477,17.039L141.483,17.039C141.068,16.542 140.899,15.294 140.899,13.467C140.899,11.802 140.653,10.805 140.069,10.223C139.572,9.642 138.654,9.39 137.246,9.39M170.657,0L170.657,1.827L167.501,10.805L170.657,10.805L170.657,12.05L167.085,12.05L165.42,17.039L163.59,17.039L169.494,0L170.657,0ZM194.599,17.039L192.688,17.039L186.789,8.394L184.457,11.135L184.457,17.039L182.633,17.039L182.633,0L184.457,0L184.457,8.894L192.108,0L194.102,0L187.953,7.146L194.599,17.039ZM170.657,12.05L170.657,10.805L173.737,10.805L170.739,1.745L170.657,1.745L170.657,1.827L170.657,0L171.908,0L177.555,17.039L175.725,17.039L174.07,12.05L170.657,12.05Z" fill="#fff" transform="matrix(0.923598,0,0,0.921612,142.988,119.75)"/><path d="M0,17.039L-5.401,17.039L-5.401,0L0,0L0,1.245L-3.659,1.245L-3.659,7.564L0,7.564L0,8.727L-3.659,8.727L-3.659,15.791L0,15.791L0,17.039ZM17.623,0L17.623,1.827L14.467,10.805L17.623,10.805L17.623,12.05L14.052,12.05L12.386,17.039L10.557,17.039L16.46,0L17.623,0ZM6.067,12.301C6.067,15.458 4.074,17.039 0.085,17.039L0,17.039L0,15.791C2.829,15.709 4.241,14.543 4.241,12.22C4.241,9.972 2.744,8.809 0,8.727L0,7.564C2.414,7.479 3.577,6.398 3.577,4.32C3.577,2.239 2.326,1.245 0,1.245L0,0L0.415,0C1.83,0 3.077,0.328 3.908,0.909C4.989,1.657 5.404,2.739 5.404,4.156C5.404,5.401 4.989,6.316 4.241,7.064C3.577,7.646 2.911,7.979 2.244,7.979C3.077,7.979 3.908,8.309 4.571,8.894C5.57,9.724 6.067,10.887 6.067,12.301ZM17.623,12.05L17.623,10.805L20.698,10.805L17.705,1.745L17.623,1.745L17.623,1.827L17.623,0L18.871,0L24.521,17.039L22.694,17.039L21.031,12.05L17.623,12.05ZM35.164,0L35.164,1.327L31.421,1.327L31.421,7.979L35.164,7.979L35.164,9.39L31.421,9.39L31.421,17.039L29.676,17.039L29.676,0L35.164,0ZM35.164,9.39L35.164,7.979C36.328,7.979 37.24,7.646 37.906,7.146C38.654,6.564 38.987,5.65 38.987,4.571C38.987,2.493 37.739,1.412 35.164,1.327L35.164,0L35.662,0C39.069,0 40.732,1.412 40.732,4.486C40.732,5.486 40.484,6.398 39.984,7.146C39.321,7.979 38.403,8.476 37.325,8.642L37.325,8.727C38.572,8.727 39.403,9.224 39.902,9.972C40.399,10.638 40.648,11.802 40.648,13.467C40.648,15.294 40.899,16.542 41.396,17.039L39.403,17.039C38.987,16.542 38.821,15.294 38.821,13.467C38.821,11.802 38.572,10.805 37.988,10.223C37.573,9.642 36.576,9.39 35.164,9.39ZM52.87,0L52.87,1.327L49.129,1.327L49.129,7.979L52.87,7.979L52.87,9.39L49.129,9.39L49.129,17.039L47.299,17.039L47.299,0L52.87,0ZM83.876,17.039L73.734,17.039L73.734,0L83.627,0L83.627,1.327L75.561,1.327L75.561,7.479L83.043,7.479L83.043,8.809L75.561,8.809L75.561,15.709L83.876,15.709L83.876,17.039ZM66.834,17.039L65.089,17.039L65.089,0L66.834,0L66.834,17.039ZM52.87,9.39L52.87,7.979C54.033,7.979 54.863,7.646 55.529,7.146C56.359,6.564 56.693,5.65 56.693,4.571C56.693,2.493 55.445,1.412 52.87,1.327L52.87,0L53.285,0C56.693,0 58.44,1.412 58.44,4.486C58.44,5.486 58.189,6.398 57.607,7.146C57.026,7.979 56.111,8.476 55.03,8.642L55.03,8.727C56.278,8.727 57.108,9.224 57.607,9.972C58.107,10.638 58.353,11.802 58.353,13.467C58.353,15.294 58.604,16.542 59.104,17.039L57.026,17.039C56.693,16.542 56.526,15.294 56.526,13.467C56.526,11.802 56.278,10.805 55.696,10.223C55.196,9.642 54.197,9.39 52.87,9.39ZM95.178,0L95.178,1.327L91.437,1.327L91.437,7.979L95.178,7.979L95.178,9.39L91.437,9.39L91.437,17.039L89.695,17.039L89.695,0L95.178,0ZM95.178,9.39L95.178,7.979C96.341,7.979 97.177,7.646 97.837,7.146C98.586,6.564 98.919,5.65 98.919,4.571C98.919,2.493 97.674,1.412 95.178,1.327L95.178,0L95.598,0C99.006,0 100.748,1.412 100.748,4.486C100.748,5.486 100.497,6.398 99.918,7.146C99.334,7.979 98.422,8.476 97.259,8.642L97.259,8.727C98.586,8.727 99.421,9.224 99.918,9.972C100.333,10.638 100.666,11.802 100.666,13.467C100.666,15.294 100.918,16.542 101.414,17.039L99.334,17.039C98.919,16.542 98.755,15.294 98.755,13.467C98.755,11.802 98.586,10.805 98.007,10.223C97.51,9.642 96.592,9.39 95.178,9.39ZM119.365,0L119.365,1.245L115.794,1.245L115.794,7.564L119.365,7.564L119.365,8.727L115.794,8.727L115.794,15.791L119.365,15.791L119.365,17.039L113.964,17.039L113.964,0L119.365,0ZM119.365,17.039L119.365,15.791C122.2,15.709 123.614,14.543 123.614,12.22C123.614,9.972 122.2,8.809 119.365,8.727L119.365,7.564C121.785,7.479 122.948,6.398 122.948,4.32C122.948,2.239 121.785,1.245 119.365,1.245L119.365,0L119.786,0C121.2,0 122.446,0.328 123.363,0.909C124.269,1.657 124.859,2.739 124.859,4.156C124.859,5.401 124.444,6.316 123.614,7.064C122.948,7.646 122.282,7.979 121.697,7.979C122.533,7.979 123.281,8.309 123.942,8.894C125.023,9.724 125.438,10.887 125.438,12.301C125.438,15.458 123.445,17.039 119.453,17.039L119.365,17.039ZM137.246,0L137.246,1.327L133.505,1.327L133.505,7.979L137.246,7.979L137.246,9.39L133.505,9.39L133.505,17.039L131.757,17.039L131.757,0L137.246,0ZM159.522,17.039L149.38,17.039L149.38,0L159.188,0L159.188,1.327L151.122,1.327L151.122,7.479L158.686,7.479L158.686,8.809L151.122,8.809L151.122,15.709L159.522,15.709L159.522,17.039ZM137.246,9.39L137.246,7.979C138.409,7.979 139.32,7.646 139.905,7.146C140.653,6.564 140.986,5.65 140.986,4.571C140.986,2.493 139.736,1.412 137.246,1.327L137.246,0L137.66,0C141.068,0 142.81,1.412 142.81,4.486C142.81,5.486 142.565,6.398 141.98,7.146C141.314,7.979 140.484,8.476 139.402,8.642L139.402,8.727C140.653,8.727 141.483,9.224 141.98,9.972C142.477,10.638 142.728,11.802 142.728,13.467C142.728,15.294 142.98,16.542 143.477,17.039L141.483,17.039C141.068,16.542 140.899,15.294 140.899,13.467C140.899,11.802 140.653,10.805 140.069,10.223C139.572,9.642 138.654,9.39 137.246,9.39ZM170.657,0L170.657,1.827L167.501,10.805L170.657,10.805L170.657,12.05L167.085,12.05L165.42,17.039L163.59,17.039L169.494,0L170.657,0ZM194.599,17.039L192.688,17.039L186.789,8.394L184.457,11.135L184.457,17.039L182.633,17.039L182.633,0L184.457,0L184.457,8.894L192.108,0L194.102,0L187.953,7.146L194.599,17.039ZM170.657,12.05L170.657,10.805L173.737,10.805L170.739,1.745L170.657,1.745L170.657,1.827L170.657,0L171.908,0L177.555,17.039L175.725,17.039L174.07,12.05L170.657,12.05Z" fill="none" stroke="#fff" stroke-width=".2px" transform="matrix(0.923598,0,0,0.921612,142.988,119.75)"/><path d="M0,-7.169C-0.202,-7.169 -0.411,-7.274 -0.613,-7.274C-1.125,-7.274 -1.637,-6.964 -1.946,-6.556C-2.357,-6.044 -2.559,-5.428 -2.559,-4.607L-2.559,1.03L-3.586,1.03L-3.586,-7.991L-2.559,-7.991L-2.559,-6.556C-2.152,-7.684 -1.333,-8.297 -0.411,-8.297C-0.306,-8.297 -0.202,-8.297 -0.101,-8.196L0,-8.196L0,-7.169ZM4.718,-8.297L4.718,-7.479C3.384,-7.375 2.768,-6.351 2.768,-4.3L4.718,-4.3L4.718,-3.482L2.768,-3.482C2.768,-2.149 2.869,-1.121 3.28,-0.509C3.488,0.108 4.001,0.414 4.718,0.414L4.718,1.236C2.667,1.236 1.644,-0.404 1.644,-3.583C1.644,-6.657 2.667,-8.196 4.718,-8.297M-6.048,-2.044C-6.048,-1.02 -6.357,-0.199 -6.97,0.414C-7.482,0.926 -8.095,1.236 -8.816,1.236C-10.867,1.236 -11.887,-0.404 -11.887,-3.482C-11.887,-6.657 -10.867,-8.297 -8.816,-8.297C-8.095,-8.297 -7.381,-7.991 -6.97,-7.58C-6.357,-7.068 -6.048,-6.351 -6.048,-5.324L-7.071,-5.324C-7.071,-6.044 -7.28,-6.556 -7.583,-6.964C-7.893,-7.274 -8.304,-7.479 -8.816,-7.479C-10.149,-7.479 -10.867,-6.145 -10.867,-3.482C-10.867,-0.919 -10.149,0.414 -8.816,0.414C-8.304,0.414 -7.789,0.209 -7.482,-0.303C-7.172,-0.714 -7.071,-1.327 -7.071,-2.044L-6.048,-2.044ZM4.718,-3.482L4.718,-4.3L6.664,-4.3C6.664,-6.351 6.048,-7.479 4.819,-7.479L4.718,-7.479L4.718,-8.297L4.819,-8.297C5.846,-8.297 6.664,-7.886 7.072,-7.068C7.482,-6.247 7.691,-5.122 7.691,-3.482L4.718,-3.482ZM4.718,1.236L4.718,0.414C5.331,0.414 5.742,0.209 6.048,-0.199C6.358,-0.61 6.56,-1.226 6.56,-1.943L7.587,-1.943C7.587,-1.02 7.381,-0.303 6.769,0.313C6.253,0.926 5.536,1.236 4.718,1.236M12.715,-4.095L12.715,-3.377L12.305,-3.276C11.792,-3.071 11.483,-2.866 11.277,-2.66C10.971,-2.354 10.867,-1.943 10.867,-1.431C10.867,-0.199 11.382,0.414 12.305,0.414L12.715,0.414L12.715,1.131C12.507,1.236 12.305,1.236 12.096,1.236C11.382,1.236 10.766,1.03 10.355,0.519C10.048,0.108 9.843,-0.61 9.843,-1.431C9.843,-2.249 10.048,-2.866 10.456,-3.172C10.766,-3.482 11.382,-3.788 12.096,-3.994C12.305,-3.994 12.507,-4.095 12.715,-4.095M12.715,-8.297L12.715,-7.479C11.584,-7.375 11.072,-6.657 11.072,-5.428L10.048,-5.428C10.048,-7.274 10.971,-8.196 12.715,-8.297M33.011,1.03L31.983,1.03L31.983,-5.428C31.983,-6.762 31.472,-7.375 30.448,-7.375C29.832,-7.375 29.424,-7.169 29.01,-6.762C28.602,-6.351 28.397,-5.839 28.397,-5.122L28.397,1.03L27.37,1.03L27.37,-7.991L28.293,-7.991L28.293,-6.762C28.808,-7.785 29.525,-8.297 30.65,-8.297C32.192,-8.297 33.011,-7.375 33.011,-5.634L33.011,1.03ZM24.4,1.03L23.373,1.03L23.373,-7.991L24.4,-7.991L24.4,1.03ZM24.4,-9.526L23.373,-9.526L23.373,-11.169L24.4,-11.169L24.4,-9.526ZM21.423,1.03C21.016,1.03 20.71,1.131 20.605,1.131C19.989,1.131 19.477,1.03 19.275,0.825C18.965,0.519 18.763,0.108 18.763,-0.509L18.763,-7.169L17.531,-7.169L17.531,-7.991L18.763,-7.991L18.763,-10.759L19.787,-10.759L19.787,-7.991L21.322,-7.991L21.322,-7.169L19.787,-7.169L19.787,-0.815C19.787,-0.404 19.888,-0.098 20.093,0.003C20.197,0.108 20.5,0.209 20.911,0.209C21.12,0.209 21.221,0.209 21.423,0.108L21.423,1.03ZM12.715,1.131L12.715,0.414C13.123,0.313 13.429,0.108 13.739,-0.098C14.251,-0.61 14.456,-1.121 14.456,-1.842L14.456,-4.095C14.251,-3.889 13.941,-3.684 13.534,-3.583C13.227,-3.482 12.917,-3.377 12.715,-3.377L12.715,-4.095C13.018,-4.199 13.429,-4.401 13.941,-4.506C14.251,-4.607 14.456,-5.017 14.456,-5.634C14.456,-6.863 13.941,-7.479 12.917,-7.479L12.715,-7.479L12.715,-8.297L12.816,-8.297C13.739,-8.297 14.352,-8.092 14.864,-7.684C15.274,-7.274 15.48,-6.657 15.48,-5.839L15.48,-0.303C15.48,0.108 15.584,0.313 15.891,0.313L16.298,0.313L16.298,1.03L15.48,1.03C14.763,1.03 14.456,0.721 14.456,0.003L14.456,-0.199C14.251,0.209 13.941,0.519 13.429,0.825C13.227,1.03 12.917,1.131 12.715,1.131M38.543,3.283L38.543,4.105C37.725,4.105 37.108,4.004 36.698,3.593C36.085,3.182 35.879,2.566 35.779,1.849L36.802,1.849C36.906,2.876 37.519,3.283 38.543,3.283M38.543,-8.297L38.543,-7.375L38.442,-7.375C37.213,-7.375 36.597,-6.145 36.597,-3.684C36.597,-1.121 37.213,0.108 38.442,0.108L38.543,0.108L38.543,0.926C38.442,0.926 38.341,1.03 38.24,1.03C36.395,1.03 35.472,-0.61 35.472,-3.684C35.472,-5.122 35.779,-6.247 36.189,-6.964C36.698,-7.886 37.418,-8.297 38.341,-8.297L38.543,-8.297ZM38.543,4.105L38.543,3.283C39.162,3.283 39.674,3.182 39.981,2.876C40.287,2.465 40.493,1.849 40.493,0.926L40.493,-0.509C40.186,0.414 39.573,0.926 38.543,0.926L38.543,0.108C39.263,0.108 39.674,-0.199 40.082,-0.815C40.388,-1.431 40.493,-2.455 40.493,-3.684C40.493,-6.145 39.88,-7.375 38.543,-7.375L38.543,-8.297C39.466,-8.196 40.186,-7.684 40.493,-6.657L40.493,-7.991L41.52,-7.991L41.52,0.313C41.52,1.748 41.21,2.771 40.698,3.388C40.186,3.9 39.466,4.105 38.543,4.105M49.924,-4.095L49.924,-3.377L49.514,-3.276C49.002,-3.071 48.692,-2.866 48.49,-2.66C48.284,-2.354 48.08,-1.943 48.08,-1.431C48.08,-0.199 48.591,0.414 49.615,0.414L49.924,0.414L49.924,1.131C49.719,1.236 49.514,1.236 49.413,1.236C48.591,1.236 48.08,1.03 47.669,0.519C47.258,0.108 47.056,-0.61 47.056,-1.431C47.056,-2.249 47.258,-2.866 47.669,-3.172C48.08,-3.482 48.591,-3.788 49.413,-3.994C49.514,-3.994 49.719,-4.095 49.924,-4.095M49.924,-8.297L49.924,-7.479C48.901,-7.375 48.284,-6.657 48.284,-5.428L47.362,-5.428C47.362,-7.274 48.18,-8.196 49.924,-8.297M89.39,1.03L88.367,1.03L88.367,-11.17L89.39,-11.17L89.39,1.03ZM86.413,1.03C86.009,1.03 85.699,1.131 85.598,1.131C84.878,1.131 84.467,1.03 84.265,0.825C83.955,0.519 83.753,0.108 83.753,-0.509L83.753,-7.169L82.521,-7.169L82.521,-7.991L83.753,-7.991L83.753,-10.759L84.777,-10.759L84.777,-7.991L86.313,-7.991L86.313,-7.169L84.777,-7.169L84.777,-0.815C84.777,-0.404 84.878,-0.098 85.087,0.003C85.188,0.108 85.491,0.209 85.901,0.209C86.009,0.209 86.212,0.209 86.413,0.108L86.413,1.03ZM80.366,1.03L79.342,1.03L79.342,-7.991L80.366,-7.991L80.366,1.03ZM80.366,-9.526L79.342,-9.526L79.342,-11.169L80.366,-11.169L80.366,-9.526ZM76.372,1.03L75.348,1.03L75.348,-5.428C75.348,-6.762 74.836,-7.375 73.914,-7.375C73.402,-7.375 72.991,-7.169 72.681,-6.863C72.271,-6.452 72.068,-5.839 72.068,-5.122L72.068,1.03L71.146,1.03L71.146,-5.324C71.146,-6.657 70.634,-7.375 69.711,-7.375C69.2,-7.375 68.789,-7.169 68.378,-6.762C68.068,-6.351 67.859,-5.735 67.859,-4.916L67.859,1.03L66.839,1.03L66.839,-7.991L67.859,-7.991L67.859,-6.762C67.967,-7.169 68.27,-7.58 68.681,-7.886C69.092,-8.092 69.503,-8.297 70.115,-8.297C71.146,-8.297 71.658,-7.785 71.86,-6.762C72.068,-7.169 72.378,-7.479 72.782,-7.785C73.193,-8.092 73.604,-8.297 74.015,-8.297C75.55,-8.297 76.372,-7.375 76.372,-5.735L76.372,1.03ZM63.865,1.03L62.841,1.03L62.841,-7.991L63.865,-7.991L63.865,1.03ZM63.865,-9.526L62.841,-9.526L62.841,-11.169L63.865,-11.169L63.865,-9.526ZM59.764,1.03L58.74,1.03L58.74,-11.17L59.764,-11.17L59.764,1.03ZM49.924,1.131L49.924,0.414C50.332,0.313 50.642,0.108 51.053,-0.098C51.46,-0.61 51.669,-1.121 51.669,-1.842L51.669,-4.095C51.46,-3.889 51.154,-3.684 50.746,-3.583C50.437,-3.482 50.231,-3.377 49.924,-3.377L49.924,-4.095C50.231,-4.199 50.746,-4.401 51.154,-4.506C51.564,-4.607 51.669,-5.017 51.669,-5.634C51.669,-6.863 51.154,-7.479 50.13,-7.479L49.924,-7.479L49.924,-8.297L50.026,-8.297C50.948,-8.297 51.669,-8.092 52.077,-7.684C52.487,-7.274 52.693,-6.657 52.693,-5.839L52.693,-0.303C52.693,0.108 52.895,0.313 53.204,0.313L53.514,0.313L53.514,1.03L52.794,1.03C52.077,1.03 51.669,0.721 51.669,0.003L51.669,-0.199C51.46,0.209 51.154,0.519 50.746,0.825C50.437,1.03 50.13,1.131 49.924,1.131M95.027,-8.297L95.027,-7.479C93.795,-7.375 93.081,-6.351 93.081,-4.3L95.027,-4.3L95.027,-3.482L93.081,-3.482C93.081,-2.149 93.283,-1.121 93.593,-0.509C93.896,0.108 94.414,0.414 95.027,0.414L95.027,1.236C93.081,1.236 92.057,-0.404 92.057,-3.583C92.057,-6.657 93.081,-8.196 95.027,-8.297M149.154,-7.169C148.945,-7.169 148.743,-7.274 148.541,-7.274C148.029,-7.274 147.511,-6.964 147.208,-6.556C146.797,-6.044 146.588,-5.428 146.588,-4.607L146.588,1.03L145.565,1.03L145.565,-7.991L146.588,-7.991L146.588,-6.556C146.999,-7.684 147.821,-8.297 148.743,-8.297C148.844,-8.297 148.945,-8.297 149.053,-8.196L149.154,-8.196L149.154,-7.169ZM142.695,1.03L141.672,1.03L141.672,-0.303C141.463,0.108 141.261,0.519 140.85,0.721C140.439,1.03 139.928,1.236 139.416,1.236C137.88,1.236 137.059,0.313 137.059,-1.431L137.059,-7.991L138.082,-7.991L138.082,-1.637C138.082,-0.303 138.594,0.313 139.617,0.313C140.136,0.313 140.648,0.108 140.951,-0.199C141.463,-0.61 141.672,-1.226 141.672,-1.842L141.672,-7.991L142.695,-7.991L142.695,1.03ZM135.112,1.03C134.702,1.03 134.492,1.131 134.391,1.131C133.678,1.131 133.267,1.03 132.957,0.825C132.654,0.519 132.546,0.108 132.546,-0.509L132.546,-7.169L131.32,-7.169L131.32,-7.991L132.546,-7.991L132.546,-10.759L133.577,-10.759L133.577,-7.991L135.112,-7.991L135.112,-7.169L133.577,-7.169L133.577,-0.815C133.577,-0.404 133.678,-0.098 133.779,0.003C133.981,0.108 134.291,0.209 134.702,0.209C134.802,0.209 135.011,0.209 135.112,0.108L135.112,1.03ZM129.266,1.03L128.243,1.03L128.243,-0.303C128.041,0.108 127.832,0.519 127.421,0.721C127.01,1.03 126.499,1.236 125.987,1.236C124.451,1.236 123.629,0.313 123.629,-1.431L123.629,-7.991L124.653,-7.991L124.653,-1.637C124.653,-0.303 125.165,0.313 126.195,0.313C126.707,0.313 127.219,0.108 127.529,-0.199C128.041,-0.61 128.243,-1.226 128.243,-1.842L128.243,-7.991L129.266,-7.991L129.266,1.03ZM121.683,-10.348L121.171,-10.348C120.451,-10.348 120.148,-10.041 120.148,-9.324L120.148,-7.991L121.683,-7.991L121.683,-7.169L120.148,-7.169L120.148,1.03L119.124,1.03L119.124,-7.169L117.891,-7.169L117.891,-7.991L119.124,-7.991L119.124,-9.324C119.124,-10.146 119.319,-10.654 119.636,-10.968C119.939,-11.169 120.451,-11.274 121.07,-11.274L121.683,-11.274L121.683,-10.348ZM113.177,-1.431C113.177,-0.61 112.968,0.003 112.457,0.519C111.945,1.03 111.332,1.236 110.51,1.236C108.564,1.236 107.54,0.209 107.641,-1.943L108.665,-1.943C108.564,-0.404 109.278,0.414 110.51,0.414C110.921,0.414 111.332,0.209 111.635,0.003C112.046,-0.303 112.154,-0.815 112.154,-1.327C112.154,-1.943 111.945,-2.354 111.534,-2.66C111.332,-2.866 110.82,-3.071 109.897,-3.377C109.177,-3.583 108.665,-3.889 108.355,-4.199C107.951,-4.607 107.742,-5.122 107.742,-5.839C107.742,-6.556 107.951,-7.068 108.463,-7.58C108.874,-7.991 109.581,-8.297 110.409,-8.297C112.154,-8.297 113.076,-7.274 112.968,-5.428L111.945,-5.428C112.046,-6.762 111.534,-7.479 110.409,-7.479C109.897,-7.479 109.487,-7.274 109.278,-6.964C108.975,-6.657 108.759,-6.351 108.759,-5.94C108.759,-5.428 108.975,-5.017 109.278,-4.711C109.487,-4.607 109.998,-4.401 110.712,-4.095C111.534,-3.788 112.154,-3.583 112.355,-3.377C112.968,-2.967 113.177,-2.354 113.177,-1.431M105.695,-1.431C105.695,-0.61 105.486,0.003 104.974,0.519C104.462,1.03 103.85,1.236 103.028,1.236C101.082,1.236 100.051,0.209 100.051,-1.943L101.082,-1.943C101.082,-0.404 101.688,0.414 103.028,0.414C103.439,0.414 103.85,0.209 104.153,0.003C104.563,-0.303 104.671,-0.815 104.671,-1.327C104.671,-1.943 104.462,-2.354 104.052,-2.66C103.85,-2.866 103.23,-3.071 102.408,-3.377C101.688,-3.583 101.176,-3.889 100.866,-4.199C100.462,-4.607 100.26,-5.122 100.26,-5.839C100.26,-6.556 100.462,-7.068 100.866,-7.58C101.385,-7.991 102.105,-8.297 102.927,-8.297C104.671,-8.297 105.486,-7.274 105.486,-5.428L104.462,-5.428C104.563,-6.762 104.052,-7.479 102.927,-7.479C102.408,-7.479 101.997,-7.274 101.688,-6.964C101.492,-6.657 101.277,-6.351 101.277,-5.94C101.277,-5.428 101.492,-5.017 101.796,-4.711C101.997,-4.607 102.516,-4.401 103.23,-4.095C104.052,-3.788 104.671,-3.583 104.873,-3.377C105.486,-2.967 105.695,-2.354 105.695,-1.431M95.027,-3.482L95.027,-4.3L96.974,-4.3C96.974,-6.351 96.36,-7.479 95.128,-7.479L95.027,-7.479L95.027,-8.297L95.128,-8.297C96.259,-8.297 96.974,-7.886 97.485,-7.068C97.896,-6.247 98.098,-5.122 97.997,-3.482L95.027,-3.482ZM95.027,1.236L95.027,0.414L95.128,0.414C95.64,0.414 96.152,0.209 96.468,-0.199C96.771,-0.61 96.974,-1.226 96.974,-1.943L97.997,-1.943C97.997,-1.02 97.694,-0.303 97.182,0.313C96.664,0.926 95.95,1.236 95.027,1.236M153.869,-8.297L153.869,-7.479C152.535,-7.375 151.922,-6.351 151.922,-4.3L153.869,-4.3L153.869,-3.482L151.922,-3.482C151.922,-2.149 152.023,-1.121 152.434,-0.509C152.636,0.108 153.154,0.414 153.869,0.414L153.869,1.236C151.821,1.236 150.791,-0.404 150.791,-3.583C150.791,-6.657 151.821,-8.196 153.869,-8.297M153.869,-3.482L153.869,-4.3L155.815,-4.3C155.815,-6.351 155.202,-7.479 153.969,-7.479L153.869,-7.479L153.869,-8.297L153.969,-8.297C154.993,-8.297 155.815,-7.886 156.226,-7.068C156.636,-6.247 156.839,-5.122 156.839,-3.482L153.869,-3.482ZM153.869,1.236L153.869,0.414C154.481,0.414 154.892,0.209 155.202,-0.199C155.512,-0.61 155.714,-1.226 155.714,-1.943L156.737,-1.943C156.737,-1.02 156.535,-0.303 155.916,0.313C155.404,0.926 154.69,1.236 153.869,1.236" fill="#fff" fill-rule="nonzero" transform="matrix(0.923598,0,0,0.921612,163.421,156.041)"/><path d="M0,-7.169C-0.202,-7.169 -0.411,-7.274 -0.613,-7.274C-1.125,-7.274 -1.637,-6.964 -1.946,-6.556C-2.357,-6.044 -2.559,-5.428 -2.559,-4.607L-2.559,1.03L-3.586,1.03L-3.586,-7.991L-2.559,-7.991L-2.559,-6.556C-2.152,-7.684 -1.333,-8.297 -0.411,-8.297C-0.306,-8.297 -0.202,-8.297 -0.101,-8.196L0,-8.196L0,-7.169ZM4.718,-8.297L4.718,-7.479C3.384,-7.375 2.768,-6.351 2.768,-4.3L4.718,-4.3L4.718,-3.482L2.768,-3.482C2.768,-2.149 2.869,-1.121 3.28,-0.509C3.488,0.108 4.001,0.414 4.718,0.414L4.718,1.236C2.667,1.236 1.644,-0.404 1.644,-3.583C1.644,-6.657 2.667,-8.196 4.718,-8.297ZM-6.048,-2.044C-6.048,-1.02 -6.357,-0.199 -6.97,0.414C-7.482,0.926 -8.095,1.236 -8.816,1.236C-10.867,1.236 -11.887,-0.404 -11.887,-3.482C-11.887,-6.657 -10.867,-8.297 -8.816,-8.297C-8.095,-8.297 -7.381,-7.991 -6.97,-7.58C-6.357,-7.068 -6.048,-6.351 -6.048,-5.324L-7.071,-5.324C-7.071,-6.044 -7.28,-6.556 -7.583,-6.964C-7.893,-7.274 -8.304,-7.479 -8.816,-7.479C-10.149,-7.479 -10.867,-6.145 -10.867,-3.482C-10.867,-0.919 -10.149,0.414 -8.816,0.414C-8.304,0.414 -7.789,0.209 -7.482,-0.303C-7.172,-0.714 -7.071,-1.327 -7.071,-2.044L-6.048,-2.044ZM4.718,-3.482L4.718,-4.3L6.664,-4.3C6.664,-6.351 6.048,-7.479 4.819,-7.479L4.718,-7.479L4.718,-8.297L4.819,-8.297C5.846,-8.297 6.664,-7.886 7.072,-7.068C7.482,-6.247 7.691,-5.122 7.691,-3.482L4.718,-3.482ZM4.718,1.236L4.718,0.414C5.331,0.414 5.742,0.209 6.048,-0.199C6.358,-0.61 6.56,-1.226 6.56,-1.943L7.587,-1.943C7.587,-1.02 7.381,-0.303 6.769,0.313C6.253,0.926 5.536,1.236 4.718,1.236ZM12.715,-4.095L12.715,-3.377L12.305,-3.276C11.792,-3.071 11.483,-2.866 11.277,-2.66C10.971,-2.354 10.867,-1.943 10.867,-1.431C10.867,-0.199 11.382,0.414 12.305,0.414L12.715,0.414L12.715,1.131C12.507,1.236 12.305,1.236 12.096,1.236C11.382,1.236 10.766,1.03 10.355,0.519C10.048,0.108 9.843,-0.61 9.843,-1.431C9.843,-2.249 10.048,-2.866 10.456,-3.172C10.766,-3.482 11.382,-3.788 12.096,-3.994C12.305,-3.994 12.507,-4.095 12.715,-4.095ZM12.715,-8.297L12.715,-7.479C11.584,-7.375 11.072,-6.657 11.072,-5.428L10.048,-5.428C10.048,-7.274 10.971,-8.196 12.715,-8.297ZM33.011,1.03L31.983,1.03L31.983,-5.428C31.983,-6.762 31.472,-7.375 30.448,-7.375C29.832,-7.375 29.424,-7.169 29.01,-6.762C28.602,-6.351 28.397,-5.839 28.397,-5.122L28.397,1.03L27.37,1.03L27.37,-7.991L28.293,-7.991L28.293,-6.762C28.808,-7.785 29.525,-8.297 30.65,-8.297C32.192,-8.297 33.011,-7.375 33.011,-5.634L33.011,1.03ZM24.4,1.03L23.373,1.03L23.373,-7.991L24.4,-7.991L24.4,1.03ZM24.4,-9.526L23.373,-9.526L23.373,-11.169L24.4,-11.169L24.4,-9.526ZM21.423,1.03C21.016,1.03 20.71,1.131 20.605,1.131C19.989,1.131 19.477,1.03 19.275,0.825C18.965,0.519 18.763,0.108 18.763,-0.509L18.763,-7.169L17.531,-7.169L17.531,-7.991L18.763,-7.991L18.763,-10.759L19.787,-10.759L19.787,-7.991L21.322,-7.991L21.322,-7.169L19.787,-7.169L19.787,-0.815C19.787,-0.404 19.888,-0.098 20.093,0.003C20.197,0.108 20.5,0.209 20.911,0.209C21.12,0.209 21.221,0.209 21.423,0.108L21.423,1.03ZM12.715,1.131L12.715,0.414C13.123,0.313 13.429,0.108 13.739,-0.098C14.251,-0.61 14.456,-1.121 14.456,-1.842L14.456,-4.095C14.251,-3.889 13.941,-3.684 13.534,-3.583C13.227,-3.482 12.917,-3.377 12.715,-3.377L12.715,-4.095C13.018,-4.199 13.429,-4.401 13.941,-4.506C14.251,-4.607 14.456,-5.017 14.456,-5.634C14.456,-6.863 13.941,-7.479 12.917,-7.479L12.715,-7.479L12.715,-8.297L12.816,-8.297C13.739,-8.297 14.352,-8.092 14.864,-7.684C15.274,-7.274 15.48,-6.657 15.48,-5.839L15.48,-0.303C15.48,0.108 15.584,0.313 15.891,0.313L16.298,0.313L16.298,1.03L15.48,1.03C14.763,1.03 14.456,0.721 14.456,0.003L14.456,-0.199C14.251,0.209 13.941,0.519 13.429,0.825C13.227,1.03 12.917,1.131 12.715,1.131ZM38.543,3.283L38.543,4.105C37.725,4.105 37.108,4.004 36.698,3.593C36.085,3.182 35.879,2.566 35.779,1.849L36.802,1.849C36.906,2.876 37.519,3.283 38.543,3.283ZM38.543,-8.297L38.543,-7.375L38.442,-7.375C37.213,-7.375 36.597,-6.145 36.597,-3.684C36.597,-1.121 37.213,0.108 38.442,0.108L38.543,0.108L38.543,0.926C38.442,0.926 38.341,1.03 38.24,1.03C36.395,1.03 35.472,-0.61 35.472,-3.684C35.472,-5.122 35.779,-6.247 36.189,-6.964C36.698,-7.886 37.418,-8.297 38.341,-8.297L38.543,-8.297ZM38.543,4.105L38.543,3.283C39.162,3.283 39.674,3.182 39.981,2.876C40.287,2.465 40.493,1.849 40.493,0.926L40.493,-0.509C40.186,0.414 39.573,0.926 38.543,0.926L38.543,0.108C39.263,0.108 39.674,-0.199 40.082,-0.815C40.388,-1.431 40.493,-2.455 40.493,-3.684C40.493,-6.145 39.88,-7.375 38.543,-7.375L38.543,-8.297C39.466,-8.196 40.186,-7.684 40.493,-6.657L40.493,-7.991L41.52,-7.991L41.52,0.313C41.52,1.748 41.21,2.771 40.698,3.388C40.186,3.9 39.466,4.105 38.543,4.105ZM49.924,-4.095L49.924,-3.377L49.514,-3.276C49.002,-3.071 48.692,-2.866 48.49,-2.66C48.284,-2.354 48.08,-1.943 48.08,-1.431C48.08,-0.199 48.591,0.414 49.615,0.414L49.924,0.414L49.924,1.131C49.719,1.236 49.514,1.236 49.413,1.236C48.591,1.236 48.08,1.03 47.669,0.519C47.258,0.108 47.056,-0.61 47.056,-1.431C47.056,-2.249 47.258,-2.866 47.669,-3.172C48.08,-3.482 48.591,-3.788 49.413,-3.994C49.514,-3.994 49.719,-4.095 49.924,-4.095ZM49.924,-8.297L49.924,-7.479C48.901,-7.375 48.284,-6.657 48.284,-5.428L47.362,-5.428C47.362,-7.274 48.18,-8.196 49.924,-8.297ZM89.39,1.03L88.367,1.03L88.367,-11.17L89.39,-11.17L89.39,1.03ZM86.413,1.03C86.009,1.03 85.699,1.131 85.598,1.131C84.878,1.131 84.467,1.03 84.265,0.825C83.955,0.519 83.753,0.108 83.753,-0.509L83.753,-7.169L82.521,-7.169L82.521,-7.991L83.753,-7.991L83.753,-10.759L84.777,-10.759L84.777,-7.991L86.313,-7.991L86.313,-7.169L84.777,-7.169L84.777,-0.815C84.777,-0.404 84.878,-0.098 85.087,0.003C85.188,0.108 85.491,0.209 85.901,0.209C86.009,0.209 86.212,0.209 86.413,0.108L86.413,1.03ZM80.366,1.03L79.342,1.03L79.342,-7.991L80.366,-7.991L80.366,1.03ZM80.366,-9.526L79.342,-9.526L79.342,-11.169L80.366,-11.169L80.366,-9.526ZM76.372,1.03L75.348,1.03L75.348,-5.428C75.348,-6.762 74.836,-7.375 73.914,-7.375C73.402,-7.375 72.991,-7.169 72.681,-6.863C72.271,-6.452 72.068,-5.839 72.068,-5.122L72.068,1.03L71.146,1.03L71.146,-5.324C71.146,-6.657 70.634,-7.375 69.711,-7.375C69.2,-7.375 68.789,-7.169 68.378,-6.762C68.068,-6.351 67.859,-5.735 67.859,-4.916L67.859,1.03L66.839,1.03L66.839,-7.991L67.859,-7.991L67.859,-6.762C67.967,-7.169 68.27,-7.58 68.681,-7.886C69.092,-8.092 69.503,-8.297 70.115,-8.297C71.146,-8.297 71.658,-7.785 71.86,-6.762C72.068,-7.169 72.378,-7.479 72.782,-7.785C73.193,-8.092 73.604,-8.297 74.015,-8.297C75.55,-8.297 76.372,-7.375 76.372,-5.735L76.372,1.03ZM63.865,1.03L62.841,1.03L62.841,-7.991L63.865,-7.991L63.865,1.03ZM63.865,-9.526L62.841,-9.526L62.841,-11.169L63.865,-11.169L63.865,-9.526ZM59.764,1.03L58.74,1.03L58.74,-11.17L59.764,-11.17L59.764,1.03ZM49.924,1.131L49.924,0.414C50.332,0.313 50.642,0.108 51.053,-0.098C51.46,-0.61 51.669,-1.121 51.669,-1.842L51.669,-4.095C51.46,-3.889 51.154,-3.684 50.746,-3.583C50.437,-3.482 50.231,-3.377 49.924,-3.377L49.924,-4.095C50.231,-4.199 50.746,-4.401 51.154,-4.506C51.564,-4.607 51.669,-5.017 51.669,-5.634C51.669,-6.863 51.154,-7.479 50.13,-7.479L49.924,-7.479L49.924,-8.297L50.026,-8.297C50.948,-8.297 51.669,-8.092 52.077,-7.684C52.487,-7.274 52.693,-6.657 52.693,-5.839L52.693,-0.303C52.693,0.108 52.895,0.313 53.204,0.313L53.514,0.313L53.514,1.03L52.794,1.03C52.077,1.03 51.669,0.721 51.669,0.003L51.669,-0.199C51.46,0.209 51.154,0.519 50.746,0.825C50.437,1.03 50.13,1.131 49.924,1.131ZM95.027,-8.297L95.027,-7.479C93.795,-7.375 93.081,-6.351 93.081,-4.3L95.027,-4.3L95.027,-3.482L93.081,-3.482C93.081,-2.149 93.283,-1.121 93.593,-0.509C93.896,0.108 94.414,0.414 95.027,0.414L95.027,1.236C93.081,1.236 92.057,-0.404 92.057,-3.583C92.057,-6.657 93.081,-8.196 95.027,-8.297ZM149.154,-7.169C148.945,-7.169 148.743,-7.274 148.541,-7.274C148.029,-7.274 147.511,-6.964 147.208,-6.556C146.797,-6.044 146.588,-5.428 146.588,-4.607L146.588,1.03L145.565,1.03L145.565,-7.991L146.588,-7.991L146.588,-6.556C146.999,-7.684 147.821,-8.297 148.743,-8.297C148.844,-8.297 148.945,-8.297 149.053,-8.196L149.154,-8.196L149.154,-7.169ZM142.695,1.03L141.672,1.03L141.672,-0.303C141.463,0.108 141.261,0.519 140.85,0.721C140.439,1.03 139.928,1.236 139.416,1.236C137.88,1.236 137.059,0.313 137.059,-1.431L137.059,-7.991L138.082,-7.991L138.082,-1.637C138.082,-0.303 138.594,0.313 139.617,0.313C140.136,0.313 140.648,0.108 140.951,-0.199C141.463,-0.61 141.672,-1.226 141.672,-1.842L141.672,-7.991L142.695,-7.991L142.695,1.03ZM135.112,1.03C134.702,1.03 134.492,1.131 134.391,1.131C133.678,1.131 133.267,1.03 132.957,0.825C132.654,0.519 132.546,0.108 132.546,-0.509L132.546,-7.169L131.32,-7.169L131.32,-7.991L132.546,-7.991L132.546,-10.759L133.577,-10.759L133.577,-7.991L135.112,-7.991L135.112,-7.169L133.577,-7.169L133.577,-0.815C133.577,-0.404 133.678,-0.098 133.779,0.003C133.981,0.108 134.291,0.209 134.702,0.209C134.802,0.209 135.011,0.209 135.112,0.108L135.112,1.03ZM129.266,1.03L128.243,1.03L128.243,-0.303C128.041,0.108 127.832,0.519 127.421,0.721C127.01,1.03 126.499,1.236 125.987,1.236C124.451,1.236 123.629,0.313 123.629,-1.431L123.629,-7.991L124.653,-7.991L124.653,-1.637C124.653,-0.303 125.165,0.313 126.195,0.313C126.707,0.313 127.219,0.108 127.529,-0.199C128.041,-0.61 128.243,-1.226 128.243,-1.842L128.243,-7.991L129.266,-7.991L129.266,1.03ZM121.683,-10.348L121.171,-10.348C120.451,-10.348 120.148,-10.041 120.148,-9.324L120.148,-7.991L121.683,-7.991L121.683,-7.169L120.148,-7.169L120.148,1.03L119.124,1.03L119.124,-7.169L117.891,-7.169L117.891,-7.991L119.124,-7.991L119.124,-9.324C119.124,-10.146 119.319,-10.654 119.636,-10.968C119.939,-11.169 120.451,-11.274 121.07,-11.274L121.683,-11.274L121.683,-10.348ZM113.177,-1.431C113.177,-0.61 112.968,0.003 112.457,0.519C111.945,1.03 111.332,1.236 110.51,1.236C108.564,1.236 107.54,0.209 107.641,-1.943L108.665,-1.943C108.564,-0.404 109.278,0.414 110.51,0.414C110.921,0.414 111.332,0.209 111.635,0.003C112.046,-0.303 112.154,-0.815 112.154,-1.327C112.154,-1.943 111.945,-2.354 111.534,-2.66C111.332,-2.866 110.82,-3.071 109.897,-3.377C109.177,-3.583 108.665,-3.889 108.355,-4.199C107.951,-4.607 107.742,-5.122 107.742,-5.839C107.742,-6.556 107.951,-7.068 108.463,-7.58C108.874,-7.991 109.581,-8.297 110.409,-8.297C112.154,-8.297 113.076,-7.274 112.968,-5.428L111.945,-5.428C112.046,-6.762 111.534,-7.479 110.409,-7.479C109.897,-7.479 109.487,-7.274 109.278,-6.964C108.975,-6.657 108.759,-6.351 108.759,-5.94C108.759,-5.428 108.975,-5.017 109.278,-4.711C109.487,-4.607 109.998,-4.401 110.712,-4.095C111.534,-3.788 112.154,-3.583 112.355,-3.377C112.968,-2.967 113.177,-2.354 113.177,-1.431ZM105.695,-1.431C105.695,-0.61 105.486,0.003 104.974,0.519C104.462,1.03 103.85,1.236 103.028,1.236C101.082,1.236 100.051,0.209 100.051,-1.943L101.082,-1.943C101.082,-0.404 101.688,0.414 103.028,0.414C103.439,0.414 103.85,0.209 104.153,0.003C104.563,-0.303 104.671,-0.815 104.671,-1.327C104.671,-1.943 104.462,-2.354 104.052,-2.66C103.85,-2.866 103.23,-3.071 102.408,-3.377C101.688,-3.583 101.176,-3.889 100.866,-4.199C100.462,-4.607 100.26,-5.122 100.26,-5.839C100.26,-6.556 100.462,-7.068 100.866,-7.58C101.385,-7.991 102.105,-8.297 102.927,-8.297C104.671,-8.297 105.486,-7.274 105.486,-5.428L104.462,-5.428C104.563,-6.762 104.052,-7.479 102.927,-7.479C102.408,-7.479 101.997,-7.274 101.688,-6.964C101.492,-6.657 101.277,-6.351 101.277,-5.94C101.277,-5.428 101.492,-5.017 101.796,-4.711C101.997,-4.607 102.516,-4.401 103.23,-4.095C104.052,-3.788 104.671,-3.583 104.873,-3.377C105.486,-2.967 105.695,-2.354 105.695,-1.431ZM95.027,-3.482L95.027,-4.3L96.974,-4.3C96.974,-6.351 96.36,-7.479 95.128,-7.479L95.027,-7.479L95.027,-8.297L95.128,-8.297C96.259,-8.297 96.974,-7.886 97.485,-7.068C97.896,-6.247 98.098,-5.122 97.997,-3.482L95.027,-3.482ZM95.027,1.236L95.027,0.414L95.128,0.414C95.64,0.414 96.152,0.209 96.468,-0.199C96.771,-0.61 96.974,-1.226 96.974,-1.943L97.997,-1.943C97.997,-1.02 97.694,-0.303 97.182,0.313C96.664,0.926 95.95,1.236 95.027,1.236ZM153.869,-8.297L153.869,-7.479C152.535,-7.375 151.922,-6.351 151.922,-4.3L153.869,-4.3L153.869,-3.482L151.922,-3.482C151.922,-2.149 152.023,-1.121 152.434,-0.509C152.636,0.108 153.154,0.414 153.869,0.414L153.869,1.236C151.821,1.236 150.791,-0.404 150.791,-3.583C150.791,-6.657 151.821,-8.196 153.869,-8.297ZM153.869,-3.482L153.869,-4.3L155.815,-4.3C155.815,-6.351 155.202,-7.479 153.969,-7.479L153.869,-7.479L153.869,-8.297L153.969,-8.297C154.993,-8.297 155.815,-7.886 156.226,-7.068C156.636,-6.247 156.839,-5.122 156.839,-3.482L153.869,-3.482ZM153.869,1.236L153.869,0.414C154.481,0.414 154.892,0.209 155.202,-0.199C155.512,-0.61 155.714,-1.226 155.714,-1.943L156.737,-1.943C156.737,-1.02 156.535,-0.303 155.916,0.313C155.404,0.926 154.69,1.236 153.869,1.236Z" fill="none" stroke="#fff" stroke-width=".2px" transform="matrix(0.923598,0,0,0.921612,163.421,156.041)"/></g></svg>