<svg viewBox="0 0 450 200" xmlns="http://www.w3.org/2000/svg" xml:space="preserve" fill-rule="evenodd" clip-rule="evenodd" stroke-linejoin="round" stroke-miterlimit="2"><g transform="matrix(0.943815,0,0,0.943815,17.3607,4.80607)"><path d="M773.829,460.97C763.69,465.709 753.458,467.888 742.081,467.822C671.627,467.414 601.17,467.617 530.715,467.617C459.704,467.617 388.685,466.989 317.686,467.899C285.346,468.314 262.664,447.893 251.826,420.222C242.45,396.28 254.3,361.184 275.658,344.347C287.187,335.258 299.867,330.847 314.909,330.878C458.595,331.174 602.28,331.03 745.966,331.073C779.393,331.083 802.304,352.016 810.486,389.712C816.149,415.804 798.755,449.318 773.829,460.97ZM255.445,620.129C269.457,592.023 289.049,580.305 320.285,580.494C461.805,581.351 603.333,580.868 744.859,580.869C774.038,580.87 795.952,595.208 805.088,620.269C816.089,650.448 809.085,681.825 787.81,700.117C776.441,709.893 763.966,714.397 748.727,714.303C675.47,713.853 602.209,714.101 528.948,714.101C456.243,714.101 383.465,712.14 310.861,714.845C268.184,716.435 235.723,659.686 255.445,620.129ZM1047.77,425.086C1036.46,369.06 1017.26,316.365 989.437,267.343C951.221,200.009 899.887,143.769 836.372,98.431C785.515,62.127 730.331,34.932 670.609,18.748C625.009,6.39 578.11,-3.222 535.603,1.527C461.836,-1.053 396.894,13.099 333.633,37.674C274.291,60.728 221.384,93.767 174.634,136.67C118.185,188.475 74.175,249.052 43.699,319.798C20.629,373.353 6.413,429.188 1.697,486.625C-4.399,560.875 6.063,633.786 30.892,704.524C52.7,766.653 84.85,822.592 127.692,872.372C132.846,878.361 135.444,883.366 134.644,891.306C130.556,931.881 123.113,971.918 115.835,1011.98C114.34,1020.2 110.965,1030.42 115.926,1035.78C121.022,1041.29 130.494,1034.83 137.514,1032.51C178.406,1018.95 219.071,1004.72 259.863,990.865C266.378,988.651 271.787,990.367 278.254,993.994C307.745,1010.54 339.062,1023.41 371.212,1033.66C410.075,1046.04 450.171,1052.02 490.928,1055.71C536.667,1059.84 581.723,1056.02 626.385,1048.54C685.072,1038.7 740.024,1017.29 791.794,987.754C851.587,953.637 902.891,909.679 945.01,855.317C978.984,811.47 1005.85,763.816 1024.95,711.272C1043.75,659.56 1056.25,607.096 1056.77,552.112C1057.17,509.593 1056.32,467.465 1047.77,425.086Z" fill="#fff" fill-rule="nonzero" transform="matrix(0.0979022,0,0,0.0979022,80,49.0855)"/><path d="M1825.77,881.878C1825.77,803.899 1825.73,728.451 1825.8,653.003C1825.82,628.457 1830.26,624.178 1854.92,624.161C1871.56,624.149 1888.21,624.032 1904.85,624.194C1921.79,624.359 1929.53,631.509 1929.54,647.793C1929.65,773.724 1929.56,899.655 1929.66,1025.59C1929.67,1040.66 1922.07,1048.53 1907.64,1048.8C1879.92,1049.32 1852.17,1049.21 1824.44,1048.82C1812.76,1048.65 1806.04,1042.38 1802.74,1030.53C1781.56,954.295 1759.83,878.209 1735.65,801.96C1735.4,807.439 1734.93,812.917 1734.93,818.395C1734.88,885.522 1734.92,952.648 1734.88,1019.77C1734.86,1044.07 1728.81,1049.97 1704.3,1049.99C1688.77,1050.01 1673.23,1050.06 1657.7,1049.98C1635.29,1049.87 1630.38,1045.04 1630.37,1022.45C1630.3,913.162 1630.34,803.874 1630.34,694.586C1630.34,679.607 1630.15,664.626 1630.39,649.651C1630.66,632.888 1638.06,625.074 1654.56,624.775C1681.18,624.293 1707.8,624.422 1734.42,624.126C1748.94,623.963 1756.3,632.013 1759.78,645.113C1778.95,717.41 1798.11,789.712 1817.49,861.953C1819.13,868.091 1822.37,873.805 1825.77,881.878Z" fill="#fff" fill-rule="nonzero" transform="matrix(0.0979022,0,0,0.0979022,80,49.0855)"/><path d="M1803,199.593C1803,174.146 1803.9,148.654 1802.67,123.266C1801.9,107.502 1799.39,90.562 1783.9,81.551C1761.65,68.612 1739.66,85.623 1736.36,116.442C1731.45,162.254 1732.37,208.239 1731.87,254.147C1731.57,282.808 1733.55,311.606 1739.38,339.827C1743.07,357.704 1755.81,368.397 1770.64,367.674C1784.69,366.99 1796.78,355.423 1799.6,338.575C1807.31,292.523 1805.57,246.003 1803,199.593ZM1919.57,226.559C1920.2,271.905 1918.32,316.937 1902.84,360.267C1901.55,363.899 1900.67,367.7 1899.14,371.227C1887.86,397.284 1887.82,397.274 1907.43,416.962C1912.09,421.637 1917.12,425.982 1921.4,430.975C1929.34,440.234 1929.88,449.556 1920.3,458.287C1908.97,468.599 1897.86,479.154 1886.27,489.161C1875.92,498.108 1863.68,496.802 1854.17,486.419C1852.67,484.785 1851.15,483.155 1849.84,481.373C1828.2,451.827 1803.76,434.906 1762.44,439.471C1722.64,443.869 1682.7,432.356 1655.53,397.342C1636.16,372.387 1627.72,342.455 1624.04,312.165C1620.85,285.915 1616.64,259.662 1616.1,232.935C1615.29,192.834 1619.44,153.179 1627.1,114.253C1638.14,58.105 1667.72,14.677 1728.48,6.338C1772.41,0.308 1817.47,-0.967 1858.14,24.725C1881.48,39.474 1894.2,61.267 1902.84,86.014C1918.73,131.55 1920.08,178.985 1919.57,226.559Z" fill="#fff" fill-rule="nonzero" transform="matrix(0.0979022,0,0,0.0979022,80,49.0855)"/><path d="M2364.17,756.189C2364.17,769.464 2364.12,782.741 2364.19,796.016C2364.22,800.359 2363.67,804.388 2370.36,805.423C2402.48,810.389 2426.92,793.107 2432.18,761.372C2433.96,750.588 2431.37,740.225 2428.44,730.367C2422.88,711.658 2397.19,700.913 2370.96,707.983C2355.76,712.079 2367.01,726.799 2364.47,736.358C2362.82,742.559 2364.16,749.551 2364.17,756.189ZM2557.42,1047.17C2519.87,1047.17 2482.32,1047.11 2444.77,1047.23C2438.18,1047.25 2437.09,1043.37 2435.51,1038.02C2427.88,1012.06 2429.93,985.455 2429.02,958.987C2428.34,939.235 2433.31,918.971 2425.04,899.787C2417.94,883.338 2385.38,871.72 2369.49,879.631C2363.22,882.753 2366.13,888.452 2366.1,892.86C2365.84,935.599 2365.96,978.338 2365.94,1021.08C2365.93,1044.01 2359.88,1049.95 2336.44,1049.99C2316.45,1050.02 2296.47,1050.28 2276.49,1049.91C2260.11,1049.6 2253.33,1043.08 2253.31,1026.65C2253.13,900.656 2253.15,774.657 2253.29,648.658C2253.31,633.361 2261.6,624.923 2276.91,624.799C2331.29,624.361 2385.95,620.886 2440,625.088C2504.03,630.066 2538.89,658.102 2542.49,731.776C2543.92,761.033 2539.04,788.643 2520.93,812.616C2510.96,825.809 2495.8,831.172 2477.85,838.294C2500,843.561 2516.7,852.004 2526.84,869.706C2537.06,887.542 2537.61,907.617 2538.9,927.188C2540.69,954.26 2538.05,981.446 2541.28,1008.63C2542.98,1022.94 2545.82,1035.36 2559.33,1043.46C2558.69,1044.7 2558.06,1045.94 2557.42,1047.17Z" fill="#fff" fill-rule="nonzero" transform="matrix(0.0979022,0,0,0.0979022,80,49.0855)"/><path d="M2129.43,181.618C2129.44,133.915 2129.39,86.212 2129.45,38.509C2129.48,16.502 2134.76,11.314 2156.74,11.286C2176.7,11.26 2196.67,11.218 2216.64,11.298C2236.36,11.378 2241.99,16.812 2242.1,37.133C2242.33,79.843 2242.47,122.557 2242.1,165.265C2241.62,219.574 2245.65,274.105 2238.96,328.125C2233.64,370.989 2218.72,411.776 2174.52,427.929C2137.23,441.553 2097.36,445.27 2056.93,436.801C2032.88,431.761 2010.05,427.004 1991.51,408.949C1980.17,397.9 1972.46,385.026 1967.08,370.915C1956.76,343.868 1953.68,315.255 1953.55,286.524C1953.21,204.431 1953.39,122.336 1953.45,40.242C1953.47,15.97 1958.28,11.298 1982.51,11.283C2001.92,11.271 2021.34,11.222 2040.75,11.297C2060.35,11.373 2066.12,17.09 2066.13,37.119C2066.21,133.635 2066.17,230.151 2066.16,326.668C2066.16,337.142 2066.16,347.698 2074.67,355.533C2083.95,364.094 2093.79,370.364 2107.47,364.713C2122.61,358.458 2129.37,347.159 2129.4,331.385C2129.49,281.463 2129.43,231.541 2129.43,181.618Z" fill="#fff" fill-rule="nonzero" transform="matrix(0.0979022,0,0,0.0979022,80,49.0855)"/><path d="M2420.6,99.029C2411.94,152.072 2401.12,199.601 2395.58,248.075C2393.07,270.118 2398.79,277.32 2420.83,277.196C2442.98,277.072 2449.5,266.102 2444.77,239.917C2436.59,194.668 2429.17,149.28 2420.6,99.029ZM2530.65,434.315C2518.45,434.311 2506.24,434.53 2494.05,434.251C2480.89,433.951 2474,426.566 2472.56,413.807C2471.32,402.874 2470.58,391.879 2469.07,380.986C2467.28,367.978 2461.02,359.796 2446.29,360.397C2433,360.94 2419.68,360.499 2406.37,360.511C2381.48,360.534 2374.43,366.68 2372.89,391.644C2372.37,399.999 2369.91,408.048 2369.64,416.16C2369.17,430.524 2360.26,433.977 2348.93,434.184C2325.09,434.619 2301.23,434.775 2277.4,434.151C2260.95,433.72 2254.37,423.902 2258.07,407.632C2274.7,334.568 2293.65,262.065 2310.14,188.951C2321.7,137.721 2335.15,86.888 2346.72,35.621C2351.42,14.79 2356.98,11.29 2379.3,11.283C2409.81,11.273 2440.32,11.852 2470.8,11.039C2485.97,10.635 2492.65,17.645 2495.87,31.307C2513.79,107.441 2531.18,183.712 2550.35,259.532C2562.83,308.86 2575.31,358.169 2586.26,407.85C2590.21,425.761 2583.76,433.671 2565.58,434.249C2553.95,434.62 2542.29,434.318 2530.65,434.315Z" fill="#fff" fill-rule="nonzero" transform="matrix(0.0979022,0,0,0.0979022,80,49.0855)"/><path d="M1333.36,224.424C1333.36,163.373 1333.33,102.321 1333.37,41.27C1333.39,18.72 1338.65,12.991 1361.61,12.902C1429.32,12.639 1497.03,12.964 1564.75,12.69C1580.26,12.627 1587,19.499 1586.6,34.772C1586.23,49.193 1586.75,63.635 1586.46,78.06C1586.15,93.879 1578.86,101.123 1563.26,101.193C1532.74,101.333 1502.21,101.183 1471.69,101.252C1448.91,101.303 1446.13,104.048 1446.13,127.188C1446.13,176.12 1441.77,171.611 1491.01,171.689C1510.43,171.72 1529.86,171.551 1549.28,171.734C1569.91,171.927 1576.38,178.348 1576.52,198.375C1576.6,211.14 1576.58,223.906 1576.52,236.671C1576.44,255.058 1570.63,260.928 1551.61,261.067C1524.97,261.261 1498.33,261.014 1471.69,261.148C1449.96,261.257 1446.33,264.844 1446.12,285.923C1446,297.577 1446.02,309.234 1446.12,320.888C1446.28,341.143 1449.34,344.301 1469.11,344.347C1500.74,344.42 1532.38,344.288 1564.02,344.393C1585.56,344.465 1589.82,348.901 1589.85,370.714C1589.88,386.255 1589.55,401.803 1589.95,417.333C1590.27,429.263 1584.61,434.794 1573.16,434.803C1499.9,434.862 1426.63,434.859 1353.37,434.826C1337.3,434.818 1333.21,425.052 1333.26,410.908C1333.49,348.748 1333.36,286.586 1333.36,224.424Z" fill="#fff" fill-rule="nonzero" transform="matrix(0.0979022,0,0,0.0979022,80,49.0855)"/><path d="M1333.37,840.623C1333.37,779.056 1333.33,717.49 1333.39,655.923C1333.41,633.349 1339.23,627.541 1361.97,627.52C1429.09,627.459 1496.2,627.472 1563.31,627.513C1581.13,627.524 1586.22,632.326 1586.47,649.534C1586.68,663.398 1586.7,677.269 1586.47,691.132C1586.18,709.071 1580.95,714.382 1562.51,714.56C1532.56,714.847 1502.61,714.582 1472.66,714.676C1452.18,714.741 1446.14,720.728 1446.11,741.136C1446.03,789.949 1441.72,787.797 1491.41,787.405C1511.37,787.248 1531.34,787.284 1551.31,787.408C1569.81,787.522 1576.36,793.961 1576.5,812.006C1576.61,824.762 1576.57,837.52 1576.51,850.277C1576.41,870.823 1572.12,875.434 1551.19,875.698C1524.57,876.034 1497.94,875.661 1471.32,875.824C1449.37,875.96 1446.27,879.137 1446.1,900.683C1446.02,911.22 1446.06,921.759 1446.09,932.298C1446.16,956.025 1450.59,960.569 1473.73,960.581C1505.34,960.596 1536.97,961.089 1568.57,960.363C1583.5,960.02 1590.02,966.052 1589.88,980.596C1589.73,997.234 1589.7,1013.88 1589.89,1030.51C1590.06,1045.05 1583.65,1050.86 1568.68,1050.75C1499.36,1050.23 1430.02,1050.53 1360.69,1050.51C1338.04,1050.51 1333.41,1046.02 1333.39,1023.66C1333.33,962.647 1333.37,901.635 1333.37,840.623Z" fill="#fff" fill-rule="nonzero" transform="matrix(0.0979022,0,0,0.0979022,80,49.0855)"/><path d="M2706.75,770.881C2719.67,725.968 2732.12,682.964 2744.4,639.913C2747.83,627.861 2755.52,623.611 2767.85,623.97C2790.57,624.631 2813.33,624.036 2836.07,624.195C2856.61,624.339 2865.02,638.779 2856.99,657.276C2837.12,703.046 2818.07,749.176 2798.64,795.137C2787.64,821.154 2776.94,847.315 2765.15,872.972C2762.35,879.057 2762.41,884.664 2762.39,890.573C2762.25,933.839 2762.35,977.106 2762.3,1020.37C2762.28,1042.39 2755.83,1048.83 2733.48,1048.98C2714.07,1049.11 2694.65,1049.34 2675.24,1048.89C2656.44,1048.45 2649.67,1041.18 2649.62,1022.16C2649.5,981.118 2648.42,940.024 2650.06,899.041C2650.9,877.987 2641.91,860.666 2634.72,842.826C2611.92,786.212 2587.52,730.245 2563.8,674C2561.04,667.454 2558.1,660.889 2556.28,654.059C2551.31,635.468 2560.21,624.299 2579.78,624.186C2600.86,624.064 2621.97,624.858 2643,623.932C2659.13,623.221 2667.36,630.692 2671.23,645.306C2681.75,685.018 2692.38,724.698 2703.07,764.363C2703.6,766.335 2705.11,768.042 2706.75,770.881Z" fill="#fff" fill-rule="nonzero" transform="matrix(0.0979022,0,0,0.0979022,80,49.0855)"/><path d="M2146.1,885.142C2146.1,931.739 2146.15,978.337 2146.07,1024.93C2146.04,1043.88 2140.36,1049.73 2121.56,1049.94C2102.15,1050.15 2082.73,1050.07 2063.32,1049.96C2041.91,1049.84 2035.68,1043.71 2035.66,1022.36C2035.59,931.939 2035.64,841.517 2035.63,751.096C2035.62,723.996 2032.35,720.024 2005.39,720.921C1950.8,722.737 1952.62,715.946 1953.43,668.659C1953.55,661.449 1953.1,654.213 1953.55,647.03C1954.51,631.9 1962.55,624.246 1977.95,624.222C2053.95,624.104 2129.95,624.108 2205.95,624.216C2221.94,624.238 2229.23,631.489 2229.34,646.879C2229.47,664.074 2229.15,681.275 2229.44,698.467C2229.7,713.829 2221.48,720.386 2207.19,720.704C2194.44,720.989 2181.68,720.685 2168.92,720.785C2152.78,720.913 2146.18,727.401 2146.14,743.686C2146.03,790.837 2146.1,837.99 2146.1,885.142Z" fill="#fff" fill-rule="nonzero" transform="matrix(0.0979022,0,0,0.0979022,80,49.0855)"/><path d="M2610.58,223.994C2610.6,162.374 2610.55,100.754 2610.63,39.134C2610.66,15.564 2615.08,11.323 2638.86,11.287C2658.29,11.257 2677.72,11.205 2697.15,11.302C2717.19,11.402 2722.31,16.568 2722.32,37.145C2722.38,130.407 2722.34,223.67 2722.35,316.933C2722.36,340.509 2726.25,344.33 2750.36,344.359C2778.67,344.392 2806.98,344.3 2835.29,344.392C2851.13,344.444 2858.43,351.341 2858.83,367.183C2859.21,382.162 2859.36,397.176 2858.78,412.142C2858.17,427.839 2850.75,434.266 2834.1,434.287C2767.49,434.368 2700.87,434.382 2634.25,434.279C2616.25,434.252 2610.62,428.537 2610.6,410.519C2610.52,348.344 2610.57,286.169 2610.58,223.994Z" fill="#fff" fill-rule="nonzero" transform="matrix(0.0979022,0,0,0.0979022,80,49.0855)"/></g></svg>