<svg viewBox="0 0 450 200" xmlns="http://www.w3.org/2000/svg" xml:space="preserve" fill-rule="evenodd" clip-rule="evenodd" stroke-linejoin="round" stroke-miterlimit="2"><path d="M435.944,0.165L435.944,29.417L410.269,29.417L410.269,37.417L435.944,37.417L435.944,150.121L410.269,150.121L410.269,158.121L435.944,158.121L435.944,187.371L487.41,157.121L487.41,29.952L435.944,0.165ZM443.944,14.038L443.944,173.389L479.41,152.543L479.41,34.565L443.944,14.038Z" fill="#fff" transform="matrix(0.523346,0,0,0.523346,97.3037,50.9269)"/><path d="M246.26,139.201C233.708,126.946 227.433,111.447 227.433,92.703C227.433,73.96 233.708,58.521 246.26,46.385C258.931,34.13 274.379,28.002 292.602,28.002C306.722,28.002 319.274,31.727 330.256,39.176C341.238,46.626 348.902,56.959 353.246,70.175L316.317,70.175C311.489,60.924 303.766,56.298 293.145,56.298C282.525,56.298 274.138,59.602 267.983,66.21C261.948,72.819 258.931,81.65 258.931,92.703C258.931,103.757 261.948,112.588 267.983,119.196C274.138,125.805 282.344,129.109 292.602,129.109C299.964,129.109 305.938,127.307 310.524,123.702C315.231,119.977 318.368,115.051 319.937,108.924L292.602,100.904L292.602,85.494L353.246,85.494L353.246,108.924C350.953,120.458 344.617,131.211 334.238,141.184C329.29,145.99 323.135,149.895 315.774,152.899C308.533,155.902 300.809,157.404 292.602,157.404C274.379,157.404 258.931,151.337 246.26,139.201Z" fill="#fff" fill-rule="nonzero" transform="matrix(0.523346,0,0,0.523346,97.3037,50.9269)"/><path d="M0.59,29.805L0.59,53.234L35.166,53.234L35.166,156.323L66.121,156.323L66.121,53.234L100.878,53.234L100.878,29.805L0.59,29.805Z" fill="#fff" fill-rule="nonzero" transform="matrix(0.523346,0,0,0.523346,97.3037,50.9269)"/><path d="M207.032,93.244C213.187,85.314 216.264,77.084 216.264,68.553C216.264,57.86 212.161,48.728 203.954,41.159C195.748,33.589 184.283,29.805 169.559,29.805L119.415,29.805L119.415,156.323L150.371,156.323L150.371,107.121L169.559,107.121C178.369,107.121 185.973,105.86 192.369,103.337C198.886,100.693 203.773,97.329 207.032,93.244ZM169.559,83.692L150.371,83.692L150.371,53.234L169.559,53.234C174.145,53.234 177.826,54.676 180.602,57.559C183.378,60.443 184.766,64.168 184.766,68.733C184.766,73.179 183.378,76.783 180.602,79.547C177.947,82.31 174.266,83.692 169.559,83.692Z" fill="#fff" transform="matrix(0.523346,0,0,0.523346,97.3037,50.9269)"/><path d="M385.875,63.988C395.422,63.988 403.161,56.249 403.161,46.702C403.161,37.156 395.422,29.417 385.875,29.417C376.329,29.417 368.59,37.156 368.59,46.702C368.59,56.249 376.329,63.988 385.875,63.988Z" fill="#fff" fill-rule="nonzero" transform="matrix(0.523346,0,0,0.523346,97.3037,50.9269)"/><path d="M369.938,73.121L417.858,73.121L417.858,85.26L401.813,95.215L401.813,158.121L369.938,158.121L369.938,73.121Z" fill="#fff" fill-rule="nonzero" transform="matrix(0.523346,0,0,0.523346,97.3037,50.9269)"/></svg>