<svg viewBox="0 0 450 200" xmlns="http://www.w3.org/2000/svg" xml:space="preserve" fill-rule="evenodd" clip-rule="evenodd" stroke-linejoin="round" stroke-miterlimit="2"><g transform="matrix(1,0,0,1,135.735,26.31)"><path d="M47.57,49.34L70.13,49.34L70.13,90.24C70.13,94.3 69.46,98.12 68.11,101.73C66.76,105.33 64.65,108.48 61.77,111.18C58.89,113.88 55.87,115.77 52.71,116.86C48.32,118.39 43.04,119.15 36.89,119.15C33.33,119.15 29.44,118.92 25.23,118.45C21.02,117.98 17.5,117.05 14.67,115.67C11.84,114.28 9.25,112.31 6.91,109.75C4.56,107.19 2.96,104.56 2.09,101.84C0.69,97.47 -0.01,93.6 -0.01,90.24L-0.01,49.34L22.56,49.34L22.56,91.21C22.56,94.95 23.67,97.88 25.88,99.98C28.09,102.09 31.16,103.14 35.09,103.14C39.02,103.14 42.04,102.1 44.25,100.03C46.46,97.96 47.57,95.02 47.57,91.21L47.57,49.34Z" fill="#fff" fill-rule="nonzero"/><path d="M147.98,0C131.1,0 117.42,13.68 117.42,30.56C117.42,39.18 121,46.97 126.75,52.53C130.52,56.18 135.22,58.86 140.46,60.19C142.87,60.8 145.38,61.13 147.98,61.13C164.86,61.13 178.54,47.44 178.54,30.57C178.54,13.7 164.86,0 147.98,0ZM147.98,55.09C146.72,55.09 145.49,54.97 144.28,54.78C138.91,53.97 134.12,51.44 130.48,47.74C126.13,43.31 123.45,37.26 123.45,30.56C123.45,17.02 134.43,6.03 147.98,6.03C161.53,6.03 172.51,17.01 172.51,30.56C172.51,44.11 161.53,55.09 147.98,55.09Z" fill="#fff" fill-rule="nonzero"/><path d="M147.98,13.62C153.45,13.62 157.89,18.05 157.89,23.53C157.89,29.01 153.46,33.44 147.98,33.44C142.5,33.44 138.07,29.01 138.07,23.53C138.07,18.05 142.5,13.62 147.98,13.62ZM162.37,43.58C160.55,45.84 158.14,47.58 155.49,48.76C153.17,49.79 150.62,50.2 148.06,50.2C145.5,50.2 148.01,50.2 147.98,50.2L147.9,50.2C145.33,50.2 142.79,49.79 140.47,48.76C137.82,47.59 135.41,45.84 133.59,43.58C133.32,43.25 130.55,39.5 130.64,39.39C133.41,35.77 138.87,36.1 142.9,36.06C144.57,36.04 151.4,36.04 153.07,36.06C157.1,36.11 162.56,35.77 165.33,39.39C165.42,39.5 162.65,43.25 162.38,43.58L162.37,43.58Z" fill="#fff" fill-rule="nonzero"/><path d="M141.96,54.95C137.09,53.72 132.73,50.22 129.23,46.84L115.24,65.12L124.87,78.19L141.97,54.95L141.96,54.95Z" fill="#fff" fill-rule="nonzero"/><path d="M70.7,117.99L93.9,117.99L110.4,96.89L100.19,83.03L70.7,117.99Z" fill="#fff" fill-rule="nonzero"/><path d="M123.39,79.2L113.76,66.13L101.09,48.92L77.32,48.92L101.72,82.03L111.93,95.89L128.21,117.99L151.97,117.99L123.39,79.2Z" fill="#fff" fill-rule="nonzero"/><path d="M88.09,48.88L157.77,48.58" fill="none"/><path d="M0.41,124.5L12.53,124.5L12.53,126.92L3.33,126.92L3.33,134.41L11.83,134.41L11.83,136.82L3.33,136.82L3.33,147.01L0.41,147.01L0.41,124.5Z" fill="#fff" fill-rule="nonzero"/><path d="M35.92,135.53C35.92,143.25 31.21,147.38 25.48,147.38C19.75,147.38 15.36,142.76 15.36,135.96C15.36,129.16 19.77,124.14 25.78,124.14C31.79,124.14 35.92,128.85 35.92,135.54L35.92,135.53ZM18.43,135.89C18.43,140.71 21.05,145.02 25.63,145.02C30.21,145.02 32.84,140.78 32.84,135.67C32.84,131.19 30.5,126.51 25.67,126.51C20.84,126.51 18.43,130.97 18.43,135.9L18.43,135.89Z" fill="#fff" fill-rule="nonzero"/><path d="M39.69,124.81C41.17,124.51 43.28,124.33 45.28,124.33C48.37,124.33 50.4,124.92 51.8,126.18C52.91,127.16 53.57,128.7 53.57,130.46C53.57,133.42 51.68,135.38 49.33,136.19L49.33,136.27C51.05,136.87 52.08,138.5 52.63,140.83C53.37,143.98 53.9,146.13 54.36,147.01L51.35,147.01C51,146.36 50.49,144.44 49.87,141.62C49.2,138.54 47.98,137.34 45.35,137.26L42.6,137.26L42.6,147.01L39.7,147.01L39.7,124.81L39.69,124.81ZM42.59,135.06L45.56,135.06C48.67,135.06 50.64,133.37 50.64,130.79C50.64,127.87 48.53,126.6 45.47,126.59C44.06,126.59 43.09,126.72 42.59,126.85L42.59,135.07L42.59,135.06Z" fill="#fff" fill-rule="nonzero"/><path d="M65.16,126.96L58.3,126.96L58.3,124.5L74.97,124.5L74.97,126.96L68.08,126.96L68.08,147.01L65.16,147.01L65.16,126.96Z" fill="#fff" fill-rule="nonzero"/><path d="M80.38,124.5L80.38,133.93L91.26,133.93L91.26,124.5L94.18,124.5L94.18,147.01L91.26,147.01L91.26,136.45L80.38,136.45L80.38,147.01L77.46,147.01L77.46,124.5L80.38,124.5Z" fill="#fff" fill-rule="nonzero"/><path d="M110.89,136.46L102.16,136.46L102.16,144.59L111.92,144.59L111.92,147.01L99.24,147.01L99.24,124.5L111.41,124.5L111.41,126.92L102.16,126.92L102.16,134.05L110.89,134.05L110.89,136.46Z" fill="#fff" fill-rule="nonzero"/><path d="M122.63,147.01L117.3,124.5L122.75,124.5L124.46,133.77C124.94,136.45 125.41,139.37 125.77,141.64L125.84,141.64C126.2,139.19 126.74,136.5 127.31,133.7L129.24,124.49L134.65,124.49L136.45,133.99C136.93,136.62 137.31,139.02 137.64,141.51L137.71,141.51C138.06,139 138.54,136.39 139.03,133.69L140.85,124.49L146.02,124.49L140.22,147L134.72,147L132.8,137.31C132.35,135.06 132,132.94 131.72,130.38L131.65,130.38C131.27,132.91 130.91,135.05 130.37,137.32L128.22,147L122.64,147L122.63,147.01Z" fill="#fff" fill-rule="nonzero"/><rect x="148.67" y="124.5" width="5.09" height="22.51" fill="#fff" fill-rule="nonzero"/><path d="M158.19,147.01L158.19,124.5L164.12,124.5L168.79,132.76C170.14,135.12 171.45,137.94 172.47,140.48L172.56,140.48C172.25,137.49 172.15,134.47 172.15,131.07L172.15,124.51L176.82,124.51L176.82,147.02L171.49,147.02L166.67,138.35C165.33,135.92 163.85,133.04 162.76,130.4L162.65,130.4C162.81,133.39 162.87,136.58 162.87,140.25L162.87,147.02L158.2,147.02L158.19,147.01Z" fill="#fff" fill-rule="nonzero"/></g></svg>