<svg viewBox="0 0 450 200" xmlns="http://www.w3.org/2000/svg" xml:space="preserve" fill-rule="evenodd" clip-rule="evenodd" stroke-linejoin="round" stroke-miterlimit="2"><g transform="matrix(1,0,0,1,0.222207,11.212)"><path d="M401.948,264.182C407.193,277.039 410.141,291.069 410.141,305.789C410.141,338.765 395.552,368.33 372.58,388.603C376.087,386.214 379.548,383.731 382.902,381.052C405.463,363.036 422.295,339.963 434.853,315.822L434.853,264.182L401.948,264.182Z" fill="#620c0d" fill-rule="nonzero" transform="matrix(0.432226,0,0,0.432226,98.5503,-35.3127)"/><path d="M394.744,395.872C390.615,399.169 386.356,402.191 382.045,405.09L434.853,405.09L434.853,352.613C423.803,368.402 410.611,383.202 394.744,395.872Z" fill="#620c0d" fill-rule="nonzero" transform="matrix(0.432226,0,0,0.432226,98.5503,-35.3127)"/><path d="M246.229,256.594L390.015,256.594C372.531,224.583 338.555,202.817 299.585,202.817C295.93,202.817 292.323,203.023 288.764,203.397C275.587,209.396 262.991,216.818 251.499,225.995C226.257,246.152 208.887,272.716 196.906,300.012C196.799,301.935 196.614,303.839 196.614,305.789C196.614,343.018 216.543,375.599 246.229,393.687L246.229,256.594Z" fill="#f59432" fill-rule="nonzero" transform="matrix(0.432226,0,0,0.432226,98.5503,-35.3127)"/><path d="M253.817,264.182L393.695,264.182L253.817,264.182Z" fill="#f59432" fill-rule="nonzero" transform="matrix(0.432226,0,0,0.432226,98.5503,-35.3127)"/><path d="M393.695,264.182L253.817,264.182L253.817,397.89C259.825,400.89 266.157,403.304 272.761,405.09C281.33,407.408 290.293,408.758 299.585,408.758C308.877,408.758 317.84,407.408 326.408,405.09C370.197,393.243 402.553,353.273 402.553,305.789C402.553,290.977 399.349,276.921 393.695,264.182Z" fill="#dc6626" fill-rule="nonzero" transform="matrix(0.432226,0,0,0.432226,98.5503,-35.3127)"/><path d="M253.817,264.182L393.694,264.182C392.551,261.605 391.359,259.055 390.015,256.594L246.229,256.594L246.229,393.687C248.696,395.191 251.22,396.594 253.817,397.89L253.817,264.182Z" fill="#a44e24" fill-rule="nonzero" transform="matrix(0.432226,0,0,0.432226,98.5503,-35.3127)"/><path d="M251.499,225.995C262.991,216.818 275.587,209.396 288.764,203.397C238.953,208.625 199.728,249.532 196.906,300.012C208.887,272.716 226.257,246.152 251.499,225.995Z" fill="#dc6626" fill-rule="nonzero" transform="matrix(0.432226,0,0,0.432226,98.5503,-35.3127)"/><path d="M442.441,299.957L442.441,256.594L398.448,256.594C381.537,222.75 347.846,198.776 308.294,195.67C373.69,173.219 446.847,180.431 471.051,183.769C469.525,202.836 463.683,251.784 442.441,299.957ZM434.853,405.09L382.045,405.09C386.356,402.19 390.615,399.169 394.744,395.872C410.611,383.201 423.802,368.402 434.853,352.613L434.853,405.09ZM170.515,423.273C170.999,406.043 173.888,362.751 189.753,318.094C193.806,354.485 215.57,385.583 246.229,402.556C254.205,406.971 262.812,410.332 271.833,412.678C280.719,414.987 289.986,416.345 299.585,416.345C305.073,416.345 310.425,415.811 315.701,415.034C255.104,433.02 192.038,426.381 170.515,423.273ZM393.694,264.182L393.695,264.182C399.349,276.921 402.553,290.978 402.553,305.789C402.553,353.272 370.197,393.243 326.408,405.09C317.839,407.408 308.877,408.758 299.585,408.758C290.293,408.758 281.33,407.408 272.761,405.09C266.157,403.304 259.825,400.89 253.816,397.891C251.219,396.594 248.696,395.19 246.229,393.687C216.543,375.599 196.613,343.019 196.613,305.789C196.613,303.839 196.798,301.936 196.906,300.012C199.728,249.532 238.953,208.625 288.764,203.396C292.322,203.023 295.929,202.817 299.585,202.817C338.554,202.817 372.531,224.583 390.014,256.594C391.358,259.055 392.55,261.605 393.694,264.182ZM434.853,264.182L434.853,315.822C422.295,339.963 405.462,363.036 382.902,381.052C379.547,383.731 376.087,386.214 372.58,388.603C395.552,368.331 410.141,338.765 410.141,305.789C410.141,291.069 407.193,277.039 401.948,264.182C401.948,264.182 401.949,264.182 401.948,264.182L434.853,264.182ZM482.803,166.401C476.638,165.241 330.411,138.71 239.665,211.175C233.823,215.84 228.38,220.796 223.285,225.975C219.236,229.848 215.509,234.03 212.082,238.473C149.269,314.46 151.335,426.262 151.476,431.572L151.675,439.145L159.108,440.62C161.634,441.124 188.77,446.326 226.12,446.326C267.979,446.326 322.633,439.704 369.808,412.678L442.441,412.678L442.441,341.157C487.397,268.481 490.404,180.666 490.532,175.978L490.747,167.897L482.803,166.401Z" fill="#fff" fill-rule="nonzero" transform="matrix(0.432226,0,0,0.432226,98.5503,-35.3127)"/><path d="M93.334,302.18L139.168,306.055L140.769,287.157L94.935,283.281L93.334,302.18Z" fill="#fff" fill-rule="nonzero" transform="matrix(0.432226,0,0,0.432226,98.5503,-35.3127)"/><path d="M183.902,219.282L151.38,186.76L137.968,200.172L170.49,232.694L183.902,219.282Z" fill="#fff" fill-rule="nonzero" transform="matrix(0.432226,0,0,0.432226,98.5503,-35.3127)"/><path d="M262.947,167.746L239.95,127.914L223.522,137.399L246.519,177.231L262.947,167.746Z" fill="#fff" fill-rule="nonzero" transform="matrix(0.432226,0,0,0.432226,98.5503,-35.3127)"/></g></svg>