<svg xmlns="http://www.w3.org/2000/svg" viewBox="0 0 91.12 31.05" style="fill:#fff"><path d="M12.93 10.17h-2.81L9.31 16H6.44l.81-5.83H4.44L3.63 16H.84v2.61h2.44l-.49 3.65H0v2.61h2.44l-.81 5.83h2.81l.81-5.83h2.87l-.81 5.83h2.81l.81-5.83h2.78v-2.61h-2.43l.49-3.65h2.78V16h-2.43zM8.47 22.26H5.6l.49-3.65H9zM17.46 16.61h4.35V30.7h-4.35zM19.63 9.65a2.53 2.53 0 0 0-2.52 2.52 2.52 2.52 0 1 0 4.31-1.78 2.43 2.43 0 0 0-1.79-.74zM35.38 18.12h-.06a4.07 4.07 0 0 0-1.93-1.44 7.48 7.48 0 0 0-2.54-.42 5.72 5.72 0 0 0-2.7.62 6.22 6.22 0 0 0-2 1.67 7.77 7.77 0 0 0-1.28 2.39 8.88 8.88 0 0 0-.45 2.83 8.41 8.41 0 0 0 .49 2.93 6.75 6.75 0 0 0 1.41 2.3 6.33 6.33 0 0 0 2.19 1.51 7.27 7.27 0 0 0 2.84.54 4.89 4.89 0 0 0 1.41-.2 6.06 6.06 0 0 0 1.24-.53 5.18 5.18 0 0 0 1-.71 4.77 4.77 0 0 0 .68-.77h.06v1.86h4V8.78h-4.36zm-.57 8.12a3.33 3.33 0 0 1-2.57 1 3.33 3.33 0 0 1-2.57-1 3.64 3.64 0 0 1-.91-2.58 3.64 3.64 0 0 1 .91-2.58 3.33 3.33 0 0 1 2.57-1 3.33 3.33 0 0 1 2.57 1 3.64 3.64 0 0 1 .91 2.58 3.64 3.64 0 0 1-.91 2.58zM86.77 16.61v7a9.93 9.93 0 0 1-.09 1.39 3.33 3.33 0 0 1-.36 1.15 2.07 2.07 0 0 1-.8.81 2.68 2.68 0 0 1-1.36.3 1.87 1.87 0 0 1-2-1.25 4 4 0 0 1-.26-1.2v-8.16h-4.36v7.77a17.37 17.37 0 0 0 .19 2.58 5.51 5.51 0 0 0 .75 2.12 3.83 3.83 0 0 0 1.6 1.41 6.07 6.07 0 0 0 2.68.51 5 5 0 0 0 1.45-.2 5.18 5.18 0 0 0 1.19-.52 3.86 3.86 0 0 0 .88-.73 4.83 4.83 0 0 0 .6-.81h.06v1.92h4.18V16.61zM62.68 25.25h3.34v-5.12h-.04l-3.3 5.12z"/><path d="M43.42 30.7h4.21v-3.16l5.78-5.19a10.67 10.67 0 0 0 .88-.9 1.73 1.73 0 0 0 .44-1.18 1.43 1.43 0 0 0-.55-1.19 2 2 0 0 0-1.28-.43 1.76 1.76 0 0 0-1.37.55 2.2 2.2 0 0 0-.53 1.34l-3.15-.23a5.12 5.12 0 0 1 .48-2 4.22 4.22 0 0 1 1.11-1.42A4.69 4.69 0 0 1 51 16a7 7 0 0 1 2-.28 6.16 6.16 0 0 1 2 .28 4.43 4.43 0 0 1 1.53.84 3.83 3.83 0 0 1 1 1.4 4.86 4.86 0 0 1 .37 2 5.26 5.26 0 0 1-.15 1.29 4.38 4.38 0 0 1-.41 1 4.82 4.82 0 0 1-.62.87 10.06 10.06 0 0 1-.78.78l-4.53 3.92H58v2.6h8v-2.81h-6.47v-2.64L65.6 16H69v9.24h2v2.65h-2v2.81h5.07V0H43.42z"/></svg>