<svg viewBox="0 0 450 200" xmlns="http://www.w3.org/2000/svg" fill-rule="evenodd" clip-rule="evenodd" stroke-linejoin="round" stroke-miterlimit="2"><path d="M300.092 102.1c0 4.333-.158 7.372-.472 9.035a12.611 12.611 0 01-1.37 3.944 11.481 11.481 0 01-4.47 4.333 13.914 13.914 0 01-6.64 1.506c-4.438 0-7.466-1.121-9.27-3.434-1.912-2.46-2.887-6.961-2.887-13.375V74.53h-11.268v29.107c0 9.908 1.772 16.896 5.417 21.365 3.646 4.47 9.697 6.853 17.796 6.853a24.334 24.334 0 009.843-1.831 17.919 17.919 0 003.315-1.913v2.319h11.268v-55.9h-11.268l.006 27.568zM184.5 111.871a17.1 17.1 0 01-5.693 6.278 16.255 16.255 0 01-9.096 2.6c-4.875 0-8.765-1.468-11.972-4.48a16.575 16.575 0 01-4.994-9.35h45.91v-2.86c0-9.046-2.665-16.533-7.92-22.248-5.254-5.715-12.232-8.71-20.585-8.71-8.478 0-15.558 2.8-21.046 8.33-5.487 5.532-8.255 12.585-8.255 20.976a28.836 28.836 0 008.413 20.775 27.77 27.77 0 0020.628 8.667 27.42 27.42 0 0016.252-4.994c4.62-3.283 8.244-8.029 10.769-14.085l.374-.894-12.785-.005zm-26.349-23.798c3.012-2.708 6.62-4.025 11.013-4.025 4.784 0 8.516 1.219 11.414 3.727 2.335 2.026 4.112 4.935 5.304 8.668h-32.73a16.718 16.718 0 015-8.37zm200.554 23.798a17.15 17.15 0 01-5.693 6.278 16.255 16.255 0 01-9.096 2.6c-4.875 0-8.765-1.468-11.972-4.48a16.553 16.553 0 01-4.989-9.35h45.905v-2.86c0-9.046-2.665-16.533-7.914-22.248-5.25-5.715-12.238-8.71-20.585-8.71-8.478 0-15.559 2.8-21.046 8.33-5.488 5.532-8.256 12.585-8.256 20.976a28.836 28.836 0 008.413 20.775 27.785 27.785 0 0020.629 8.667c5.808.1 11.501-1.65 16.251-4.994 4.62-3.283 8.245-8.029 10.77-14.085l.373-.894-12.79-.005zm-26.349-23.798c3.017-2.708 6.62-4.025 11.013-4.025 4.784 0 8.521 1.219 11.414 3.727 2.335 2.032 4.112 4.94 5.304 8.668h-32.73c.799-3.224 2.54-6.138 5-8.37z" fill="#fff" fill-rule="nonzero"/><circle cx="78.26" cy="130.2" r="19.36" fill="#fff" transform="matrix(.54172 0 0 .54172 63.54 32.38)"/><path d="M136.011 102.446v-54.6h-14.366v29.621a29.405 29.405 0 00-15.101-4.174c-16.13 0-29.404 13.274-29.404 29.405 0 16.13 13.273 29.404 29.404 29.404 2.676 0 5.34-.366 7.918-1.086.092 0 .173-.049.26-.07v-11.604a7.338 7.338 0 01-1.517.932 17.112 17.112 0 01-7.351 1.49 17.701 17.701 0 01-13.18-5.418 18.48 18.48 0 01-5.255-13.331c0-5.342 1.804-9.876 5.369-13.484 3.564-3.607 8.087-5.417 13.423-5.417 2.709 0 8.202.72 11.566 3.37 3.093 2.443 6.409 6.007 6.3 15.374-.032 2.773 0 15.21.065 23.505.5-.347.97-.733 1.409-1.154a29.32 29.32 0 0010.444-21.669v-.77c0-.091.016-.232.016-.324zm123.706 48.31s0-1.842-.027-4.794v-3.597c-.065-12.535-.173-35.168-.119-39.87.168-14.518-4.973-20.044-9.75-23.836-5.212-4.112-13.717-5.227-17.932-5.227-8.272 0-15.27 2.838-20.812 8.44-5.542 5.6-8.332 12.616-8.332 20.899 0 8.126 2.747 15.103 8.153 20.677 5.406 5.574 12.308 8.424 20.434 8.424a26.489 26.489 0 0011.435-2.297 12.658 12.658 0 004.908-4.025v26.604h12.086v-1.398h-.044zm-28.505-30.125c-9.788 0-17.725-8.125-17.725-18.153 0-10.027 7.937-18.158 17.725-18.158 9.79 0 17.72 8.126 17.72 18.158 0 10.033-7.936 18.153-17.72 18.153z" fill="#fff" fill-rule="nonzero"/></svg>