<svg xmlns="http://www.w3.org/2000/svg" viewBox="0 0 3508 1241" fill-rule="evenodd" clip-rule="evenodd" stroke-linejoin="round" stroke-miterlimit="2"><g transform="translate(0 -1240.17)"><path fill="none" d="M0 1240.17h3507.88v1240.17H0z"/><clipPath id="a"><path d="M0 1240.17h3507.88v1240.17H0z"/></clipPath><g clip-path="url(#a)"><path fill="none" d="M0 1240.334h3507.878v1240.16H0z"/><path d="M637.178 1600.368c10.379 0 18.82 8.438 18.82 18.813v423.575c0 10.383-8.441 18.82-18.82 18.82H213.61c-10.383 0-18.825-8.437-18.825-18.82v-423.575c0-10.375 8.442-18.813 18.825-18.813h423.568zm-257.606 186.88v252.537c111.571-32.604 99.241-42.404 99.241-42.404-3.058-22.775-2.945-38.008-2.945-38.008v-182.638s.991-30.512-25.155-30.512c0 0-12.996-9.734-121.716 28.379 0 0-15.242 3.196-7.638 20.637l58.213-7.991zm45.933-165.125c13.704 0 25.42 5.08 35.154 15.05 9.666 9.988 14.566 22.275 14.566 36.805 0 14.029-4.9 25.966-14.566 35.941-9.734 9.988-21.45 14.959-35.154 14.959-13.717 0-25.438-4.971-35.1-14.959-9.73-9.975-14.563-21.912-14.563-35.941 0-14.53 4.833-26.817 14.563-36.805 9.662-9.97 21.383-15.05 35.1-15.05z" fill="#fff"/><path d="M679.81 2048.364c0 20.488-16.612 37.096-37.1 37.096h-434.7c-20.492 0-37.109-16.608-37.109-37.096v-434.712c0-20.484 16.617-37.1 37.11-37.1h434.7c20.487 0 37.1 16.616 37.1 37.1v434.712zm-42.632-461.092H213.61c-17.633 0-31.917 14.288-31.917 31.909v423.575c0 17.625 14.284 31.916 31.917 31.916h423.568c17.62 0 31.908-14.29 31.908-31.916v-423.575c0-17.621-14.287-31.91-31.908-31.91z" fill="#fff"/><path d="M2765.372 1711.743s3.56-22.512 20.05-44.492c16.48-21.98 45.89-43.427 115.34-29.683 0 0-57.85 123.867-135.39 74.175zm118.08-70.116c5.01-1.09 10.21-2.066 15.59-2.91 0 0-6.03.817-15.59 2.91-1.46.318-2.91.647-4.34.984-9.49 2.224-21.56 5.538-34.39 10.277-29.1 10.753-62.09 28.839-77.63 58.175 0 0 30.75-49.293 112.02-68.452 1.51-.355 2.96-.683 4.34-.984z" fill="#fff" fill-opacity=".65" fill-rule="nonzero"/><path d="M2756.282 1715.999s-9.54-28.968 2.05-59.808 44.31-63.548 128.82-71.03c0 0-24.91 162.055-130.87 130.838zm114.14-121.341c4.87-2.605 9.95-5.157 15.24-7.638 0 0-5.93 2.633-15.24 7.638a311.315 311.315 0 00-8.33 4.626c-9.85 5.64-21.88 13.133-34.25 22.292-29.91 22.15-61.82 54.048-69.85 93.032 0 0 18.58-66.106 104.1-115.324 3-1.715 5.79-3.26 8.33-4.626zM801.017 1631.164H967.26v26.237h-12.812c-12.105 0-20.909 1.754-26.275 5.05-5.446 3.471-9.455 8.23-11.959 14.388-2.437 6.158-3.725 18.187-3.725 36.05v279.863c0 14.179 1.434 24.17 4.08 30.15 2.724 5.904 6.516 10.233 11.458 12.916 4.866 2.759 13.675 4.046 26.42 4.046h12.813v26.28H801.017v-26.28h13.6c12.246 0 20.909-1.358 25.988-4.154 5.012-2.863 8.737-6.904 11.025-12.204 2.296-5.267 3.37-15.504 3.37-30.754V1706.66c0-16.325-1.074-27.205-3.37-32.863-2.288-5.55-6.013-9.7-11.025-12.312-5.08-2.688-13.742-4.084-25.988-4.084h-13.6v-26.237zM1000.976 1809.976v-25.779c18.833-2.079 32.862-4.512 42.246-7.52 9.229-2.863 22.62-9.088 40.233-18.717h22.838v59.096c27.279-23.055 50.62-38.659 69.95-46.784 19.404-8.233 38.95-12.312 58.85-12.312 16.97 0 32.004 2.858 45.033 8.479 13.033 5.729 23.63 13.533 31.792 23.233 8.233 9.775 13.604 20.875 16.396 33.363 1.57 7.625 2.433 19.225 2.433 34.833v136.959c0 16.47 1.22 27.137 3.58 31.72 2.357 4.763 6.153 8.167 11.382 10.242 5.225 2.075 17.971 3.075 38.375 3.075v26.275h-160.733v-26.275h8.737c14.963 0 25.205-1.287 30.717-4.046 5.367-2.683 9.234-6.691 11.671-11.883 2.433-5.192 3.575-15.858 3.575-31.825v-114.625c0-23.696-1.933-40.054-5.73-49.254-3.866-9.096-10.378-16.546-19.616-22.267-9.233-5.62-20.975-8.592-35.083-8.592-16.821 0-34.721 4.363-53.909 13.034-19.041 8.583-37.512 21.333-55.345 38.116v143.588c0 16.25 1.22 27.067 3.583 32.437 2.358 5.438 6.154 9.513 11.67 12.242 3.722 2.075 13.6 3.075 29.784 3.075h8.946v26.275h-160.73v-26.275h7.876c15.466 0 25.991-1.18 31.65-3.796 5.65-2.683 9.658-7.262 11.954-13.854 1.283-3.396 1.862-14.817 1.862-34.254v-177.984h-53.987zM1419.022 1765.585h53.983v-46.821c0-32.225 10.671-58.567 31.934-79.046 21.262-20.513 49.041-30.746 83.333-30.746 22.767 0 40.53 4.758 53.342 14.388 12.741 9.558 19.116 19.937 19.116 31.183 0 7.483-2.508 13.708-7.662 18.83-5.083 5.116-11.454 7.616-19.188 7.616-6.8 0-12.741-1.213-17.754-3.609-4.941-2.545-12.746-8.77-23.058-18.829-11.02-10.383-21.546-15.612-31.496-15.612-6.87 0-13.108 2.075-18.617 6.441-5.512 4.225-9.737 10.459-12.741 18.692-3.009 8.163-4.513 20.904-4.513 37.871v59.642h58.85v31.787h-58.85v202.4c0 13.746 1.004 23.055 3.146 27.563 2.008 4.654 5.083 7.95 9.238 9.775 4.154 1.896 13.75 2.754 28.854 2.754h12.746v26.28h-160.021v-26.28h9.67c16.467 0 26.846-.93 31.355-3.075 4.441-2.008 7.662-5.48 9.737-10.096 1.934-4.654 2.796-15.32 2.58-31.862v-197.459h-53.984v-31.787zM1780.289 1788.393c-23.342 0-43.242 9.408-59.638 28.058-20.62 23.238-30.858 57.03-30.858 101.417 0 42.746 8.663 75.313 26.283 97.659 15.821 19.937 37.442 29.92 64.58 29.92 17.466 0 33.145-4.687 46.75-13.958 13.745-9.38 24.841-24.267 33.291-44.746 8.446-20.437 12.671-44.462 12.671-72.029 0-26.988-4.583-51.046-13.608-72.45-7.009-17.042-17.538-30.283-31.713-39.733-14.104-9.38-29.996-14.138-47.758-14.138m2.654-30.433c30.354 0 56.633 6.337 78.896 18.975 22.196 12.741 39.738 31.216 52.554 55.554 12.817 24.275 19.259 52.017 19.259 83.304 0 31.109-6.584 58.85-19.692 83.192-13.175 24.346-31.071 42.883-53.7 55.633-22.617 12.817-49.613 19.259-81.042 19.259-50.05 0-87.633-15.68-112.692-47.184-25.204-31.354-37.725-68.158-37.725-110.65 0-31.037 6.509-58.425 19.542-82.512 13.03-23.988 31.288-42.53 54.7-55.813 23.483-13.175 50.192-19.758 79.9-19.758M2189.748 1913.064c-48.4 7.13-78.325 12-89.85 14.68-22.7 5.303-38.95 10.916-48.759 17.078-9.808 6.338-16.82 12.988-20.979 20.08-4.22 7.237-6.3 14.825-6.3 22.912 0 8.054 2.362 15.933 7.02 23.483 4.722 7.625 11.384 13.534 19.9 17.825 8.517 4.442 17.613 6.588 27.21 6.588 13.6 0 28.853-3.183 45.958-9.596 17.112-6.512 39.02-18.967 65.725-37.73l.075-75.32zm.283-26.988l-.642-34.008c0-23.054-6.366-39.592-19.258-49.542-12.958-9.879-31.146-14.75-54.558-14.75-11.738 0-21.909 1.288-30.642 4.15-8.734 2.867-15.754 6.663-21.046 11.6-5.37 4.871-9.238 10.525-11.738 16.755-1.008 2.325-3.512 11.17-7.45 26.6-4.87 18.716-14.466 28.095-29.066 28.095-8.304 0-15.038-2.712-20.05-8.229-5.225-5.583-7.73-13.033-7.73-22.483 0-13.675 5.08-27.208 15.25-40.454 10.167-13.238 25.705-24.196 46.534-32.854 20.908-8.738 45.538-13 73.958-13 26.563 0 49.263 4.083 68.159 12.312 18.833 8.13 32.796 19.942 41.746 35.258 6.158 10.675 9.3 29.934 9.3 57.93v119.841c0 16.975.579 28.075 1.575 33.363 2.291 8.846 6.229 15.504 11.954 20.02 5.729 4.51 13.108 6.688 22.275 6.688 9.52 0 20.9-2.179 34.217-6.508v27.383c-17.255 5.042-32.717 7.554-46.321 7.554-14.746 0-27.059-2.075-37.088-6.233-10.025-4.187-18.33-10.346-24.77-18.33-6.447-8.016-10.526-17.574-12.388-28.674-24.913 19.654-47.467 33.362-67.513 41.354-20.266 7.875-40.52 11.883-61.137 11.883-28.642 0-51.842-7.804-69.738-23.408-17.825-15.542-26.775-33.87-26.775-54.775 0-12.675 3.296-24.704 9.88-36.158 6.508-11.459 16.537-21.55 29.92-30.138 13.533-8.775 34.583-16.47 63.367-23.129 28.783-6.696 68.658-12.675 119.775-18.113M2354.923 1765.585h156.508v25.629h-10.887c-6.23 0-11.955.712-17.105 2.183-3.154.9-5.729 2.434-7.662 4.942-2.008 2.433-2.938 4.687-2.938 6.762 0 4.875 3.934 12.134 11.813 21.838l44.463 55.633 52.05-55.633c9.525-10.558 14.316-18.467 14.316-23.733 0-3.834-1.646-6.763-4.937-8.838-3.367-2.083-10.459-3.154-21.484-3.154h-11.741v-25.63h132.737v25.63c-13.025.646-24.196 3.296-33.65 8.233-9.45 4.871-20.475 14.171-33.358 27.671l-71.883 74.1 88.566 101.667 3.43 4.333c8.808 11.167 18.62 20.259 29.504 27.13 6.087 3.983 15.466 6.058 28.275 6.237v25.558h-152.855v-25.558h13.171c9.959 0 16.259-.613 18.975-1.9 4.588-2.113 6.804-5.725 6.804-10.78 0-4.65-4.941-13.174-14.891-25.558l-56.992-68.87-62.93 68.87-6.237 7.38-3.429 3.791c-5.158 5.73-7.733 10.88-7.733 15.288 0 4.046 1.57 7.012 4.791 8.979 3.23 1.862 10.388 2.8 21.625 2.8h12.388v25.558h-130.875v-25.558c10.167-.18 18.183-1.22 23.912-3.296 5.871-2.004 11.455-5.196 16.892-9.454 9.308-7.517 16.046-13.533 20.196-18.042l91.854-94.179-78.108-88.675c-9.738-11.163-17.542-19.046-23.2-23.554-5.796-4.509-11.313-7.734-16.684-9.45-5.366-1.83-12.954-2.721-22.691-2.721v-25.63zM2735.594 1809.976v-25.779c17.325-1.97 31.858-4.833 43.6-8.554 11.812-3.725 25.204-9.633 40.237-17.683h22.838v250.042c0 8.658 1.287 15.183 3.72 19.583 2.513 4.258 6.013 7.45 10.46 9.45 4.507 1.9 12.666 2.83 24.482 2.83h14.75v26.274h-159.445v-26.275h12.745c13.75 0 22.98-1.18 27.709-3.73 4.72-2.5 8.091-6.045 10.025-10.445 1.858-4.687 2.858-15.358 2.858-32.142v-183.57h-53.98zM3151.703 1913.064c-48.396 7.13-78.326 12-89.85 14.68-22.7 5.303-38.95 10.916-48.83 17.078-9.808 6.338-16.825 12.988-20.908 20.08-4.22 7.237-6.3 14.825-6.3 22.912 0 8.054 2.292 15.933 7.02 23.483 4.65 7.625 11.31 13.534 19.9 17.825 8.517 4.442 17.617 6.588 27.213 6.588 13.53 0 28.846-3.183 45.959-9.596 17.108-6.512 39.016-18.967 65.654-37.73l.142-75.32zm.216-26.988l-.57-34.008c0-23.054-6.45-39.592-19.334-49.542-12.888-9.879-31.142-14.75-54.554-14.75-11.742 0-21.838 1.288-30.575 4.15-8.73 2.867-15.754 6.663-21.125 11.6-5.288 4.871-9.225 10.525-11.738 16.755-1 2.325-3.504 11.17-7.37 26.6-4.8 18.716-14.463 28.095-29.067 28.095-8.304 0-15.038-2.712-20.121-8.229-5.154-5.583-7.658-13.033-7.658-22.483 0-13.675 5.008-27.208 15.245-40.454 10.092-13.238 25.63-24.196 46.467-32.854 20.908-8.738 45.533-13 73.958-13 26.563 0 49.326 4.083 68.23 12.312 18.908 8.13 32.72 19.942 41.666 35.258 6.23 10.675 9.38 29.934 9.38 57.93v119.841c0 16.975.504 28.075 1.579 33.363 2.287 8.846 6.225 15.504 11.883 20.02 5.73 4.51 13.175 6.688 22.267 6.688 9.52 0 20.975-2.179 34.225-6.508v27.383c-17.188 5.042-32.65 7.554-46.254 7.554-14.746 0-27.138-2.075-37.159-6.233-10.096-4.187-18.254-10.346-24.696-18.33-6.516-8.016-10.6-17.574-12.387-28.674-24.992 19.654-47.542 33.362-67.584 41.354-20.195 7.875-40.529 11.883-61.15 11.883-28.633 0-51.829-7.804-69.725-23.408-17.758-15.542-26.708-33.87-26.708-54.775 0-12.675 3.225-24.704 9.808-36.158 6.584-11.459 16.534-21.55 29.992-30.138 13.533-8.775 34.588-16.47 63.3-23.129 28.775-6.696 68.73-12.675 119.775-18.113" fill="#fff" fill-rule="nonzero"/></g></g></svg>