<svg viewBox="0 0 395 153" xmlns="http://www.w3.org/2000/svg" fill-rule="evenodd" clip-rule="evenodd" stroke-linejoin="round"><path fill="none" d="M.495 0h393.993v153H.495z"/><g fill="#fff"><path d="M188.027 45.632v-9.777h-40.6v9.777h14.733v35.712h11.134V45.632h14.733zM221.295 64.302c-.204-11.134-7.944-18.059-17.584-18.059-9.913 0-18.06 7.332-18.06 18.059 0 10.795 8.147 18.06 17.992 18.06 7.807 0 13.986-3.463 16.905-10.659l-9.641-1.969c-1.833 3.327-4.752 3.938-7.264 3.938-3.667 0-6.45-2.512-7.333-6.586h24.985v-2.784zm-17.584-9.233c3.123 0 5.838 1.697 6.857 5.363h-14.054c1.018-3.462 4.141-5.363 7.197-5.363zM249.674 71.295c-1.426.815-3.462 1.358-4.956 1.358-2.851 0-4.549-1.425-4.549-4.956V55.884h10.048v-8.623h-10.048V37.213h-10.863v10.048h-6.178v8.623h6.178v12.899c0 8.962 5.092 13.579 13.579 13.579 3.87 0 6.653-1.086 9.301-2.512l-2.512-8.555zM278.936 46.786c-5.567 0-9.301 2.919-11.745 6.993v-6.518h-10.863v34.083h10.863v-10.66c0-8.826 4.141-12.764 11.745-12.764h1.969l.475-10.862c-.814-.204-1.493-.272-2.444-.272zM321.641 47.261h-10.863v2.716c-2.648-2.376-6.178-3.734-10.591-3.734-9.03 0-16.634 7.332-16.634 18.059 0 10.795 7.604 18.06 16.634 18.06 4.413 0 7.943-1.358 10.591-3.734v2.716h10.863V47.261zm-19.214 25.868c-4.752 0-8.215-3.531-8.215-8.827 0-5.227 3.463-8.826 8.215-8.826 4.413 0 8.351 3.599 8.351 8.826 0 5.296-3.938 8.827-8.351 8.827zM188.672 122.445H173.12V86.733h-11.202v45.488h26.754v-9.776zM210.044 97.257c-10.32 0-18.875 7.196-18.875 17.923 0 10.795 8.555 17.992 18.875 17.992 10.116 0 18.67-7.197 18.67-17.992 0-10.727-8.554-17.923-18.67-17.923zm0 26.749c-4.413 0-8.419-3.462-8.419-8.826 0-5.295 4.006-8.826 8.419-8.826 4.209 0 8.215 3.531 8.215 8.826 0 5.364-4.006 8.826-8.215 8.826zM269.45 98.139h-10.659v2.241c-2.444-2.105-5.839-3.259-10.252-3.259-8.894 0-16.43 6.993-16.43 16.43 0 9.641 7.536 16.702 16.43 16.702 4.413 0 7.808-1.155 10.252-3.259v.95c0 5.364-3.53 8.283-8.487 8.283-3.53 0-5.431-1.154-8.011-4.209l-9.03 4.888c3.327 5.499 9.302 8.215 17.109 8.215 11.067 0 19.078-5.771 19.078-16.294V98.139zm-18.603 23.22c-4.752 0-8.147-3.259-8.147-7.808 0-4.549 3.395-7.74 8.147-7.74 4.346 0 7.944 3.191 7.944 7.74s-3.598 7.808-7.944 7.808zM283.368 81.913c-3.666 0-6.246 2.851-6.246 6.178 0 3.462 2.58 6.042 6.246 6.042 3.666 0 6.314-2.58 6.314-6.042 0-3.327-2.648-6.178-6.314-6.178zm5.432 50.308V98.139h-10.863v34.082H288.8zM313.581 123.735c-4.889 0-8.147-3.531-8.147-8.555 0-4.956 3.258-8.554 8.147-8.554 3.462 0 6.246 1.901 7.196 6.042l10.184-2.444c-1.901-8.011-9.097-13.103-17.38-13.103-10.184 0-18.603 7.332-18.603 18.059 0 10.795 8.419 18.06 18.603 18.06 8.486 0 15.683-5.228 17.38-13.307l-9.98-2.173c-1.154 4.142-3.938 5.975-7.4 5.975zM372.444 98.139h-10.863v2.716c-2.648-2.376-6.178-3.734-10.591-3.734-9.03 0-16.634 7.332-16.634 18.059 0 10.795 7.604 18.06 16.634 18.06 4.413 0 7.943-1.358 10.591-3.734v2.715h10.863V98.139zm-19.214 25.867c-4.752 0-8.215-3.53-8.215-8.826 0-5.227 3.463-8.826 8.215-8.826 4.413 0 8.351 3.599 8.351 8.826 0 5.296-3.938 8.826-8.351 8.826z" fill-rule="nonzero"/><path d="M380.32 83.338h10.863v48.883H380.32z"/></g><path d="M95.749 19.157a18.867 18.867 0 00-.596 4.718c0 10.418 8.458 18.876 18.875 18.876 3.437 0 6.661-.921 9.438-2.529v76.92a14.099 14.099 0 00-9.438-3.609c-7.813 0-14.156 6.343-14.156 14.157 0 3.624 1.365 6.932 3.608 9.437H59.592a18.77 18.77 0 002.529-9.437c0-10.418-8.458-18.876-18.875-18.876-10.418 0-18.876 8.458-18.876 18.876 0 3.437.921 6.661 2.529 9.437H14.933V74.976c1.476.522 3.064.807 4.718.807 7.814 0 14.157-6.344 14.157-14.157S27.465 47.47 19.651 47.47c-1.654 0-3.242.284-4.718.806V19.157h80.816z" fill="none"/><clipPath id="a"><path d="M95.749 19.157a18.867 18.867 0 00-.596 4.718c0 10.418 8.458 18.876 18.875 18.876 3.437 0 6.661-.921 9.438-2.529v76.92a14.099 14.099 0 00-9.438-3.609c-7.813 0-14.156 6.343-14.156 14.157 0 3.624 1.365 6.932 3.608 9.437H59.592a18.77 18.77 0 002.529-9.437c0-10.418-8.458-18.876-18.875-18.876-10.418 0-18.876 8.458-18.876 18.876 0 3.437.921 6.661 2.529 9.437H14.933V74.976c1.476.522 3.064.807 4.718.807 7.814 0 14.157-6.344 14.157-14.157S27.465 47.47 19.651 47.47c-1.654 0-3.242.284-4.718.806V19.157h80.816z"/></clipPath><g clip-path="url(#a)" fill="none" stroke="#2d0045"><path d="M19.651 61.626l23.334 66.229 71.043-.165V23.875L19.651 61.626z" stroke-opacity=".62" stroke-width="9.44"/><path d="M114.028 23.875L43.246 127.69" stroke-opacity=".84" stroke-width="6.12"/><path d="M19.651 61.626l94.377 66.064" stroke-opacity=".28" stroke-width="6.12"/></g><g fill="none" stroke-width="9.44"><circle cx="19.834" cy="61.809" r="14.339" stroke="#e100a0"/><circle cx="114.077" cy="127.349" r="14.108" stroke="#a900c0"/><circle cx="43.246" cy="127.69" r="18.875" stroke="#ff1958"/><circle cx="114.028" cy="23.875" r="18.875" stroke="#f56f00"/></g></svg>