<svg viewBox="0 0 450 200" xmlns="http://www.w3.org/2000/svg" fill-rule="evenodd" clip-rule="evenodd" stroke-linejoin="round" stroke-miterlimit="2"><path d="M73.346 124.957l4.57-20.708c1.143-4.856 1.928-9.426 2.785-14.853h.143c.571 5.498 1.357 9.997 2.285 14.853l4.07 20.708h11.783l12.425-48.13h-11.068l-3.928 19.71c-1 5.712-2.07 11.353-2.785 16.709h-.143c-.714-5.356-1.5-10.497-2.57-16.138l-3.856-20.28H75.488l-4.07 19.708c-1.214 5.927-2.356 11.711-3.142 16.924h-.143c-.785-4.856-1.785-11.068-2.856-16.78l-3.642-19.852h-11.64l11.426 48.129h11.925zM144.54 110.96c.143-.785.357-2.427.357-4.284 0-8.64-4.284-17.423-15.567-17.423-12.14 0-17.638 9.783-17.638 18.637 0 10.926 6.784 17.781 18.638 17.781 4.713 0 9.069-.714 12.64-2.142l-1.429-7.355c-2.928.928-5.927 1.428-9.64 1.428-5.07 0-9.497-2.142-9.854-6.641h22.493zm-22.565-7.426c.286-2.927 2.143-7.069 6.713-7.069 4.998 0 6.14 4.427 6.14 7.07h-12.853zM160.322 124.957l.428-4.856h.143c2.5 4.142 6.427 5.641 10.497 5.641 7.998 0 15.996-6.283 15.996-18.851.071-10.712-6.07-17.638-14.425-17.638-4.855 0-8.497 1.928-10.568 4.927h-.143V74.257h-10.854v40.274c0 3.928-.143 8.14-.286 10.426h9.212zm1.928-19.994c0-.714.071-1.357.214-2 .714-3.142 3.428-5.355 6.356-5.355 5.07 0 7.497 4.284 7.497 9.711 0 6.284-2.856 9.854-7.497 9.854-3.142 0-5.642-2.213-6.356-5.14a7.964 7.964 0 01-.214-1.929v-5.141z" fill="#b4b4b4" fill-rule="nonzero"/><path d="M219.448 112.603l3.713 12.354h11.711l-14.924-48.13h-14.282l-14.71 48.13h11.282l3.428-12.354h13.782zm-12.21-8.14l2.855-10.212c.786-2.785 1.5-6.426 2.214-9.283h.143c.714 2.857 1.57 6.427 2.428 9.283l2.999 10.212h-10.64zM241.299 124.743c2.428.357 6.427.714 11.782.714 9.57 0 15.425-1.571 18.924-4.356 2.999-2.428 4.998-5.856 4.998-10.211 0-6.213-4.07-10.355-9.569-11.854v-.143c5.428-2 7.927-5.998 7.927-10.283 0-4.356-2.428-7.64-5.784-9.426-3.5-2.07-7.57-2.713-14.21-2.713-5.428 0-11.212.428-14.068 1v47.272zm10.783-40.06c.928-.143 2.285-.286 4.641-.286 4.927 0 7.712 1.928 7.712 5.57 0 3.57-3.07 5.927-8.783 5.927h-3.57V84.683zm0 18.994h3.713c5.427 0 9.783 1.928 9.783 6.784 0 5.07-4.356 6.927-9.283 6.927-1.857 0-3.142 0-4.213-.143v-13.568zM284.43 124.957h30.063v-9.14h-19.138v-38.99H284.43v48.13zM349.555 95.75h-17.71v-9.996h18.78v-8.926H320.92v48.129h30.706v-8.926h-19.78v-11.425h17.709V95.75zM356.267 76.828v4.784h5.498v14.71h5.927v-14.71h5.57v-4.784h-16.995zm43.702 19.494l-1.071-19.494H390.4l-1.428 4.784c-.5 1.928-.928 3.856-1.428 6.284h-.071c-.5-3.213-.786-4.784-1.143-6.284l-1.285-4.784h-9.14l-1.215 19.494h5.57l.429-8.569c.071-2.213.143-4.927.143-7.57h.357c.428 2.572.928 5.642 1.214 7.499l1.785 8.283h5.641l2-8.212c.5-2.142 1.07-4.927 1.713-7.57h.357c.072 3 0 5.428.072 7.57l.357 8.57h5.641z" fill="#fff" fill-rule="nonzero"/></svg>