<svg xmlns="http://www.w3.org/2000/svg" viewBox="0 0 840.76 349.133" height="349.133" width="840.76" style="fill:#fff"><path d="M401.739 90.368c-1.376 19.777-29.66 14.67-42.976 20.915-12.407 5.818-29.464 13.697-34.019 36.156-3.581 17.664 3.92 34.261 11.501 43.714 7.343 9.155-3.958 22.256-15.321 11.863-23.976-21.93-41.07-57.752-9.655-100.69 31.416-42.94 92.648-43.262 90.47-11.958"/><path d="M347.268 209.748c1.283-18.924 25.553-14.416 38.504-16.45 13.563-2.129 30.739-16.785 35.057-38.278 3.398-16.904-3.808-32.77-11.076-41.801-7.04-8.746 3.75-21.299 14.638-11.375 22.973 20.939 39.388 55.181 9.405 96.31-29.983 41.131-88.56 41.544-86.528 11.594"/><path d="M398.939 131.01c-1.382 10.933-17.467 5.431-25.3 7.68-7.298 2.094-17.327 4.906-20.612 17.042-2.586 9.544 1.225 19.53 5.296 25.525 3.942 5.807-2.939 12.078-9.152 5.203-13.11-14.507-21.854-36.141-2.532-57.22 19.321-21.079 54.486-15.535 52.3 1.77"/><path d="M364.715 167.45c2.404-7.754 10.922-6.7 16.436-5.602 14.065 2.805 18.946-13.493 18.293-17.925-.685-4.636 4.308-8.934 7.177-3.512 4.371 8.254 3.7 24.96-7.412 33.246-17.641 13.156-38.298 6.064-34.494-6.208"/><path d="M34.551 219.797q-3.208 0-5.43-1.974-1.974-2.221-1.974-5.43V92.208q0-3.456 1.975-5.43 2.22-1.974 5.429-1.974 3.455 0 5.43 1.974 1.974 1.974 1.974 5.43v120.187q0 3.208-1.975 5.429-1.974 1.974-5.429 1.974zm-.247-163.375q-4.936 0-8.144-3.208-3.208-3.455-3.208-8.391 0-5.43 3.455-8.391 3.455-2.962 8.144-2.962t7.897 2.962q3.455 2.961 3.455 8.39 0 4.937-3.455 8.392-3.208 3.208-8.144 3.208zM141.658 83.075q18.015 0 32.082 7.404 14.314 7.404 22.211 21.718 8.144 14.067 8.144 33.81v66.387q0 3.208-2.22 5.429-1.975 1.974-5.183 1.974-3.209 0-5.43-1.974-1.974-2.221-1.974-5.43v-66.386q0-23.445-13.327-35.785-13.08-12.34-34.303-12.34-13.08 0-23.939 5.183-10.612 4.936-16.782 14.067-6.17 8.885-6.17 19.744v75.518q0 3.208-1.974 5.429-1.974 1.974-5.429 1.974-3.208 0-5.43-1.974-1.974-2.221-1.974-5.43V92.208q0-3.456 1.975-5.43 2.22-1.974 5.429-1.974 3.455 0 5.43 1.974 1.974 1.974 1.974 5.43v12.833q8.39-10.366 20.483-16.042 12.093-5.923 26.407-5.923zM285.536 204.743q3.455 0 5.43 2.221 2.22 1.975 2.22 5.43 0 3.208-2.22 5.429-1.975 1.974-5.43 1.974h-5.676q-13.574 0-24.186-6.17t-16.535-16.781q-5.922-10.859-5.922-24.432v-69.349h-19.25q-2.962 0-4.936-1.727-1.727-1.975-1.727-4.936t1.727-4.689q1.974-1.974 4.936-1.974h19.25V49.512q0-3.455 1.974-5.43 2.221-2.22 5.43-2.22 3.454 0 5.429 2.22 2.22 1.975 2.22 5.43v40.227h32.577q2.961 0 4.689 1.974 1.974 1.728 1.974 4.689 0 2.961-1.974 4.936-1.728 1.727-4.69 1.727h-32.575v69.349q0 14.313 8.884 23.445 8.885 8.884 22.952 8.884zM555.337 83.322q19.496 0 35.29 9.131 15.795 8.885 24.68 24.68 9.13 15.794 9.13 35.29 0 19.25-9.13 35.045-8.885 15.794-24.68 24.926-15.794 8.884-35.29 8.884-17.522 0-31.836-7.404-14.067-7.65-22.211-20.73v76.999q0 3.455-1.974 5.429-1.975 1.974-5.43 1.974-3.208 0-5.43-1.974-1.973-1.974-1.973-5.43V150.944q.246-19.003 9.378-34.551 9.13-15.548 24.678-24.185 15.795-8.885 34.798-8.885zm0 124.136q15.3 0 27.64-7.157t19.497-19.743q7.156-12.587 7.156-28.135 0-15.547-7.156-28.134-7.157-12.586-19.497-19.743-12.34-7.404-27.64-7.404-15.301 0-27.64 7.404-12.34 7.157-19.497 19.743-6.91 12.587-6.91 28.134 0 15.548 6.91 28.135 7.157 12.586 19.496 19.743 12.34 7.157 27.64 7.157zM653.065 219.797q-3.208 0-5.429-1.974-1.974-2.221-1.974-5.43V92.208q0-3.456 1.974-5.43 2.221-1.974 5.43-1.974 3.454 0 5.429 1.974 1.974 1.974 1.974 5.43v120.187q0 3.208-1.974 5.429-1.975 1.974-5.43 1.974zm-.246-163.375q-4.936 0-8.144-3.208-3.209-3.455-3.209-8.391 0-5.43 3.455-8.391 3.455-2.962 8.144-2.962 4.69 0 7.898 2.962 3.455 2.961 3.455 8.39 0 4.937-3.455 8.392-3.209 3.208-8.144 3.208zM760.265 83.322q19.25 0 35.044 9.131 15.794 8.885 24.679 24.68 9.13 15.794 9.13 35.29v59.97q0 3.209-1.973 5.43-1.975 1.974-5.43 1.974-3.208 0-5.43-1.974-1.974-2.221-1.974-5.43v-19.25q-8.144 13.08-22.457 20.731-14.067 7.404-31.59 7.404-19.496 0-35.29-8.884-15.795-9.132-24.926-24.926-8.884-15.795-8.884-35.045 0-19.496 8.884-35.29 9.131-15.795 24.926-24.68 15.794-9.13 35.29-9.13zm0 124.136q15.3 0 27.64-7.157t19.25-19.743q7.156-12.587 7.156-28.135 0-15.547-7.156-28.134-6.91-12.586-19.25-19.743-12.34-7.404-27.64-7.404-15.301 0-27.64 7.404-12.34 7.157-19.497 19.743-7.157 12.587-7.157 28.134 0 15.548 7.157 28.135 7.157 12.586 19.496 19.743 12.34 7.157 27.64 7.157z"/></svg>