<svg xmlns="http://www.w3.org/2000/svg" viewBox="0 0 806.2 244.1" style="fill:#fff"><path d="M378.8 56.9c-1.4 19.8-29.7 14.7-43 20.9-12.4 5.8-29.5 13.7-34 36.2-3.6 17.7 3.9 34.3 11.5 43.7 7.3 9.2-4 22.3-15.3 11.9-24-21.9-41.1-57.8-9.7-100.7 31.4-43 92.7-43.3 90.5-12M324.3 176.3c1.3-18.9 25.6-14.4 38.5-16.4 13.6-2.1 30.7-16.8 35.1-38.3 3.4-16.9-3.8-32.8-11.1-41.8-7-8.7 3.8-21.3 14.6-11.4 23 20.9 39.4 55.2 9.4 96.3-29.9 41.1-88.5 41.5-86.5 11.6"/><path d="M376 97.5c-1.4 10.9-17.5 5.4-25.3 7.7-7.3 2.1-17.3 4.9-20.6 17-2.6 9.5 1.2 19.5 5.3 25.5 3.9 5.8-2.9 12.1-9.2 5.2-13.1-14.5-21.9-36.1-2.5-57.2 19.3-21 54.5-15.5 52.3 1.8"/><path d="M341.8 134c2.4-7.8 10.9-6.7 16.4-5.6 14.1 2.8 18.9-13.5 18.3-17.9-.7-4.6 4.3-8.9 7.2-3.5 4.4 8.3 3.7 25-7.4 33.2-17.7 13.1-38.3 6.1-34.5-6.2M11.6 186.3a8 8 0 0 1-5.4-2 8 8 0 0 1-2-5.4V58.7c0-2.3.7-4.1 2-5.4a8 8 0 0 1 5.4-2c2.3 0 4.1.7 5.4 2 1.3 1.3 2 3.1 2 5.4v120.2a8 8 0 0 1-2 5.4c-1.3 1.4-3.1 2-5.4 2zM11.4 23a11 11 0 0 1-8.1-3.2C1.1 17.4 0 14.6 0 11.4 0 7.7 1.2 4.9 3.5 3c2.3-2 5-3 8.1-3s5.8 1 7.9 3c2.3 2 3.5 4.8 3.5 8.4A11.48 11.48 0 0 1 11.4 23zm107.3 26.6c12 0 22.7 2.5 32.1 7.4 9.5 4.9 16.9 12.2 22.2 21.7 5.4 9.4 8.1 20.6 8.1 33.8v66.4c0 2.1-.7 3.9-2.2 5.4a7 7 0 0 1-5.2 2 8 8 0 0 1-5.4-2 8 8 0 0 1-2-5.4v-66.4c0-15.6-4.4-27.6-13.3-35.8-8.7-8.2-20.2-12.3-34.3-12.3-8.7 0-16.7 1.7-23.9 5.2-7.1 3.3-12.7 8-16.8 14.1-4.1 5.9-6.2 12.5-6.2 19.7v75.5a8 8 0 0 1-2 5.4c-1.3 1.3-3.1 2-5.4 2a8 8 0 0 1-5.4-2 8 8 0 0 1-2-5.4V58.7c0-2.3.7-4.1 2-5.4a8 8 0 0 1 5.4-2c2.3 0 4.1.7 5.4 2 1.3 1.3 2 3.1 2 5.4v12.8c5.6-6.9 12.4-12.3 20.5-16 8.1-3.9 16.9-5.9 26.4-5.9zm143.9 121.7c2.3 0 4.1.7 5.4 2.2 1.5 1.3 2.2 3.1 2.2 5.4 0 2.1-.7 3.9-2.2 5.4-1.3 1.3-3.1 2-5.4 2h-5.7c-9 0-17.1-2.1-24.2-6.2-7.1-4.1-12.6-9.7-16.5-16.8-3.9-7.2-5.9-15.4-5.9-24.4V69.6H191c-2 0-3.6-.6-4.9-1.7-1.2-1.3-1.7-3-1.7-4.9s.6-3.5 1.7-4.7c1.3-1.3 3-2 4.9-2h19.3V16c0-2.3.7-4.1 2-5.4 1.5-1.5 3.3-2.2 5.4-2.2 2.3 0 4.1.7 5.4 2.2 1.5 1.3 2.2 3.1 2.2 5.4v40.2h32.6c2 0 3.5.7 4.7 2 1.3 1.2 2 2.7 2 4.7s-.7 3.6-2 4.9c-1.2 1.2-2.7 1.7-4.7 1.7h-32.6v69.3c0 9.5 3 17.4 8.9 23.4 5.9 5.9 13.6 8.9 23 8.9l5.4.2zM532.4 49.9c13 0 24.8 3 35.3 9.1a63.74 63.74 0 0 1 24.7 24.7c6.1 10.5 9.1 22.3 9.1 35.3 0 12.8-3 24.5-9.1 35a65.62 65.62 0 0 1-24.7 24.9c-10.5 5.9-22.3 8.9-35.3 8.9-11.7 0-22.3-2.5-31.8-7.4-9.4-5.1-16.8-12-22.2-20.7v77c0 2.3-.7 4.1-2 5.4-1.3 1.3-3.1 2-5.4 2a8 8 0 0 1-5.4-2c-1.3-1.3-2-3.1-2-5.4V117.5c.2-12.7 3.3-24.2 9.4-34.6a64.5 64.5 0 0 1 24.7-24.2c10.4-5.9 22-8.8 34.7-8.8zm0 124.1c10.2 0 19.4-2.4 27.6-7.2s14.7-11.4 19.5-19.7c4.8-8.4 7.2-17.8 7.2-28.1 0-10.4-2.4-19.7-7.2-28.1-4.8-8.4-11.3-15-19.5-19.7-8.2-4.9-17.4-7.4-27.6-7.4-10.2 0-19.4 2.5-27.6 7.4a53.41 53.41 0 0 0-19.5 19.7c-4.6 8.4-6.9 17.8-6.9 28.1 0 10.4 2.3 19.7 6.9 28.1 4.8 8.4 11.3 15 19.5 19.7 8.2 4.8 17.4 7.2 27.6 7.2zm97.7 12.3a8 8 0 0 1-5.4-2 8 8 0 0 1-2-5.4V58.7c0-2.3.7-4.1 2-5.4a8 8 0 0 1 5.4-2c2.3 0 4.1.7 5.4 2 1.3 1.3 2 3.1 2 5.4v120.2a8 8 0 0 1-2 5.4c-1.3 1.4-3.1 2-5.4 2zM629.9 23a11 11 0 0 1-8.1-3.2c-2.1-2.3-3.2-5.1-3.2-8.4 0-3.6 1.2-6.4 3.5-8.4s5-3 8.1-3c3.1 0 5.8 1 7.9 3 2.3 2 3.5 4.8 3.5 8.4 0 3.3-1.2 6.1-3.5 8.4a11.4 11.4 0 0 1-8.2 3.2zm107.4 26.9c12.8 0 24.5 3 35 9.1A63.74 63.74 0 0 1 797 83.7c6.1 10.5 9.1 22.3 9.1 35.3v60a8 8 0 0 1-2 5.4c-1.3 1.3-3.1 2-5.4 2a8 8 0 0 1-5.4-2 8 8 0 0 1-2-5.4v-19.3c-5.4 8.7-12.9 15.6-22.5 20.7-9.4 4.9-19.9 7.4-31.6 7.4-13 0-24.8-3-35.3-8.9A67.6 67.6 0 0 1 677 154c-5.9-10.5-8.9-22.2-8.9-35 0-13 3-24.8 8.9-35.3A65.62 65.62 0 0 1 701.9 59c10.7-6.1 22.4-9.1 35.4-9.1zm0 124.1c10.2 0 19.4-2.4 27.6-7.2 8.2-4.8 14.6-11.4 19.3-19.7 4.8-8.4 7.2-17.8 7.2-28.1 0-10.4-2.4-19.7-7.2-28.1-4.6-8.4-11-15-19.3-19.7-8.2-4.9-17.4-7.4-27.6-7.4-10.2 0-19.4 2.5-27.6 7.4a53.41 53.41 0 0 0-19.5 19.7c-4.8 8.4-7.2 17.8-7.2 28.1 0 10.4 2.4 19.7 7.2 28.1 4.8 8.4 11.3 15 19.5 19.7 8.2 4.8 17.4 7.2 27.6 7.2z"/></svg>