<svg xmlns="http://www.w3.org/2000/svg" viewBox="0 0 440 72" style="fill:#fff"><path d="M52.579 54.434h-5.906V20.579c0-2.672.164-5.93.492-9.774h-.141c-.562 2.274-1.066 3.902-1.511 4.887L28.321 54.434h-2.883L8.212 15.973c-.469-1.031-.973-2.754-1.512-5.168h-.141c.188 2.016.282 5.297.282 9.844v33.785H1.145V4.02H8.95l15.469 35.156c1.172 2.672 1.933 4.688 2.285 6.047h.246c1.172-3.233 1.981-5.296 2.426-6.187L45.161 4.02h7.418v50.414zM69.83 5.531c0 1.079-.375 1.975-1.125 2.69a3.74 3.74 0 0 1-2.672 1.072c-1.054 0-1.945-.346-2.672-1.037-.726-.691-1.09-1.6-1.09-2.725 0-1.007.358-1.88 1.073-2.619.715-.738 1.611-1.107 2.689-1.107s1.981.364 2.707 1.09c.727.726 1.09 1.605 1.09 2.636m-.984 48.903H63.08v-36h5.766v36zM102.832 52.781c-2.789 1.688-6.082 2.531-9.879 2.531-3.281 0-6.228-.756-8.842-2.268-2.613-1.512-4.646-3.65-6.099-6.415-1.453-2.766-2.18-5.871-2.18-9.317 0-5.953 1.705-10.734 5.115-14.343s7.951-5.415 13.623-5.415c3.141 0 5.918.61 8.332 1.829v5.906c-2.695-1.875-5.554-2.813-8.578-2.813-3.726 0-6.756 1.331-9.088 3.991-2.332 2.66-3.498 6.099-3.498 10.318 0 4.196 1.108 7.513 3.323 9.949 2.214 2.438 5.185 3.656 8.912 3.656 3.14 0 6.093-1.031 8.859-3.093v5.484zM128.38 24.27c-1.031-.773-2.496-1.16-4.395-1.16-2.554 0-4.628 1.201-6.222 3.603-1.594 2.403-2.391 5.526-2.391 9.37v18.351h-5.765v-36h5.765v7.418h.141c.797-2.484 2.027-4.447 3.691-5.889 1.664-1.441 3.574-2.162 5.731-2.162 1.5 0 2.648.164 3.445.492v5.977zM164.474 36.293c0 5.719-1.623 10.318-4.869 13.799-3.246 3.48-7.599 5.222-13.06 5.222-5.321 0-9.569-1.693-12.745-5.08-3.175-3.388-4.763-7.847-4.763-13.377 0-5.954 1.629-10.658 4.886-14.116 3.258-3.457 7.747-5.185 13.465-5.185 5.344 0 9.528 1.67 12.551 5.01 3.024 3.338 4.535 7.915 4.535 13.727m-5.906.211c0-4.523-1.002-7.992-3.006-10.406-2.004-2.414-4.869-3.621-8.596-3.621-3.703 0-6.632 1.236-8.789 3.709-2.156 2.473-3.234 5.959-3.234 10.459 0 4.312 1.084 7.681 3.252 10.107s5.092 3.639 8.771 3.639c3.75 0 6.622-1.195 8.614-3.586 1.992-2.391 2.988-5.824 2.988-10.301M191.113 44.801c0 3.117-1.201 5.648-3.604 7.594-2.402 1.946-5.595 2.918-9.58 2.918-3.398 0-6.375-.727-8.929-2.18v-6.187c2.836 2.297 5.953 3.444 9.351 3.444 4.571 0 6.856-1.675 6.856-5.027 0-1.358-.446-2.467-1.336-3.322-.891-.855-2.918-2.009-6.082-3.463-3.188-1.359-5.438-2.818-6.75-4.377-1.313-1.558-1.969-3.626-1.969-6.205 0-2.976 1.195-5.461 3.586-7.453s5.426-2.988 9.105-2.988c2.836 0 5.403.562 7.7 1.687v5.801c-2.344-1.71-5.063-2.566-8.157-2.566-1.898 0-3.427.469-4.587 1.406-1.161.938-1.741 2.145-1.741 3.621 0 1.594.446 2.818 1.336 3.674.891.856 2.731 1.869 5.52 3.041 3.422 1.454 5.824 2.978 7.207 4.57 1.383 1.595 2.074 3.598 2.074 6.012M230.302 36.293c0 5.719-1.623 10.318-4.869 13.799s-7.599 5.222-13.06 5.222c-5.321 0-9.569-1.693-12.745-5.08-3.175-3.388-4.763-7.847-4.763-13.377 0-5.954 1.629-10.658 4.886-14.116 3.258-3.457 7.747-5.185 13.465-5.185 5.344 0 9.528 1.67 12.551 5.01 3.023 3.338 4.535 7.915 4.535 13.727m-5.906.211c0-4.523-1.002-7.992-3.006-10.406-2.004-2.414-4.869-3.621-8.596-3.621-3.703 0-6.632 1.236-8.789 3.709-2.156 2.473-3.234 5.959-3.234 10.459 0 4.312 1.084 7.681 3.252 10.107s5.092 3.639 8.771 3.639c3.75 0 6.622-1.195 8.614-3.586 1.991-2.391 2.988-5.824 2.988-10.301M253.775 6.199c-1.125-.633-2.402-.949-3.832-.949-4.031 0-6.047 2.543-6.047 7.629v5.554h8.438v4.887h-8.438v31.113h-5.766V23.32h-6.117v-4.887h6.117v-5.836c0-3.656 1.078-6.609 3.234-8.859s4.898-3.375 8.227-3.375c1.758 0 3.152.211 4.184.633v5.203z"/><path d="M273.277 54.082c-1.383.773-3.188 1.16-5.414 1.16-6.281 0-9.422-3.538-9.422-10.617V23.32h-6.188v-4.886h6.188v-8.79l5.766-1.863v10.653h9.07v4.886h-9.07v20.321c0 2.414.41 4.13 1.23 5.149.819 1.021 2.191 1.529 4.113 1.529 1.43 0 2.672-.386 3.727-1.16v4.923zM321.35 54.434h-26.719V4.02h25.558v5.344h-19.652v16.769h18.211v5.344h-18.211V49.09h20.813zM358.781 54.434h-5.766v-6.117h-.141c-2.673 4.664-6.797 6.996-12.375 6.996-4.547 0-8.168-1.635-10.863-4.904s-4.043-7.634-4.043-13.096c0-5.953 1.494-10.734 4.482-14.344 2.988-3.608 6.99-5.414 12.006-5.414 4.922 0 8.52 1.946 10.793 5.836h.141V1.136h5.766v53.298zm-5.765-16.278v-5.309c0-2.976-.99-5.449-2.971-7.418-1.98-1.968-4.389-2.953-7.225-2.953-3.469 0-6.223 1.284-8.262 3.85-2.039 2.566-3.059 6.123-3.059 10.67 0 4.125.961 7.389 2.883 9.791 1.922 2.403 4.512 3.604 7.77 3.604 3.164 0 5.766-1.148 7.805-3.445 2.038-2.298 3.059-5.226 3.059-8.79M398.954 51.552c0 13.194-6.328 19.793-18.984 19.793-4.406 0-8.298-.833-11.673-2.497v-5.766c4.032 2.25 7.888 3.375 11.567 3.375 8.883 0 13.324-4.698 13.324-14.098v-3.973h-.142c-2.741 4.618-6.866 6.926-12.375 6.926-2.905 0-5.495-.727-7.769-2.179-2.274-1.454-4.031-3.528-5.274-6.224-1.241-2.694-1.862-5.801-1.862-9.315 0-6.141 1.494-11.016 4.482-14.626 2.988-3.608 6.99-5.414 12.005-5.414 4.853 0 8.45 1.946 10.793 5.836h.142v-4.957h5.766v33.119zm-5.766-13.396v-5.309c0-2.905-.996-5.361-2.988-7.365s-4.371-3.006-7.137-3.006c-3.586 0-6.381 1.301-8.385 3.903-2.004 2.601-3.007 6.222-3.007 10.863 0 3.938.962 7.114 2.884 9.527 1.922 2.414 4.487 3.621 7.698 3.621 3.212 0 5.837-1.143 7.875-3.427 2.04-2.285 3.06-5.221 3.06-8.807M437.334 37.875h-25.418c.094 4.056 1.166 7.154 3.217 9.3 2.051 2.144 4.893 3.216 8.524 3.216 4.079 0 7.794-1.313 11.146-3.938v5.379c-3.141 2.32-7.313 3.48-12.516 3.48-5.133 0-9.141-1.657-12.023-4.974-2.883-3.317-4.324-7.905-4.324-13.765 0-3.563.721-6.815 2.162-9.756s3.428-5.221 5.959-6.838c2.531-1.617 5.344-2.426 8.438-2.426 4.664 0 8.303 1.518 10.916 4.553 2.613 3.036 3.92 7.283 3.92 12.744v3.025zm-5.906-4.887c-.047-3.328-.85-5.912-2.408-7.752s-3.756-2.76-6.592-2.76c-2.672 0-4.957.962-6.855 2.883-1.898 1.922-3.094 4.465-3.586 7.629h19.441z"/></svg>