<svg viewBox="0 0 107 105" xmlns="http://www.w3.org/2000/svg" style="fill-rule:evenodd;clip-rule:evenodd;stroke-linejoin:round;stroke-miterlimit:2"><g><rect width="106.103" height="104.64" style="fill:#ffe400"/></g><path d="M50.89,54.219L50.82,54.219C50.241,53.426 49.435,52.825 48.509,52.498C47.532,52.156 46.502,51.985 45.467,51.994C44.262,51.994 43.184,52.243 42.234,52.742C41.296,53.229 40.473,53.91 39.819,54.74C39.145,55.599 38.627,56.569 38.289,57.607C37.928,58.7 37.746,59.845 37.751,60.996C37.751,62.271 37.947,63.441 38.341,64.508C38.735,65.575 39.297,66.494 40.027,67.272C40.757,68.048 41.631,68.651 42.651,69.08C43.671,69.509 44.807,69.723 46.058,69.723C46.637,69.723 47.199,69.642 47.744,69.48C48.264,69.328 48.765,69.118 49.239,68.855C49.665,68.619 50.062,68.332 50.42,68.002C50.756,67.689 51.028,67.383 51.237,67.081L51.307,67.081L51.307,69.306L56.104,69.306L56.104,43.028L50.89,43.028L50.89,54.219ZM23.986,44.695L20.614,44.695L19.641,51.682L16.2,51.682L17.174,44.695L13.801,44.695L12.828,51.682L9.491,51.682L9.491,54.811L12.411,54.811L11.82,59.19L8.483,59.19L8.483,62.319L11.403,62.319L10.43,69.305L13.801,69.305L14.775,62.319L18.216,62.319L17.242,69.305L20.614,69.305L21.588,62.319L24.925,62.319L24.925,59.19L22.005,59.19L22.596,54.811L25.932,54.811L25.932,51.682L23.012,51.682L23.986,44.695ZM29.409,52.411L34.622,52.411L34.622,69.305L29.409,69.305L29.409,52.411ZM60.55,32.505L60.55,69.305L65.593,69.305L65.593,65.513L72.516,59.295C72.868,58.977 73.22,58.615 73.572,58.212C73.925,57.81 74.101,57.34 74.101,56.803C74.101,56.199 73.883,55.725 73.447,55.38C73.01,55.036 72.467,54.854 71.911,54.864C71.206,54.864 70.657,55.083 70.262,55.519C69.868,55.955 69.646,56.492 69.596,57.129L65.82,56.852C65.87,55.93 66.063,55.128 66.399,54.45C66.716,53.794 67.171,53.214 67.733,52.75C68.31,52.285 68.972,51.939 69.683,51.73C70.472,51.498 71.291,51.383 72.113,51.39C72.918,51.39 73.674,51.504 74.378,51.73C75.051,51.94 75.676,52.283 76.216,52.737C76.736,53.181 77.143,53.74 77.437,54.411C77.73,55.083 77.877,55.863 77.877,56.752C77.877,57.323 77.818,57.84 77.7,58.301C77.583,58.762 77.42,59.181 77.21,59.56C77,59.936 76.752,60.286 76.467,60.604C76.182,60.923 75.872,61.234 75.536,61.536L70.124,66.192L78.028,66.192L78.028,69.305L87.644,69.305L87.644,65.94L79.865,65.94L79.865,62.769L87.14,51.693L91.268,51.693L91.268,62.769L93.559,62.769L93.559,65.94L91.268,65.94L91.268,69.305L97.35,69.305L97.35,32.505L60.55,32.505ZM50.212,63.953C49.483,64.741 48.456,65.134 47.136,65.134C45.815,65.134 44.79,64.741 44.059,63.953C43.329,63.165 42.965,62.134 42.965,60.859C42.965,59.584 43.329,58.553 44.059,57.766C44.79,56.977 45.815,56.582 47.136,56.582C48.456,56.582 49.483,56.977 50.212,57.766C50.942,58.553 51.307,59.584 51.307,60.859C51.307,62.134 50.942,63.164 50.212,63.953ZM83.641,62.769L87.643,62.769L87.643,56.627L87.594,56.627L83.641,62.769ZM18.633,59.19L15.192,59.19L15.783,54.811L19.224,54.811L18.633,59.19ZM32.016,44.069C31.182,44.069 30.469,44.365 29.878,44.956C29.301,45.516 28.98,46.29 28.992,47.094C28.992,47.929 29.287,48.641 29.878,49.232C30.469,49.823 31.182,50.119 32.016,50.119C32.85,50.119 33.563,49.823 34.154,49.232C34.732,48.673 35.053,47.898 35.04,47.094C35.04,46.26 34.745,45.548 34.154,44.956C33.594,44.378 32.82,44.057 32.016,44.069Z" style="fill:#282828;fill-rule:nonzero"/></svg>