<svg viewBox="0 0 450 200" xmlns="http://www.w3.org/2000/svg" fill-rule="evenodd" clip-rule="evenodd" stroke-linejoin="round" stroke-miterlimit="2"><g><circle cx="208.362" cy="100" r="80.858" style="fill:#fff;fill-opacity:0.3;"/><path d="M168.123,97.622l-1.97,-6.466l-9.903,0l-1.969,6.466l-6.206,-0l9.587,-27.275l7.042,-0l9.624,27.275l-6.205,-0Zm-3.345,-11.297c-1.821,-5.858 -2.849,-9.172 -3.084,-9.94c-0.223,-0.768 -0.384,-1.374 -0.483,-1.82c-0.409,1.585 -1.579,5.505 -3.511,11.76l7.078,0Zm30.924,3.753c0,2.453 -0.885,4.385 -2.657,5.797c-1.759,1.412 -4.211,2.118 -7.357,2.118c-2.899,0 -5.463,-0.545 -7.692,-1.634l-0,-5.351c1.833,0.817 3.381,1.393 4.645,1.727c1.275,0.335 2.44,0.502 3.493,0.502c1.263,-0 2.229,-0.241 2.898,-0.724c0.681,-0.484 1.022,-1.202 1.022,-2.156c0,-0.532 -0.149,-1.003 -0.446,-1.412c-0.297,-0.421 -0.737,-0.824 -1.319,-1.207c-0.57,-0.384 -1.74,-0.998 -3.512,-1.84c-1.659,-0.78 -2.904,-1.53 -3.734,-2.248c-0.83,-0.718 -1.493,-1.554 -1.988,-2.508c-0.496,-0.954 -0.743,-2.069 -0.743,-3.344c-0,-2.404 0.811,-4.292 2.434,-5.667c1.635,-1.375 3.889,-2.063 6.763,-2.063c1.412,0 2.755,0.168 4.031,0.502c1.288,0.334 2.632,0.805 4.032,1.412l-1.858,4.478c-1.449,-0.595 -2.651,-1.01 -3.604,-1.245c-0.942,-0.235 -1.871,-0.353 -2.787,-0.353c-1.09,-0 -1.926,0.254 -2.509,0.762c-0.582,0.507 -0.873,1.17 -0.873,1.988c0,0.508 0.118,0.953 0.353,1.337c0.236,0.372 0.607,0.737 1.115,1.097c0.52,0.346 1.74,0.978 3.66,1.895c2.539,1.214 4.28,2.434 5.221,3.66c0.941,1.214 1.412,2.706 1.412,4.477Zm22.86,0c0,2.453 -0.885,4.385 -2.656,5.797c-1.759,1.412 -4.212,2.118 -7.358,2.118c-2.898,0 -5.462,-0.545 -7.692,-1.634l0,-5.351c1.833,0.817 3.382,1.393 4.645,1.727c1.276,0.335 2.44,0.502 3.493,0.502c1.263,-0 2.229,-0.241 2.898,-0.724c0.682,-0.484 1.022,-1.202 1.022,-2.156c0,-0.532 -0.148,-1.003 -0.446,-1.412c-0.297,-0.421 -0.737,-0.824 -1.319,-1.207c-0.57,-0.384 -1.74,-0.998 -3.511,-1.84c-1.66,-0.78 -2.905,-1.53 -3.735,-2.248c-0.83,-0.718 -1.492,-1.554 -1.988,-2.508c-0.495,-0.954 -0.743,-2.069 -0.743,-3.344c0,-2.404 0.811,-4.292 2.434,-5.667c1.635,-1.375 3.889,-2.063 6.763,-2.063c1.412,0 2.756,0.168 4.032,0.502c1.288,0.334 2.632,0.805 4.031,1.412l-1.858,4.478c-1.449,-0.595 -2.65,-1.01 -3.604,-1.245c-0.941,-0.235 -1.87,-0.353 -2.787,-0.353c-1.09,-0 -1.926,0.254 -2.508,0.762c-0.582,0.507 -0.873,1.17 -0.873,1.988c-0,0.508 0.117,0.953 0.353,1.337c0.235,0.372 0.607,0.737 1.114,1.097c0.521,0.346 1.741,0.978 3.661,1.895c2.539,1.214 4.279,2.434 5.22,3.66c0.942,1.214 1.412,2.706 1.412,4.477Zm6.827,7.544l-0,-27.164l5.759,0l0,27.164l-5.759,-0Zm30.533,-7.544c0,2.453 -0.886,4.385 -2.657,5.797c-1.758,1.412 -4.211,2.118 -7.357,2.118c-2.898,0 -5.463,-0.545 -7.692,-1.634l-0,-5.351c1.833,0.817 3.381,1.393 4.645,1.727c1.276,0.335 2.44,0.502 3.493,0.502c1.263,-0 2.229,-0.241 2.898,-0.724c0.681,-0.484 1.022,-1.202 1.022,-2.156c-0,-0.532 -0.149,-1.003 -0.446,-1.412c-0.297,-0.421 -0.737,-0.824 -1.319,-1.207c-0.57,-0.384 -1.74,-0.998 -3.512,-1.84c-1.659,-0.78 -2.904,-1.53 -3.734,-2.248c-0.83,-0.718 -1.493,-1.554 -1.988,-2.508c-0.496,-0.954 -0.743,-2.069 -0.743,-3.344c-0,-2.404 0.811,-4.292 2.434,-5.667c1.635,-1.375 3.889,-2.063 6.763,-2.063c1.412,0 2.756,0.168 4.031,0.502c1.289,0.334 2.632,0.805 4.032,1.412l-1.858,4.478c-1.449,-0.595 -2.651,-1.01 -3.604,-1.245c-0.942,-0.235 -1.871,-0.353 -2.787,-0.353c-1.09,-0 -1.926,0.254 -2.508,0.762c-0.583,0.507 -0.874,1.17 -0.874,1.988c0,0.508 0.118,0.953 0.353,1.337c0.236,0.372 0.607,0.737 1.115,1.097c0.52,0.346 1.74,0.978 3.66,1.895c2.54,1.214 4.28,2.434 5.221,3.66c0.941,1.214 1.412,2.706 1.412,4.477Zm17.305,7.544l-5.76,-0l0,-22.37l-7.375,0l-0,-4.794l20.511,0l0,4.794l-7.376,0l0,22.37Zm13.459,-0l0,-27.164l5.76,0l-0,27.164l-5.76,-0Zm29.995,-27.164l5.815,0l-9.234,27.164l-6.279,-0l-9.216,-27.164l5.816,0l5.109,16.165c0.285,0.953 0.576,2.068 0.873,3.344c0.31,1.263 0.502,2.143 0.576,2.638c0.136,-1.139 0.6,-3.133 1.394,-5.982l5.146,-16.165Z" style="fill:#fff;fill-rule:nonzero;"/><path d="M225.394,140.429l-0,-27.163l5.759,-0l0,22.407l11.018,-0l-0,4.756l-16.777,0Zm40.046,0l-1.969,-6.466l-9.903,0l-1.97,6.466l-6.205,0l9.587,-27.275l7.041,0l9.625,27.275l-6.206,0Zm-3.344,-11.296c-1.821,-5.859 -2.849,-9.172 -3.084,-9.94c-0.223,-0.768 -0.384,-1.375 -0.484,-1.821c-0.408,1.585 -1.579,5.506 -3.511,11.761l7.079,-0Zm14.889,-15.867l8.454,-0c3.852,-0 6.645,0.551 8.379,1.653c1.747,1.09 2.62,2.831 2.62,5.221c0,1.623 -0.384,2.954 -1.152,3.995c-0.755,1.04 -1.765,1.666 -3.028,1.876l-0,0.186c1.721,0.384 2.96,1.103 3.716,2.155c0.768,1.053 1.152,2.453 1.152,4.199c-0,2.478 -0.898,4.41 -2.694,5.797c-1.784,1.387 -4.212,2.081 -7.284,2.081l-10.163,0l0,-27.163Zm5.76,10.757l3.344,0c1.561,0 2.688,-0.241 3.382,-0.724c0.706,-0.483 1.059,-1.282 1.059,-2.397c-0,-1.04 -0.384,-1.784 -1.152,-2.229c-0.756,-0.459 -1.957,-0.688 -3.604,-0.688l-3.029,0l-0,6.038Zm-0,4.571l-0,7.079l3.753,-0c1.585,-0 2.756,-0.304 3.512,-0.911c0.755,-0.607 1.133,-1.535 1.133,-2.787c-0,-2.254 -1.61,-3.381 -4.831,-3.381l-3.567,-0Zm37.741,4.292c0,2.452 -0.884,4.385 -2.656,5.797c-1.757,1.412 -4.212,2.118 -7.357,2.118c-2.898,-0 -5.462,-0.545 -7.692,-1.635l0,-5.351c1.833,0.817 3.382,1.393 4.645,1.728c1.276,0.334 2.44,0.501 3.493,0.501c1.263,0 2.231,-0.241 2.899,-0.724c0.68,-0.483 1.02,-1.202 1.02,-2.156c0,-0.532 -0.147,-1.003 -0.444,-1.411c-0.298,-0.422 -0.738,-0.824 -1.32,-1.208c-0.569,-0.384 -1.739,-0.997 -3.511,-1.84c-1.66,-0.78 -2.905,-1.529 -3.735,-2.248c-0.83,-0.718 -1.492,-1.554 -1.988,-2.508c-0.495,-0.954 -0.743,-2.069 -0.743,-3.344c0,-2.403 0.811,-4.292 2.434,-5.667c1.635,-1.375 3.889,-2.062 6.763,-2.062c1.412,-0 2.756,0.167 4.031,0.501c1.289,0.335 2.632,0.805 4.033,1.412l-1.857,4.478c-1.451,-0.594 -2.652,-1.009 -3.606,-1.245c-0.941,-0.235 -1.871,-0.353 -2.787,-0.353c-1.089,0 -1.926,0.254 -2.508,0.762c-0.582,0.508 -0.873,1.17 -0.873,1.988c-0,0.508 0.117,0.954 0.353,1.338c0.235,0.371 0.607,0.737 1.114,1.096c0.52,0.347 1.74,0.978 3.66,1.895c2.54,1.214 4.28,2.434 5.222,3.66c0.942,1.214 1.41,2.706 1.41,4.478Z" style="fill:#fff;fill-rule:nonzero;"/></g></svg>