<?xml version="1.0" encoding="UTF-8" standalone="no"?>
<!DOCTYPE svg PUBLIC "-//W3C//DTD SVG 1.1//EN" "http://www.w3.org/Graphics/SVG/1.1/DTD/svg11.dtd">
<svg width="100%" height="100%" viewBox="0 0 450 200" version="1.1" xmlns="http://www.w3.org/2000/svg" xmlns:xlink="http://www.w3.org/1999/xlink" xml:space="preserve" xmlns:serif="http://www.serif.com/" style="fill-rule:evenodd;clip-rule:evenodd;stroke-linejoin:round;stroke-miterlimit:2;">
    <path d="M92.996,117.961l0,5.211l4.675,-0l-0,-5.211c-0,-6.328 1.971,-9.306 19.965,-9.306l10.195,0c-3.801,14.311 -16.886,24.864 -32.459,24.864c-15.572,0 -28.762,-10.642 -32.498,-25.042l29.267,-0l-0,-4.655l-30.124,0c-0.141,-1.226 -0.211,-2.477 -0.211,-3.738c0,-1.26 0.07,-2.509 0.211,-3.738l10.962,0c9.47,0 14.833,-0.759 18.504,-2.616c4.181,-2.112 6.132,-5.721 6.132,-11.344l0,-5.215l-4.674,0l-0,5.215c-0,6.324 -1.972,9.306 -19.962,9.306l-10.107,-0c3.738,-14.398 16.87,-25.038 32.503,-25.038c15.632,0 28.873,10.721 32.548,25.21l-29.453,-0l-0,4.655l30.281,-0c0.126,1.172 0.193,2.358 0.193,3.563c-0,1.327 -0.078,2.628 -0.231,3.914l-11.079,0c-16.342,0 -24.64,2.159 -24.64,13.961l0.002,0.004Z" style="fill:#f16e00;fill-rule:nonzero;"/>
    <path d="M140.71,84.489l10.469,0c5.257,0 10.05,1.576 10.05,7.739c-0,3.058 -1.768,5.19 -4.281,6.488c3.49,0.88 5.863,3.289 5.863,7.368c-0,6.024 -4.188,9.221 -11.911,9.221l-10.19,0l0,-30.816Zm5.677,16.775l-0,9.685l4.373,-0c4.559,-0 6.048,-2.085 6.048,-4.912c0,-3.105 -2.14,-4.773 -5.815,-4.773l-4.606,0Zm-0,-12.512l-0,8.388l3.443,0c4,0 5.629,-1.854 5.629,-4.309c0,-3.337 -2.28,-4.079 -5.303,-4.079l-3.769,0Z" style="fill:#fff;fill-rule:nonzero;"/>
    <path d="M186.543,92.924l0,17.932l0.419,4.449l-4.793,0l-0.325,-2.457l-0.186,-0.045c-1.443,2.085 -3.815,3.104 -6.374,3.104c-6.561,0 -9.119,-4.633 -9.119,-11.26c-0,-8.156 4.093,-13.346 12.096,-13.346c1.536,-0 4.932,0.371 8.282,1.623Zm-5.49,15.013l0,-12.002c-0.698,-0.324 -2.047,-0.602 -3.489,-0.602c-4.421,0 -5.91,4.124 -5.91,9.129c0,3.845 0.931,7.507 4.839,7.507c2.885,-0 4.56,-2.039 4.56,-4.032Z" style="fill:#fff;fill-rule:nonzero;"/>
    <path d="M197.993,100.661l0,14.644l-5.536,0l-0,-19.555l-0.419,-3.753l4.559,-0l0.559,3.382c1.023,-2.641 3.303,-4.078 5.63,-4.078c1.396,-0 2.699,0.325 3.722,0.927l-0.977,4.68c-1.024,-0.556 -2.094,-0.927 -3.304,-0.927c-2.512,0 -4.141,1.993 -4.234,4.68Z" style="fill:#fff;fill-rule:nonzero;"/>
    <path d="M215.032,100.661l0,14.644l-5.536,0l-0,-19.555l-0.419,-3.753l4.559,-0l0.559,3.382c1.023,-2.641 3.303,-4.078 5.63,-4.078c1.396,-0 2.699,0.325 3.722,0.927l-0.977,4.68c-1.024,-0.556 -2.094,-0.927 -3.304,-0.927c-2.512,0 -4.141,1.993 -4.234,4.68Z" style="fill:#fff;fill-rule:nonzero;"/>
    <path d="M232.071,115.305l-5.536,0l-0,-23.308l5.536,-0l0,23.308Zm-6.001,-29.981c-0,-1.715 1.303,-3.105 3.21,-3.105c1.907,0 3.21,1.39 3.21,3.105c0,1.761 -1.349,3.058 -3.21,3.058c-1.954,0 -3.21,-1.297 -3.21,-3.058Z" style="fill:#fff;fill-rule:nonzero;"/>
    <path d="M247.943,91.301c4.56,-0 7.398,2.318 7.398,6.442c-0,7.136 -8.887,8.063 -13.167,8.109c0.186,3.012 1.907,5.931 5.862,5.931c2.745,-0 4.746,-1.251 5.863,-2.039l1.721,3.661c-0.744,0.648 -3.815,2.595 -8.189,2.595c-7.676,0 -10.841,-4.912 -10.841,-11.863c0,-6.812 3.956,-12.836 11.353,-12.836Zm2.466,6.673c0,-1.715 -1.117,-2.734 -2.792,-2.734c-3.722,0 -5.489,3.615 -5.629,7.043c2.512,0.047 8.421,-0.741 8.421,-4.309Z" style="fill:#fff;fill-rule:nonzero;"/>
    <path d="M264.921,100.661l-0,14.644l-5.537,0l0,-19.555l-0.419,-3.753l4.56,-0l0.559,3.382c1.023,-2.641 3.303,-4.078 5.63,-4.078c1.395,-0 2.698,0.325 3.721,0.927l-0.977,4.68c-1.023,-0.556 -2.094,-0.927 -3.302,-0.927c-2.513,0 -4.142,1.993 -4.235,4.68Z" style="fill:#fff;fill-rule:nonzero;"/>
    <path d="M276.866,84.092l10.593,0c5.321,0 10.171,1.595 10.171,7.832c-0,3.095 -1.789,5.252 -4.332,6.565c3.532,0.891 5.933,3.329 5.933,7.456c-0,6.097 -4.238,9.332 -12.054,9.332l-10.311,0l-0,-31.185Zm5.744,16.977l0,9.8l4.425,-0c4.615,-0 6.121,-2.11 6.121,-4.971c0,-3.142 -2.165,-4.829 -5.885,-4.829l-4.661,-0Zm0,-12.662l0,8.488l3.484,-0c4.049,-0 5.697,-1.876 5.697,-4.361c0,-3.377 -2.307,-4.127 -5.367,-4.127l-3.814,-0Z" style="fill:#fff;fill-rule:nonzero;"/>
    <path d="M309.546,100.458l0,14.819l-5.604,0l0,-19.789l-0.423,-3.798l4.615,0l0.564,3.423c1.036,-2.673 3.344,-4.127 5.697,-4.127c1.413,-0 2.731,0.329 3.768,0.938l-0.989,4.736c-1.036,-0.563 -2.119,-0.938 -3.343,-0.938c-2.543,0 -4.191,2.017 -4.285,4.736Z" style="fill:#fff;fill-rule:nonzero;"/>
    <path d="M330.436,90.986c4.614,-0 7.486,2.345 7.486,6.519c-0,7.221 -8.993,8.159 -13.325,8.206c0.188,3.048 1.931,6.002 5.933,6.002c2.777,-0 4.802,-1.266 5.932,-2.063l1.742,3.705c-0.753,0.656 -3.861,2.626 -8.287,2.626c-7.769,-0 -10.971,-4.971 -10.971,-12.006c0,-6.893 4.003,-12.989 11.49,-12.989Zm2.495,6.753c-0,-1.736 -1.13,-2.767 -2.825,-2.767c-3.767,0 -5.556,3.658 -5.697,7.128c2.543,0.047 8.522,-0.75 8.522,-4.361Z" style="fill:#fff;fill-rule:nonzero;"/>
    <path d="M361.32,92.628l-0,18.147l0.424,4.502l-4.85,0l-0.33,-2.486l-0.188,-0.046c-1.46,2.111 -3.861,3.142 -6.45,3.142c-6.639,-0 -9.229,-4.689 -9.229,-11.395c0,-8.254 4.143,-13.506 12.242,-13.506c1.553,-0 4.991,0.375 8.381,1.642Zm-5.557,15.193l0,-12.145c-0.706,-0.328 -2.071,-0.61 -3.53,-0.61c-4.474,0 -5.981,4.173 -5.981,9.238c0,3.892 0.943,7.597 4.897,7.597c2.919,0 4.614,-2.063 4.614,-4.08Z" style="fill:#fff;fill-rule:nonzero;"/>
    <path d="M372.765,82.686l0,23.4l0.236,0l8.522,-14.396l5.886,0l-6.404,10.504l6.215,13.083l-5.932,0l-4.002,-8.441l-5.133,8.441l-4.896,0l-0,-32.591l5.508,-0Z" style="fill:#fff;fill-rule:nonzero;"/>
</svg>
