<svg viewBox="0 0 450 200" xmlns="http://www.w3.org/2000/svg" fill-rule="evenodd" clip-rule="evenodd" stroke-linejoin="round" stroke-miterlimit="2"><path d="M150.259,124.243l-0,7.068l6.34,0l-0,-7.068c-0,-8.582 2.674,-12.621 27.08,-12.621l13.828,0c-5.155,19.41 -22.903,33.724 -44.025,33.724c-21.121,0 -39.011,-14.435 -44.079,-33.966l39.696,0l0,-6.313l-40.858,-0c-0.191,-1.664 -0.286,-3.36 -0.286,-5.07c-0,-1.71 0.095,-3.403 0.286,-5.07l14.868,0c12.845,0 20.119,-1.03 25.097,-3.549c5.672,-2.865 8.318,-7.759 8.318,-15.386l-0,-7.073l-6.34,0l-0,7.073c-0,8.577 -2.675,12.622 -27.075,12.622l-13.709,-0c5.071,-19.528 22.882,-33.96 44.085,-33.96c21.203,-0 39.162,14.541 44.146,34.193l-39.948,-0l-0,6.314l41.072,-0c0.171,1.589 0.261,3.198 0.261,4.833c-0,1.8 -0.105,3.564 -0.313,5.309l-15.027,-0c-22.165,-0 -33.42,2.928 -33.42,18.935l0.003,0.005Z" style="fill:#f16e00;fill-rule:nonzero;"/><path d="M212.163,64.176l10.244,0c5.145,0 9.835,1.542 9.835,7.573c-0,2.993 -1.73,5.079 -4.189,6.349c3.415,0.861 5.737,3.219 5.737,7.21c-0,5.895 -4.098,9.024 -11.656,9.024l-9.971,-0l-0,-30.156Zm5.555,16.416l-0,9.477l4.279,0c4.462,0 5.919,-2.04 5.919,-4.807c0,-3.038 -2.094,-4.67 -5.691,-4.67l-4.507,-0Zm-0,-12.244l-0,8.208l3.369,0c3.915,0 5.509,-1.814 5.509,-4.217c-0,-3.265 -2.231,-3.991 -5.19,-3.991l-3.688,0Z" style="fill:#f4f4f4;fill-rule:nonzero;"/><path d="M257.014,72.43l0,17.548l0.41,4.354l-4.69,-0l-0.318,-2.404l-0.182,-0.045c-1.412,2.041 -3.734,3.038 -6.238,3.038c-6.42,0 -8.924,-4.534 -8.924,-11.019c-0,-7.981 4.006,-13.06 11.837,-13.06c1.503,0 4.827,0.363 8.105,1.588Zm-5.372,14.692l-0,-11.745c-0.683,-0.317 -2.004,-0.589 -3.415,-0.589c-4.326,-0 -5.783,4.035 -5.783,8.933c0,3.763 0.911,7.346 4.735,7.346c2.823,-0 4.463,-1.995 4.463,-3.945Z" style="fill:#f4f4f4;fill-rule:nonzero;"/><path d="M268.219,80.002l0,14.33l-5.418,-0l-0,-19.136l-0.41,-3.673l4.462,-0l0.547,3.31c1.001,-2.585 3.232,-3.991 5.509,-3.991c1.366,0 2.641,0.318 3.642,0.907l-0.956,4.58c-1.002,-0.544 -2.049,-0.907 -3.233,-0.907c-2.458,0 -4.052,1.95 -4.143,4.58Z" style="fill:#f4f4f4;fill-rule:nonzero;"/><path d="M284.893,80.002l0,14.33l-5.418,-0l0,-19.136l-0.41,-3.673l4.462,-0l0.547,3.31c1.001,-2.585 3.232,-3.991 5.509,-3.991c1.366,0 2.641,0.318 3.642,0.907l-0.956,4.58c-1.002,-0.544 -2.049,-0.907 -3.233,-0.907c-2.458,0 -4.052,1.95 -4.143,4.58Z" style="fill:#f4f4f4;fill-rule:nonzero;"/><path d="M301.567,94.332l-5.418,-0l0,-22.809l5.418,-0l0,22.809Zm-5.873,-29.339c-0,-1.678 1.275,-3.038 3.142,-3.038c1.866,-0 3.141,1.36 3.141,3.038c0,1.723 -1.32,2.993 -3.141,2.993c-1.913,-0 -3.142,-1.27 -3.142,-2.993Z" style="fill:#f4f4f4;fill-rule:nonzero;"/><path d="M317.099,70.842c4.462,0 7.239,2.268 7.239,6.304c0,6.983 -8.696,7.89 -12.885,7.935c0.182,2.948 1.867,5.804 5.737,5.804c2.686,0 4.644,-1.224 5.737,-1.995l1.684,3.583c-0.728,0.634 -3.733,2.539 -8.013,2.539c-7.512,-0 -10.609,-4.807 -10.609,-11.609c0,-6.666 3.871,-12.561 11.11,-12.561Zm2.413,6.53c0,-1.678 -1.093,-2.675 -2.732,-2.675c-3.642,-0 -5.372,3.537 -5.509,6.892c2.459,0.046 8.241,-0.725 8.241,-4.217Z" style="fill:#f4f4f4;fill-rule:nonzero;"/><path d="M333.713,80.002l0,14.33l-5.418,-0l0,-19.136l-0.41,-3.673l4.462,-0l0.547,3.31c1.001,-2.585 3.232,-3.991 5.509,-3.991c1.366,0 2.641,0.318 3.642,0.907l-0.956,4.58c-1.001,-0.544 -2.049,-0.907 -3.232,-0.907c-2.459,0 -4.053,1.95 -4.144,4.58Z" style="fill:#f4f4f4;fill-rule:nonzero;"/><path d="M212.163,105.271l10.244,0c5.145,0 9.835,1.542 9.835,7.573c-0,2.993 -1.73,5.079 -4.189,6.349c3.415,0.861 5.737,3.219 5.737,7.21c-0,5.895 -4.098,9.024 -11.656,9.024l-9.971,-0l-0,-30.156Zm5.555,16.416l-0,9.477l4.279,0c4.462,0 5.919,-2.04 5.919,-4.807c0,-3.038 -2.094,-4.67 -5.691,-4.67l-4.507,-0Zm-0,-12.244l-0,8.208l3.369,0c3.915,0 5.509,-1.814 5.509,-4.217c-0,-3.265 -2.231,-3.991 -5.19,-3.991l-3.688,0Z" style="fill:#f4f4f4;fill-rule:nonzero;"/><path d="M243.765,121.097l-0,14.33l-5.419,-0l0,-19.136l-0.409,-3.673l4.462,-0l0.546,3.31c1.002,-2.585 3.233,-3.991 5.509,-3.991c1.366,0 2.641,0.318 3.643,0.907l-0.956,4.58c-1.002,-0.544 -2.049,-0.907 -3.233,-0.907c-2.459,0 -4.052,1.95 -4.143,4.58Z" style="fill:#f4f4f4;fill-rule:nonzero;"/><path d="M263.965,111.937c4.462,0 7.239,2.268 7.239,6.304c0,6.983 -8.696,7.89 -12.885,7.935c0.182,2.948 1.867,5.804 5.737,5.804c2.686,0 4.644,-1.224 5.737,-1.995l1.684,3.583c-0.728,0.634 -3.733,2.539 -8.013,2.539c-7.513,-0 -10.609,-4.807 -10.609,-11.609c0,-6.666 3.871,-12.561 11.11,-12.561Zm2.413,6.53c-0,-1.678 -1.093,-2.675 -2.732,-2.675c-3.642,-0 -5.372,3.537 -5.509,6.892c2.459,0.046 8.241,-0.725 8.241,-4.217Z" style="fill:#f4f4f4;fill-rule:nonzero;"/><path d="M293.83,113.525l0,17.548l0.41,4.354l-4.69,-0l-0.319,-2.404l-0.182,-0.045c-1.411,2.041 -3.733,3.038 -6.237,3.038c-6.42,0 -8.924,-4.534 -8.924,-11.019c-0,-7.981 4.006,-13.06 11.838,-13.06c1.502,0 4.826,0.363 8.104,1.588Zm-5.373,14.692l0,-11.745c-0.683,-0.317 -2.003,-0.589 -3.414,-0.589c-4.326,-0 -5.783,4.035 -5.783,8.933c0,3.763 0.911,7.346 4.735,7.346c2.823,-0 4.462,-1.995 4.462,-3.945Z" style="fill:#f4f4f4;fill-rule:nonzero;"/><path d="M304.898,103.911l0,22.628l0.228,-0l8.241,-13.921l5.691,-0l-6.192,10.157l6.01,12.652l-5.737,-0l-3.87,-8.163l-4.963,8.163l-4.735,-0l0,-31.516l5.327,0Z" style="fill:#f4f4f4;fill-rule:nonzero;"/></svg>
