<svg viewBox="0 0 450 200" xmlns="http://www.w3.org/2000/svg" fill-rule="evenodd" clip-rule="evenodd" stroke-linejoin="round" stroke-miterlimit="2"><g fill="#fff"><path d="M99.397 73.316c1.2 0 2.177.977 2.177 2.177v49.006a2.18 2.18 0 01-2.177 2.178H50.392a2.18 2.18 0 01-2.178-2.178V75.493c0-1.2.976-2.177 2.178-2.177h49.005zM69.593 94.938v29.218c12.908-3.773 11.482-4.907 11.482-4.907-.354-2.635-.341-4.398-.341-4.398v-21.13s.115-3.53-2.91-3.53c0 0-1.504-1.126-14.082 3.283 0 0-1.764.37-.884 2.388l6.735-.924zm5.314-19.105c1.586 0 2.941.588 4.067 1.741 1.119 1.156 1.686 2.578 1.686 4.259 0 1.623-.567 3.003-1.686 4.158-1.126 1.156-2.481 1.73-4.067 1.73-1.587 0-2.943-.574-4.06-1.73-1.127-1.155-1.686-2.535-1.686-4.158 0-1.681.56-3.103 1.685-4.259 1.118-1.153 2.474-1.741 4.061-1.741z"/><path d="M104.33 125.147a4.292 4.292 0 01-4.293 4.292H49.744a4.293 4.293 0 01-4.294-4.292V74.853a4.294 4.294 0 014.294-4.292h50.293a4.293 4.293 0 014.292 4.292v50.294zm-4.933-53.346H50.392a3.692 3.692 0 00-3.693 3.692v49.006a3.692 3.692 0 003.693 3.692h49.005a3.692 3.692 0 003.691-3.692V75.493a3.692 3.692 0 00-3.691-3.692z"/><path d="M345.62 86.201s.412-2.604 2.32-5.147c1.907-2.543 5.31-5.025 13.344-3.434 0 0-6.693 14.33-15.664 8.581zm13.662-8.111c.58-.126 1.18-.24 1.803-.337 0 0-.697.094-1.803.337a34.109 34.109 0 00-4.48 1.303c-3.368 1.243-7.185 3.336-8.983 6.73 0 0 3.558-5.703 12.96-7.92l.503-.113z" fill-opacity=".65" fill-rule="nonzero"/><path d="M344.568 86.694s-1.103-3.351.238-6.92c1.34-3.568 5.126-7.352 14.904-8.217 0 0-2.882 18.75-15.142 15.137zm13.206-14.038a36.815 36.815 0 011.763-.884s-.686.304-1.763.884a40.715 40.715 0 00-4.926 3.115c-3.46 2.562-7.153 6.252-8.082 10.763 0 0 2.15-7.65 12.044-13.344.347-.198.67-.377.964-.534zm-239.422 4.223h19.234v3.036h-1.482c-1.4 0-2.42.202-3.04.584a3.477 3.477 0 00-1.384 1.665c-.282.712-.43 2.104-.43 4.17v32.38c0 1.64.165 2.796.471 3.487.315.684.754 1.184 1.326 1.495.563.32 1.582.468 3.057.468h1.482v3.04h-19.234v-3.04h1.574c1.417 0 2.419-.157 3.007-.48a2.93 2.93 0 001.275-1.412c.266-.61.39-1.794.39-3.559v-33.1c0-1.887-.124-3.147-.39-3.801-.265-.642-.696-1.122-1.275-1.424-.588-.311-1.59-.473-3.007-.473h-1.574v-3.036zm23.135 20.688v-2.982c2.179-.24 3.802-.523 4.887-.87 1.068-.332 2.617-1.052 4.655-2.166h2.642v6.838c3.156-2.668 5.857-4.473 8.093-5.414 2.246-.952 4.507-1.424 6.809-1.424 1.963 0 3.703.33 5.21.981 1.508.663 2.735 1.565 3.679 2.688a8.903 8.903 0 011.896 3.86c.182.882.282 2.224.282 4.03v15.846c0 1.905.142 3.139.415 3.67.271.55.711.944 1.316 1.184.604.24 2.08.356 4.44.356v3.04h-18.596v-3.04h1.01c1.732 0 2.916-.148 3.555-.468a2.869 2.869 0 001.35-1.375c.281-.6.413-1.834.413-3.682v-13.26c0-2.743-.223-4.636-.663-5.7-.448-1.053-1.2-1.915-2.27-2.577-1.068-.65-2.426-.993-4.058-.993-1.946 0-4.017.505-6.238 1.508-2.202.993-4.34 2.468-6.402 4.41v16.612c0 1.88.141 3.132.414 3.753.273.63.713 1.1 1.35 1.416.43.24 1.574.356 3.446.356h1.035v3.04h-18.596v-3.04h.912c1.789 0 3.007-.137 3.662-.439.653-.311 1.117-.84 1.382-1.603.148-.393.216-1.714.216-3.963V97.567h-6.246zm48.366-5.135h6.246v-5.418c0-3.728 1.235-6.776 3.694-9.145 2.46-2.374 5.674-3.558 9.641-3.558 2.635 0 4.69.551 6.172 1.665 1.475 1.106 2.212 2.307 2.212 3.608 0 .866-.29 1.586-.887 2.178-.587.593-1.325.882-2.22.882-.786 0-1.474-.14-2.053-.418-.573-.294-1.475-1.014-2.668-2.178-1.275-1.201-2.494-1.806-3.645-1.806-.795 0-1.516.24-2.154.745-.637.49-1.126 1.21-1.474 2.162-.348.945-.522 2.42-.522 4.381v6.902h6.809v3.677h-6.809v23.416c0 1.591.116 2.668.365 3.19.232.538.587.92 1.069 1.13.48.22 1.59.319 3.338.319h1.474v3.04h-18.514v-3.04h1.119c1.905 0 3.106-.108 3.628-.356.514-.232.886-.634 1.127-1.168.223-.538.323-1.773.298-3.686V96.109h-6.246v-3.677zm41.797 2.638c-2.7 0-5.002 1.088-6.9 3.246-2.385 2.689-3.57 6.598-3.57 11.734 0 4.945 1.003 8.713 3.041 11.299 1.83 2.306 4.332 3.461 7.472 3.461 2.02 0 3.834-.542 5.409-1.615 1.59-1.085 2.874-2.808 3.851-5.177.977-2.364 1.466-5.144 1.466-8.334 0-3.121-.53-5.905-1.574-8.382-.811-1.971-2.03-3.503-3.669-4.596-1.632-1.086-3.47-1.636-5.526-1.636m.307-3.521c3.512 0 6.553.733 9.128 2.195 2.569 1.475 4.598 3.612 6.08 6.428 1.483 2.808 2.228 6.018 2.228 9.637 0 3.6-.76 6.809-2.278 9.626-1.523 2.816-3.594 4.961-6.212 6.436-2.618 1.482-5.74 2.229-9.376 2.229-5.791 0-10.139-1.814-13.038-5.46-2.917-3.627-4.365-7.885-4.365-12.802 0-3.59.753-6.759 2.26-9.546 1.508-2.775 3.62-4.92 6.329-6.457 2.718-1.525 5.808-2.286 9.244-2.286m47.066 17.944c-5.6.825-9.062 1.389-10.395 1.699-2.626.614-4.506 1.263-5.641 1.976-1.135.733-1.946 1.503-2.428 2.323a5.166 5.166 0 00-.729 2.65c0 .933.273 1.845.813 2.718.546.882 1.316 1.566 2.302 2.062a6.714 6.714 0 003.148.763c1.573 0 3.338-.368 5.317-1.111 1.98-.753 4.515-2.194 7.604-4.365l.01-8.715zm.033-3.121l-.074-3.935c0-2.668-.737-4.58-2.229-5.731-1.5-1.144-3.603-1.707-6.312-1.707-1.357 0-2.535.148-3.545.48-1.01.331-1.822.77-2.434 1.342a5.206 5.206 0 00-1.359 1.938c-.116.27-.406 1.292-.861 3.078-.564 2.165-1.675 3.25-3.364 3.25-.96 0-1.74-.314-2.32-.951-.603-.647-.894-1.51-.894-2.602 0-1.582.588-3.147 1.765-4.68 1.176-1.532 2.974-2.8 5.384-3.801 2.418-1.011 5.268-1.504 8.556-1.504 3.074 0 5.7.472 7.886 1.424 2.18.94 3.794 2.307 4.83 4.08.713 1.234 1.076 3.462 1.076 6.702v13.865c0 1.963.067 3.247.182 3.86.264 1.023.72 1.793 1.383 2.316.663.522 1.516.774 2.577.774 1.101 0 2.418-.252 3.959-.753v3.167c-1.997.583-3.786.875-5.36.875-1.706 0-3.13-.24-4.29-.722-1.16-.484-2.121-1.196-2.866-2.12-.746-.927-1.218-2.033-1.434-3.318-2.882 2.274-5.492 3.86-7.81 4.784-2.345.912-4.688 1.376-7.074 1.376-3.313 0-5.998-.904-8.068-2.708-2.062-1.798-3.098-3.92-3.098-6.338 0-1.466.381-2.858 1.143-4.183.754-1.326 1.914-2.493 3.462-3.487 1.565-1.016 4-1.905 7.332-2.676 3.33-.775 7.942-1.467 13.857-2.095m19.077-13.94h18.107v2.964h-1.26c-.72 0-1.382.083-1.978.253-.366.104-.663.281-.886.572-.233.28-.34.542-.34.782 0 .564.454 1.404 1.366 2.527l5.145 6.436 6.02-6.436c1.103-1.222 1.658-2.137 1.658-2.746 0-.444-.19-.783-.572-1.023-.389-.24-1.209-.365-2.485-.365h-1.358V92.43h15.357v2.965c-1.507.075-2.8.382-3.893.953-1.093.564-2.37 1.64-3.86 3.201l-8.317 8.574 10.247 11.761.397.502c1.02 1.291 2.154 2.344 3.413 3.14.705.46 1.79.7 3.272.721v2.956h-17.684v-2.956h1.523c1.153 0 1.88-.072 2.195-.22.531-.245.787-.663.787-1.248 0-.537-.572-1.524-1.723-2.956l-6.593-7.968-7.281 7.968-.72.854-.398.438c-.597.663-.895 1.259-.895 1.77 0 .467.181.81.554 1.038.374.215 1.202.324 2.503.324h1.433v2.956h-15.142v-2.956c1.176-.022 2.103-.141 2.766-.382.68-.231 1.326-.601 1.955-1.093 1.076-.87 1.856-1.567 2.336-2.088l10.628-10.897-9.037-10.258c-1.127-1.292-2.03-2.204-2.684-2.726-.671-.52-1.309-.894-1.931-1.093-.62-.211-1.498-.315-2.625-.315V92.43zm44.042 5.135v-2.982c2.005-.228 3.686-.56 5.044-.99 1.368-.43 2.917-1.115 4.656-2.046h2.642v28.929c0 1.001.15 1.756.43 2.266.291.492.696.862 1.21 1.093.523.219 1.467.328 2.833.328h1.706v3.04H342.25v-3.041h1.474c1.59 0 2.659-.137 3.206-.432.546-.29.936-.699 1.16-1.208.214-.542.33-1.777.33-3.718V97.567h-6.245zm48.142 11.926c-5.599.825-9.061 1.389-10.395 1.699-2.627.614-4.507 1.263-5.65 1.976-1.134.733-1.946 1.503-2.418 2.323a5.155 5.155 0 00-.729 2.65c0 .933.265 1.845.813 2.718.538.882 1.307 1.566 2.302 2.062a6.711 6.711 0 003.148.763c1.565 0 3.337-.368 5.317-1.111 1.979-.753 4.514-2.194 7.596-4.365l.016-8.715zm.025-3.121l-.066-3.935c0-2.668-.746-4.58-2.237-5.731-1.49-1.144-3.603-1.707-6.311-1.707-1.359 0-2.527.148-3.537.48-1.01.331-1.823.77-2.445 1.342a5.357 5.357 0 00-1.358 1.938c-.116.27-.405 1.292-.853 3.078-.555 2.165-1.673 3.25-3.362 3.25-.961 0-1.74-.314-2.328-.951-.597-.647-.886-1.51-.886-2.602 0-1.582.58-3.147 1.763-4.68 1.168-1.532 2.966-2.8 5.377-3.801 2.419-1.011 5.267-1.504 8.557-1.504 3.072 0 5.706.472 7.894 1.424 2.187.94 3.785 2.307 4.82 4.08.72 1.234 1.085 3.462 1.085 6.702v13.865c0 1.963.059 3.247.182 3.86.265 1.023.721 1.793 1.376 2.316.663.522 1.524.774 2.575.774 1.102 0 2.428-.252 3.96-.753v3.167c-1.988.583-3.777.875-5.351.875-1.706 0-3.14-.24-4.3-.722a7.078 7.078 0 01-2.856-2.12c-.754-.927-1.227-2.033-1.434-3.318-2.89 2.274-5.5 3.86-7.818 4.784-2.337.912-4.69 1.376-7.075 1.376-3.314 0-5.997-.904-8.068-2.708-2.054-1.798-3.09-3.92-3.09-6.338 0-1.466.374-2.858 1.135-4.183.763-1.326 1.914-2.493 3.47-3.487 1.566-1.016 4.002-1.905 7.323-2.676 3.33-.775 7.952-1.467 13.858-2.095" fill-rule="nonzero"/></g></svg>