<svg viewBox="0 0 450 200" xmlns="http://www.w3.org/2000/svg" fill-rule="evenodd" clip-rule="evenodd" stroke-linejoin="round" stroke-miterlimit="2"><path d="M363.33 131.58a3.538 3.538 0 01-3.508-3.508 3.527 3.527 0 013.508-3.354 3.525 3.525 0 013.509 3.354 3.517 3.517 0 01-3.509 3.508zm0-7.655a4.15 4.15 0 00-4.165 4.147c0 2.306 1.866 4.11 4.165 4.11 2.307 0 4.169-1.807 4.169-4.11a4.15 4.15 0 00-4.169-4.147zm-.786 3.836v-1.331h.769c.44 0 .933.133.933.64 0 .566-.549.691-1.024.691h-.678zm2.54-.678c0-.999-.856-1.37-1.733-1.37h-1.642v4.676h.835v-1.953h.605l1.097 1.956h1.024l-1.265-2.047c.664-.14 1.08-.584 1.08-1.255v-.007zm-26.23-59.278c.06.004.115.004.175.004 4.671 0 8.518-3.847 8.518-8.519 0-4.675-3.847-8.519-8.518-8.519h-.172c-4.605.095-8.347 3.91-8.347 8.519s3.742 8.424 8.347 8.515h-.003zm-22.852 7.355v12.495h15.8v43.929h14.1V87.655h15.804V75.16h-45.704zm-123.004-7.355H193c4.672 0 8.519-3.843 8.519-8.515 0-4.672-3.847-8.519-8.519-8.519h-.003c-4.606.095-8.348 3.91-8.348 8.519s3.742 8.424 8.348 8.515zm-22.856 19.847h15.804v43.932h14.096V87.655h15.807V75.16h-45.703v12.495l-.004-.003zm121.88 43.932h14.102V75.195h-14.099v56.389h-.003zm-28.526-25.375c0 7.52-4.235 15.27-13.16 15.27-9.046 0-10.573-8.337-10.573-15.035V75.195h-14.099v35.242c0 11.517 6.108 22.793 20.798 22.793 8.337 0 15.035-5.053 17.502-10.692h.234v9.046h13.393V75.195h-14.095v31.014zM142.168 73.55c-8.34 0-15.035 5.053-17.502 10.693h-.238v-9.047h-13.39v56.389h14.096V100.57c0-7.52 4.232-15.273 13.16-15.273 9.042 0 10.572 8.34 10.572 15.039v31.248h14.096v-35.25c0-11.509-6.104-22.788-20.794-22.788v.004zm-59.67 58.035h14.096V75.195H82.499v56.389z" fill="#fff"/></svg>