<svg viewBox="0 0 450 200" xmlns="http://www.w3.org/2000/svg" fill-rule="evenodd" clip-rule="evenodd" stroke-linejoin="round" stroke-miterlimit="2"><path d="M229.58,105.422c0,16.773 13.908,29.043 31.577,29.043c17.666,-0 31.59,-12.27 31.59,-29.043l0,-38.537l-17.107,-0l-0,36.55c-0,9.054 -6.278,15.151 -14.53,15.151c-8.25,0 -14.528,-6.066 -14.528,-15.151l-0,-36.55l-17.108,-0l0.106,38.537Zm108.878,-23.113l20.412,-0l0,50.882l17.108,-0l-0,-50.882l20.414,-0l0,-15.455l-57.934,0l0,15.455Zm-11.056,-15.455l-17.108,0l0,66.337l17.108,-0l-0,-66.337Zm-166.935,15.455l20.414,-0l0,50.882l17.108,-0l0,-50.882l20.398,-0l0,-15.455l-57.92,0l0,15.455Zm-89.751,-15.455l-17.108,0l-0,66.337l17.108,-0l-0,-66.337Zm80.744,27.709c0,-16.774 -13.907,-29.028 -31.591,-29.028c-17.685,0 -31.593,12.254 -31.593,29.028l0,38.628l17.108,-0l0,-36.55c0,-9.055 6.281,-15.151 14.53,-15.151c8.25,-0 14.528,6.066 14.528,15.151l0,36.55l17.108,-0l-0.106,-38.628l0.016,-0Z" style="fill:#fff;fill-rule:nonzero;"/></svg>
