<?xml version="1.0" encoding="UTF-8" standalone="no"?>
<!DOCTYPE svg PUBLIC "-//W3C//DTD SVG 1.1//EN" "http://www.w3.org/Graphics/SVG/1.1/DTD/svg11.dtd">
<svg width="100%" height="100%" viewBox="0 0 450 200" version="1.1" xmlns="http://www.w3.org/2000/svg" xmlns:xlink="http://www.w3.org/1999/xlink" xml:space="preserve" xmlns:serif="http://www.serif.com/" style="fill-rule:evenodd;clip-rule:evenodd;stroke-linejoin:round;stroke-miterlimit:2;">
    <g>
        <path d="M225,110.683c1.339,-0 2.614,-0.319 3.825,-1.02l13.963,-8.033c2.806,-1.594 6.057,-2.295 9.31,-1.913c16.958,1.977 28.818,5.164 32.324,6.184c0.701,0.192 1.53,-0.063 1.977,-0.637c0.574,-0.701 1.274,-1.849 1.848,-3.507c0.51,-1.593 0.574,-2.932 0.51,-3.888c-0.064,-0.765 -0.574,-1.467 -1.339,-1.658c-5.482,-1.594 -29.775,-8.16 -62.418,-8.16c-32.644,-0 -56.935,6.566 -62.419,8.16c-0.765,0.191 -1.275,0.893 -1.338,1.658c-0.064,0.892 -0,2.231 0.51,3.888c0.51,1.658 1.275,2.806 1.849,3.507c0.446,0.574 1.275,0.829 1.976,0.637c3.507,-1.02 15.429,-4.207 32.325,-6.184c3.252,-0.382 6.503,0.319 9.309,1.913l13.963,8.033c1.211,0.701 2.486,1.02 3.825,1.02Z" style="fill:#fff;fill-rule:nonzero;"/>
        <path d="M201.729,65.482c0.765,1.339 1.976,2.232 3.379,2.614c1.402,0.383 2.869,0.191 4.208,-0.574c1.339,-0.765 2.231,-1.976 2.614,-3.379c0.382,-1.402 0.191,-2.868 -0.574,-4.207l-12.56,-21.74c-0.383,-0.701 -1.212,-0.956 -1.977,-0.892c-1.02,0.063 -2.423,0.573 -4.08,1.53c-1.658,0.956 -2.806,1.912 -3.379,2.741c-0.447,0.638 -0.574,1.466 -0.192,2.168l12.561,21.739Z" style="fill:#fff;fill-rule:nonzero;"/>
        <path d="M190.252,81.038c1.339,0.765 2.869,0.892 4.208,0.574c1.403,-0.383 2.614,-1.275 3.379,-2.614c0.765,-1.339 0.893,-2.869 0.574,-4.208c-0.382,-1.402 -1.275,-2.614 -2.614,-3.379l-21.741,-12.559c-0.701,-0.382 -1.53,-0.255 -2.168,0.191c-0.829,0.574 -1.785,1.722 -2.741,3.379c-0.957,1.658 -1.467,3.06 -1.531,4.08c-0.063,0.829 0.255,1.594 0.893,1.977l21.741,12.559Z" style="fill:#fff;fill-rule:nonzero;"/>
        <path d="M230.547,57.768c-0,1.53 -0.638,2.933 -1.594,3.953c-1.02,1.02 -2.359,1.594 -3.953,1.594c-1.594,-0 -2.933,-0.638 -3.953,-1.594c-1.02,-1.02 -1.594,-2.359 -1.594,-3.953l0,-25.055c0,-0.828 0.51,-1.466 1.275,-1.785c0.893,-0.446 2.359,-0.701 4.272,-0.701c1.913,0 3.379,0.255 4.272,0.701c0.701,0.383 1.275,0.957 1.275,1.785l-0,25.055Z" style="fill:#fff;fill-rule:nonzero;"/>
        <path d="M248.271,65.482c-0.765,1.339 -1.976,2.232 -3.379,2.614c-1.403,0.383 -2.868,0.191 -4.208,-0.574c-1.339,-0.765 -2.231,-1.976 -2.614,-3.379c-0.382,-1.402 -0.191,-2.868 0.574,-4.207l12.561,-21.74c0.382,-0.701 1.211,-0.956 1.975,-0.892c1.021,0.063 2.424,0.573 4.082,1.53c1.657,0.956 2.805,1.912 3.379,2.741c0.446,0.638 0.574,1.466 0.191,2.168l-12.561,21.739Z" style="fill:#fff;fill-rule:nonzero;"/>
        <path d="M259.748,81.038c-1.34,0.765 -2.869,0.892 -4.208,0.574c-1.403,-0.383 -2.615,-1.275 -3.379,-2.614c-0.765,-1.339 -0.893,-2.869 -0.574,-4.208c0.383,-1.402 1.274,-2.614 2.614,-3.379l21.741,-12.559c0.702,-0.382 1.53,-0.255 2.167,0.191c0.829,0.574 1.786,1.722 2.743,3.379c0.956,1.658 1.467,3.06 1.529,4.08c0.064,0.829 -0.254,1.594 -0.891,1.977l-21.742,12.559Z" style="fill:#fff;fill-rule:nonzero;"/>
        <path d="M139.841,129.524l6.973,0c0.255,0 0.468,0.17 0.596,0.383l6.93,17.765l6.718,-17.765c0.085,-0.255 0.34,-0.383 0.595,-0.383l6.845,0c0.468,0 0.765,0.468 0.553,0.85l-17.007,39.016c-0.085,0.213 -0.34,0.383 -0.553,0.383l-6.037,-0c-0.425,-0 -0.766,-0.468 -0.553,-0.85l5.825,-13.643l-11.395,-24.906c-0.255,-0.382 0.043,-0.85 0.51,-0.85Z" style="fill:#fff;fill-rule:nonzero;"/>
        <path d="M242.776,133.477l0,-3.315c0,-0.34 0.297,-0.638 0.638,-0.638l6.164,0c0.342,0 0.638,0.298 0.638,0.638l0,26.478c0,0.34 -0.296,0.638 -0.638,0.638l-6.164,-0c-0.341,-0 -0.638,-0.298 -0.638,-0.638l0,-3.485c-1.318,2.04 -4.209,4.718 -8.929,4.718c-9.013,-0 -13.69,-6.886 -13.69,-14.578c-0,-10.031 6.973,-14.323 13.478,-14.323c4.294,-0.043 7.27,1.997 9.141,4.505Zm-15.179,9.86c0,4.76 2.934,8.415 7.654,8.415c4.719,0 7.738,-3.187 7.738,-8.075c-0,-4.887 -2.934,-8.627 -7.951,-8.627c-4.72,-0 -7.441,3.655 -7.441,8.287Z" style="fill:#fff;fill-rule:nonzero;"/>
        <path d="M255.787,156.64l0,-26.478c0,-0.34 0.297,-0.638 0.638,-0.638l6.164,0c0.34,0 0.638,0.298 0.638,0.638l-0,3.612c1.446,-2.507 4.166,-4.802 8.801,-4.802c4.763,-0 10.077,2.337 10.077,13.09l0,14.578c0,0.34 -0.298,0.638 -0.638,0.638l-6.165,-0c-0.34,-0 -0.638,-0.298 -0.638,-0.638l-0,-14.45c-0,-2.593 -0.638,-7.055 -5.23,-7.055c-4.592,-0 -6.207,4.037 -6.207,7.777l-0,13.728c-0,0.34 -0.298,0.638 -0.638,0.638l-6.164,-0c-0.383,-0.043 -0.638,-0.298 -0.638,-0.638Z" style="fill:#fff;fill-rule:nonzero;"/>
        <path d="M287.376,156.64l0,-26.478c0,-0.34 0.298,-0.638 0.638,-0.638l6.166,0c0.339,0 0.638,0.298 0.638,0.638l-0,3.612c1.446,-2.507 4.166,-4.802 8.801,-4.802c4.761,-0 10.077,2.337 10.077,13.09l-0,14.578c-0,0.34 -0.298,0.638 -0.638,0.638l-6.166,-0c-0.339,-0 -0.638,-0.298 -0.638,-0.638l0,-14.45c0,-2.593 -0.637,-7.055 -5.229,-7.055c-4.592,-0 -6.207,4.037 -6.207,7.777l-0,13.728c-0,0.34 -0.299,0.638 -0.638,0.638l-6.166,-0c-0.34,-0.043 -0.638,-0.298 -0.638,-0.638Z" style="fill:#fff;fill-rule:nonzero;"/>
        <path d="M352.131,129.524l5.994,0c0.341,0 0.638,0.298 0.638,0.638l-0,5.482c1.191,-5.44 5.867,-7.31 9.27,-6.502c0.296,0.042 0.467,0.297 0.467,0.595l-0,6.035c-0,0.383 -0.34,0.68 -0.765,0.595c-6.294,-1.232 -8.845,2.168 -8.845,6.928l0,13.345c0,0.34 -0.296,0.638 -0.637,0.638l-6.165,-0c-0.339,-0 -0.637,-0.298 -0.637,-0.638l-0,-26.478c0.043,-0.34 0.339,-0.638 0.68,-0.638Z" style="fill:#fff;fill-rule:nonzero;"/>
        <path d="M98.982,135.559c-1.913,-0.637 -2.934,-1.02 -4.464,-1.53c-1.573,-0.552 -4.252,-2.082 -4.252,-4.547c0,-2.465 1.701,-4.038 5.145,-4.038c3.146,0 4.889,1.53 6.037,3.995c0.17,0.34 0.553,0.468 0.893,0.298l5.06,-2.933c0.255,-0.17 0.382,-0.51 0.255,-0.807c-1.531,-3.358 -5.102,-7.395 -12.16,-7.395c-7.866,-0 -12.798,4.675 -12.798,10.837c0,6.12 4.039,9.308 9.524,11.178c1.998,0.68 2.806,0.978 4.507,1.53c3.231,1.105 4.719,2.55 4.719,4.548c0,1.997 -1.275,4.377 -6.292,4.377c-4.592,0 -6.208,-2.422 -7.143,-4.717c-0.128,-0.34 -0.553,-0.51 -0.893,-0.298l-5.315,3.06c-0.255,0.17 -0.383,0.468 -0.255,0.765c2.041,5.016 7.611,7.991 13.861,7.991c7.355,-0 13.563,-3.74 13.563,-11.306c-0,-7.565 -8.079,-10.37 -9.992,-11.008Z" style="fill:#fff;fill-rule:nonzero;"/>
        <path d="M139.586,150.01c-0.17,-0.298 -0.595,-0.425 -0.893,-0.213c-2.381,1.743 -5.187,1.785 -7.313,-1.487c-1.785,-2.763 -3.954,-6.163 -3.954,-6.163l9.354,-11.603c0.34,-0.425 0.043,-1.02 -0.468,-1.02l-7.313,0c-0.212,0 -0.382,0.085 -0.51,0.255l-8.078,11.093l-0,-22.313c-0,-0.34 -0.298,-0.637 -0.638,-0.637l-6.165,-0c-0.34,-0 -0.638,0.297 -0.638,0.637l0,38.081c0,0.34 0.298,0.638 0.638,0.638l6.208,-0c0.34,-0 0.637,-0.298 0.637,-0.638l0,-12.368c0,0 4.125,6.503 5.698,8.926c2.126,3.315 5.102,4.675 8.333,4.675c3.062,-0 5.017,-0.808 7.356,-3.103c0.212,-0.213 0.255,-0.51 0.127,-0.765l-2.381,-3.995Z" style="fill:#fff;fill-rule:nonzero;"/>
        <path d="M183.847,141.255c-1.956,-0.723 -2.636,-0.978 -4.124,-1.53c-1.488,-0.553 -2.807,-1.36 -2.807,-2.551c0,-1.189 1.106,-2.507 3.36,-2.507c1.955,0 3.146,0.765 3.826,2.125c0.17,0.34 0.553,0.425 0.85,0.255l4.337,-2.508c0.298,-0.169 0.383,-0.552 0.213,-0.85c-1.191,-2.082 -3.529,-4.717 -9.184,-4.717c-6.93,-0 -10.502,3.995 -10.502,8.415c0,4.42 3.614,6.503 6.931,7.82c3.741,1.53 3.996,1.615 4.464,1.785c1.148,0.468 2.551,1.19 2.551,2.508c-0,1.317 -1.531,2.507 -3.869,2.507c-2.169,0 -4.635,-0.892 -5.655,-3.4c-0.128,-0.34 -0.553,-0.51 -0.893,-0.297l-4.379,2.507c-0.255,0.17 -0.383,0.468 -0.255,0.765c1.275,3.316 5.059,6.248 11.182,6.248c6.633,0 11.054,-3.528 11.054,-8.5c0,-4.973 -3.401,-6.715 -7.1,-8.075Z" style="fill:#fff;fill-rule:nonzero;"/>
        <path d="M208.762,135.559c2.764,0 4.805,0.85 6.718,2.211c0.297,0.212 0.723,0.127 0.893,-0.17l2.551,-4.421c0.17,-0.297 0.085,-0.637 -0.213,-0.807c-2.636,-1.785 -5.91,-3.443 -10.331,-3.443c-4.38,0 -8.419,1.19 -11.31,4.123c-2.891,2.89 -4.209,6.333 -4.209,10.413c-0,4.93 2.04,8.075 4.251,10.285c2.211,2.21 6.208,4.08 11.31,4.08c4.592,0 7.993,-1.913 10.332,-3.443c0.255,-0.17 0.34,-0.552 0.17,-0.807l-2.509,-4.378c-0.17,-0.297 -0.595,-0.425 -0.893,-0.212c-1.658,1.19 -4.039,2.21 -6.717,2.21c-3.019,-0 -8.504,-1.7 -8.504,-7.82c0,-6.12 5.442,-7.821 8.461,-7.821Z" style="fill:#fff;fill-rule:nonzero;"/>
        <path d="M333.848,151.71c-2.465,-0 -4.804,-0.595 -6.505,-1.955c-1.7,-1.36 -2.508,-2.763 -2.508,-4.42l22.024,-0c0.339,-0 0.637,-0.298 0.637,-0.638c-0.127,-6.545 -2.253,-9.605 -4.293,-11.688c-2.127,-2.125 -5.74,-4.08 -10.503,-4.08c-4.761,0 -8.419,1.743 -10.927,4.208c-2.466,2.465 -4.337,5.61 -4.337,10.37c0,4.76 1.914,7.905 4.253,10.243c2.337,2.338 6.164,4.08 11.649,4.08c5.186,0 9.566,-1.828 12.712,-5.44c0.255,-0.298 0.171,-0.765 -0.169,-0.935l-4.38,-2.55c-0.212,-0.128 -0.51,-0.128 -0.722,0.085c-2.168,2.04 -4.932,2.72 -6.931,2.72Zm-1.19,-16.831c3.529,0 6.759,2.126 7.27,5.951l-14.838,-0c0.977,-4.123 4.038,-5.951 7.568,-5.951Z" style="fill:#fff;fill-rule:nonzero;"/>
    </g>
</svg>
